<?xml version="1.0" encoding="UTF-8" standalone="no"?>
<svg xmlns="http://www.w3.org/2000/svg" version="1.1" width="439.00" height="93.99" viewBox="0 0 439.00 93.99">
  <g transform="translate(140.000,46.993)">
    <path d="M -140.000,0.000 L 299.000,0.000" style="fill:none;stroke:#aaaaaa;stroke-width:0.5px;opacity:1.0;stroke-dasharray:6,3"/>
    <path d="M 0.00000,0.00000 C 0.00000,-0.00229 -0.00000,0.00229 0.00000,-0.00688 C 0.00000,-0.01605 -0.00000,-0.00917 0.00000,-0.02751 C 0.00001,-0.04584 0.00000,-0.03438 0.00002,-0.06189 C 0.00005,-0.08940 0.00002,-0.07335 0.00008,-0.11002 C 0.00013,-0.14670 0.00008,-0.12607 0.00019,-0.17191 C 0.00030,-0.21775 0.00021,-0.19254 0.00040,-0.24754 C 0.00058,-0.30255 0.00045,-0.27276 0.00073,-0.33692 C 0.00102,-0.40109 0.00083,-0.36672 0.00125,-0.44005 C 0.00167,-0.51338 0.00140,-0.47442 0.00200,-0.55691 C 0.00260,-0.63940 0.00223,-0.59587 0.00305,-0.68752 C 0.00387,-0.77916 0.00337,-0.73105 0.00446,-0.83185 C 0.00555,-0.93265 0.00490,-0.87996 0.00632,-0.98991 C 0.00773,-1.09986 0.00691,-1.04260 0.00870,-1.16170 C 0.01049,-1.28079 0.00946,-1.21896 0.01170,-1.34720 C 0.01394,-1.47543 0.01266,-1.40903 0.01541,-1.54640 C 0.01816,-1.68378 0.01661,-1.61281 0.01995,-1.75931 C 0.02328,-1.90582 0.02142,-1.83029 0.02542,-1.98592 C 0.02941,-2.14154 0.02720,-2.06145 0.03194,-2.22620 C 0.03668,-2.39094 0.03407,-2.30630 0.03964,-2.48015 C 0.04520,-2.65401 0.04215,-2.56481 0.04864,-2.74777 C 0.05514,-2.93072 0.05160,-2.83698 0.05911,-3.02903 C 0.06661,-3.22108 0.06254,-3.12278 0.07116,-3.32392 C 0.07979,-3.52505 0.07513,-3.42222 0.08497,-3.63242 C 0.09482,-3.84262 0.08952,-3.73526 0.10069,-3.95453 C 0.11186,-4.17379 0.10588,-4.06190 0.11849,-4.29021 C 0.13110,-4.51851 0.12436,-4.40211 0.13853,-4.63945 C 0.15270,-4.87679 0.14515,-4.75587 0.16100,-5.00222 C 0.17685,-5.24858 0.16843,-5.12316 0.18608,-5.37851 C 0.20373,-5.63386 0.19437,-5.50395 0.21395,-5.76828 C 0.23354,-6.03261 0.22318,-5.89821 0.24482,-6.17150 C 0.26647,-6.44480 0.25504,-6.30592 0.27888,-6.58816 C 0.30272,-6.87039 0.29017,-6.72705 0.31634,-7.01820 C 0.34251,-7.30935 0.32876,-7.16156 0.35740,-7.46160 C 0.38605,-7.76164 0.37102,-7.60941 0.40228,-7.91832 C 0.43354,-8.22723 0.41717,-8.07057 0.45119,-8.38832 C 0.48522,-8.70607 0.46742,-8.54500 0.50436,-8.87156 C 0.54129,-9.19811 0.52201,-9.03265 0.56200,-9.36798 C 0.60200,-9.70332 0.58114,-9.53348 0.62434,-9.87756 C 0.66755,-10.22163 0.64505,-10.04743 0.69162,-10.40022 C 0.73819,-10.75301 0.71397,-10.57446 0.76405,-10.93592 C 0.81414,-11.29738 0.78812,-11.11451 0.84187,-11.48460 C 0.89563,-11.85470 0.86774,-11.66752 0.92531,-12.04621 C 0.98289,-12.42490 0.95305,-12.23343 1.01461,-12.62068 C 1.07617,-13.00792 1.04430,-12.81219 1.10999,-13.20794 C 1.17568,-13.60369 1.14170,-13.40372 1.21168,-13.80793 C 1.28165,-14.21214 1.24550,-14.00795 1.31991,-14.42058 C 1.39433,-14.83320 1.35592,-14.62482 1.43492,-15.04581 C 1.51392,-15.46680 1.47318,-15.25424 1.55692,-15.68355 C 1.64066,-16.11285 1.59751,-15.89615 1.68614,-16.33371 C 1.77476,-16.77127 1.72914,-16.55046 1.82279,-16.99623 C 1.91644,-17.44199 1.86827,-17.21709 1.96710,-17.67101 C 2.06592,-18.12492 2.01513,-17.89596 2.11926,-18.35796 C 2.22339,-18.81997 2.16992,-18.58698 2.27949,-19.05701 C 2.38907,-19.52704 2.33284,-19.29006 2.44799,-19.76806 C 2.56314,-20.24606 2.50409,-20.00511 2.62494,-20.49101 C 2.74579,-20.97692 2.68386,-20.73203 2.81054,-21.22578 C 2.93722,-21.71954 2.87235,-21.47074 3.00497,-21.97227 C 3.13758,-22.47381 3.06972,-22.22114 3.20839,-22.73039 C 3.34706,-23.23964 3.27615,-22.98312 3.42098,-23.50003 C 3.56582,-24.01693 3.49180,-23.75660 3.64290,-24.28109 C 3.79400,-24.80558 3.71682,-24.54148 3.87429,-25.07348 C 4.03175,-25.60549 3.95137,-25.33765 4.11529,-25.87711 C 4.27921,-26.41657 4.19558,-26.14501 4.36604,-26.69186 C 4.53650,-27.23870 4.44959,-26.96348 4.62666,-27.51764 C 4.80374,-28.07180 4.71350,-27.79293 4.89728,-28.35435 C 5.08105,-28.91576 4.98745,-28.63328 5.17798,-29.20189 C 5.36852,-29.77049 5.27152,-29.48443 5.46888,-30.06016 C 5.66624,-30.63588 2.88349,-30.64579 5.77006,-30.92906 C 8.65664,-31.21234 11.23878,-31.20522 14.12860,-30.90998 C 17.01842,-30.61475 14.23592,-30.61764 14.43953,-30.04335 C 14.64314,-29.46906 14.54313,-29.75443 14.73943,-29.18712 C 14.93572,-28.61981 14.83935,-28.90167 15.02842,-28.34141 C 15.21749,-27.78115 15.12470,-28.05947 15.30665,-27.50634 C 15.48859,-26.95321 15.39934,-27.22795 15.57425,-26.68202 C 15.74916,-26.13610 15.66339,-26.40721 15.83138,-25.86857 C 15.99937,-25.32993 15.91704,-25.59738 16.07821,-25.06610 C 16.23938,-24.53481 16.16042,-24.79857 16.31489,-24.27472 C 16.46936,-23.75087 16.39373,-24.01089 16.54161,-23.49455 C 16.68950,-22.97821 16.61713,-23.23446 16.75856,-22.72570 C 16.89999,-22.21694 16.83081,-22.46938 16.96591,-21.96827 C 17.10102,-21.46717 17.03496,-21.71576 17.16388,-21.22238 C 17.29279,-20.72900 17.22980,-20.97372 17.35265,-20.48813 C 17.47551,-20.00255 17.41551,-20.24335 17.53245,-19.76563 C 17.64939,-19.28791 17.59231,-19.52476 17.70348,-19.05497 C 17.81466,-18.58518 17.76042,-18.81805 17.86597,-18.35625 C 17.97152,-17.89446 17.92006,-18.12332 18.02014,-17.66958 C 18.12022,-17.21584 18.07145,-17.44066 18.16621,-16.99504 C 18.26097,-16.54943 18.21482,-16.77017 18.30442,-16.33274 C 18.39402,-15.89530 18.35041,-16.11194 18.43501,-15.68274 C 18.51960,-15.25355 18.47846,-15.46605 18.55820,-15.04515 C 18.63795,-14.62425 18.59919,-14.83259 18.67425,-14.42004 C 18.74931,-14.00749 18.71285,-14.21165 18.78339,-13.80750 C 18.85393,-13.40335 18.81969,-13.60329 18.88587,-13.20759 C 18.95204,-12.81189 18.91994,-13.00760 18.98192,-12.62040 C 19.04389,-12.23320 19.01386,-12.42464 19.07179,-12.04599 C 19.12973,-11.66733 19.10167,-11.85450 19.15573,-11.48443 C 19.20979,-11.11436 19.18363,-11.29722 19.23397,-10.93578 C 19.28431,-10.57434 19.25997,-10.75288 19.30676,-10.40011 C 19.35354,-10.04734 19.33094,-10.22153 19.37433,-9.87747 C 19.41772,-9.53341 19.39677,-9.70324 19.43692,-9.36792 C 19.47707,-9.03260 19.45771,-9.19805 19.49477,-8.87151 C 19.53184,-8.54496 19.51398,-8.70602 19.54811,-8.38828 C 19.58224,-8.07054 19.56582,-8.22719 19.59717,-7.91829 C 19.62852,-7.60939 19.61344,-7.76162 19.64216,-7.46158 C 19.67088,-7.16154 19.65709,-7.30933 19.68332,-7.01818 C 19.70955,-6.72704 19.69696,-6.87037 19.72085,-6.58814 C 19.74473,-6.30591 19.73329,-6.44479 19.75497,-6.17150 C 19.77665,-5.89821 19.76628,-6.03260 19.78589,-5.76827 C 19.80550,-5.50394 19.79613,-5.63385 19.81380,-5.37850 C 19.83148,-5.12315 19.82304,-5.24857 19.83891,-5.00222 C 19.85478,-4.75587 19.84722,-4.87678 19.86140,-4.63944 C 19.87559,-4.40211 19.86884,-4.51851 19.88146,-4.29021 C 19.89409,-4.06190 19.88809,-4.17379 19.89927,-3.95452 C 19.91045,-3.73526 19.90515,-3.84262 19.91500,-3.63242 C 19.92485,-3.42222 19.92019,-3.52505 19.92882,-3.32392 C 19.93745,-3.12278 19.93337,-3.22108 19.94088,-3.02903 C 19.94839,-2.83698 19.94485,-2.93072 19.95135,-2.74777 C 19.95784,-2.56481 19.95479,-2.65401 19.96036,-2.48015 C 19.96593,-2.30630 19.96332,-2.39094 19.96806,-2.22620 C 19.97280,-2.06145 19.97058,-2.14154 19.97458,-1.98591 C 19.97858,-1.83029 19.97672,-1.90582 19.98005,-1.75931 C 19.98338,-1.61281 19.98184,-1.68378 19.98459,-1.54640 C 19.98734,-1.40903 19.98606,-1.47543 19.98830,-1.34720 C 19.99054,-1.21896 19.98951,-1.28079 19.99130,-1.16170 C 19.99309,-1.04260 19.99227,-1.09986 19.99368,-0.98991 C 19.99510,-0.87996 19.99445,-0.93265 19.99554,-0.83185 C 19.99663,-0.73105 19.99613,-0.77916 19.99695,-0.68752 C 19.99777,-0.59587 19.99740,-0.63940 19.99800,-0.55691 C 19.99860,-0.47442 19.99833,-0.51338 19.99875,-0.44005 C 19.99917,-0.36672 19.99898,-0.40109 19.99927,-0.33692 C 19.99955,-0.27276 19.99942,-0.30255 19.99960,-0.24754 C 19.99979,-0.19254 19.99970,-0.21775 19.99981,-0.17191 C 19.99992,-0.12607 19.99987,-0.14670 19.99992,-0.11002 C 19.99998,-0.07335 19.99995,-0.08940 19.99998,-0.06189 C 20.00000,-0.03438 19.99999,-0.04584 20.00000,-0.02751 C 20.00000,-0.00917 20.00000,-0.01605 20.00000,-0.00688 C 20.00000,0.00229 20.00000,-0.00458 20.00000,-0.00000 C 20.00000,0.00458 20.00000,-0.00229 20.00000,0.00688 C 20.00000,0.01605 20.00000,0.00917 20.00000,0.02751 C 19.99999,0.04584 20.00000,0.03438 19.99998,0.06189 C 19.99995,0.08940 19.99998,0.07335 19.99992,0.11002 C 19.99987,0.14670 19.99992,0.12607 19.99981,0.17191 C 19.99970,0.21775 19.99979,0.19254 19.99960,0.24754 C 19.99942,0.30255 19.99955,0.27276 19.99927,0.33692 C 19.99898,0.40109 19.99917,0.36672 19.99875,0.44005 C 19.99833,0.51338 19.99860,0.47442 19.99800,0.55691 C 19.99740,0.63940 19.99777,0.59587 19.99695,0.68752 C 19.99613,0.77916 19.99663,0.73105 19.99554,0.83185 C 19.99445,0.93265 19.99510,0.87996 19.99368,0.98991 C 19.99227,1.09986 19.99309,1.04260 19.99130,1.16170 C 19.98951,1.28079 19.99054,1.21896 19.98830,1.34720 C 19.98606,1.47543 19.98734,1.40903 19.98459,1.54640 C 19.98184,1.68378 19.98338,1.61281 19.98005,1.75931 C 19.97672,1.90582 19.97858,1.83029 19.97458,1.98591 C 19.97058,2.14154 19.97280,2.06145 19.96806,2.22620 C 19.96332,2.39094 19.96593,2.30630 19.96036,2.48015 C 19.95479,2.65401 19.95784,2.56481 19.95135,2.74777 C 19.94485,2.93072 19.94839,2.83698 19.94088,3.02903 C 19.93337,3.22108 19.93745,3.12278 19.92882,3.32392 C 19.92019,3.52505 19.92485,3.42222 19.91500,3.63242 C 19.90515,3.84262 19.91045,3.73526 19.89927,3.95452 C 19.88809,4.17379 19.89409,4.06190 19.88146,4.29021 C 19.86884,4.51851 19.87559,4.40211 19.86140,4.63944 C 19.84722,4.87678 19.85478,4.75587 19.83891,5.00222 C 19.82304,5.24857 19.83148,5.12315 19.81380,5.37850 C 19.79613,5.63385 19.80550,5.50394 19.78589,5.76827 C 19.76628,6.03260 19.77665,5.89821 19.75497,6.17150 C 19.73329,6.44479 19.74473,6.30591 19.72085,6.58814 C 19.69696,6.87037 19.70955,6.72704 19.68332,7.01818 C 19.65709,7.30933 19.67088,7.16154 19.64216,7.46158 C 19.61344,7.76162 19.62852,7.60939 19.59717,7.91829 C 19.56582,8.22719 19.58224,8.07054 19.54811,8.38828 C 19.51398,8.70602 19.53184,8.54496 19.49477,8.87151 C 19.45771,9.19805 19.47707,9.03260 19.43692,9.36792 C 19.39677,9.70324 19.41772,9.53341 19.37433,9.87747 C 19.33094,10.22153 19.35354,10.04734 19.30676,10.40011 C 19.25997,10.75288 19.28431,10.57434 19.23397,10.93578 C 19.18363,11.29722 19.20979,11.11436 19.15573,11.48443 C 19.10167,11.85450 19.12973,11.66733 19.07179,12.04599 C 19.01386,12.42464 19.04389,12.23320 18.98192,12.62040 C 18.91994,13.00760 18.95204,12.81189 18.88587,13.20759 C 18.81969,13.60329 18.85393,13.40335 18.78339,13.80750 C 18.71285,14.21165 18.74931,14.00749 18.67425,14.42004 C 18.59919,14.83259 18.63795,14.62425 18.55820,15.04515 C 18.47846,15.46605 18.51960,15.25355 18.43501,15.68274 C 18.35041,16.11194 18.39402,15.89530 18.30442,16.33274 C 18.21482,16.77017 18.26097,16.54943 18.16621,16.99504 C 18.07145,17.44066 18.12022,17.21584 18.02014,17.66958 C 17.92006,18.12332 17.97152,17.89446 17.86597,18.35625 C 17.76042,18.81805 17.81466,18.58518 17.70348,19.05497 C 17.59231,19.52476 17.64939,19.28791 17.53245,19.76563 C 17.41551,20.24335 17.47551,20.00255 17.35265,20.48813 C 17.22980,20.97372 17.29279,20.72900 17.16388,21.22238 C 17.03496,21.71576 17.10102,21.46717 16.96591,21.96827 C 16.83081,22.46938 16.89999,22.21694 16.75856,22.72570 C 16.61713,23.23446 16.68950,22.97821 16.54161,23.49455 C 16.39373,24.01089 16.46936,23.75087 16.31489,24.27472 C 16.16042,24.79857 16.23938,24.53481 16.07821,25.06610 C 15.91704,25.59738 15.99937,25.32993 15.83138,25.86857 C 15.66339,26.40721 15.74916,26.13610 15.57425,26.68202 C 15.39934,27.22795 15.48859,26.95321 15.30665,27.50634 C 15.12470,28.05947 15.21749,27.78115 15.02842,28.34141 C 14.83935,28.90167 14.93572,28.61981 14.73943,29.18712 C 14.54313,29.75443 14.64314,29.46906 14.43953,30.04335 C 14.23592,30.61764 17.01842,30.61475 14.12860,30.90998 C 11.23878,31.20522 8.65664,31.21234 5.77006,30.92906 C 2.88349,30.64579 5.66624,30.63588 5.46888,30.06016 C 5.27152,29.48443 5.36852,29.77049 5.17798,29.20189 C 4.98745,28.63328 5.08105,28.91576 4.89728,28.35435 C 4.71350,27.79293 4.80374,28.07180 4.62666,27.51764 C 4.44959,26.96348 4.53650,27.23870 4.36604,26.69186 C 4.19558,26.14501 4.27921,26.41657 4.11529,25.87711 C 3.95137,25.33765 4.03175,25.60549 3.87429,25.07348 C 3.71682,24.54148 3.79400,24.80558 3.64290,24.28109 C 3.49180,23.75660 3.56582,24.01693 3.42098,23.50003 C 3.27615,22.98312 3.34706,23.23964 3.20839,22.73039 C 3.06972,22.22114 3.13758,22.47381 3.00497,21.97227 C 2.87235,21.47074 2.93722,21.71954 2.81054,21.22578 C 2.68386,20.73203 2.74579,20.97692 2.62494,20.49101 C 2.50409,20.00511 2.56314,20.24606 2.44799,19.76806 C 2.33284,19.29006 2.38907,19.52704 2.27949,19.05701 C 2.16992,18.58698 2.22339,18.81997 2.11926,18.35796 C 2.01513,17.89596 2.06592,18.12492 1.96710,17.67101 C 1.86827,17.21709 1.91644,17.44199 1.82279,16.99623 C 1.72914,16.55046 1.77476,16.77127 1.68614,16.33371 C 1.59751,15.89615 1.64066,16.11285 1.55692,15.68355 C 1.47318,15.25424 1.51392,15.46680 1.43492,15.04581 C 1.35592,14.62482 1.39433,14.83320 1.31991,14.42058 C 1.24550,14.00795 1.28165,14.21214 1.21168,13.80793 C 1.14170,13.40372 1.17568,13.60369 1.10999,13.20794 C 1.04430,12.81219 1.07617,13.00792 1.01461,12.62068 C 0.95305,12.23343 0.98289,12.42490 0.92531,12.04621 C 0.86774,11.66752 0.89563,11.85470 0.84187,11.48460 C 0.78812,11.11451 0.81414,11.29738 0.76405,10.93592 C 0.71397,10.57446 0.73819,10.75301 0.69162,10.40022 C 0.64505,10.04743 0.66755,10.22163 0.62434,9.87756 C 0.58114,9.53348 0.60200,9.70332 0.56200,9.36798 C 0.52201,9.03265 0.54129,9.19811 0.50436,8.87156 C 0.46742,8.54500 0.48522,8.70607 0.45119,8.38832 C 0.41717,8.07057 0.43354,8.22723 0.40228,7.91832 C 0.37102,7.60941 0.38605,7.76164 0.35740,7.46160 C 0.32876,7.16156 0.34251,7.30935 0.31634,7.01820 C 0.29017,6.72705 0.30272,6.87039 0.27888,6.58816 C 0.25504,6.30592 0.26647,6.44480 0.24482,6.17150 C 0.22318,5.89821 0.23354,6.03261 0.21395,5.76828 C 0.19437,5.50395 0.20373,5.63386 0.18608,5.37851 C 0.16843,5.12316 0.17685,5.24858 0.16100,5.00222 C 0.14515,4.75587 0.15270,4.87679 0.13853,4.63945 C 0.12436,4.40211 0.13110,4.51851 0.11849,4.29021 C 0.10588,4.06190 0.11186,4.17379 0.10069,3.95453 C 0.08952,3.73526 0.09482,3.84262 0.08497,3.63242 C 0.07513,3.42222 0.07979,3.52505 0.07116,3.32392 C 0.06254,3.12278 0.06661,3.22108 0.05911,3.02903 C 0.05160,2.83698 0.05514,2.93072 0.04864,2.74777 C 0.04215,2.56481 0.04520,2.65401 0.03964,2.48015 C 0.03407,2.30630 0.03668,2.39094 0.03194,2.22620 C 0.02720,2.06145 0.02941,2.14154 0.02542,1.98592 C 0.02142,1.83029 0.02328,1.90582 0.01995,1.75931 C 0.01661,1.61281 0.01816,1.68378 0.01541,1.54640 C 0.01266,1.40903 0.01394,1.47543 0.01170,1.34720 C 0.00946,1.21896 0.01049,1.28079 0.00870,1.16170 C 0.00691,1.04260 0.00773,1.09986 0.00632,0.98991 C 0.00490,0.87996 0.00555,0.93265 0.00446,0.83185 C 0.00337,0.73105 0.00387,0.77916 0.00305,0.68752 C 0.00223,0.59587 0.00260,0.63940 0.00200,0.55691 C 0.00140,0.47442 0.00167,0.51338 0.00125,0.44005 C 0.00083,0.36672 0.00102,0.40109 0.00073,0.33692 C 0.00045,0.27276 0.00058,0.30255 0.00040,0.24754 C 0.00021,0.19254 0.00030,0.21775 0.00019,0.17191 C 0.00008,0.12607 0.00013,0.14670 0.00008,0.11002 C 0.00002,0.07335 0.00005,0.08940 0.00002,0.06189 C 0.00000,0.03438 0.00001,0.04584 0.00000,0.02751 C -0.00000,0.00917 0.00000,0.01605 0.00000,0.00688 C -0.00000,-0.00229 0.00000,0.00229 0.00000,0.00000 C -0.00000,-0.00229 -0.00000,0.00229 0.00000,0.00000 Z" style="fill:#b7c2dd;fill-opacity:0.7;stroke:#000;stroke-width:0.7px;stroke-linejoin:round"><desc>optics:glass:1.6000</desc></path>
    <path d="M 180.00000,0.00000 C 180.00000,-0.00229 180.00000,0.00229 180.00000,-0.00688 C 180.00001,-0.01605 179.99999,-0.00917 180.00001,-0.02751 C 180.00003,-0.04584 180.00000,-0.03438 180.00007,-0.06189 C 180.00013,-0.08940 180.00006,-0.07335 180.00021,-0.11002 C 180.00035,-0.14670 180.00022,-0.12607 180.00050,-0.17191 C 180.00078,-0.21775 180.00057,-0.19254 180.00105,-0.24754 C 180.00152,-0.30255 180.00118,-0.27275 180.00194,-0.33692 C 180.00269,-0.40108 180.00218,-0.36671 180.00330,-0.44004 C 180.00442,-0.51336 180.00370,-0.47441 180.00529,-0.55689 C 180.00687,-0.63937 180.00589,-0.59585 180.00805,-0.68747 C 180.01021,-0.77910 180.00891,-0.73101 180.01178,-0.83178 C 180.01465,-0.93255 180.01295,-0.87988 180.01666,-0.98979 C 180.02038,-1.09970 180.01821,-1.04247 180.02292,-1.16150 C 180.02762,-1.28054 180.02492,-1.21875 180.03078,-1.34689 C 180.03663,-1.47504 180.03331,-1.40870 180.04048,-1.54595 C 180.04764,-1.68320 180.04362,-1.61231 180.05227,-1.75865 C 180.06092,-1.90499 180.05611,-1.82956 180.06642,-1.98497 C 180.07673,-2.14037 180.07105,-2.06042 180.08320,-2.22487 C 180.09535,-2.38933 180.08870,-2.30485 180.10287,-2.47834 C 180.11704,-2.65182 180.10934,-2.56284 180.12571,-2.74532 C 180.14209,-2.92780 180.13324,-2.83433 180.15199,-3.02579 C 180.17075,-3.21725 180.16067,-3.11929 180.18197,-3.31969 C 180.20327,-3.52010 180.19189,-3.41768 180.21590,-3.62700 C 180.23991,-3.83631 180.22714,-3.72945 180.25401,-3.94764 C 180.28088,-4.16584 180.26664,-4.05454 180.29651,-4.28159 C 180.32637,-4.50863 180.31062,-4.39292 180.34360,-4.62878 C 180.37657,-4.86464 180.35925,-4.74453 180.39543,-4.98917 C 180.43161,-5.23381 180.41268,-5.10931 180.45214,-5.36270 C 180.49161,-5.61609 180.47103,-5.48722 180.51384,-5.74933 C 180.55664,-6.01143 180.53439,-5.87822 180.58057,-6.14901 C 180.62674,-6.41980 180.60281,-6.28225 180.65236,-6.56171 C 180.70191,-6.84116 180.67631,-6.69928 180.72921,-6.98738 C 180.78210,-7.27547 180.75485,-7.12928 180.81105,-7.42600 C 180.86725,-7.72271 180.83838,-7.57221 180.89781,-7.87754 C 180.95724,-8.18286 180.92678,-8.02805 180.98935,-8.34198 C 181.05192,-8.65591 181.01993,-8.49680 181.08552,-8.81933 C 181.15111,-9.14186 181.11765,-8.97844 181.18611,-9.30957 C 181.25457,-9.64070 181.21973,-9.47298 181.29090,-9.81272 C 181.36208,-10.15246 181.32593,-9.98043 181.39964,-10.32879 C 181.47335,-10.67715 181.43599,-10.50080 181.51203,-10.85780 C 181.58808,-11.21480 181.54961,-11.03413 181.62777,-11.39979 C 181.70594,-11.76545 181.66647,-11.58044 181.74654,-11.95479 C 181.82660,-12.32914 181.78625,-12.13977 181.86797,-12.52284 C 181.94969,-12.90591 181.90857,-12.71218 181.99170,-13.10400 C 182.07482,-13.49583 182.03307,-13.29770 182.11735,-13.69832 C 182.20162,-14.09893 182.15936,-13.89640 182.24451,-14.30585 C 182.32966,-14.71530 182.28704,-14.50834 182.37280,-14.92666 C 182.45855,-15.34498 182.41570,-15.13357 182.50177,-15.56081 C 182.58784,-15.98804 182.54491,-15.77217 182.63101,-16.20836 C 182.71711,-16.64456 182.67424,-16.42419 182.76008,-16.86939 C 182.84592,-17.31459 182.80325,-17.08971 182.88853,-17.54395 C 182.97381,-17.99820 182.93150,-17.76879 183.01592,-18.23212 C 183.10035,-18.69546 183.05854,-18.46149 183.14180,-18.93396 C 183.22506,-19.40643 183.18391,-19.16789 183.26570,-19.64953 C 183.34749,-20.13117 183.30716,-19.88803 183.38716,-20.37889 C 183.46717,-20.86975 183.42781,-20.62199 183.50572,-21.12210 C 183.58363,-21.62220 183.54540,-21.36982 183.62090,-21.87921 C 183.69640,-22.38860 180.15958,-22.41927 183.73223,-22.65027 C 187.30488,-22.88127 190.60675,-22.80669 194.33886,-22.57221 C 198.07097,-22.33773 194.54373,-22.36377 194.92857,-21.94683 C 195.31340,-21.52989 195.12499,-21.73813 195.49336,-21.32138 C 195.86173,-20.90463 195.68147,-21.11267 196.03367,-20.69658 C 196.38588,-20.28049 196.21362,-20.48808 196.54997,-20.07312 C 196.88632,-19.65816 196.72190,-19.86508 197.04272,-19.45169 C 197.36354,-19.03830 197.20680,-19.24433 197.51242,-18.83295 C 197.81804,-18.42157 197.66881,-18.62650 197.95958,-18.21755 C 198.25034,-17.80860 198.10845,-18.01221 198.38472,-17.60610 C 198.66098,-17.19998 198.52624,-17.40209 198.78838,-16.99921 C 199.05052,-16.59632 198.92275,-16.79672 199.17113,-16.39745 C 199.41951,-15.99818 199.29852,-16.19668 199.53352,-15.80139 C 199.76853,-15.40609 199.65412,-15.60253 199.87614,-15.21155 C 200.09816,-14.82058 199.99015,-15.01478 200.19958,-14.62847 C 200.40900,-14.24216 200.30719,-14.43395 200.50442,-14.05262 C 200.70166,-13.67129 200.60583,-13.86052 200.79128,-13.48448 C 200.97673,-13.10844 200.88670,-13.29496 201.06076,-12.92450 C 201.23483,-12.55404 201.15039,-12.73770 201.31349,-12.37310 C 201.47658,-12.00849 201.39752,-12.18917 201.55006,-11.83069 C 201.70260,-11.47220 201.62871,-11.64976 201.77111,-11.29765 C 201.91350,-10.94554 201.84458,-11.11986 201.97724,-10.77435 C 202.10990,-10.42884 202.04575,-10.59981 202.16908,-10.26112 C 202.29242,-9.92244 202.23283,-10.08995 202.34725,-9.75829 C 202.46167,-9.42664 202.40643,-9.59059 202.51234,-9.26617 C 202.61825,-8.94174 202.56718,-9.10204 202.66498,-8.78502 C 202.76278,-8.46801 202.71566,-8.62456 202.80575,-8.31512 C 202.89583,-8.00569 202.85247,-8.15841 202.93524,-7.85671 C 203.01801,-7.55501 202.97822,-7.70384 203.05406,-7.41002 C 203.12989,-7.11620 203.09347,-7.26106 203.16276,-6.97526 C 203.23204,-6.68946 203.19881,-6.83028 203.26191,-6.55262 C 203.32501,-6.27496 203.29478,-6.41168 203.35207,-6.14228 C 203.40936,-5.87287 203.38194,-6.00545 203.43377,-5.74441 C 203.48560,-5.48336 203.46084,-5.61174 203.50756,-5.35915 C 203.55428,-5.10656 203.53198,-5.23069 203.57393,-4.98664 C 203.61588,-4.74260 203.59589,-4.86244 203.63340,-4.62701 C 203.67090,-4.39159 203.65306,-4.50710 203.68644,-4.28037 C 203.71982,-4.05364 203.70397,-4.16480 203.73354,-3.94682 C 203.76310,-3.72885 203.74909,-3.83561 203.77514,-3.62645 C 203.80119,-3.41729 203.78886,-3.51964 203.81168,-3.31934 C 203.83450,-3.11904 203.82373,-3.21695 203.84359,-3.02556 C 203.86346,-2.83418 203.85410,-2.92762 203.87128,-2.74518 C 203.88845,-2.56274 203.88038,-2.65170 203.89512,-2.47825 C 203.90986,-2.30480 203.90295,-2.38926 203.91549,-2.22482 C 203.92803,-2.06039 203.92217,-2.14033 203.93274,-1.98494 C 203.94332,-1.82954 203.93839,-1.90497 203.94721,-1.75863 C 203.95604,-1.61230 203.95194,-1.68319 203.95921,-1.54594 C 203.96649,-1.40870 203.96312,-1.47504 203.96904,-1.34689 C 203.97497,-1.21874 203.97223,-1.28053 203.97698,-1.16150 C 203.98173,-1.04247 203.97955,-1.09970 203.98329,-0.98979 C 203.98702,-0.87988 203.98531,-0.93255 203.98820,-0.83178 C 203.99108,-0.73101 203.98977,-0.77910 203.99194,-0.68747 C 203.99411,-0.59585 203.99312,-0.63937 203.99471,-0.55689 C 203.99630,-0.47441 203.99558,-0.51336 203.99670,-0.44004 C 203.99781,-0.36671 203.99731,-0.40108 203.99806,-0.33692 C 203.99882,-0.27275 203.99848,-0.30255 203.99895,-0.24754 C 203.99943,-0.19254 203.99922,-0.21775 203.99950,-0.17191 C 203.99978,-0.12607 203.99965,-0.14670 203.99979,-0.11002 C 203.99994,-0.07335 203.99987,-0.08940 203.99993,-0.06189 C 204.00000,-0.03438 203.99997,-0.04584 203.99999,-0.02751 C 204.00001,-0.00917 203.99999,-0.01605 204.00000,-0.00688 C 204.00000,0.00229 204.00000,-0.00458 204.00000,-0.00000 C 204.00000,0.00458 204.00000,-0.00229 204.00000,0.00688 C 203.99999,0.01605 204.00001,0.00917 203.99999,0.02751 C 203.99997,0.04584 204.00000,0.03438 203.99993,0.06189 C 203.99987,0.08940 203.99994,0.07335 203.99979,0.11002 C 203.99965,0.14670 203.99978,0.12607 203.99950,0.17191 C 203.99922,0.21775 203.99943,0.19254 203.99895,0.24754 C 203.99848,0.30255 203.99882,0.27275 203.99806,0.33692 C 203.99731,0.40108 203.99781,0.36671 203.99670,0.44004 C 203.99558,0.51336 203.99630,0.47441 203.99471,0.55689 C 203.99312,0.63937 203.99411,0.59585 203.99194,0.68747 C 203.98977,0.77910 203.99108,0.73101 203.98820,0.83178 C 203.98531,0.93255 203.98702,0.87988 203.98329,0.98979 C 203.97955,1.09970 203.98173,1.04247 203.97698,1.16150 C 203.97223,1.28053 203.97497,1.21874 203.96904,1.34689 C 203.96312,1.47504 203.96649,1.40870 203.95921,1.54594 C 203.95194,1.68319 203.95604,1.61230 203.94721,1.75863 C 203.93839,1.90497 203.94332,1.82954 203.93274,1.98494 C 203.92217,2.14033 203.92803,2.06039 203.91549,2.22482 C 203.90295,2.38926 203.90986,2.30480 203.89512,2.47825 C 203.88038,2.65170 203.88845,2.56274 203.87128,2.74518 C 203.85410,2.92762 203.86346,2.83418 203.84359,3.02556 C 203.82373,3.21695 203.83450,3.11904 203.81168,3.31934 C 203.78886,3.51964 203.80119,3.41729 203.77514,3.62645 C 203.74909,3.83561 203.76310,3.72885 203.73354,3.94682 C 203.70397,4.16480 203.71982,4.05364 203.68644,4.28037 C 203.65306,4.50710 203.67090,4.39159 203.63340,4.62701 C 203.59589,4.86244 203.61588,4.74260 203.57393,4.98664 C 203.53198,5.23069 203.55428,5.10656 203.50756,5.35915 C 203.46084,5.61174 203.48560,5.48336 203.43377,5.74441 C 203.38194,6.00545 203.40936,5.87287 203.35207,6.14228 C 203.29478,6.41168 203.32501,6.27496 203.26191,6.55262 C 203.19881,6.83028 203.23204,6.68946 203.16276,6.97526 C 203.09347,7.26106 203.12989,7.11620 203.05406,7.41002 C 202.97822,7.70384 203.01801,7.55501 202.93524,7.85671 C 202.85247,8.15841 202.89583,8.00569 202.80575,8.31512 C 202.71566,8.62456 202.76278,8.46801 202.66498,8.78502 C 202.56718,9.10204 202.61825,8.94174 202.51234,9.26617 C 202.40643,9.59059 202.46167,9.42664 202.34725,9.75829 C 202.23283,10.08995 202.29242,9.92244 202.16908,10.26112 C 202.04575,10.59981 202.10990,10.42884 201.97724,10.77435 C 201.84458,11.11986 201.91350,10.94554 201.77111,11.29765 C 201.62871,11.64976 201.70260,11.47220 201.55006,11.83069 C 201.39752,12.18917 201.47658,12.00849 201.31349,12.37310 C 201.15039,12.73770 201.23483,12.55404 201.06076,12.92450 C 200.88670,13.29496 200.97673,13.10844 200.79128,13.48448 C 200.60583,13.86052 200.70166,13.67129 200.50442,14.05262 C 200.30719,14.43395 200.40900,14.24216 200.19958,14.62847 C 199.99015,15.01478 200.09816,14.82058 199.87614,15.21155 C 199.65412,15.60253 199.76853,15.40609 199.53352,15.80139 C 199.29852,16.19668 199.41951,15.99818 199.17113,16.39745 C 198.92275,16.79672 199.05052,16.59632 198.78838,16.99921 C 198.52624,17.40209 198.66098,17.19998 198.38472,17.60610 C 198.10845,18.01221 198.25034,17.80860 197.95958,18.21755 C 197.66881,18.62650 197.81804,18.42157 197.51242,18.83295 C 197.20680,19.24433 197.36354,19.03830 197.04272,19.45169 C 196.72190,19.86508 196.88632,19.65816 196.54997,20.07312 C 196.21362,20.48808 196.38588,20.28049 196.03367,20.69658 C 195.68147,21.11267 195.86173,20.90463 195.49336,21.32138 C 195.12499,21.73813 195.31340,21.52989 194.92857,21.94683 C 194.54373,22.36377 198.07097,22.33773 194.33886,22.57221 C 190.60675,22.80669 187.30488,22.88127 183.73223,22.65027 C 180.15958,22.41927 183.69640,22.38860 183.62090,21.87921 C 183.54540,21.36982 183.58363,21.62220 183.50572,21.12210 C 183.42781,20.62199 183.46717,20.86975 183.38716,20.37889 C 183.30716,19.88803 183.34749,20.13117 183.26570,19.64953 C 183.18391,19.16789 183.22506,19.40643 183.14180,18.93396 C 183.05854,18.46149 183.10035,18.69546 183.01592,18.23212 C 182.93150,17.76879 182.97381,17.99820 182.88853,17.54395 C 182.80325,17.08971 182.84592,17.31459 182.76008,16.86939 C 182.67424,16.42419 182.71711,16.64456 182.63101,16.20836 C 182.54491,15.77217 182.58784,15.98804 182.50177,15.56081 C 182.41570,15.13357 182.45855,15.34498 182.37280,14.92666 C 182.28704,14.50834 182.32966,14.71530 182.24451,14.30585 C 182.15936,13.89640 182.20162,14.09893 182.11735,13.69832 C 182.03307,13.29770 182.07482,13.49583 181.99170,13.10400 C 181.90857,12.71218 181.94969,12.90591 181.86797,12.52284 C 181.78625,12.13977 181.82660,12.32914 181.74654,11.95479 C 181.66647,11.58044 181.70594,11.76545 181.62777,11.39979 C 181.54961,11.03413 181.58808,11.21480 181.51203,10.85780 C 181.43599,10.50080 181.47335,10.67715 181.39964,10.32879 C 181.32593,9.98043 181.36208,10.15246 181.29090,9.81272 C 181.21973,9.47298 181.25457,9.64070 181.18611,9.30957 C 181.11765,8.97844 181.15111,9.14186 181.08552,8.81933 C 181.01993,8.49680 181.05192,8.65591 180.98935,8.34198 C 180.92678,8.02805 180.95724,8.18286 180.89781,7.87754 C 180.83838,7.57221 180.86725,7.72271 180.81105,7.42600 C 180.75485,7.12928 180.78210,7.27547 180.72921,6.98738 C 180.67631,6.69928 180.70191,6.84116 180.65236,6.56171 C 180.60281,6.28225 180.62674,6.41980 180.58057,6.14901 C 180.53439,5.87822 180.55664,6.01143 180.51384,5.74933 C 180.47103,5.48722 180.49161,5.61609 180.45214,5.36270 C 180.41268,5.10931 180.43161,5.23381 180.39543,4.98917 C 180.35925,4.74453 180.37657,4.86464 180.34360,4.62878 C 180.31062,4.39292 180.32637,4.50863 180.29651,4.28159 C 180.26664,4.05454 180.28088,4.16584 180.25401,3.94764 C 180.22714,3.72945 180.23991,3.83631 180.21590,3.62700 C 180.19189,3.41768 180.20327,3.52010 180.18197,3.31969 C 180.16067,3.11929 180.17075,3.21725 180.15199,3.02579 C 180.13324,2.83433 180.14209,2.92780 180.12571,2.74532 C 180.10934,2.56284 180.11704,2.65182 180.10287,2.47834 C 180.08870,2.30485 180.09535,2.38933 180.08320,2.22487 C 180.07105,2.06042 180.07673,2.14037 180.06642,1.98497 C 180.05611,1.82956 180.06092,1.90499 180.05227,1.75865 C 180.04362,1.61231 180.04764,1.68320 180.04048,1.54595 C 180.03331,1.40870 180.03663,1.47504 180.03078,1.34689 C 180.02492,1.21875 180.02762,1.28054 180.02292,1.16150 C 180.01821,1.04247 180.02038,1.09970 180.01666,0.98979 C 180.01295,0.87988 180.01465,0.93255 180.01178,0.83178 C 180.00891,0.73101 180.01021,0.77910 180.00805,0.68747 C 180.00589,0.59585 180.00687,0.63937 180.00529,0.55689 C 180.00370,0.47441 180.00442,0.51336 180.00330,0.44004 C 180.00218,0.36671 180.00269,0.40108 180.00194,0.33692 C 180.00118,0.27275 180.00152,0.30255 180.00105,0.24754 C 180.00057,0.19254 180.00078,0.21775 180.00050,0.17191 C 180.00022,0.12607 180.00035,0.14670 180.00021,0.11002 C 180.00006,0.07335 180.00013,0.08940 180.00007,0.06189 C 180.00000,0.03438 180.00003,0.04584 180.00001,0.02751 C 179.99999,0.00917 180.00001,0.01605 180.00000,0.00688 C 180.00000,-0.00229 180.00000,0.00229 180.00000,0.00000 C 180.00000,-0.00229 180.00000,0.00229 180.00000,0.00000 Z" style="fill:#b7c2dd;fill-opacity:0.7;stroke:#000;stroke-width:0.7px;stroke-linejoin:round"><desc>optics:glass:1.6000</desc></path>
    <circle cx="-120.000" cy="0.000" r="3.200" style="fill:#dd2200;stroke:none;stroke-width:0.3px"/>
    <path d="M 274.000,-20.387 L 274.000,20.387" style="fill:none;stroke:#2277cc;stroke-width:0.8px;opacity:0.8;stroke-dasharray:4,2"/>
    <text x="274.00" y="-24.39" style="font:6px sans-serif;fill:#2277cc;text-anchor:middle">frente plano</text>
    <text x="-120.00" y="40.99" style="font:6px sans-serif;fill:#aa2200;text-anchor:middle">fuente puntual</text>
    <text x="82.00" y="-36.99" style="font:7px sans-serif;fill:#333;text-anchor:middle">LSOE 1         +         LSOE 2  →  haz colimado</text>
    <path d="M -120.000,0 L -40.779,-11.134" style="fill:none;stroke:#ff6600;stroke-width:1px"><desc>optics:beam</desc></path>
    <path d="M -120.000,0 L -40.499,-8.918" style="fill:none;stroke:#ff6600;stroke-width:1px"><desc>optics:beam</desc></path>
    <path d="M -120.000,0 L -40.281,-6.694" style="fill:none;stroke:#ff6600;stroke-width:1px"><desc>optics:beam</desc></path>
    <path d="M -120.000,0 L -40.125,-4.466" style="fill:none;stroke:#ff6600;stroke-width:1px"><desc>optics:beam</desc></path>
    <path d="M -120.000,0 L -40.031,-2.234" style="fill:none;stroke:#ff6600;stroke-width:1px"><desc>optics:beam</desc></path>
    <path d="M -120.000,0 L -40.000,0.000" style="fill:none;stroke:#ff6600;stroke-width:1px"><desc>optics:beam</desc></path>
    <path d="M -120.000,0 L -40.031,2.234" style="fill:none;stroke:#ff6600;stroke-width:1px"><desc>optics:beam</desc></path>
    <path d="M -120.000,0 L -40.125,4.466" style="fill:none;stroke:#ff6600;stroke-width:1px"><desc>optics:beam</desc></path>
    <path d="M -120.000,0 L -40.281,6.694" style="fill:none;stroke:#ff6600;stroke-width:1px"><desc>optics:beam</desc></path>
    <path d="M -120.000,0 L -40.499,8.918" style="fill:none;stroke:#ff6600;stroke-width:1px"><desc>optics:beam</desc></path>
    <path d="M -120.000,0 L -40.779,11.134" style="fill:none;stroke:#ff6600;stroke-width:1px"><desc>optics:beam</desc></path>
  </g>
</svg>
