<?xml version="1.0" encoding="UTF-8" standalone="no"?>
<svg xmlns="http://www.w3.org/2000/svg" version="1.1" width="670.00" height="257.69" viewBox="0 0 670.00 257.69">
  <g transform="translate(530.000,128.846)">
    <path d="M -530.000,0.000 L 140.000,0.000" style="fill:none;stroke:#aaaaaa;stroke-width:0.5px;stroke-dasharray:6,3"/>
    <path d="M 0.00000,0.00000 C 0.00000,-0.00229 -0.00000,0.00229 0.00000,-0.00688 C 0.00000,-0.01605 -0.00000,-0.00917 0.00000,-0.02751 C 0.00000,-0.04584 0.00000,-0.03438 0.00001,-0.06189 C 0.00001,-0.08940 0.00001,-0.07335 0.00002,-0.11002 C 0.00004,-0.14670 0.00002,-0.12607 0.00005,-0.17191 C 0.00008,-0.21775 0.00006,-0.19254 0.00011,-0.24754 C 0.00015,-0.30255 0.00012,-0.27276 0.00019,-0.33693 C 0.00027,-0.40109 0.00022,-0.36672 0.00033,-0.44005 C 0.00044,-0.51338 0.00037,-0.47443 0.00053,-0.55692 C 0.00069,-0.63941 0.00059,-0.59587 0.00081,-0.68752 C 0.00103,-0.77917 0.00090,-0.73106 0.00119,-0.83186 C 0.00148,-0.93266 0.00131,-0.87998 0.00168,-0.98993 C 0.00206,-1.09989 0.00184,-1.04262 0.00232,-1.16173 C 0.00279,-1.28083 0.00252,-1.21899 0.00311,-1.34724 C 0.00371,-1.47549 0.00337,-1.40908 0.00410,-1.54648 C 0.00484,-1.68387 0.00442,-1.61289 0.00531,-1.75942 C 0.00620,-1.90595 0.00570,-1.83040 0.00677,-1.98607 C 0.00783,-2.14173 0.00724,-2.06162 0.00850,-2.22641 C 0.00977,-2.39120 0.00907,-2.30653 0.01055,-2.48045 C 0.01204,-2.65437 0.01123,-2.56513 0.01295,-2.74817 C 0.01468,-2.93120 0.01374,-2.83741 0.01574,-3.02956 C 0.01774,-3.22171 0.01666,-3.12336 0.01896,-3.32462 C 0.02125,-3.52589 0.02001,-3.42298 0.02264,-3.63335 C 0.02526,-3.84371 0.02385,-3.73626 0.02683,-3.95572 C 0.02981,-4.17518 0.02821,-4.06318 0.03158,-4.29173 C 0.03494,-4.52028 0.03314,-4.40373 0.03693,-4.64137 C 0.04071,-4.87900 0.03869,-4.75792 0.04293,-5.00463 C 0.04716,-5.25134 0.04491,-5.12572 0.04962,-5.38150 C 0.05434,-5.63727 0.05184,-5.50712 0.05707,-5.77196 C 0.06231,-6.03680 0.05954,-5.90212 0.06533,-6.17601 C 0.07112,-6.44990 0.06806,-6.31070 0.07444,-6.59364 C 0.08082,-6.87657 0.07746,-6.73285 0.08447,-7.02482 C 0.09148,-7.31679 0.08780,-7.16855 0.09548,-7.46954 C 0.10316,-7.77054 0.09912,-7.61779 0.10751,-7.92780 C 0.11590,-8.23782 0.11151,-8.08056 0.12064,-8.39958 C 0.12978,-8.71860 0.12500,-8.55684 0.13493,-8.88486 C 0.14486,-9.21287 0.13967,-9.04662 0.15044,-9.38362 C 0.16120,-9.72062 0.15559,-9.54988 0.16723,-9.89585 C 0.17887,-10.24183 0.17280,-10.06660 0.18537,-10.42154 C 0.19794,-10.77648 0.19140,-10.59678 0.20493,-10.96066 C 0.21847,-11.32455 0.21143,-11.14038 0.22597,-11.51320 C 0.24052,-11.88603 0.23297,-11.69739 0.24857,-12.07914 C 0.26418,-12.46089 0.25608,-12.26779 0.27280,-12.65845 C 0.28951,-13.04912 0.28085,-12.85157 0.29872,-13.25113 C 0.31658,-13.65070 0.30733,-13.44870 0.32640,-13.85715 C 0.34547,-14.26560 0.33560,-14.05916 0.35592,-14.47648 C 0.37624,-14.89380 0.36574,-14.68293 0.38736,-15.10911 C 0.40897,-15.53529 0.39781,-15.32000 0.42077,-15.75502 C 0.44374,-16.19004 0.43189,-15.97033 0.45625,-16.41417 C 0.48061,-16.85802 0.46805,-16.63390 0.49385,-17.08656 C 0.51965,-17.53922 0.50636,-17.31069 0.53366,-17.77215 C 0.56095,-18.23360 0.54690,-18.00068 0.57574,-18.47091 C 0.60458,-18.94114 0.58974,-18.70384 0.62017,-19.18284 C 0.65060,-19.66183 0.63496,-19.42015 0.66703,-19.90788 C 0.69909,-20.39562 0.68262,-20.14958 0.71637,-20.64604 C 0.75013,-21.14249 0.73280,-20.89210 0.76829,-21.39726 C 0.80377,-21.90243 0.78557,-21.64768 0.82283,-22.16153 C 0.86010,-22.67539 0.84099,-22.41630 0.88009,-22.93883 C 0.91918,-23.46135 0.89915,-23.19793 0.94011,-23.72911 C 0.98108,-24.26028 0.96010,-23.99254 1.00298,-24.53235 C 1.04587,-25.07215 1.02392,-24.80011 1.06876,-25.34852 C 1.11360,-25.89694 1.09066,-25.62059 1.13751,-26.17759 C 1.18435,-26.73460 1.16040,-26.45396 1.20929,-27.01953 C 1.25818,-27.58511 1.23320,-27.30019 1.28417,-27.87431 C 1.33514,-28.44844 1.30911,-28.15925 1.36221,-28.74190 C 1.41530,-29.32455 1.38820,-29.03111 1.44345,-29.62226 C 1.49871,-30.21341 1.47052,-29.91572 1.52797,-30.51536 C 1.58542,-31.11499 1.55612,-30.81307 1.61580,-31.42117 C 1.67548,-32.02926 1.64506,-31.72311 1.70700,-32.33965 C 1.76895,-32.95618 1.73739,-32.64582 1.80162,-33.27077 C 1.86586,-33.89572 1.83315,-33.58116 1.89970,-34.21450 C 1.96626,-34.84784 1.93238,-34.52909 2.00128,-35.17080 C 2.07018,-35.81251 2.03513,-35.48958 2.10640,-36.13964 C 2.17768,-36.78970 2.14143,-36.46259 2.21510,-37.12098 C 2.28876,-37.77936 2.25132,-37.44810 2.32740,-38.11478 C 2.40348,-38.78146 2.36483,-38.44606 2.44334,-39.12102 C 2.52185,-39.79598 2.48198,-39.45644 2.56293,-40.13965 C 2.64389,-40.82286 2.60279,-40.47921 2.68621,-41.17065 C 2.76963,-41.86208 2.72730,-41.51432 2.81318,-42.21396 C 2.89907,-42.91360 2.85551,-42.56175 2.94387,-43.26957 C 3.03223,-43.97739 2.98743,-43.62145 3.07828,-44.33743 C 3.16912,-45.05341 3.12308,-44.69339 3.21641,-45.41750 C 3.30974,-46.14162 3.26245,-45.77754 3.35827,-46.50976 C 3.45409,-47.24198 3.40556,-46.87386 3.50386,-47.61416 C 3.60216,-48.35447 3.55239,-47.98231 3.65317,-48.73068 C 3.75394,-49.47904 3.70294,-49.10286 3.80619,-49.85926 C 3.90943,-50.61567 3.85720,-50.23547 3.96290,-50.99989 C 4.06860,-51.76431 4.01514,-51.38011 4.12328,-52.15252 C 4.23143,-52.92493 4.17676,-52.53674 4.28732,-53.31712 C 4.39789,-54.09750 4.34201,-53.70533 4.45499,-54.49366 C 4.56796,-55.28198 4.51089,-54.88584 4.62625,-55.68209 C 4.74161,-56.47833 4.68335,-56.07825 4.80107,-56.88239 C 4.91879,-57.68653 4.85935,-57.28250 4.97940,-58.09452 C 5.09945,-58.90654 5.03887,-58.49858 5.16122,-59.31845 C 5.28357,-60.13833 5.22184,-59.72644 5.34646,-60.55415 C 5.47108,-61.38186 5.40822,-60.96606 5.53507,-61.80158 C 5.66192,-62.63710 5.59796,-62.21740 5.72701,-63.06070 C 5.85605,-63.90401 5.79101,-63.48042 5.92221,-64.33150 C 6.05340,-65.18258 5.98729,-64.75511 6.12060,-65.61393 C 6.25391,-66.47276 6.18675,-66.04142 6.32212,-66.90797 C 6.45749,-67.77452 6.38932,-67.33933 6.52671,-68.21358 C 6.66409,-69.08783 6.59493,-68.64879 6.73428,-69.53073 C 6.87363,-70.41267 6.80349,-69.96979 6.94475,-70.85940 C 7.08601,-71.74900 7.01494,-71.30230 7.15806,-72.19955 C 7.30117,-73.09680 7.22919,-72.64627 7.37410,-73.55115 C 7.51901,-74.45602 7.44614,-74.00169 7.59280,-74.91417 C 7.73945,-75.82665 7.66573,-75.36852 7.81406,-76.28859 C 7.96239,-77.20866 7.88785,-76.74674 8.03779,-77.67438 C 8.18773,-78.60202 8.11240,-78.13632 8.26389,-79.07150 C 8.41538,-80.00669 8.34065,-80.08185 8.49227,-80.47994 C 8.64388,-80.87803 8.55362,-80.65151 8.71874,-80.26578 C 8.88386,-79.88004 8.80989,-79.95012 8.98763,-79.32275 C 9.16538,-78.69537 9.07725,-79.00839 9.25198,-78.38366 C 9.42672,-77.75893 9.34009,-78.07062 9.51183,-77.44856 C 9.68358,-76.82651 9.59843,-77.13685 9.76722,-76.51750 C 9.93600,-75.89815 9.85233,-76.20713 10.01818,-75.59051 C 10.18403,-74.97389 10.10182,-75.28150 10.26477,-74.66764 C 10.42771,-74.05379 10.34695,-74.36001 10.50702,-73.74894 C 10.66708,-73.13787 10.58775,-73.44269 10.74496,-72.83444 C 10.90218,-72.22618 10.82427,-72.52959 10.97866,-71.92418 C 11.13305,-71.31877 11.05654,-71.62075 11.20814,-71.01821 C 11.35973,-70.41568 11.28462,-70.71621 11.43344,-70.11657 C 11.58227,-69.51694 11.50853,-69.81601 11.65462,-69.21931 C 11.80071,-68.62260 11.72833,-68.92020 11.87170,-68.32645 C 12.01508,-67.73269 11.94405,-68.02882 12.08474,-67.43804 C 12.22543,-66.84727 12.15574,-67.14189 12.29378,-66.55413 C 12.43181,-65.96636 12.36344,-66.25947 12.49885,-65.67474 C 12.63425,-65.09001 12.56719,-65.38160 12.70000,-64.79993 C 12.83280,-64.21825 12.76703,-64.50831 12.89727,-63.92972 C 13.02750,-63.35113 12.96301,-63.63964 13.09070,-63.06416 C 13.21839,-62.48868 13.15516,-62.77562 13.28034,-62.20328 C 13.40551,-61.63093 13.34354,-61.91631 13.46623,-61.34712 C 13.58891,-60.77794 13.52817,-61.06173 13.64840,-60.49573 C 13.76863,-59.92973 13.70911,-60.21192 13.82691,-59.64913 C 13.94471,-59.08634 13.88640,-59.36691 14.00179,-58.80736 C 14.11719,-58.24780 14.06008,-58.52676 14.17309,-57.97046 C 14.28611,-57.41416 14.23018,-57.69148 14.34085,-57.13847 C 14.45153,-56.58545 14.39676,-56.86112 14.50512,-56.31141 C 14.61347,-55.76170 14.55985,-56.03571 14.66592,-55.48933 C 14.77199,-54.94295 14.71951,-55.21529 14.82331,-54.67226 C 14.92711,-54.12923 14.87576,-54.39989 14.97733,-53.86023 C 15.07890,-53.32057 15.02866,-53.58955 15.12802,-53.05328 C 15.22738,-52.51702 15.17824,-52.78429 15.27542,-52.25145 C 15.37261,-51.71860 15.32454,-51.98416 15.41958,-51.45475 C 15.51462,-50.92535 15.46762,-51.18918 15.56054,-50.66324 C 15.65345,-50.13730 15.60751,-50.39939 15.69833,-49.87693 C 15.78915,-49.35448 15.74425,-49.61482 15.83301,-49.09587 C 15.92177,-48.57692 15.87788,-48.83551 15.96461,-48.32008 C 16.05133,-47.80466 16.00846,-48.06147 16.09317,-47.54960 C 16.17788,-47.03772 16.13601,-47.29276 16.21874,-46.78445 C 16.30147,-46.27614 16.26058,-46.52939 16.34136,-46.02467 C 16.42214,-45.51995 16.38222,-45.77140 16.46107,-45.27029 C 16.53992,-44.76918 16.50096,-45.01882 16.57791,-44.52133 C 16.65487,-44.02385 16.61685,-44.27167 16.69193,-43.77784 C 16.76701,-43.28400 16.72992,-43.52999 16.80316,-43.03982 C 16.87640,-42.54966 16.84022,-42.79381 16.91165,-42.30733 C 16.98307,-41.82085 16.94780,-42.06315 17.01743,-41.58038 C 17.08707,-41.09760 17.05268,-41.33805 17.12055,-40.85900 C 17.18843,-40.37995 17.15491,-40.61853 17.22105,-40.14322 C 17.28719,-39.66791 17.25454,-39.90462 17.31897,-39.43307 C 17.38341,-38.96152 17.35160,-39.19635 17.41435,-38.72858 C 17.47711,-38.26081 17.44613,-38.49374 17.50723,-38.02977 C 17.56834,-37.56579 17.53818,-37.79682 17.59766,-37.33666 C 17.65713,-36.87651 17.62778,-37.10562 17.68566,-36.64930 C 17.74354,-36.19297 17.71498,-36.42016 17.77128,-35.96769 C 17.82759,-35.51521 17.79981,-35.74048 17.85457,-35.29187 C 17.90933,-34.84326 17.88232,-35.06659 17.93555,-34.62186 C 17.98879,-34.17713 17.96254,-34.39852 18.01428,-33.95769 C 18.06602,-33.51686 18.04051,-33.73629 18.09079,-33.29938 C 18.14106,-32.86247 18.11627,-33.07993 18.16511,-32.64696 C 18.21394,-32.21398 18.18987,-32.42947 18.23729,-32.00044 C 18.28471,-31.57141 18.26134,-31.78493 18.30737,-31.35986 C 18.35339,-30.93479 18.33071,-31.14633 18.37538,-30.72524 C 18.42004,-30.30415 18.39803,-30.51369 18.44136,-30.09659 C 18.48469,-29.67950 18.46334,-29.88704 18.50535,-29.47395 C 18.54737,-29.06086 18.52667,-29.26639 18.56740,-28.85733 C 18.60812,-28.44827 18.58806,-28.65178 18.62752,-28.24676 C 18.66698,-27.84174 18.64755,-28.04323 18.68578,-27.64226 C 18.72400,-27.24128 18.70518,-27.44075 18.74219,-27.04384 C 18.77920,-26.64694 18.76098,-26.84437 18.79680,-26.45154 C 18.83262,-26.05872 18.81499,-26.25410 18.84964,-25.86537 C 18.88429,-25.47664 18.86724,-25.66997 18.90076,-25.28535 C 18.93427,-24.90073 18.91778,-25.09201 18.95018,-24.71151 C 18.98257,-24.33101 18.96664,-24.52022 18.99794,-24.14385 C 19.02924,-23.76749 19.01385,-23.95463 19.04408,-23.58241 C 19.07431,-23.21019 19.05945,-23.39526 19.08863,-23.02720 C 19.11782,-22.65914 19.10347,-22.84212 19.13163,-22.47824 C 19.15980,-22.11435 19.14596,-22.29524 19.17312,-21.93555 C 19.20028,-21.57585 19.18694,-21.75464 19.21312,-21.39914 C 19.23931,-21.04364 19.22644,-21.22033 19.25168,-20.86904 C 19.27691,-20.51775 19.26452,-20.69233 19.28881,-20.34526 C 19.31311,-19.99819 19.30118,-20.17066 19.32457,-19.82783 C 19.34796,-19.48499 19.33648,-19.65534 19.35898,-19.31675 C 19.38148,-18.97815 19.37044,-19.14638 19.39208,-18.81204 C 19.41371,-18.47770 19.40310,-18.64380 19.42389,-18.31373 C 19.44468,-17.98366 19.43448,-18.14762 19.45445,-17.82183 C 19.47442,-17.49603 19.46463,-17.65785 19.48380,-17.33634 C 19.50296,-17.01484 19.49357,-17.17451 19.51195,-16.85730 C 19.53034,-16.54009 19.52133,-16.69762 19.53896,-16.38472 C 19.55658,-16.07182 19.54795,-16.22718 19.56484,-15.91860 C 19.58172,-15.61002 19.57345,-15.76323 19.58962,-15.45897 C 19.60579,-15.15472 19.59787,-15.30576 19.61334,-15.00584 C 19.62881,-14.70593 19.62124,-14.85480 19.63603,-14.55923 C 19.65082,-14.26366 19.64358,-14.41035 19.65771,-14.11914 C 19.67185,-13.82794 19.66493,-13.97244 19.67842,-13.68560 C 19.69191,-13.39876 19.68532,-13.54108 19.69819,-13.25862 C 19.71106,-12.97615 19.70477,-13.11628 19.71703,-12.83820 C 19.72930,-12.56012 19.72331,-12.69806 19.73499,-12.42437 C 19.74667,-12.15068 19.74097,-12.28642 19.75209,-12.01714 C 19.76320,-11.74785 19.75778,-11.88139 19.76835,-11.61651 C 19.77892,-11.35163 19.77376,-11.48296 19.78380,-11.22250 C 19.79384,-10.96205 19.78894,-11.09117 19.79847,-10.83513 C 19.80800,-10.57910 19.80336,-10.70601 19.81239,-10.45441 C 19.82143,-10.20281 19.81702,-10.32750 19.82558,-10.08034 C 19.83414,-9.83318 19.82997,-9.95565 19.83807,-9.71294 C 19.84617,-9.47023 19.84222,-9.59047 19.84987,-9.35222 C 19.85753,-9.11397 19.85380,-9.23198 19.86103,-8.99819 C 19.86825,-8.76440 19.86474,-8.88018 19.87155,-8.65086 C 19.87837,-8.42155 19.87505,-8.53508 19.88147,-8.31025 C 19.88789,-8.08541 19.88477,-8.19671 19.89081,-7.97635 C 19.89684,-7.75600 19.89391,-7.86505 19.89958,-7.64919 C 19.90525,-7.43333 19.90250,-7.54014 19.90782,-7.32877 C 19.91314,-7.11741 19.91056,-7.22196 19.91554,-7.01511 C 19.92053,-6.80825 19.91811,-6.91055 19.92277,-6.70820 C 19.92743,-6.50585 19.92517,-6.60589 19.92953,-6.40806 C 19.93388,-6.21023 19.93177,-6.30801 19.93583,-6.11470 C 19.93989,-5.92139 19.93793,-6.01691 19.94171,-5.82813 C 19.94549,-5.63935 19.94366,-5.73261 19.94717,-5.54836 C 19.95068,-5.36411 19.94898,-5.45510 19.95224,-5.27539 C 19.95550,-5.09568 19.95393,-5.18439 19.95694,-5.00923 C 19.95995,-4.83406 19.95850,-4.92050 19.96128,-4.74989 C 19.96407,-4.57927 19.96272,-4.66344 19.96529,-4.49737 C 19.96786,-4.33131 19.96662,-4.41320 19.96898,-4.25170 C 19.97134,-4.09019 19.97020,-4.16980 19.97237,-4.01286 C 19.97453,-3.85592 19.97349,-3.93324 19.97547,-3.78087 C 19.97745,-3.62850 19.97650,-3.70354 19.97830,-3.55574 C 19.98011,-3.40794 19.97924,-3.48069 19.98089,-3.33747 C 19.98253,-3.19424 19.98174,-3.26471 19.98323,-3.12606 C 19.98472,-2.98742 19.98401,-3.05559 19.98535,-2.92153 C 19.98670,-2.78747 19.98606,-2.85335 19.98727,-2.72388 C 19.98848,-2.59441 19.98790,-2.65800 19.98899,-2.53312 C 19.99008,-2.40824 19.98956,-2.46953 19.99053,-2.34924 C 19.99150,-2.22896 19.99104,-2.28795 19.99190,-2.17226 C 19.99277,-2.05658 19.99236,-2.11327 19.99312,-2.00218 C 19.99389,-1.89110 19.99352,-1.94549 19.99420,-1.83901 C 19.99487,-1.73253 19.99455,-1.78462 19.99514,-1.68275 C 19.99573,-1.58088 19.99545,-1.63066 19.99597,-1.53340 C 19.99648,-1.43614 19.99624,-1.48362 19.99668,-1.39097 C 19.99712,-1.29833 19.99691,-1.34349 19.99730,-1.25546 C 19.99768,-1.16744 19.99750,-1.21029 19.99782,-1.12688 C 19.99814,-1.04347 19.99799,-1.08402 19.99827,-1.00523 C 19.99854,-0.92644 19.99841,-0.96468 19.99864,-0.89052 C 19.99887,-0.81635 19.99876,-0.85228 19.99895,-0.78274 C 19.99914,-0.71320 19.99905,-0.74681 19.99920,-0.68190 C 19.99935,-0.61698 19.99928,-0.64828 19.99941,-0.58800 C 19.99953,-0.52771 19.99947,-0.55670 19.99957,-0.50104 C 19.99967,-0.44539 19.99962,-0.47206 19.99970,-0.42104 C 19.99977,-0.37002 19.99974,-0.39437 19.99979,-0.34798 C 19.99985,-0.30160 19.99982,-0.32363 19.99986,-0.28188 C 19.99990,-0.24013 19.99989,-0.25984 19.99991,-0.22273 C 19.99994,-0.18561 19.99993,-0.20301 19.99995,-0.17053 C 19.99997,-0.13805 19.99996,-0.15313 19.99997,-0.12529 C 19.99999,-0.09745 19.99998,-0.11021 19.99999,-0.08701 C 19.99999,-0.06381 19.99999,-0.07425 19.99999,-0.05569 C 20.00000,-0.03713 20.00000,-0.04525 20.00000,-0.03132 C 20.00000,-0.01740 20.00000,-0.02320 20.00000,-0.01392 C 20.00000,-0.00464 20.00000,-0.00812 20.00000,-0.00348 C 20.00000,0.00116 20.00000,-0.00232 20.00000,-0.00000 C 20.00000,0.00232 20.00000,-0.00116 20.00000,0.00348 C 20.00000,0.00812 20.00000,0.00464 20.00000,0.01392 C 20.00000,0.02320 20.00000,0.01740 20.00000,0.03132 C 20.00000,0.04525 20.00000,0.03713 19.99999,0.05569 C 19.99999,0.07425 19.99999,0.06381 19.99999,0.08701 C 19.99998,0.11021 19.99999,0.09745 19.99997,0.12529 C 19.99996,0.15313 19.99997,0.13805 19.99995,0.17053 C 19.99993,0.20301 19.99994,0.18561 19.99991,0.22273 C 19.99989,0.25984 19.99990,0.24013 19.99986,0.28188 C 19.99982,0.32363 19.99985,0.30160 19.99979,0.34798 C 19.99974,0.39437 19.99977,0.37002 19.99970,0.42104 C 19.99962,0.47206 19.99967,0.44539 19.99957,0.50104 C 19.99947,0.55670 19.99953,0.52771 19.99941,0.58800 C 19.99928,0.64828 19.99935,0.61698 19.99920,0.68190 C 19.99905,0.74681 19.99914,0.71320 19.99895,0.78274 C 19.99876,0.85228 19.99887,0.81635 19.99864,0.89052 C 19.99841,0.96468 19.99854,0.92644 19.99827,1.00523 C 19.99799,1.08402 19.99814,1.04347 19.99782,1.12688 C 19.99750,1.21029 19.99768,1.16744 19.99730,1.25546 C 19.99691,1.34349 19.99712,1.29833 19.99668,1.39097 C 19.99624,1.48362 19.99648,1.43614 19.99597,1.53340 C 19.99545,1.63066 19.99573,1.58088 19.99514,1.68275 C 19.99455,1.78462 19.99487,1.73253 19.99420,1.83901 C 19.99352,1.94549 19.99389,1.89110 19.99312,2.00218 C 19.99236,2.11327 19.99277,2.05658 19.99190,2.17226 C 19.99104,2.28795 19.99150,2.22896 19.99053,2.34924 C 19.98956,2.46953 19.99008,2.40824 19.98899,2.53312 C 19.98790,2.65800 19.98848,2.59441 19.98727,2.72388 C 19.98606,2.85335 19.98670,2.78747 19.98535,2.92153 C 19.98401,3.05559 19.98472,2.98742 19.98323,3.12606 C 19.98174,3.26471 19.98253,3.19424 19.98089,3.33747 C 19.97924,3.48069 19.98011,3.40794 19.97830,3.55574 C 19.97650,3.70354 19.97745,3.62850 19.97547,3.78087 C 19.97349,3.93324 19.97453,3.85592 19.97237,4.01286 C 19.97020,4.16980 19.97134,4.09019 19.96898,4.25170 C 19.96662,4.41320 19.96786,4.33131 19.96529,4.49737 C 19.96272,4.66344 19.96407,4.57927 19.96128,4.74989 C 19.95850,4.92050 19.95995,4.83406 19.95694,5.00923 C 19.95393,5.18439 19.95550,5.09568 19.95224,5.27539 C 19.94898,5.45510 19.95068,5.36411 19.94717,5.54836 C 19.94366,5.73261 19.94549,5.63935 19.94171,5.82813 C 19.93793,6.01691 19.93989,5.92139 19.93583,6.11470 C 19.93177,6.30801 19.93388,6.21023 19.92953,6.40806 C 19.92517,6.60589 19.92743,6.50585 19.92277,6.70820 C 19.91811,6.91055 19.92053,6.80825 19.91554,7.01511 C 19.91056,7.22196 19.91314,7.11741 19.90782,7.32877 C 19.90250,7.54014 19.90525,7.43333 19.89958,7.64919 C 19.89391,7.86505 19.89684,7.75600 19.89081,7.97635 C 19.88477,8.19671 19.88789,8.08541 19.88147,8.31025 C 19.87505,8.53508 19.87837,8.42155 19.87155,8.65086 C 19.86474,8.88018 19.86825,8.76440 19.86103,8.99819 C 19.85380,9.23198 19.85753,9.11397 19.84987,9.35222 C 19.84222,9.59047 19.84617,9.47023 19.83807,9.71294 C 19.82997,9.95565 19.83414,9.83318 19.82558,10.08034 C 19.81702,10.32750 19.82143,10.20281 19.81239,10.45441 C 19.80336,10.70601 19.80800,10.57910 19.79847,10.83513 C 19.78894,11.09117 19.79384,10.96205 19.78380,11.22250 C 19.77376,11.48296 19.77892,11.35163 19.76835,11.61651 C 19.75778,11.88139 19.76320,11.74785 19.75209,12.01714 C 19.74097,12.28642 19.74667,12.15068 19.73499,12.42437 C 19.72331,12.69806 19.72930,12.56012 19.71703,12.83820 C 19.70477,13.11628 19.71106,12.97615 19.69819,13.25862 C 19.68532,13.54108 19.69191,13.39876 19.67842,13.68560 C 19.66493,13.97244 19.67185,13.82794 19.65771,14.11914 C 19.64358,14.41035 19.65082,14.26366 19.63603,14.55923 C 19.62124,14.85480 19.62881,14.70593 19.61334,15.00584 C 19.59787,15.30576 19.60579,15.15472 19.58962,15.45897 C 19.57345,15.76323 19.58172,15.61002 19.56484,15.91860 C 19.54795,16.22718 19.55658,16.07182 19.53896,16.38472 C 19.52133,16.69762 19.53034,16.54009 19.51195,16.85730 C 19.49357,17.17451 19.50296,17.01484 19.48380,17.33634 C 19.46463,17.65785 19.47442,17.49603 19.45445,17.82183 C 19.43448,18.14762 19.44468,17.98366 19.42389,18.31373 C 19.40310,18.64380 19.41371,18.47770 19.39208,18.81204 C 19.37044,19.14638 19.38148,18.97815 19.35898,19.31675 C 19.33648,19.65534 19.34796,19.48499 19.32457,19.82783 C 19.30118,20.17066 19.31311,19.99819 19.28881,20.34526 C 19.26452,20.69233 19.27691,20.51775 19.25168,20.86904 C 19.22644,21.22033 19.23931,21.04364 19.21312,21.39914 C 19.18694,21.75464 19.20028,21.57585 19.17312,21.93555 C 19.14596,22.29524 19.15980,22.11435 19.13163,22.47824 C 19.10347,22.84212 19.11782,22.65914 19.08863,23.02720 C 19.05945,23.39526 19.07431,23.21019 19.04408,23.58241 C 19.01385,23.95463 19.02924,23.76749 18.99794,24.14385 C 18.96664,24.52022 18.98257,24.33101 18.95018,24.71151 C 18.91778,25.09201 18.93427,24.90073 18.90076,25.28535 C 18.86724,25.66997 18.88429,25.47664 18.84964,25.86537 C 18.81499,26.25410 18.83262,26.05872 18.79680,26.45154 C 18.76098,26.84437 18.77920,26.64694 18.74219,27.04384 C 18.70518,27.44075 18.72400,27.24128 18.68578,27.64226 C 18.64755,28.04323 18.66698,27.84174 18.62752,28.24676 C 18.58806,28.65178 18.60812,28.44827 18.56740,28.85733 C 18.52667,29.26639 18.54737,29.06086 18.50535,29.47395 C 18.46334,29.88704 18.48469,29.67950 18.44136,30.09659 C 18.39803,30.51369 18.42004,30.30415 18.37538,30.72524 C 18.33071,31.14633 18.35339,30.93479 18.30737,31.35986 C 18.26134,31.78493 18.28471,31.57141 18.23729,32.00044 C 18.18987,32.42947 18.21394,32.21398 18.16511,32.64696 C 18.11627,33.07993 18.14106,32.86247 18.09079,33.29938 C 18.04051,33.73629 18.06602,33.51686 18.01428,33.95769 C 17.96254,34.39852 17.98879,34.17713 17.93555,34.62186 C 17.88232,35.06659 17.90933,34.84326 17.85457,35.29187 C 17.79981,35.74048 17.82759,35.51521 17.77128,35.96769 C 17.71498,36.42016 17.74354,36.19297 17.68566,36.64930 C 17.62778,37.10562 17.65713,36.87651 17.59766,37.33666 C 17.53818,37.79682 17.56834,37.56579 17.50723,38.02977 C 17.44613,38.49374 17.47711,38.26081 17.41435,38.72858 C 17.35160,39.19635 17.38341,38.96152 17.31897,39.43307 C 17.25454,39.90462 17.28719,39.66791 17.22105,40.14322 C 17.15491,40.61853 17.18843,40.37995 17.12055,40.85900 C 17.05268,41.33805 17.08707,41.09760 17.01743,41.58038 C 16.94780,42.06315 16.98307,41.82085 16.91165,42.30733 C 16.84022,42.79381 16.87640,42.54966 16.80316,43.03982 C 16.72992,43.52999 16.76701,43.28400 16.69193,43.77784 C 16.61685,44.27167 16.65487,44.02385 16.57791,44.52133 C 16.50096,45.01882 16.53992,44.76918 16.46107,45.27029 C 16.38222,45.77140 16.42214,45.51995 16.34136,46.02467 C 16.26058,46.52939 16.30147,46.27614 16.21874,46.78445 C 16.13601,47.29276 16.17788,47.03772 16.09317,47.54960 C 16.00846,48.06147 16.05133,47.80466 15.96461,48.32008 C 15.87788,48.83551 15.92177,48.57692 15.83301,49.09587 C 15.74425,49.61482 15.78915,49.35448 15.69833,49.87693 C 15.60751,50.39939 15.65345,50.13730 15.56054,50.66324 C 15.46762,51.18918 15.51462,50.92535 15.41958,51.45475 C 15.32454,51.98416 15.37261,51.71860 15.27542,52.25145 C 15.17824,52.78429 15.22738,52.51702 15.12802,53.05328 C 15.02866,53.58955 15.07890,53.32057 14.97733,53.86023 C 14.87576,54.39989 14.92711,54.12923 14.82331,54.67226 C 14.71951,55.21529 14.77199,54.94295 14.66592,55.48933 C 14.55985,56.03571 14.61347,55.76170 14.50512,56.31141 C 14.39676,56.86112 14.45153,56.58545 14.34085,57.13847 C 14.23018,57.69148 14.28611,57.41416 14.17309,57.97046 C 14.06008,58.52676 14.11719,58.24780 14.00179,58.80736 C 13.88640,59.36691 13.94471,59.08634 13.82691,59.64913 C 13.70911,60.21192 13.76863,59.92973 13.64840,60.49573 C 13.52817,61.06173 13.58891,60.77794 13.46623,61.34712 C 13.34354,61.91631 13.40551,61.63093 13.28034,62.20328 C 13.15516,62.77562 13.21839,62.48868 13.09070,63.06416 C 12.96301,63.63964 13.02750,63.35113 12.89727,63.92972 C 12.76703,64.50831 12.83280,64.21825 12.70000,64.79993 C 12.56719,65.38160 12.63425,65.09001 12.49885,65.67474 C 12.36344,66.25947 12.43181,65.96636 12.29378,66.55413 C 12.15574,67.14189 12.22543,66.84727 12.08474,67.43804 C 11.94405,68.02882 12.01508,67.73269 11.87170,68.32645 C 11.72833,68.92020 11.80071,68.62260 11.65462,69.21931 C 11.50853,69.81601 11.58227,69.51694 11.43344,70.11657 C 11.28462,70.71621 11.35973,70.41568 11.20814,71.01821 C 11.05654,71.62075 11.13305,71.31877 10.97866,71.92418 C 10.82427,72.52959 10.90218,72.22618 10.74496,72.83444 C 10.58775,73.44269 10.66708,73.13787 10.50702,73.74894 C 10.34695,74.36001 10.42771,74.05379 10.26477,74.66764 C 10.10182,75.28150 10.18403,74.97389 10.01818,75.59051 C 9.85233,76.20713 9.93600,75.89815 9.76722,76.51750 C 9.59843,77.13685 9.68358,76.82651 9.51183,77.44856 C 9.34009,78.07062 9.42672,77.75893 9.25198,78.38366 C 9.07725,79.00839 9.16538,78.69537 8.98763,79.32275 C 8.80989,79.95012 8.88386,79.88004 8.71874,80.26578 C 8.55362,80.65151 8.64388,80.87803 8.49227,80.47994 C 8.34065,80.08185 8.41538,80.00669 8.26389,79.07150 C 8.11240,78.13632 8.18773,78.60202 8.03779,77.67438 C 7.88785,76.74674 7.96239,77.20866 7.81406,76.28859 C 7.66573,75.36852 7.73945,75.82665 7.59280,74.91417 C 7.44614,74.00169 7.51901,74.45602 7.37410,73.55115 C 7.22919,72.64627 7.30117,73.09680 7.15806,72.19955 C 7.01494,71.30230 7.08601,71.74900 6.94475,70.85940 C 6.80349,69.96979 6.87363,70.41267 6.73428,69.53073 C 6.59493,68.64879 6.66409,69.08783 6.52671,68.21358 C 6.38932,67.33933 6.45749,67.77452 6.32212,66.90797 C 6.18675,66.04142 6.25391,66.47276 6.12060,65.61393 C 5.98729,64.75511 6.05340,65.18258 5.92221,64.33150 C 5.79101,63.48042 5.85605,63.90401 5.72701,63.06070 C 5.59796,62.21740 5.66192,62.63710 5.53507,61.80158 C 5.40822,60.96606 5.47108,61.38186 5.34646,60.55415 C 5.22184,59.72644 5.28357,60.13833 5.16122,59.31845 C 5.03887,58.49858 5.09945,58.90654 4.97940,58.09452 C 4.85935,57.28250 4.91879,57.68653 4.80107,56.88239 C 4.68335,56.07825 4.74161,56.47833 4.62625,55.68209 C 4.51089,54.88584 4.56796,55.28198 4.45499,54.49366 C 4.34201,53.70533 4.39789,54.09750 4.28732,53.31712 C 4.17676,52.53674 4.23143,52.92493 4.12328,52.15252 C 4.01514,51.38011 4.06860,51.76431 3.96290,50.99989 C 3.85720,50.23547 3.90943,50.61567 3.80619,49.85926 C 3.70294,49.10286 3.75394,49.47904 3.65317,48.73068 C 3.55239,47.98231 3.60216,48.35447 3.50386,47.61416 C 3.40556,46.87386 3.45409,47.24198 3.35827,46.50976 C 3.26245,45.77754 3.30974,46.14162 3.21641,45.41750 C 3.12308,44.69339 3.16912,45.05341 3.07828,44.33743 C 2.98743,43.62145 3.03223,43.97739 2.94387,43.26957 C 2.85551,42.56175 2.89907,42.91360 2.81318,42.21396 C 2.72730,41.51432 2.76963,41.86208 2.68621,41.17065 C 2.60279,40.47921 2.64389,40.82286 2.56293,40.13965 C 2.48198,39.45644 2.52185,39.79598 2.44334,39.12102 C 2.36483,38.44606 2.40348,38.78146 2.32740,38.11478 C 2.25132,37.44810 2.28876,37.77936 2.21510,37.12098 C 2.14143,36.46259 2.17768,36.78970 2.10640,36.13964 C 2.03513,35.48958 2.07018,35.81251 2.00128,35.17080 C 1.93238,34.52909 1.96626,34.84784 1.89970,34.21450 C 1.83315,33.58116 1.86586,33.89572 1.80162,33.27077 C 1.73739,32.64582 1.76895,32.95618 1.70700,32.33965 C 1.64506,31.72311 1.67548,32.02926 1.61580,31.42117 C 1.55612,30.81307 1.58542,31.11499 1.52797,30.51536 C 1.47052,29.91572 1.49871,30.21341 1.44345,29.62226 C 1.38820,29.03111 1.41530,29.32455 1.36221,28.74190 C 1.30911,28.15925 1.33514,28.44844 1.28417,27.87431 C 1.23320,27.30019 1.25818,27.58511 1.20929,27.01953 C 1.16040,26.45396 1.18435,26.73460 1.13751,26.17759 C 1.09066,25.62059 1.11360,25.89694 1.06876,25.34852 C 1.02392,24.80011 1.04587,25.07215 1.00298,24.53235 C 0.96010,23.99254 0.98108,24.26028 0.94011,23.72911 C 0.89915,23.19793 0.91918,23.46135 0.88009,22.93883 C 0.84099,22.41630 0.86010,22.67539 0.82283,22.16153 C 0.78557,21.64768 0.80377,21.90243 0.76829,21.39726 C 0.73280,20.89210 0.75013,21.14249 0.71637,20.64604 C 0.68262,20.14958 0.69909,20.39562 0.66703,19.90788 C 0.63496,19.42015 0.65060,19.66183 0.62017,19.18284 C 0.58974,18.70384 0.60458,18.94114 0.57574,18.47091 C 0.54690,18.00068 0.56095,18.23360 0.53366,17.77215 C 0.50636,17.31069 0.51965,17.53922 0.49385,17.08656 C 0.46805,16.63390 0.48061,16.85802 0.45625,16.41417 C 0.43189,15.97033 0.44374,16.19004 0.42077,15.75502 C 0.39781,15.32000 0.40897,15.53529 0.38736,15.10911 C 0.36574,14.68293 0.37624,14.89380 0.35592,14.47648 C 0.33560,14.05916 0.34547,14.26560 0.32640,13.85715 C 0.30733,13.44870 0.31658,13.65070 0.29872,13.25113 C 0.28085,12.85157 0.28951,13.04912 0.27280,12.65845 C 0.25608,12.26779 0.26418,12.46089 0.24857,12.07914 C 0.23297,11.69739 0.24052,11.88603 0.22597,11.51320 C 0.21143,11.14038 0.21847,11.32455 0.20493,10.96066 C 0.19140,10.59678 0.19794,10.77648 0.18537,10.42154 C 0.17280,10.06660 0.17887,10.24183 0.16723,9.89585 C 0.15559,9.54988 0.16120,9.72062 0.15044,9.38362 C 0.13967,9.04662 0.14486,9.21287 0.13493,8.88486 C 0.12500,8.55684 0.12978,8.71860 0.12064,8.39958 C 0.11151,8.08056 0.11590,8.23782 0.10751,7.92780 C 0.09912,7.61779 0.10316,7.77054 0.09548,7.46954 C 0.08780,7.16855 0.09148,7.31679 0.08447,7.02482 C 0.07746,6.73285 0.08082,6.87657 0.07444,6.59364 C 0.06806,6.31070 0.07112,6.44990 0.06533,6.17601 C 0.05954,5.90212 0.06231,6.03680 0.05707,5.77196 C 0.05184,5.50712 0.05434,5.63727 0.04962,5.38150 C 0.04491,5.12572 0.04716,5.25134 0.04293,5.00463 C 0.03869,4.75792 0.04071,4.87900 0.03693,4.64137 C 0.03314,4.40373 0.03494,4.52028 0.03158,4.29173 C 0.02821,4.06318 0.02981,4.17518 0.02683,3.95572 C 0.02385,3.73626 0.02526,3.84371 0.02264,3.63335 C 0.02001,3.42298 0.02125,3.52589 0.01896,3.32462 C 0.01666,3.12336 0.01774,3.22171 0.01574,3.02956 C 0.01374,2.83741 0.01468,2.93120 0.01295,2.74817 C 0.01123,2.56513 0.01204,2.65437 0.01055,2.48045 C 0.00907,2.30653 0.00977,2.39120 0.00850,2.22641 C 0.00724,2.06162 0.00783,2.14173 0.00677,1.98607 C 0.00570,1.83040 0.00620,1.90595 0.00531,1.75942 C 0.00442,1.61289 0.00484,1.68387 0.00410,1.54648 C 0.00337,1.40908 0.00371,1.47549 0.00311,1.34724 C 0.00252,1.21899 0.00279,1.28083 0.00232,1.16173 C 0.00184,1.04262 0.00206,1.09989 0.00168,0.98993 C 0.00131,0.87998 0.00148,0.93266 0.00119,0.83186 C 0.00090,0.73106 0.00103,0.77917 0.00081,0.68752 C 0.00059,0.59587 0.00069,0.63941 0.00053,0.55692 C 0.00037,0.47443 0.00044,0.51338 0.00033,0.44005 C 0.00022,0.36672 0.00027,0.40109 0.00019,0.33693 C 0.00012,0.27276 0.00015,0.30255 0.00011,0.24754 C 0.00006,0.19254 0.00008,0.21775 0.00005,0.17191 C 0.00002,0.12607 0.00004,0.14670 0.00002,0.11002 C 0.00001,0.07335 0.00001,0.08940 0.00001,0.06189 C 0.00000,0.03438 0.00000,0.04584 0.00000,0.02751 C -0.00000,0.00917 0.00000,0.01605 0.00000,0.00688 C -0.00000,-0.00229 0.00000,0.00229 0.00000,0.00000 C -0.00000,-0.00229 -0.00000,0.00229 0.00000,0.00000 Z" style="fill:#b7c2dd;fill-opacity:0.7;stroke:#000;stroke-width:0.8px;stroke-linejoin:round"/>
    <circle cx="-160.000" cy="0.000" r="3.000" style="fill:#dd2200;stroke:none"/>
    <circle cx="-500.000" cy="0" r="3.000" style="fill:none;stroke:#00aa33;stroke-width:0.7px;stroke-dasharray:1.5,1"/>
    <path d="M -160.000,-0.000 L 0.334,14.027 L 19.627,14.736 L 140.000,18.149" style="fill:none;stroke:#ff6600;stroke-width:0.7px"/>
    <path d="M 19.627,14.736 L -500.000,-0.000" style="fill:none;stroke:#ff6600;stroke-width:0.4px;stroke-dasharray:2,2;opacity:0.6"/>
    <path d="M -160.000,-0.000 L 0.188,10.499 L 19.791,11.038 L 140.000,13.591" style="fill:none;stroke:#ff6600;stroke-width:0.7px"/>
    <path d="M 19.791,11.038 L -500.000,-0.000" style="fill:none;stroke:#ff6600;stroke-width:0.4px;stroke-dasharray:2,2;opacity:0.6"/>
    <path d="M -160.000,-0.000 L 0.084,6.989 L 19.907,7.352 L 140.000,9.051" style="fill:none;stroke:#ff6600;stroke-width:0.7px"/>
    <path d="M 19.907,7.352 L -500.000,-0.000" style="fill:none;stroke:#ff6600;stroke-width:0.4px;stroke-dasharray:2,2;opacity:0.6"/>
    <path d="M -160.000,-0.000 L 0.021,3.492 L 19.977,3.674 L 140.000,4.522" style="fill:none;stroke:#ff6600;stroke-width:0.7px"/>
    <path d="M 19.977,3.674 L -500.000,-0.000" style="fill:none;stroke:#ff6600;stroke-width:0.4px;stroke-dasharray:2,2;opacity:0.6"/>
    <path d="M -160.000,-0.000 L 0.000,-0.000 L 20.000,-0.000 L 140.000,-0.000" style="fill:none;stroke:#ff6600;stroke-width:0.7px"/>
    <path d="M 20.000,-0.000 L -500.000,-0.000" style="fill:none;stroke:#ff6600;stroke-width:0.4px;stroke-dasharray:2,2;opacity:0.6"/>
    <path d="M -160.000,-0.000 L 0.021,-3.492 L 19.977,-3.674 L 140.000,-4.522" style="fill:none;stroke:#ff6600;stroke-width:0.7px"/>
    <path d="M 19.977,-3.674 L -500.000,0.000" style="fill:none;stroke:#ff6600;stroke-width:0.4px;stroke-dasharray:2,2;opacity:0.6"/>
    <path d="M -160.000,-0.000 L 0.084,-6.989 L 19.907,-7.352 L 140.000,-9.051" style="fill:none;stroke:#ff6600;stroke-width:0.7px"/>
    <path d="M 19.907,-7.352 L -500.000,0.000" style="fill:none;stroke:#ff6600;stroke-width:0.4px;stroke-dasharray:2,2;opacity:0.6"/>
    <path d="M -160.000,-0.000 L 0.188,-10.499 L 19.791,-11.038 L 140.000,-13.591" style="fill:none;stroke:#ff6600;stroke-width:0.7px"/>
    <path d="M 19.791,-11.038 L -500.000,0.000" style="fill:none;stroke:#ff6600;stroke-width:0.4px;stroke-dasharray:2,2;opacity:0.6"/>
    <path d="M -160.000,-0.000 L 0.334,-14.027 L 19.627,-14.736 L 140.000,-18.149" style="fill:none;stroke:#ff6600;stroke-width:0.7px"/>
    <path d="M 19.627,-14.736 L -500.000,0.000" style="fill:none;stroke:#ff6600;stroke-width:0.4px;stroke-dasharray:2,2;opacity:0.6"/>
  </g>
</svg>
