<?xml version="1.0" encoding="UTF-8" standalone="no"?>
<svg xmlns="http://www.w3.org/2000/svg" version="1.1" width="720.00" height="360.27" viewBox="0 0 720.00 360.27">
  <g transform="translate(260.000,180.136)">
    <path d="M -248.000,0.000 L 448.000,0.000" style="fill:none;stroke:#aaaaaa;stroke-width:0.5px;stroke-dasharray:6,3"/>
    <path d="M 0.00000,-0.00000 C 0.00000,-0.61472 -0.00248,-0.30735 0.00744,-0.92207 C 0.01736,-1.53680 0.00992,-1.22942 0.02976,-1.84418 C 0.04959,-2.45894 0.03720,-2.15154 0.06695,-2.76635 C 0.09671,-3.38117 0.07935,-3.07373 0.11902,-3.68862 C 0.15869,-4.30351 0.13638,-3.99604 0.18596,-4.61102 C 0.23554,-5.22601 0.20827,-4.91848 0.26777,-5.53358 C 0.32726,-6.14868 0.29504,-5.84109 0.36444,-6.45633 C 0.43383,-7.07157 0.39666,-6.76390 0.47596,-7.37931 C 0.55526,-7.99471 0.51314,-7.68695 0.60234,-8.30253 C 0.69153,-8.91811 0.64446,-8.61027 0.74355,-9.22605 C 0.84264,-9.84183 0.79063,-9.53387 0.89960,-10.14987 C 1.00857,-10.76587 0.95162,-10.45781 1.07047,-11.07404 C 1.18932,-11.69028 1.12743,-11.38209 1.25615,-11.99858 C 1.38488,-12.61508 1.31805,-12.30676 1.45664,-12.92352 C 1.59522,-13.54029 1.52347,-13.23183 1.67191,-13.84889 C 1.82035,-14.46595 1.74367,-14.15734 1.90196,-14.77471 C 2.06024,-15.39208 1.97864,-15.08330 2.14677,-15.70100 C 2.31489,-16.31870 2.22837,-16.00976 2.40632,-16.62780 C 2.58426,-17.24583 2.49284,-16.93672 2.68060,-17.55511 C 2.86836,-18.17351 2.77204,-17.86421 2.96960,-18.48298 C 3.16716,-19.10175 3.06594,-18.79226 3.27329,-19.41141 C 3.48064,-20.03056 3.37452,-19.72088 3.59165,-20.34043 C 3.80878,-20.95998 3.69778,-20.65010 3.92467,-21.27006 C 4.15157,-21.89001 4.03569,-21.57993 4.27233,-22.20030 C 4.50897,-22.82068 4.38822,-22.51038 4.63460,-23.13119 C 4.88098,-23.75200 4.75537,-23.44148 5.01146,-24.06273 C 5.26756,-24.68398 5.13709,-24.37324 5.40289,-24.99494 C 5.66870,-25.61664 5.53338,-25.30567 5.80887,-25.92783 C 6.08436,-26.54999 5.94420,-26.23879 6.22936,-26.86141 C 6.51452,-27.48403 6.36953,-27.17260 6.66435,-27.79569 C 6.95916,-28.41877 6.80935,-28.10711 7.11380,-28.73067 C 7.41824,-29.35423 7.26362,-29.04233 7.57768,-29.66637 C 7.89174,-30.29041 7.73232,-29.97827 8.05598,-30.60278 C 8.37964,-31.22730 8.21542,-30.91492 8.54866,-31.53992 C 8.88189,-32.16492 8.71289,-31.85230 9.05568,-32.47778 C 9.39847,-33.10325 9.22470,-32.79040 9.57702,-33.41635 C 9.92934,-34.04231 9.75081,-33.72921 10.11265,-34.35565 C 10.47448,-34.98209 10.29120,-34.66875 10.66253,-35.29566 C 11.03385,-35.92257 10.84583,-35.60900 11.22662,-36.23638 C 11.60741,-36.86377 11.41467,-36.54996 11.80490,-37.17781 C 12.19514,-37.80566 11.99767,-37.49162 12.39733,-38.11993 C 12.79698,-38.74823 12.59481,-38.43397 13.00386,-39.06273 C 13.41291,-39.69148 13.20605,-39.37700 13.62447,-40.00620 C 14.04289,-40.63539 13.83135,-40.32069 14.25911,-40.95032 C 14.68687,-41.57995 14.47067,-41.26504 14.90775,-41.89509 C 15.34482,-42.52514 15.12397,-42.21002 15.57034,-42.84047 C 16.01670,-43.47093 15.79122,-43.15561 16.24684,-43.78646 C 16.70247,-44.41731 16.47236,-44.10180 16.93722,-44.73303 C 17.40208,-45.36426 17.16736,-45.04856 17.64142,-45.68016 C 18.11549,-46.31175 17.87617,-45.99587 18.35941,-46.62781 C 18.84265,-47.25975 18.59876,-46.94371 19.09114,-47.57597 C 19.58353,-48.20824 19.33507,-47.89204 19.83657,-48.52461 C 20.33807,-49.15718 20.08506,-48.84083 20.59564,-49.47369 C 21.10622,-50.10655 20.84868,-49.79006 21.36832,-50.42318 C 21.88795,-51.05631 21.62589,-50.73969 22.15455,-51.37305 C 22.68320,-52.00642 22.41664,-51.68969 22.95428,-52.32327 C 23.49192,-52.95684 23.22088,-52.64002 23.76747,-53.27378 C 24.31407,-53.90755 24.03855,-53.59063 24.59407,-54.22456 C 25.14958,-54.85849 24.86962,-54.54150 25.43402,-55.17556 C 25.99842,-55.80962 25.71402,-55.49258 26.28727,-56.12675 C 26.86052,-56.76091 26.57170,-56.44382 27.15377,-57.07806 C 27.73583,-57.71230 27.44262,-57.39518 28.03346,-58.02946 C 28.62431,-58.66374 28.32671,-58.34661 28.92630,-58.98090 C 29.52589,-59.61520 29.22393,-59.29807 29.83222,-59.93234 C 30.44051,-60.56660 30.13421,-60.24950 30.75117,-60.88370 C 31.36813,-61.51791 31.05751,-61.20084 31.68310,-61.83495 C 32.30868,-62.46906 31.99376,-62.15206 32.62793,-62.78603 C 33.26211,-63.42001 32.94290,-63.10308 33.58563,-63.73689 C 34.22835,-64.37069 33.90488,-64.05386 34.55612,-64.68745 C 35.20735,-65.32105 34.87963,-65.00433 35.53934,-65.63767 C 36.19905,-66.27102 35.86710,-65.95443 36.53524,-66.58749 C 37.20338,-67.22054 36.86723,-66.90411 37.54376,-67.53683 C 38.22029,-68.16955 37.87995,-67.85330 38.56483,-68.48564 C 39.24970,-69.11798 38.90520,-68.80193 39.59838,-69.43385 C 40.29156,-70.06577 39.94292,-69.74994 40.64436,-70.38139 C 41.34580,-71.01284 40.99304,-70.69726 41.70269,-71.32820 C 42.41235,-71.95913 42.05550,-71.64382 42.77332,-72.27420 C 43.49115,-72.90457 43.13022,-72.58956 43.85618,-73.21932 C 44.58214,-73.84909 44.21716,-73.53439 44.95120,-74.16350 C 45.68524,-74.79261 45.31623,-74.47825 46.05831,-75.10665 C 46.80039,-75.73506 46.42737,-75.42106 47.17744,-76.04871 C 47.92751,-76.67635 47.55051,-76.36275 48.30853,-76.98959 C 49.06654,-77.61642 48.68558,-77.30324 49.45150,-77.92922 C 50.21741,-78.55519 49.83251,-78.24245 50.60628,-78.86752 C 51.38005,-79.49258 50.99123,-79.18031 51.77280,-79.80441 C 52.55437,-80.42850 52.16167,-80.11673 52.95099,-80.73981 C 53.74032,-81.36288 53.34375,-81.05163 54.14078,-81.67363 C 54.93782,-82.29563 54.53740,-81.98494 55.34210,-82.60580 C 56.14679,-83.22667 55.74256,-82.91656 56.55485,-83.53624 C 57.36715,-84.15592 56.95913,-83.84641 57.77899,-84.46485 C 58.59884,-85.08328 58.18705,-84.77441 59.01441,-85.39155 C 59.84177,-86.00868 59.42625,-85.70048 60.26106,-86.31625 C 61.09587,-86.93203 60.67664,-86.62452 61.51885,-87.23888 C 62.36107,-87.85323 61.93814,-87.54645 62.78771,-88.15933 C 63.63727,-88.77221 63.21069,-88.46618 64.06755,-89.07752 C 64.92441,-89.68887 64.49419,-89.38361 65.35830,-89.99336 C 66.22241,-90.60311 65.78858,-90.29867 66.65988,-90.90677 C 67.53117,-91.51486 67.09376,-91.21127 67.97220,-91.81764 C 68.85063,-92.42401 68.40966,-92.12129 69.29518,-92.72589 C 70.18070,-93.33049 69.73621,-93.02867 70.62875,-93.63143 C 71.52130,-94.23418 71.07330,-93.93330 71.97282,-94.53415 C 72.87234,-95.13501 72.42087,-94.83510 73.32731,-95.43398 C 74.23374,-96.03287 73.77883,-95.73396 74.69213,-96.33082 C 75.60542,-96.92768 75.14709,-96.62979 76.06719,-97.22456 C 76.98729,-97.81933 76.52558,-97.52251 77.45242,-98.11512 C 78.37927,-98.70774 77.91419,-98.41201 78.84773,-99.00241 C 79.78126,-99.59280 79.31286,-99.29820 80.25303,-99.88632 C 81.19319,-100.47443 80.72149,-100.18098 81.66823,-100.76675 C 82.61497,-101.35253 82.13999,-101.06027 83.09324,-101.64363 C 84.04650,-102.22699 83.56828,-101.93595 84.52799,-102.51684 C 85.48770,-103.09773 85.00627,-102.80794 85.97237,-103.38629 C 86.93847,-103.96464 86.45386,-103.67614 87.42630,-104.25189 C 88.39874,-104.82763 87.91097,-104.54045 88.88969,-105.11353 C 89.86841,-105.68661 89.37752,-105.40078 90.36245,-105.97112 C 91.34738,-106.54147 90.85340,-106.25702 91.84448,-106.82457 C 92.83557,-107.39212 92.33852,-107.10908 93.33570,-107.67377 C 94.33288,-108.23845 93.83280,-107.95687 94.83601,-108.51863 C 95.83922,-109.08038 95.33615,-108.80028 96.34532,-109.35904 C 97.35450,-109.91781 96.84846,-109.63921 97.86354,-110.19492 C 98.87862,-110.75063 98.36964,-110.47358 99.39057,-111.02617 C 100.41149,-111.57876 99.89961,-111.30328 100.92631,-111.85268 C 101.95302,-112.40208 101.43826,-112.12822 102.47068,-112.67437 C 103.50310,-113.22051 102.98550,-112.94829 104.02357,-113.49112 C 105.06164,-114.03395 104.54124,-113.76341 105.58490,-114.30286 C 106.62855,-114.84230 106.10537,-114.57347 107.15455,-115.10947 C 108.20373,-115.64547 107.67780,-115.37837 108.73244,-115.91086 C 109.78708,-116.44335 109.25844,-116.17803 110.31847,-116.70694 C 111.37850,-117.23586 110.84718,-116.97233 111.91254,-117.49761 C 112.97790,-118.02289 112.44393,-117.76120 113.51455,-118.28277 C 114.58517,-118.80435 114.04859,-118.54453 115.12440,-119.06233 C 116.20021,-119.58014 115.66105,-119.32222 116.74199,-119.83620 C 117.82293,-120.35017 117.28122,-120.09418 118.36723,-120.60426 C 119.45323,-121.11435 118.90900,-120.86032 120.00000,-121.36645 C 121.09100,-121.87257 120.54429,-121.62054 121.64021,-122.12264 C 122.73613,-122.62475 122.18699,-122.37474 123.28776,-122.87277 C 124.38854,-123.37079 123.83698,-123.12284 124.94255,-123.61672 C 126.04812,-124.11060 125.49418,-123.86474 126.60447,-124.35441 C 127.71476,-124.84408 127.15848,-124.60034 128.27342,-125.08574 C 129.38836,-125.57115 128.82977,-125.32955 129.94930,-125.81063 C 131.06882,-126.29171 130.50796,-126.05229 131.63199,-126.52898 C 132.75603,-127.00566 132.19293,-126.76846 133.32141,-127.24069 C 134.44989,-127.71293 133.88458,-127.47796 135.01744,-127.94569 C 136.15030,-128.41341 135.58282,-128.18072 136.71998,-128.64387 C 137.85714,-129.10703 137.28753,-128.87663 138.42892,-129.33515 C 139.57031,-129.79368 138.99860,-129.56561 140.14416,-130.01944 C 141.28971,-130.47328 140.71594,-130.24757 141.86559,-130.69666 C 143.01523,-131.14575 142.43943,-130.92243 143.59310,-131.36671 C 144.74677,-131.81099 144.16897,-131.59009 145.32659,-132.02950 C 146.48420,-132.46892 145.90445,-132.25046 147.06594,-132.68496 C 148.22744,-133.11946 147.64577,-132.90347 148.81106,-133.33299 C 149.97636,-133.76251 149.39281,-133.54903 150.56184,-133.97351 C 151.73087,-134.39800 151.14546,-134.18705 152.31815,-134.60644 C 153.49084,-135.02584 152.90363,-134.81745 154.07991,-135.23169 C 155.25618,-135.64594 154.66719,-135.44014 155.84699,-135.84919 C 157.02678,-136.25823 156.43605,-136.05504 157.61928,-136.45884 C 158.80252,-136.86263 158.21009,-136.66208 159.39669,-137.06056 C 160.58329,-137.45904 159.98919,-137.26116 161.17909,-137.65428 C 162.36898,-138.04741 161.77326,-137.85222 162.96637,-138.23992 C 164.15949,-138.62763 163.56217,-138.43516 164.75844,-138.81740 C 165.95470,-139.19964 165.35583,-139.00992 166.55516,-139.38664 C 167.75450,-139.76336 167.15411,-139.57641 168.35645,-139.94756 C 169.55878,-140.31871 168.95691,-140.13456 170.16217,-140.50008 C 171.36743,-140.86561 170.76411,-140.68428 171.97222,-141.04414 C 173.18033,-141.40400 172.57561,-141.22552 173.78649,-141.57965 C 174.99737,-141.93379 174.39128,-141.75818 175.60486,-142.10655 C 176.81844,-142.45492 176.21102,-142.28221 177.42723,-142.62476 C 178.64343,-142.96731 178.03472,-142.79752 179.25347,-143.13420 C 180.47222,-143.47089 179.86226,-143.30404 181.08348,-143.63481 C 182.30471,-143.96559 181.69352,-143.80171 182.91715,-144.12652 C 184.14077,-144.45134 183.52841,-144.29045 184.75435,-144.60926 C 185.98029,-144.92807 185.36679,-144.77019 186.59498,-145.08295 C 187.82316,-145.39572 187.20856,-145.24087 188.43891,-145.54754 C 189.66927,-145.85421 189.05360,-145.70243 190.28605,-146.00296 C 191.51850,-146.30349 190.90180,-146.15478 192.13626,-146.44913 C 193.37073,-146.74348 192.75304,-146.59788 193.98945,-146.88600 C 195.22585,-147.17413 194.60721,-147.03165 195.84548,-147.31351 C 197.08375,-147.59537 196.46420,-147.45603 197.70426,-147.73159 C 198.94431,-148.00714 198.32389,-147.87097 199.56565,-148.14017 C 200.80742,-148.40938 200.18616,-148.27639 201.42956,-148.53921 C 202.67295,-148.80203 202.05089,-148.67224 203.29585,-148.92863 C 204.54080,-149.18503 203.91799,-149.05846 205.16442,-149.30839 C 206.41085,-149.55832 205.78731,-149.43499 207.03515,-149.67842 C 208.28298,-149.92185 207.65876,-149.80178 208.90792,-150.03867 C 210.15708,-150.27556 209.53221,-150.15877 210.78262,-150.38908 C 212.03302,-150.61939 211.40756,-150.50590 212.65913,-150.72960 C 213.91070,-150.95330 213.28467,-150.84313 214.53733,-151.06018 C 215.79000,-151.27723 215.16344,-151.17039 216.41712,-151.38076 C 217.67080,-151.59113 217.04375,-151.48763 218.29837,-151.69129 C 219.55298,-151.89494 218.92549,-151.79482 220.18096,-151.99172 C 221.43643,-152.18863 220.80853,-152.09188 222.06478,-152.28201 C 223.32103,-152.47214 222.69276,-152.37879 223.94971,-152.56210 C 225.20666,-152.74542 224.57806,-152.65548 225.83564,-152.83196 C 227.09321,-153.00843 226.46432,-152.92192 227.72244,-153.09152 C 228.98057,-153.26112 228.35142,-153.17806 229.61001,-153.34076 C 230.86860,-153.50346 230.23924,-153.42385 231.49822,-153.57962 C 232.75720,-153.73538 232.12766,-153.65925 233.38696,-153.80806 C 234.64625,-153.95687 234.01658,-153.88422 235.27611,-154.02604 C 236.53564,-154.16787 235.90586,-154.09872 237.16555,-154.23353 C 238.42523,-154.36834 237.79540,-154.30270 239.05516,-154.43048 C 240.31493,-154.55825 239.68507,-154.49614 240.94484,-154.61685 C 242.20460,-154.73756 241.57477,-154.67898 242.83445,-154.79261 C 244.09414,-154.90623 243.46436,-154.85120 244.72389,-154.95772 C 245.98342,-155.06423 245.35375,-155.01276 246.61304,-155.11214 C 247.87234,-155.21152 247.24280,-155.16363 248.50178,-155.25585 C 249.76076,-155.34807 249.13140,-155.30376 250.38999,-155.38881 C 251.64858,-155.47386 251.01943,-155.43314 252.27756,-155.51099 C 253.53568,-155.58884 252.90679,-155.55172 254.16436,-155.62236 C 255.42194,-155.69299 254.79334,-155.65949 256.05029,-155.72288 C 257.30724,-155.78628 256.67897,-155.75640 257.93522,-155.81254 C 259.19147,-155.86868 258.56357,-155.84243 259.81904,-155.89130 C 261.07451,-155.94017 260.44702,-155.91756 261.70163,-155.95914 C 262.95625,-156.00072 262.32920,-155.98176 263.58288,-156.01604 C 264.83656,-156.05031 264.21000,-156.03501 265.46267,-156.06196 C 266.71533,-156.08892 266.08930,-156.07728 267.34087,-156.09690 C 268.59244,-156.11651 267.96698,-156.10855 269.21738,-156.12081 C 270.46779,-156.13308 269.84292,-156.12879 271.09208,-156.13370 C 272.34124,-156.13861 271.71702,-156.13800 272.96485,-156.13553 C 274.21269,-156.13306 273.58915,-156.13615 274.83558,-156.12629 C 276.08201,-156.11644 275.45920,-156.12322 276.70415,-156.10597 C 277.94911,-156.08871 277.32705,-156.09919 278.57044,-156.07453 C 279.81384,-156.04987 279.19258,-156.06406 280.43435,-156.03198 C 281.67611,-155.99991 281.05569,-156.01781 282.29574,-155.97830 C 283.53580,-155.93880 282.91625,-155.96041 284.15452,-155.91348 C 285.39279,-155.86654 284.77415,-155.89187 286.01055,-155.83749 C 287.24696,-155.78312 286.62927,-155.81217 287.86374,-155.75035 C 289.09820,-155.68852 288.48150,-155.72130 289.71395,-155.65202 C 290.94640,-155.58274 290.33073,-155.61925 291.56109,-155.54251 C 292.79144,-155.46578 292.17684,-155.50601 293.40502,-155.42181 C 294.63321,-155.33762 294.01971,-155.38158 295.24565,-155.28992 C 296.47159,-155.19826 295.85923,-155.24596 297.08285,-155.14682 C 298.30648,-155.04769 297.69529,-155.09913 298.91652,-154.99252 C 300.13774,-154.88592 299.52778,-154.94109 300.74653,-154.82701 C 301.96528,-154.71294 301.35657,-154.77185 302.57277,-154.65030 C 303.78898,-154.52875 303.18156,-154.59139 304.39514,-154.46237 C 305.60872,-154.33335 305.00263,-154.39973 306.21351,-154.26324 C 307.42439,-154.12675 306.81967,-154.19686 308.02778,-154.05290 C 309.23589,-153.90893 308.63257,-153.98278 309.83783,-153.83135 C 311.04309,-153.67992 310.44122,-153.75750 311.64355,-153.59861 C 312.84589,-153.43971 312.24550,-153.52102 313.44484,-153.35467 C 314.64417,-153.18831 314.04530,-153.27335 315.24156,-153.09954 C 316.43783,-152.92573 315.84051,-153.01449 317.03363,-152.83323 C 318.22674,-152.65197 317.63102,-152.74446 318.82091,-152.55575 C 320.01081,-152.36704 319.41671,-152.46325 320.60331,-152.26710 C 321.78991,-152.07095 321.19748,-152.17088 322.38072,-151.96730 C 323.56395,-151.76372 322.97322,-151.86736 324.15301,-151.65636 C 325.33281,-151.44536 324.74382,-151.55271 325.92009,-151.33429 C 327.09637,-151.11587 326.50916,-151.22693 327.68185,-151.00110 C 328.85454,-150.77528 328.26913,-150.89004 329.43816,-150.65682 C 330.60719,-150.42360 330.02364,-150.54205 331.18894,-150.30144 C 332.35423,-150.06084 331.77256,-150.18298 332.93406,-149.93500 C 334.09555,-149.68702 333.51580,-149.81285 334.67341,-149.55751 C 335.83103,-149.30217 335.25323,-149.43167 336.40690,-149.16898 C 337.56057,-148.90629 336.98477,-149.03947 338.13441,-148.76944 C 339.28406,-148.49942 338.71029,-148.63626 339.85584,-148.35891 C 341.00140,-148.08157 340.42969,-148.22206 341.57108,-147.93742 C 342.71247,-147.65277 342.14286,-147.79691 343.28002,-147.50497 C 344.41718,-147.21303 343.84970,-147.36081 344.98256,-147.06160 C 346.11542,-146.76239 345.55011,-146.91380 346.67859,-146.60734 C 347.80707,-146.30087 347.24397,-146.45590 348.36801,-146.14220 C 349.49204,-145.82849 348.93118,-145.98714 350.05070,-145.66621 C 351.17023,-145.34529 350.61164,-145.50754 351.72658,-145.17941 C 352.84152,-144.85128 352.28524,-145.01714 353.39553,-144.68183 C 354.50582,-144.34651 353.95188,-144.51595 355.05745,-144.17348 C 356.16302,-143.83101 355.61146,-144.00402 356.71224,-143.65441 C 357.81301,-143.30479 357.26387,-143.48137 358.35979,-143.12464 C 359.45571,-142.76790 358.90900,-142.94804 360.00000,-142.58421 C 361.09100,-142.22037 360.54677,-142.40405 361.63277,-142.03315 C 362.71878,-141.66224 362.17707,-141.84945 363.25801,-141.47149 C 364.33895,-141.09354 363.79979,-141.28426 364.87560,-140.89928 C 365.95141,-140.51430 365.41483,-140.70853 366.48545,-140.31655 C 367.55607,-139.92456 367.02210,-140.12229 368.08746,-139.72333 C 369.15282,-139.32437 368.62150,-139.52558 369.68153,-139.11967 C 370.74156,-138.71376 370.21292,-138.91843 371.26756,-138.50560 C 372.32220,-138.09277 371.79627,-138.30090 372.84545,-137.88117 C 373.89463,-137.46144 373.37145,-137.67301 374.41510,-137.24641 C 375.45876,-136.81982 374.93836,-137.03481 375.97643,-136.60138 C 377.01450,-136.16794 376.49690,-136.38635 377.52932,-135.94610 C 378.56174,-135.50586 378.04698,-135.72766 379.07369,-135.28064 C 380.10039,-134.83361 379.58851,-135.05880 380.60943,-134.60502 C 381.63036,-134.15124 381.12138,-134.37980 382.13646,-133.91930 C 383.15154,-133.45880 382.64550,-133.69071 383.65468,-133.22353 C 384.66385,-132.75634 384.16078,-132.99159 385.16399,-132.51775 C 386.16720,-132.04390 385.66712,-132.28247 386.66430,-131.80200 C 387.66148,-131.32154 387.16443,-131.56341 388.15552,-131.07635 C 389.14660,-130.58930 388.65262,-130.83445 389.63755,-130.34085 C 390.62248,-129.84724 390.13159,-130.09566 391.11031,-129.59553 C 392.08903,-129.09540 391.60126,-129.34707 392.57370,-128.84046 C 393.54614,-128.33384 393.06153,-128.58875 394.02763,-128.07568 C 394.99373,-127.56262 394.51230,-127.82074 395.47201,-127.30126 C 396.43172,-126.78178 395.95350,-127.04310 396.90676,-126.51724 C 397.86001,-125.99138 397.38503,-126.25588 398.33177,-125.72369 C 399.27851,-125.19149 398.80681,-125.45915 399.74697,-124.92065 C 400.68714,-124.38215 400.21874,-124.65295 401.15227,-124.10819 C 402.08581,-123.56342 401.62073,-123.83735 402.54758,-123.28636 C 403.47442,-122.73537 403.01271,-123.01240 403.93281,-122.45522 C 404.85291,-121.89805 404.39458,-122.17816 405.30787,-121.61484 C 406.22117,-121.05152 405.76626,-121.33469 406.67269,-120.76527 C 407.57913,-120.19585 407.12766,-120.48206 408.02718,-119.90657 C 408.92670,-119.33109 408.47870,-119.62032 409.37125,-119.03881 C 410.26379,-118.45731 409.81930,-118.74954 410.70482,-118.16205 C 411.59034,-117.57456 411.14937,-117.86978 412.02780,-117.27635 C 412.90624,-116.68293 412.46883,-116.98110 413.34012,-116.38178 C 414.21142,-115.78246 413.77759,-116.08357 414.64170,-115.47840 C 415.50581,-114.87323 415.07559,-115.17725 415.93245,-114.56628 C 416.78931,-113.95530 416.36273,-114.26221 417.21229,-113.64548 C 418.06186,-113.02874 417.63893,-113.33852 418.48115,-112.71607 C 419.32336,-112.09362 418.90413,-112.40625 419.73894,-111.77813 C 420.57375,-111.15001 420.15823,-111.46546 420.98559,-110.83171 C 421.81295,-110.19797 421.40116,-110.51622 422.22101,-109.87690 C 423.04087,-109.23757 422.63285,-109.55860 423.44515,-108.91375 C 424.25744,-108.26890 423.85321,-108.59267 424.65790,-107.94234 C 425.46260,-107.29201 425.06218,-107.61851 425.85922,-106.96274 C 426.65625,-106.30698 426.25968,-106.63619 427.04901,-105.97503 C 427.83833,-105.31388 427.44563,-105.64577 428.22720,-104.97928 C 429.00877,-104.31279 428.61995,-104.64734 429.39372,-103.97556 C 430.16749,-103.30378 429.78259,-103.64096 430.54850,-102.96394 C 431.31442,-102.28693 430.93346,-102.62671 431.69147,-101.94451 C 432.44949,-101.26230 432.07249,-101.60467 432.82256,-100.91733 C 433.57263,-100.22999 433.19961,-100.57491 433.94169,-99.88249 C 434.68377,-99.19006 434.31476,-99.53751 435.04880,-98.84005 C 435.78284,-98.14259 435.41786,-98.49255 436.14382,-97.79011 C 436.86978,-97.08766 436.50885,-97.44010 437.22668,-96.73273 C 437.94450,-96.02536 437.58765,-96.38024 438.29731,-95.66799 C 439.00696,-94.95575 438.65420,-95.31306 439.35564,-94.59599 C 440.05708,-93.87892 439.70844,-94.23862 440.40162,-93.51678 C 441.09480,-92.79494 440.75030,-93.15702 441.43517,-92.43047 C 442.12005,-91.70391 441.77971,-92.06834 442.45624,-91.33712 C 443.13277,-90.60591 442.79662,-90.97264 443.46476,-90.23682 C 444.13290,-89.50100 443.80095,-89.87003 444.46066,-89.12966 C 445.12037,-88.38929 444.79265,-88.76058 445.44388,-88.01571 C 446.09512,-87.27084 445.77165,-87.64437 446.41437,-86.89506 C 447.05710,-86.14576 446.73789,-86.52148 447.37207,-85.76780 C 448.00624,-85.01411 447.69132,-85.39201 448.31690,-84.63400 C 448.94249,-83.87599 448.63187,-84.25604 449.24883,-83.49376 C 449.86579,-82.73148 449.55949,-83.11365 450.16778,-82.34716 C 450.77607,-81.58066 450.47411,-81.96493 451.07370,-81.19428 C 451.67329,-80.42364 451.37569,-80.80996 451.96654,-80.03522 C 452.55738,-79.26048 452.26417,-79.64884 452.84623,-78.87006 C 453.42830,-78.09128 453.13948,-78.48165 453.71273,-77.69889 C 454.28598,-76.91614 454.00158,-77.30847 454.56598,-76.52180 C 455.13038,-75.73513 454.85042,-76.12940 455.40593,-75.33887 C 455.96145,-74.54834 455.68593,-74.94453 456.23253,-74.15020 C 456.77912,-73.35587 456.50808,-73.75395 457.04572,-72.95588 C 457.58336,-72.15781 457.31680,-72.55774 457.84545,-71.75600 C 458.37411,-70.95425 458.11205,-71.35600 458.63168,-70.55064 C 459.15132,-69.74527 458.89378,-70.14882 459.40436,-69.33990 C 459.91494,-68.53098 459.66193,-68.93629 460.16343,-68.12387 C 460.66493,-67.31145 460.41647,-67.71850 460.90886,-66.90265 C 461.40124,-66.08679 461.15735,-66.49554 461.64059,-65.67632 C 462.12383,-64.85709 461.88451,-65.26751 462.35858,-64.44498 C 462.83264,-63.62244 462.59792,-64.03450 463.06278,-63.20872 C 463.52764,-62.38294 463.29753,-62.79660 463.75316,-61.96764 C 464.20878,-61.13867 463.98330,-61.55391 464.42966,-60.72183 C 464.87603,-59.88974 464.65518,-60.30653 465.09225,-59.47138 C 465.52933,-58.63624 465.31313,-59.05453 465.74089,-58.21640 C 466.16865,-57.37826 465.95711,-57.79804 466.37553,-56.95697 C 466.79395,-56.11590 466.58709,-56.53713 466.99614,-55.69319 C 467.40519,-54.84925 467.20302,-55.27190 467.60267,-54.42516 C 468.00233,-53.57842 467.80486,-54.00245 468.19510,-53.15298 C 468.58533,-52.30350 468.39259,-52.72888 468.77338,-51.87673 C 469.15417,-51.02458 468.96615,-51.45128 469.33747,-50.59653 C 469.70880,-49.74177 469.52552,-50.16976 469.88735,-49.31246 C 470.24919,-48.45515 470.07066,-48.88440 470.42298,-48.02462 C 470.77530,-47.16484 470.60153,-47.59531 470.94432,-46.73312 C 471.28711,-45.87092 471.11811,-46.30258 471.45134,-45.43804 C 471.78458,-44.57350 471.62036,-45.00632 471.94402,-44.13950 C 472.26768,-43.27268 472.10826,-43.70662 472.42232,-42.83758 C 472.73638,-41.96854 472.58176,-42.40357 472.88620,-41.53239 C 473.19065,-40.66121 473.04084,-41.09729 473.33565,-40.22403 C 473.63047,-39.35076 473.48548,-39.78787 473.77064,-38.91259 C 474.05580,-38.03731 473.91564,-38.47541 474.19113,-37.59818 C 474.46662,-36.72095 474.33130,-37.16001 474.59711,-36.28090 C 474.86291,-35.40179 474.73244,-35.84177 474.98854,-34.96084 C 475.24463,-34.07992 475.11902,-34.52079 475.36540,-33.63812 C 475.61178,-32.75544 475.49103,-33.19717 475.72767,-32.31282 C 475.96431,-31.42846 475.84843,-31.87102 476.07533,-30.98505 C 476.30222,-30.09908 476.19122,-30.54243 476.40835,-29.65492 C 476.62548,-28.76740 476.51936,-29.21150 476.72671,-28.32252 C 476.93406,-27.43353 476.83284,-27.87835 477.03040,-26.98795 C 477.22796,-26.09755 477.13164,-26.54306 477.31940,-25.65132 C 477.50716,-24.75958 477.41574,-25.20574 477.59368,-24.31273 C 477.77163,-23.41972 477.68511,-23.86650 477.85323,-22.97228 C 478.02136,-22.07806 477.93976,-22.52543 478.09804,-21.63008 C 478.25633,-20.73472 478.17965,-21.18264 478.32809,-20.28622 C 478.47653,-19.38979 478.40478,-19.83823 478.54336,-18.94081 C 478.68195,-18.04339 478.61512,-18.49230 478.74385,-17.59395 C 478.87257,-16.69560 478.81068,-17.14496 478.92953,-16.24575 C 479.04838,-15.34653 478.99143,-15.79631 479.10040,-14.89630 C 479.20937,-13.99630 479.15736,-14.44646 479.25645,-13.54572 C 479.35554,-12.64499 479.30847,-13.09549 479.39766,-12.19410 C 479.48686,-11.29271 479.44474,-11.74353 479.52404,-10.84155 C 479.60334,-9.93957 479.56617,-10.39067 479.63556,-9.48817 C 479.70496,-8.58568 479.67274,-9.03701 479.73223,-8.13407 C 479.79173,-7.23112 479.76446,-7.68266 479.81404,-6.77934 C 479.86362,-5.87601 479.84131,-6.32773 479.88098,-5.42409 C 479.92065,-4.52046 479.90329,-4.97231 479.93305,-4.06843 C 479.96280,-3.16456 479.95041,-3.61651 479.97024,-2.71246 C 479.99008,-1.80841 479.98264,-2.26044 479.99256,-1.35628 C 480.00248,-0.45213 480.00000,-0.90419 480.00000,-0.00000 C 480.00000,0.90419 480.00248,0.45213 479.99256,1.35628 C 479.98264,2.26044 479.99008,1.80841 479.97024,2.71246 C 479.95041,3.61651 479.96280,3.16456 479.93305,4.06843 C 479.90329,4.97231 479.92065,4.52046 479.88098,5.42409 C 479.84131,6.32773 479.86362,5.87601 479.81404,6.77934 C 479.76446,7.68266 479.79173,7.23112 479.73223,8.13407 C 479.67274,9.03701 479.70496,8.58568 479.63556,9.48817 C 479.56617,10.39067 479.60334,9.93957 479.52404,10.84155 C 479.44474,11.74353 479.48686,11.29271 479.39766,12.19410 C 479.30847,13.09549 479.35554,12.64499 479.25645,13.54572 C 479.15736,14.44646 479.20937,13.99630 479.10040,14.89630 C 478.99143,15.79631 479.04838,15.34653 478.92953,16.24575 C 478.81068,17.14496 478.87257,16.69560 478.74385,17.59395 C 478.61512,18.49230 478.68195,18.04339 478.54336,18.94081 C 478.40478,19.83823 478.47653,19.38979 478.32809,20.28622 C 478.17965,21.18264 478.25633,20.73472 478.09804,21.63008 C 477.93976,22.52543 478.02136,22.07806 477.85323,22.97228 C 477.68511,23.86650 477.77163,23.41972 477.59368,24.31273 C 477.41574,25.20574 477.50716,24.75958 477.31940,25.65132 C 477.13164,26.54306 477.22796,26.09755 477.03040,26.98795 C 476.83284,27.87835 476.93406,27.43353 476.72671,28.32252 C 476.51936,29.21150 476.62548,28.76740 476.40835,29.65492 C 476.19122,30.54243 476.30222,30.09908 476.07533,30.98505 C 475.84843,31.87102 475.96431,31.42846 475.72767,32.31282 C 475.49103,33.19717 475.61178,32.75544 475.36540,33.63812 C 475.11902,34.52079 475.24463,34.07992 474.98854,34.96084 C 474.73244,35.84177 474.86291,35.40179 474.59711,36.28090 C 474.33130,37.16001 474.46662,36.72095 474.19113,37.59818 C 473.91564,38.47541 474.05580,38.03731 473.77064,38.91259 C 473.48548,39.78787 473.63047,39.35076 473.33565,40.22403 C 473.04084,41.09729 473.19065,40.66121 472.88620,41.53239 C 472.58176,42.40357 472.73638,41.96854 472.42232,42.83758 C 472.10826,43.70662 472.26768,43.27268 471.94402,44.13950 C 471.62036,45.00632 471.78458,44.57350 471.45134,45.43804 C 471.11811,46.30258 471.28711,45.87092 470.94432,46.73312 C 470.60153,47.59531 470.77530,47.16484 470.42298,48.02462 C 470.07066,48.88440 470.24919,48.45515 469.88735,49.31246 C 469.52552,50.16976 469.70880,49.74177 469.33747,50.59653 C 468.96615,51.45128 469.15417,51.02458 468.77338,51.87673 C 468.39259,52.72888 468.58533,52.30350 468.19510,53.15298 C 467.80486,54.00245 468.00233,53.57842 467.60267,54.42516 C 467.20302,55.27190 467.40519,54.84925 466.99614,55.69319 C 466.58709,56.53713 466.79395,56.11590 466.37553,56.95697 C 465.95711,57.79804 466.16865,57.37826 465.74089,58.21640 C 465.31313,59.05453 465.52933,58.63624 465.09225,59.47138 C 464.65518,60.30653 464.87603,59.88974 464.42966,60.72183 C 463.98330,61.55391 464.20878,61.13867 463.75316,61.96764 C 463.29753,62.79660 463.52764,62.38294 463.06278,63.20872 C 462.59792,64.03450 462.83264,63.62244 462.35858,64.44498 C 461.88451,65.26751 462.12383,64.85709 461.64059,65.67632 C 461.15735,66.49554 461.40124,66.08679 460.90886,66.90265 C 460.41647,67.71850 460.66493,67.31145 460.16343,68.12387 C 459.66193,68.93629 459.91494,68.53098 459.40436,69.33990 C 458.89378,70.14882 459.15132,69.74527 458.63168,70.55064 C 458.11205,71.35600 458.37411,70.95425 457.84545,71.75600 C 457.31680,72.55774 457.58336,72.15781 457.04572,72.95588 C 456.50808,73.75395 456.77912,73.35587 456.23253,74.15020 C 455.68593,74.94453 455.96145,74.54834 455.40593,75.33887 C 454.85042,76.12940 455.13038,75.73513 454.56598,76.52180 C 454.00158,77.30847 454.28598,76.91614 453.71273,77.69889 C 453.13948,78.48165 453.42830,78.09128 452.84623,78.87006 C 452.26417,79.64884 452.55738,79.26048 451.96654,80.03522 C 451.37569,80.80996 451.67329,80.42364 451.07370,81.19428 C 450.47411,81.96493 450.77607,81.58066 450.16778,82.34716 C 449.55949,83.11365 449.86579,82.73148 449.24883,83.49376 C 448.63187,84.25604 448.94249,83.87599 448.31690,84.63400 C 447.69132,85.39201 448.00624,85.01411 447.37207,85.76780 C 446.73789,86.52148 447.05710,86.14576 446.41437,86.89506 C 445.77165,87.64437 446.09512,87.27084 445.44388,88.01571 C 444.79265,88.76058 445.12037,88.38929 444.46066,89.12966 C 443.80095,89.87003 444.13290,89.50100 443.46476,90.23682 C 442.79662,90.97264 443.13277,90.60591 442.45624,91.33712 C 441.77971,92.06834 442.12005,91.70391 441.43517,92.43047 C 440.75030,93.15702 441.09480,92.79494 440.40162,93.51678 C 439.70844,94.23862 440.05708,93.87892 439.35564,94.59599 C 438.65420,95.31306 439.00696,94.95575 438.29731,95.66799 C 437.58765,96.38024 437.94450,96.02536 437.22668,96.73273 C 436.50885,97.44010 436.86978,97.08766 436.14382,97.79011 C 435.41786,98.49255 435.78284,98.14259 435.04880,98.84005 C 434.31476,99.53751 434.68377,99.19006 433.94169,99.88249 C 433.19961,100.57491 433.57263,100.22999 432.82256,100.91733 C 432.07249,101.60467 432.44949,101.26230 431.69147,101.94451 C 430.93346,102.62671 431.31442,102.28693 430.54850,102.96394 C 429.78259,103.64096 430.16749,103.30378 429.39372,103.97556 C 428.61995,104.64734 429.00877,104.31279 428.22720,104.97928 C 427.44563,105.64577 427.83833,105.31388 427.04901,105.97503 C 426.25968,106.63619 426.65625,106.30698 425.85922,106.96274 C 425.06218,107.61851 425.46260,107.29201 424.65790,107.94234 C 423.85321,108.59267 424.25744,108.26890 423.44515,108.91375 C 422.63285,109.55860 423.04087,109.23757 422.22101,109.87690 C 421.40116,110.51622 421.81295,110.19797 420.98559,110.83171 C 420.15823,111.46546 420.57375,111.15001 419.73894,111.77813 C 418.90413,112.40625 419.32336,112.09362 418.48115,112.71607 C 417.63893,113.33852 418.06186,113.02874 417.21229,113.64548 C 416.36273,114.26221 416.78931,113.95530 415.93245,114.56628 C 415.07559,115.17725 415.50581,114.87323 414.64170,115.47840 C 413.77759,116.08357 414.21142,115.78246 413.34012,116.38178 C 412.46883,116.98110 412.90624,116.68293 412.02780,117.27635 C 411.14937,117.86978 411.59034,117.57456 410.70482,118.16205 C 409.81930,118.74954 410.26379,118.45731 409.37125,119.03881 C 408.47870,119.62032 408.92670,119.33109 408.02718,119.90657 C 407.12766,120.48206 407.57913,120.19585 406.67269,120.76527 C 405.76626,121.33469 406.22117,121.05152 405.30787,121.61484 C 404.39458,122.17816 404.85291,121.89805 403.93281,122.45522 C 403.01271,123.01240 403.47442,122.73537 402.54758,123.28636 C 401.62073,123.83735 402.08581,123.56342 401.15227,124.10819 C 400.21874,124.65295 400.68714,124.38215 399.74697,124.92065 C 398.80681,125.45915 399.27851,125.19149 398.33177,125.72369 C 397.38503,126.25588 397.86001,125.99138 396.90676,126.51724 C 395.95350,127.04310 396.43172,126.78178 395.47201,127.30126 C 394.51230,127.82074 394.99373,127.56262 394.02763,128.07568 C 393.06153,128.58875 393.54614,128.33384 392.57370,128.84046 C 391.60126,129.34707 392.08903,129.09540 391.11031,129.59553 C 390.13159,130.09566 390.62248,129.84724 389.63755,130.34085 C 388.65262,130.83445 389.14660,130.58930 388.15552,131.07635 C 387.16443,131.56341 387.66148,131.32154 386.66430,131.80200 C 385.66712,132.28247 386.16720,132.04390 385.16399,132.51775 C 384.16078,132.99159 384.66385,132.75634 383.65468,133.22353 C 382.64550,133.69071 383.15154,133.45880 382.13646,133.91930 C 381.12138,134.37980 381.63036,134.15124 380.60943,134.60502 C 379.58851,135.05880 380.10039,134.83361 379.07369,135.28064 C 378.04698,135.72766 378.56174,135.50586 377.52932,135.94610 C 376.49690,136.38635 377.01450,136.16794 375.97643,136.60138 C 374.93836,137.03481 375.45876,136.81982 374.41510,137.24641 C 373.37145,137.67301 373.89463,137.46144 372.84545,137.88117 C 371.79627,138.30090 372.32220,138.09277 371.26756,138.50560 C 370.21292,138.91843 370.74156,138.71376 369.68153,139.11967 C 368.62150,139.52558 369.15282,139.32437 368.08746,139.72333 C 367.02210,140.12229 367.55607,139.92456 366.48545,140.31655 C 365.41483,140.70853 365.95141,140.51430 364.87560,140.89928 C 363.79979,141.28426 364.33895,141.09354 363.25801,141.47149 C 362.17707,141.84945 362.71878,141.66224 361.63277,142.03315 C 360.54677,142.40405 361.09100,142.22037 360.00000,142.58421 C 358.90900,142.94804 359.45571,142.76790 358.35979,143.12464 C 357.26387,143.48137 357.81301,143.30479 356.71224,143.65441 C 355.61146,144.00402 356.16302,143.83101 355.05745,144.17348 C 353.95188,144.51595 354.50582,144.34651 353.39553,144.68183 C 352.28524,145.01714 352.84152,144.85128 351.72658,145.17941 C 350.61164,145.50754 351.17023,145.34529 350.05070,145.66621 C 348.93118,145.98714 349.49204,145.82849 348.36801,146.14220 C 347.24397,146.45590 347.80707,146.30087 346.67859,146.60734 C 345.55011,146.91380 346.11542,146.76239 344.98256,147.06160 C 343.84970,147.36081 344.41718,147.21303 343.28002,147.50497 C 342.14286,147.79691 342.71247,147.65277 341.57108,147.93742 C 340.42969,148.22206 341.00140,148.08157 339.85584,148.35891 C 338.71029,148.63626 339.28406,148.49942 338.13441,148.76944 C 336.98477,149.03947 337.56057,148.90629 336.40690,149.16898 C 335.25323,149.43167 335.83103,149.30217 334.67341,149.55751 C 333.51580,149.81285 334.09555,149.68702 332.93406,149.93500 C 331.77256,150.18298 332.35423,150.06084 331.18894,150.30144 C 330.02364,150.54205 330.60719,150.42360 329.43816,150.65682 C 328.26913,150.89004 328.85454,150.77528 327.68185,151.00110 C 326.50916,151.22693 327.09637,151.11587 325.92009,151.33429 C 324.74382,151.55271 325.33281,151.44536 324.15301,151.65636 C 322.97322,151.86736 323.56395,151.76372 322.38072,151.96730 C 321.19748,152.17088 321.78991,152.07095 320.60331,152.26710 C 319.41671,152.46325 320.01081,152.36704 318.82091,152.55575 C 317.63102,152.74446 318.22674,152.65197 317.03363,152.83323 C 315.84051,153.01449 316.43783,152.92573 315.24156,153.09954 C 314.04530,153.27335 314.64417,153.18831 313.44484,153.35467 C 312.24550,153.52102 312.84589,153.43971 311.64355,153.59861 C 310.44122,153.75750 311.04309,153.67992 309.83783,153.83135 C 308.63257,153.98278 309.23589,153.90893 308.02778,154.05290 C 306.81967,154.19686 307.42439,154.12675 306.21351,154.26324 C 305.00263,154.39973 305.60872,154.33335 304.39514,154.46237 C 303.18156,154.59139 303.78898,154.52875 302.57277,154.65030 C 301.35657,154.77185 301.96528,154.71294 300.74653,154.82701 C 299.52778,154.94109 300.13774,154.88592 298.91652,154.99252 C 297.69529,155.09913 298.30648,155.04769 297.08285,155.14682 C 295.85923,155.24596 296.47159,155.19826 295.24565,155.28992 C 294.01971,155.38158 294.63321,155.33762 293.40502,155.42181 C 292.17684,155.50601 292.79144,155.46578 291.56109,155.54251 C 290.33073,155.61925 290.94640,155.58274 289.71395,155.65202 C 288.48150,155.72130 289.09820,155.68852 287.86374,155.75035 C 286.62927,155.81217 287.24696,155.78312 286.01055,155.83749 C 284.77415,155.89187 285.39279,155.86654 284.15452,155.91348 C 282.91625,155.96041 283.53580,155.93880 282.29574,155.97830 C 281.05569,156.01781 281.67611,155.99991 280.43435,156.03198 C 279.19258,156.06406 279.81384,156.04987 278.57044,156.07453 C 277.32705,156.09919 277.94911,156.08871 276.70415,156.10597 C 275.45920,156.12322 276.08201,156.11644 274.83558,156.12629 C 273.58915,156.13615 274.21269,156.13306 272.96485,156.13553 C 271.71702,156.13800 272.34124,156.13861 271.09208,156.13370 C 269.84292,156.12879 270.46779,156.13308 269.21738,156.12081 C 267.96698,156.10855 268.59244,156.11651 267.34087,156.09690 C 266.08930,156.07728 266.71533,156.08892 265.46267,156.06196 C 264.21000,156.03501 264.83656,156.05031 263.58288,156.01604 C 262.32920,155.98176 262.95625,156.00072 261.70163,155.95914 C 260.44702,155.91756 261.07451,155.94017 259.81904,155.89130 C 258.56357,155.84243 259.19147,155.86868 257.93522,155.81254 C 256.67897,155.75640 257.30724,155.78628 256.05029,155.72288 C 254.79334,155.65949 255.42194,155.69299 254.16436,155.62236 C 252.90679,155.55172 253.53568,155.58884 252.27756,155.51099 C 251.01943,155.43314 251.64858,155.47386 250.38999,155.38881 C 249.13140,155.30376 249.76076,155.34807 248.50178,155.25585 C 247.24280,155.16363 247.87234,155.21152 246.61304,155.11214 C 245.35375,155.01276 245.98342,155.06423 244.72389,154.95772 C 243.46436,154.85120 244.09414,154.90623 242.83445,154.79261 C 241.57477,154.67898 242.20460,154.73756 240.94484,154.61685 C 239.68507,154.49614 240.31493,154.55825 239.05516,154.43048 C 237.79540,154.30270 238.42523,154.36834 237.16555,154.23353 C 235.90586,154.09872 236.53564,154.16787 235.27611,154.02604 C 234.01658,153.88422 234.64625,153.95687 233.38696,153.80806 C 232.12766,153.65925 232.75720,153.73538 231.49822,153.57962 C 230.23924,153.42385 230.86860,153.50346 229.61001,153.34076 C 228.35142,153.17806 228.98057,153.26112 227.72244,153.09152 C 226.46432,152.92192 227.09321,153.00843 225.83564,152.83196 C 224.57806,152.65548 225.20666,152.74542 223.94971,152.56210 C 222.69276,152.37879 223.32103,152.47214 222.06478,152.28201 C 220.80853,152.09188 221.43643,152.18863 220.18096,151.99172 C 218.92549,151.79482 219.55298,151.89494 218.29837,151.69129 C 217.04375,151.48763 217.67080,151.59113 216.41712,151.38076 C 215.16344,151.17039 215.79000,151.27723 214.53733,151.06018 C 213.28467,150.84313 213.91070,150.95330 212.65913,150.72960 C 211.40756,150.50590 212.03302,150.61939 210.78262,150.38908 C 209.53221,150.15877 210.15708,150.27556 208.90792,150.03867 C 207.65876,149.80178 208.28298,149.92185 207.03515,149.67842 C 205.78731,149.43499 206.41085,149.55832 205.16442,149.30839 C 203.91799,149.05846 204.54080,149.18503 203.29585,148.92863 C 202.05089,148.67224 202.67295,148.80203 201.42956,148.53921 C 200.18616,148.27639 200.80742,148.40938 199.56565,148.14017 C 198.32389,147.87097 198.94431,148.00714 197.70426,147.73159 C 196.46420,147.45603 197.08375,147.59537 195.84548,147.31351 C 194.60721,147.03165 195.22585,147.17413 193.98945,146.88600 C 192.75304,146.59788 193.37073,146.74348 192.13626,146.44913 C 190.90180,146.15478 191.51850,146.30349 190.28605,146.00296 C 189.05360,145.70243 189.66927,145.85421 188.43891,145.54754 C 187.20856,145.24087 187.82316,145.39572 186.59498,145.08295 C 185.36679,144.77019 185.98029,144.92807 184.75435,144.60926 C 183.52841,144.29045 184.14077,144.45134 182.91715,144.12652 C 181.69352,143.80171 182.30471,143.96559 181.08348,143.63481 C 179.86226,143.30404 180.47222,143.47089 179.25347,143.13420 C 178.03472,142.79752 178.64343,142.96731 177.42723,142.62476 C 176.21102,142.28221 176.81844,142.45492 175.60486,142.10655 C 174.39128,141.75818 174.99737,141.93379 173.78649,141.57965 C 172.57561,141.22552 173.18033,141.40400 171.97222,141.04414 C 170.76411,140.68428 171.36743,140.86561 170.16217,140.50008 C 168.95691,140.13456 169.55878,140.31871 168.35645,139.94756 C 167.15411,139.57641 167.75450,139.76336 166.55516,139.38664 C 165.35583,139.00992 165.95470,139.19964 164.75844,138.81740 C 163.56217,138.43516 164.15949,138.62763 162.96637,138.23992 C 161.77326,137.85222 162.36898,138.04741 161.17909,137.65428 C 159.98919,137.26116 160.58329,137.45904 159.39669,137.06056 C 158.21009,136.66208 158.80252,136.86263 157.61928,136.45884 C 156.43605,136.05504 157.02678,136.25823 155.84699,135.84919 C 154.66719,135.44014 155.25618,135.64594 154.07991,135.23169 C 152.90363,134.81745 153.49084,135.02584 152.31815,134.60644 C 151.14546,134.18705 151.73087,134.39800 150.56184,133.97351 C 149.39281,133.54903 149.97636,133.76251 148.81106,133.33299 C 147.64577,132.90347 148.22744,133.11946 147.06594,132.68496 C 145.90445,132.25046 146.48420,132.46892 145.32659,132.02950 C 144.16897,131.59009 144.74677,131.81099 143.59310,131.36671 C 142.43943,130.92243 143.01523,131.14575 141.86559,130.69666 C 140.71594,130.24757 141.28971,130.47328 140.14416,130.01944 C 138.99860,129.56561 139.57031,129.79368 138.42892,129.33515 C 137.28753,128.87663 137.85714,129.10703 136.71998,128.64387 C 135.58282,128.18072 136.15030,128.41341 135.01744,127.94569 C 133.88458,127.47796 134.44989,127.71293 133.32141,127.24069 C 132.19293,126.76846 132.75603,127.00566 131.63199,126.52898 C 130.50796,126.05229 131.06882,126.29171 129.94930,125.81063 C 128.82977,125.32955 129.38836,125.57115 128.27342,125.08574 C 127.15848,124.60034 127.71476,124.84408 126.60447,124.35441 C 125.49418,123.86474 126.04812,124.11060 124.94255,123.61672 C 123.83698,123.12284 124.38854,123.37079 123.28776,122.87277 C 122.18699,122.37474 122.73613,122.62475 121.64021,122.12264 C 120.54429,121.62054 121.09100,121.87257 120.00000,121.36645 C 118.90900,120.86032 119.45323,121.11435 118.36723,120.60426 C 117.28122,120.09418 117.82293,120.35017 116.74199,119.83620 C 115.66105,119.32222 116.20021,119.58014 115.12440,119.06233 C 114.04859,118.54453 114.58517,118.80435 113.51455,118.28277 C 112.44393,117.76120 112.97790,118.02289 111.91254,117.49761 C 110.84718,116.97233 111.37850,117.23586 110.31847,116.70694 C 109.25844,116.17803 109.78708,116.44335 108.73244,115.91086 C 107.67780,115.37837 108.20373,115.64547 107.15455,115.10947 C 106.10537,114.57347 106.62855,114.84230 105.58490,114.30286 C 104.54124,113.76341 105.06164,114.03395 104.02357,113.49112 C 102.98550,112.94829 103.50310,113.22051 102.47068,112.67437 C 101.43826,112.12822 101.95302,112.40208 100.92631,111.85268 C 99.89961,111.30328 100.41149,111.57876 99.39057,111.02617 C 98.36964,110.47358 98.87862,110.75063 97.86354,110.19492 C 96.84846,109.63921 97.35450,109.91781 96.34532,109.35904 C 95.33615,108.80028 95.83922,109.08038 94.83601,108.51863 C 93.83280,107.95687 94.33288,108.23845 93.33570,107.67377 C 92.33852,107.10908 92.83557,107.39212 91.84448,106.82457 C 90.85340,106.25702 91.34738,106.54147 90.36245,105.97112 C 89.37752,105.40078 89.86841,105.68661 88.88969,105.11353 C 87.91097,104.54045 88.39874,104.82763 87.42630,104.25189 C 86.45386,103.67614 86.93847,103.96464 85.97237,103.38629 C 85.00627,102.80794 85.48770,103.09773 84.52799,102.51684 C 83.56828,101.93595 84.04650,102.22699 83.09324,101.64363 C 82.13999,101.06027 82.61497,101.35253 81.66823,100.76675 C 80.72149,100.18098 81.19319,100.47443 80.25303,99.88632 C 79.31286,99.29820 79.78126,99.59280 78.84773,99.00241 C 77.91419,98.41201 78.37927,98.70774 77.45242,98.11512 C 76.52558,97.52251 76.98729,97.81933 76.06719,97.22456 C 75.14709,96.62979 75.60542,96.92768 74.69213,96.33082 C 73.77883,95.73396 74.23374,96.03287 73.32731,95.43398 C 72.42087,94.83510 72.87234,95.13501 71.97282,94.53415 C 71.07330,93.93330 71.52130,94.23418 70.62875,93.63143 C 69.73621,93.02867 70.18070,93.33049 69.29518,92.72589 C 68.40966,92.12129 68.85063,92.42401 67.97220,91.81764 C 67.09376,91.21127 67.53117,91.51486 66.65988,90.90677 C 65.78858,90.29867 66.22241,90.60311 65.35830,89.99336 C 64.49419,89.38361 64.92441,89.68887 64.06755,89.07752 C 63.21069,88.46618 63.63727,88.77221 62.78771,88.15933 C 61.93814,87.54645 62.36107,87.85323 61.51885,87.23888 C 60.67664,86.62452 61.09587,86.93203 60.26106,86.31625 C 59.42625,85.70048 59.84177,86.00868 59.01441,85.39155 C 58.18705,84.77441 58.59884,85.08328 57.77899,84.46485 C 56.95913,83.84641 57.36715,84.15592 56.55485,83.53624 C 55.74256,82.91656 56.14679,83.22667 55.34210,82.60580 C 54.53740,81.98494 54.93782,82.29563 54.14078,81.67363 C 53.34375,81.05163 53.74032,81.36288 52.95099,80.73981 C 52.16167,80.11673 52.55437,80.42850 51.77280,79.80441 C 50.99123,79.18031 51.38005,79.49258 50.60628,78.86752 C 49.83251,78.24245 50.21741,78.55519 49.45150,77.92922 C 48.68558,77.30324 49.06654,77.61642 48.30853,76.98959 C 47.55051,76.36275 47.92751,76.67635 47.17744,76.04871 C 46.42737,75.42106 46.80039,75.73506 46.05831,75.10665 C 45.31623,74.47825 45.68524,74.79261 44.95120,74.16350 C 44.21716,73.53439 44.58214,73.84909 43.85618,73.21932 C 43.13022,72.58956 43.49115,72.90457 42.77332,72.27420 C 42.05550,71.64382 42.41235,71.95913 41.70269,71.32820 C 40.99304,70.69726 41.34580,71.01284 40.64436,70.38139 C 39.94292,69.74994 40.29156,70.06577 39.59838,69.43385 C 38.90520,68.80193 39.24970,69.11798 38.56483,68.48564 C 37.87995,67.85330 38.22029,68.16955 37.54376,67.53683 C 36.86723,66.90411 37.20338,67.22054 36.53524,66.58749 C 35.86710,65.95443 36.19905,66.27102 35.53934,65.63767 C 34.87963,65.00433 35.20735,65.32105 34.55612,64.68745 C 33.90488,64.05386 34.22835,64.37069 33.58563,63.73689 C 32.94290,63.10308 33.26211,63.42001 32.62793,62.78603 C 31.99376,62.15206 32.30868,62.46906 31.68310,61.83495 C 31.05751,61.20084 31.36813,61.51791 30.75117,60.88370 C 30.13421,60.24950 30.44051,60.56660 29.83222,59.93234 C 29.22393,59.29807 29.52589,59.61520 28.92630,58.98090 C 28.32671,58.34661 28.62431,58.66374 28.03346,58.02946 C 27.44262,57.39518 27.73583,57.71230 27.15377,57.07806 C 26.57170,56.44382 26.86052,56.76091 26.28727,56.12675 C 25.71402,55.49258 25.99842,55.80962 25.43402,55.17556 C 24.86962,54.54150 25.14958,54.85849 24.59407,54.22456 C 24.03855,53.59063 24.31407,53.90755 23.76747,53.27378 C 23.22088,52.64002 23.49192,52.95684 22.95428,52.32327 C 22.41664,51.68969 22.68320,52.00642 22.15455,51.37305 C 21.62589,50.73969 21.88795,51.05631 21.36832,50.42318 C 20.84868,49.79006 21.10622,50.10655 20.59564,49.47369 C 20.08506,48.84083 20.33807,49.15718 19.83657,48.52461 C 19.33507,47.89204 19.58353,48.20824 19.09114,47.57597 C 18.59876,46.94371 18.84265,47.25975 18.35941,46.62781 C 17.87617,45.99587 18.11549,46.31175 17.64142,45.68016 C 17.16736,45.04856 17.40208,45.36426 16.93722,44.73303 C 16.47236,44.10180 16.70247,44.41731 16.24684,43.78646 C 15.79122,43.15561 16.01670,43.47093 15.57034,42.84047 C 15.12397,42.21002 15.34482,42.52514 14.90775,41.89509 C 14.47067,41.26504 14.68687,41.57995 14.25911,40.95032 C 13.83135,40.32069 14.04289,40.63539 13.62447,40.00620 C 13.20605,39.37700 13.41291,39.69148 13.00386,39.06273 C 12.59481,38.43397 12.79698,38.74823 12.39733,38.11993 C 11.99767,37.49162 12.19514,37.80566 11.80490,37.17781 C 11.41467,36.54996 11.60741,36.86377 11.22662,36.23638 C 10.84583,35.60900 11.03385,35.92257 10.66253,35.29566 C 10.29120,34.66875 10.47448,34.98209 10.11265,34.35565 C 9.75081,33.72921 9.92934,34.04231 9.57702,33.41635 C 9.22470,32.79040 9.39847,33.10325 9.05568,32.47778 C 8.71289,31.85230 8.88189,32.16492 8.54866,31.53992 C 8.21542,30.91492 8.37964,31.22730 8.05598,30.60278 C 7.73232,29.97827 7.89174,30.29041 7.57768,29.66637 C 7.26362,29.04233 7.41824,29.35423 7.11380,28.73067 C 6.80935,28.10711 6.95916,28.41877 6.66435,27.79569 C 6.36953,27.17260 6.51452,27.48403 6.22936,26.86141 C 5.94420,26.23879 6.08436,26.54999 5.80887,25.92783 C 5.53338,25.30567 5.66870,25.61664 5.40289,24.99494 C 5.13709,24.37324 5.26756,24.68398 5.01146,24.06273 C 4.75537,23.44148 4.88098,23.75200 4.63460,23.13119 C 4.38822,22.51038 4.50897,22.82068 4.27233,22.20030 C 4.03569,21.57993 4.15157,21.89001 3.92467,21.27006 C 3.69778,20.65010 3.80878,20.95998 3.59165,20.34043 C 3.37452,19.72088 3.48064,20.03056 3.27329,19.41141 C 3.06594,18.79226 3.16716,19.10175 2.96960,18.48298 C 2.77204,17.86421 2.86836,18.17351 2.68060,17.55511 C 2.49284,16.93672 2.58426,17.24583 2.40632,16.62780 C 2.22837,16.00976 2.31489,16.31870 2.14677,15.70100 C 1.97864,15.08330 2.06024,15.39208 1.90196,14.77471 C 1.74367,14.15734 1.82035,14.46595 1.67191,13.84889 C 1.52347,13.23183 1.59522,13.54029 1.45664,12.92352 C 1.31805,12.30676 1.38488,12.61508 1.25615,11.99858 C 1.12743,11.38209 1.18932,11.69028 1.07047,11.07404 C 0.95162,10.45781 1.00857,10.76587 0.89960,10.14987 C 0.79063,9.53387 0.84264,9.84183 0.74355,9.22605 C 0.64446,8.61027 0.69153,8.91811 0.60234,8.30253 C 0.51314,7.68695 0.55526,7.99471 0.47596,7.37931 C 0.39666,6.76390 0.43383,7.07157 0.36444,6.45633 C 0.29504,5.84109 0.32726,6.14868 0.26777,5.53358 C 0.20827,4.91848 0.23554,5.22601 0.18596,4.61102 C 0.13638,3.99604 0.15869,4.30351 0.11902,3.68862 C 0.07935,3.07373 0.09671,3.38117 0.06695,2.76635 C 0.03720,2.15154 0.04959,2.45894 0.02976,1.84418 C 0.00992,1.22942 0.01736,1.53680 0.00744,0.92207 C -0.00248,0.30735 0.00000,0.61472 0.00000,-0.00000 Z" style="fill:#b7c2dd;fill-opacity:0.7;stroke:#000;stroke-width:0.8px;stroke-linejoin:round"/>
    <circle cx="-200.000" cy="0.000" r="3.000" style="fill:#dd2200;stroke:none"/>
    <circle cx="400.000" cy="0.000" r="3.000" style="fill:#00aa33;stroke:none"/>
    <path d="M -200.000,-0.000 L 3.987,21.440 L 451.000,-2.761" style="fill:none;stroke:#ff6600;stroke-width:0.7px"/>
    <path d="M -200.000,-0.000 L 2.205,15.914 L 451.000,-2.040" style="fill:none;stroke:#ff6600;stroke-width:0.7px"/>
    <path d="M -200.000,-0.000 L 0.969,10.532 L 451.000,-1.346" style="fill:none;stroke:#ff6600;stroke-width:0.7px"/>
    <path d="M -200.000,-0.000 L 0.240,5.243 L 451.000,-0.669" style="fill:none;stroke:#ff6600;stroke-width:0.7px"/>
    <path d="M -200.000,-0.000 L 0.000,-0.000 L 451.000,-0.000" style="fill:none;stroke:#ff6600;stroke-width:0.7px"/>
    <path d="M -200.000,-0.000 L 0.240,-5.243 L 451.000,0.669" style="fill:none;stroke:#ff6600;stroke-width:0.7px"/>
    <path d="M -200.000,-0.000 L 0.969,-10.532 L 451.000,1.346" style="fill:none;stroke:#ff6600;stroke-width:0.7px"/>
    <path d="M -200.000,-0.000 L 2.205,-15.914 L 451.000,2.040" style="fill:none;stroke:#ff6600;stroke-width:0.7px"/>
    <path d="M -200.000,-0.000 L 3.987,-21.440 L 451.000,2.761" style="fill:none;stroke:#ff6600;stroke-width:0.7px"/>
  </g>
</svg>
