<?xml version="1.0" encoding="UTF-8" standalone="no"?>
<svg xmlns="http://www.w3.org/2000/svg" version="1.1" width="760.00" height="617.33" viewBox="0 0 760.00 617.33">
  <g transform="translate(700.000,308.663)">
    <path d="M -700.000,0.000 L 60.000,0.000" style="fill:none;stroke:#aaaaaa;stroke-width:0.5px;stroke-dasharray:6,3"/>
    <path d="M 0.00000,-0.00000 C 0.00000,-1.52323 0.00331,-0.76166 -0.00992,-2.28484 C -0.02314,-3.80801 -0.01323,-3.04650 -0.03968,-4.56953 C -0.06613,-6.09256 -0.04960,-5.33114 -0.08927,-6.85392 C -0.12894,-8.37670 -0.10580,-7.61544 -0.15869,-9.13787 C -0.21159,-10.66030 -0.18184,-9.89924 -0.24795,-11.42123 C -0.31406,-12.94321 -0.27770,-12.18239 -0.35702,-13.70384 C -0.43635,-15.22529 -0.39338,-14.46476 -0.48591,-15.98556 C -0.57845,-17.50637 -0.52888,-16.74619 -0.63461,-18.26625 C -0.74035,-19.78631 -0.68419,-19.02653 -0.80311,-20.54575 C -0.92204,-22.06497 -0.85928,-21.30563 -0.99140,-22.82392 C -1.12352,-24.34220 -1.05417,-23.58336 -1.19947,-25.10060 C -1.34476,-26.61785 -1.26883,-25.85955 -1.42729,-27.37566 C -1.58576,-28.89177 -1.50324,-28.13406 -1.67487,-29.64894 C -1.84650,-31.16382 -1.75740,-30.40675 -1.94218,-31.92029 C -2.12696,-33.43384 -2.03129,-32.67746 -2.22921,-34.18958 C -2.42713,-35.70169 -2.32490,-34.94605 -2.53594,-36.45664 C -2.74699,-37.96723 -2.63819,-37.21238 -2.86235,-38.72134 C -3.08651,-40.23030 -2.97116,-39.47629 -3.20842,-40.98352 C -3.44569,-42.49076 -3.32379,-41.73763 -3.57414,-43.24305 C -3.82448,-44.74846 -3.69605,-43.99627 -3.95946,-45.49976 C -4.22288,-47.00326 -4.08791,-46.25205 -4.36438,-47.75353 C -4.64085,-49.25501 -4.49937,-48.50483 -4.78887,-50.00419 C -5.07838,-51.50356 -4.93038,-50.75446 -5.23290,-52.25161 C -5.53542,-53.74876 -5.38092,-53.00080 -5.69644,-54.49564 C -6.01197,-55.99048 -5.85097,-55.24370 -6.17947,-56.73614 C -6.50797,-58.22857 -6.34049,-57.48302 -6.68195,-58.97295 C -7.02342,-60.46288 -6.84946,-59.71860 -7.20386,-61.20593 C -7.55826,-62.69326 -7.37784,-61.95031 -7.74516,-63.43494 C -8.11248,-64.91958 -7.92560,-64.17800 -8.30581,-65.65984 C -8.68603,-67.14168 -8.49271,-66.40152 -8.88579,-67.88047 C -9.27888,-69.35943 -9.07913,-68.62073 -9.48506,-70.09671 C -9.89099,-71.57268 -9.68483,-70.83550 -10.10358,-72.30839 C -10.52233,-73.78128 -10.30976,-73.04566 -10.74131,-74.51538 C -11.17285,-75.98510 -10.95390,-75.25109 -11.39821,-76.71754 C -11.84252,-78.18398 -11.61719,-77.45164 -12.07424,-78.91472 C -12.53129,-80.37780 -12.29960,-79.64716 -12.76936,-81.10678 C -13.23913,-82.56640 -13.00108,-81.83751 -13.48353,-83.29358 C -13.96598,-84.74964 -13.72160,-84.02256 -14.21670,-85.47497 C -14.71180,-86.92739 -14.46111,-86.20215 -14.96883,-87.65083 C -15.47655,-89.09950 -15.21956,-88.37616 -15.73987,-89.82099 C -16.26018,-91.26583 -15.99690,-90.54443 -16.52977,-91.98533 C -17.06264,-93.42624 -16.79309,-92.70683 -17.33848,-94.14371 C -17.88388,-95.58059 -17.60807,-94.86321 -18.16596,-96.29598 C -18.72385,-97.72874 -18.44180,-97.01345 -19.01215,-98.44200 C -19.58250,-99.87056 -19.29423,-99.15739 -19.87700,-100.58164 C -20.45977,-102.00589 -20.16530,-101.29490 -20.76045,-102.71476 C -21.35561,-104.13462 -21.05496,-103.42584 -21.66246,-104.84122 C -22.26996,-106.25659 -21.96315,-105.55008 -22.58296,-106.96088 C -23.20277,-108.37167 -22.88981,-107.66748 -23.52190,-109.07360 C -24.15398,-110.47973 -23.83490,-109.77789 -24.47922,-111.17926 C -25.12354,-112.58062 -24.79834,-111.88119 -25.45486,-113.27770 C -26.11137,-114.67422 -25.78009,-113.97723 -26.44876,-115.36881 C -27.11742,-116.76038 -26.78008,-116.06589 -27.46086,-117.45243 C -28.14163,-118.83898 -27.79824,-118.14702 -28.49109,-119.52844 C -29.18394,-120.90987 -28.83452,-120.22049 -29.53940,-121.59671 C -30.24427,-122.97292 -29.88885,-122.28617 -30.60571,-123.65709 C -31.32256,-125.02801 -30.96117,-124.34393 -31.68996,-125.70946 C -32.41876,-127.07500 -32.05140,-126.39363 -32.79209,-127.75369 C -33.53278,-129.11375 -33.15949,-128.43514 -33.91202,-129.78963 C -34.66456,-131.14413 -34.28536,-130.46833 -35.04969,-131.81717 C -35.81402,-133.16602 -35.42894,-132.49306 -36.20502,-133.83617 C -36.98111,-135.17928 -36.59016,-134.50921 -37.37795,-135.84650 C -38.16574,-137.18378 -37.76895,-136.51665 -38.56840,-137.84802 C -39.36785,-139.17940 -38.96524,-138.51524 -39.77630,-139.84062 C -40.58735,-141.16600 -40.17895,-140.50486 -41.00156,-141.82416 C -41.82417,-143.14346 -41.41001,-142.48538 -42.24413,-143.79852 C -43.07824,-145.11165 -42.65834,-144.45668 -43.50391,-145.76356 C -44.34948,-147.07044 -43.92386,-146.41862 -44.78083,-147.71917 C -45.63780,-149.01971 -45.20650,-148.37108 -46.07482,-149.66521 C -46.94314,-150.95933 -46.50618,-150.31393 -47.38579,-151.60155 C -48.26540,-152.88918 -47.82281,-152.24705 -48.71366,-153.52809 C -49.60451,-154.80913 -49.15631,-154.17031 -50.05834,-155.44469 C -50.96038,-156.71906 -50.50660,-156.08359 -51.41977,-157.35122 C -52.33293,-158.61885 -51.87360,-157.98678 -52.79784,-159.24757 C -53.72208,-160.50837 -53.25723,-159.87973 -54.19248,-161.13362 C -55.12773,-162.38751 -54.65738,-161.76234 -55.60359,-163.00924 C -56.54980,-164.25614 -56.07399,-163.63448 -57.03110,-164.87431 C -57.98820,-166.11413 -57.50696,-165.49604 -58.47491,-166.72871 C -59.44285,-167.96139 -58.95621,-167.34689 -59.93493,-168.57233 C -60.91365,-169.79778 -60.42164,-169.18691 -61.41108,-170.40505 C -62.40052,-171.62318 -61.90316,-171.01599 -62.90325,-172.22674 C -63.90335,-173.43749 -63.40068,-172.83401 -64.41137,-174.03729 C -65.42206,-175.24058 -64.91410,-174.64085 -65.93533,-175.83659 C -66.95655,-177.03233 -66.44335,-176.43640 -67.47504,-177.62452 C -68.50673,-178.81265 -67.98831,-178.22053 -69.03040,-179.40097 C -70.07250,-180.58140 -69.54889,-179.99315 -70.60133,-181.16581 C -71.65376,-182.33848 -71.12500,-181.75413 -72.18771,-182.91895 C -73.25042,-184.08377 -72.71654,-183.50337 -73.78946,-184.66027 C -74.86238,-185.81717 -74.32341,-185.24074 -75.40647,-186.38965 C -76.48953,-187.53856 -75.94551,-186.96615 -77.03865,-188.10699 C -78.13178,-189.24783 -77.58274,-188.67947 -78.68588,-189.81217 C -79.78903,-190.94487 -79.23500,-190.38060 -80.34808,-191.50509 C -81.46117,-192.62958 -80.90218,-192.06944 -82.02514,-193.18565 C -83.14809,-194.30185 -82.58419,-193.74586 -83.71695,-194.85372 C -84.84970,-195.96158 -84.28092,-195.40978 -85.42340,-196.50921 C -86.56589,-197.60864 -85.99226,-197.06108 -87.14440,-198.15201 C -88.29654,-199.24295 -87.71810,-198.69965 -88.87983,-199.78202 C -90.04157,-200.86440 -89.45835,-200.32539 -90.62960,-201.39914 C -91.80084,-202.47288 -91.21289,-201.93821 -92.39358,-203.00325 C -93.57427,-204.06829 -92.98161,-203.53799 -94.17167,-204.59426 C -95.36173,-205.65053 -94.76440,-205.12463 -95.96376,-206.17207 C -97.16312,-207.21951 -96.56116,-206.69804 -97.76974,-207.73658 C -98.97832,-208.77512 -98.37177,-208.25811 -99.58950,-209.28768 C -100.80723,-210.31725 -100.19613,-209.80475 -101.42292,-210.82529 C -102.64972,-211.84583 -102.03410,-211.33786 -103.26990,-212.34930 C -104.50569,-213.36074 -103.88559,-212.85734 -105.13031,-213.85962 C -106.37502,-214.86190 -105.75048,-214.36309 -107.00404,-215.35615 C -108.25759,-216.34921 -107.62865,-215.85502 -108.89097,-216.83879 C -110.15329,-217.82257 -109.51999,-217.33304 -110.79099,-218.30746 C -112.06200,-219.28189 -111.42437,-218.79705 -112.70398,-219.76207 C -113.98359,-220.72708 -113.34169,-220.24696 -114.62983,-221.20251 C -115.91797,-222.15805 -115.27181,-221.68269 -116.56840,-222.62870 C -117.86499,-223.57471 -117.21463,-223.10413 -118.51959,-224.04055 C -119.82454,-224.97697 -119.17002,-224.51120 -120.48326,-225.43797 C -121.79650,-226.36475 -121.13786,-225.90381 -122.45931,-226.82088 C -123.78075,-227.73795 -123.11803,-227.28187 -124.44760,-228.18918 C -125.77717,-229.09649 -125.11041,-228.64531 -126.44802,-229.54279 C -127.78563,-230.44028 -127.11486,-229.99403 -128.46043,-230.88163 C -129.80600,-231.76924 -129.13128,-231.32794 -130.48472,-232.20562 C -131.83816,-233.08329 -131.15952,-232.64697 -132.52076,-233.51466 C -133.88199,-234.38235 -133.19948,-233.95104 -134.56842,-234.80869 C -135.93736,-235.66634 -135.25101,-235.24005 -136.62757,-236.08761 C -138.00413,-236.93516 -137.31400,-236.51394 -138.69810,-237.35135 C -140.08219,-238.18876 -139.38831,-237.77262 -140.77986,-238.59983 C -142.17141,-239.42704 -141.47382,-239.01602 -142.87273,-239.83298 C -144.27164,-240.64994 -143.57040,-240.24405 -144.97659,-241.05071 C -146.38278,-241.85737 -145.67792,-241.45665 -147.09129,-242.25296 C -148.50467,-243.04927 -147.79624,-242.65373 -149.21672,-243.43964 C -150.63720,-244.22555 -149.92524,-243.83523 -151.35273,-244.61069 C -152.78023,-245.38615 -152.06478,-245.00106 -153.49920,-245.76603 C -154.93362,-246.53100 -154.21473,-246.15117 -155.65599,-246.90559 C -157.09725,-247.66002 -156.37496,-247.28547 -157.82297,-248.02931 C -159.27097,-248.77315 -158.54534,-248.40390 -160.00000,-249.13711 C -161.45466,-249.87031 -160.72572,-249.50640 -162.18695,-250.22892 C -163.64818,-250.95145 -162.91598,-250.59288 -164.38369,-251.30468 C -165.85139,-252.01649 -165.11598,-251.66329 -166.59007,-252.36433 C -168.06416,-253.06537 -167.32557,-252.71757 -168.80596,-253.40780 C -170.28635,-254.09802 -169.54464,-253.75564 -171.03123,-254.43502 C -172.51782,-255.11440 -171.77303,-254.77745 -173.26573,-255.44593 C -174.75843,-256.11442 -174.01061,-255.78293 -175.50933,-256.44048 C -177.00804,-257.09804 -176.25724,-256.77202 -177.76188,-257.41860 C -179.26652,-258.06519 -178.51278,-257.74466 -180.02325,-258.38024 C -181.53373,-259.01582 -180.77709,-258.70081 -182.29330,-259.32533 C -183.80952,-259.94986 -183.05004,-259.64038 -184.57189,-260.25383 C -186.09375,-260.86727 -185.33147,-260.56334 -186.85888,-261.16567 C -188.38628,-261.76799 -187.62125,-261.46963 -189.15411,-262.06080 C -190.68698,-262.65196 -189.91924,-262.35919 -191.45746,-262.93917 C -192.99569,-263.51914 -192.22530,-263.23197 -193.76878,-263.80072 C -195.31227,-264.36947 -194.53927,-264.08792 -196.08793,-264.64541 C -197.63658,-265.20290 -196.86102,-264.92699 -198.41475,-265.47319 C -199.96848,-266.01938 -199.19041,-265.74913 -200.74912,-266.28400 C -202.30782,-266.81887 -201.52729,-266.55429 -203.09087,-267.07781 C -204.65446,-267.60132 -203.87151,-267.34242 -205.43988,-267.85456 C -207.00825,-268.36669 -206.22293,-268.11349 -207.79598,-268.61421 C -209.36904,-269.11492 -208.58140,-268.86744 -210.15904,-269.35671 C -211.73669,-269.84599 -210.94678,-269.60423 -212.52892,-270.08203 C -214.11105,-270.55983 -213.31892,-270.32382 -214.90545,-270.79012 C -216.49198,-271.25643 -215.69768,-271.02616 -217.28850,-271.48094 C -218.87932,-271.93573 -218.08290,-271.71123 -219.67792,-272.15446 C -221.27293,-272.59769 -220.47444,-272.37898 -222.07355,-272.81064 C -223.67267,-273.24229 -222.87215,-273.02937 -224.47526,-273.44943 C -226.07837,-273.86948 -225.27588,-273.66237 -226.88289,-274.07080 C -228.48990,-274.47924 -227.68548,-274.27794 -229.29629,-274.67473 C -230.90710,-275.07152 -230.10081,-274.87605 -231.71532,-275.26117 C -233.32982,-275.64630 -232.52171,-275.45667 -234.13982,-275.83010 C -235.75792,-276.20354 -234.94803,-276.01976 -236.56964,-276.38149 C -238.19124,-276.74322 -237.37963,-276.56529 -239.00463,-276.91530 C -240.62963,-277.26530 -239.81634,-277.09324 -241.44464,-277.43150 C -243.07294,-277.76976 -242.25803,-277.60358 -243.88953,-277.93008 C -245.52102,-278.25658 -244.70454,-278.09628 -246.33913,-278.41100 C -247.97372,-278.72572 -247.15572,-278.57132 -248.79330,-278.87424 C -250.43089,-279.17717 -249.61141,-279.02867 -251.25189,-279.31978 C -252.89236,-279.61090 -252.07146,-279.46830 -253.71473,-279.74760 C -255.35800,-280.02690 -254.53573,-279.89021 -256.18169,-280.15767 C -257.82764,-280.42513 -257.00406,-280.29437 -258.65260,-280.54998 C -260.30114,-280.80558 -259.47629,-280.68075 -261.12731,-280.92450 C -262.77834,-281.16824 -261.95227,-281.04934 -263.60568,-281.28122 C -265.25909,-281.51309 -264.43185,-281.40013 -266.08754,-281.62012 C -267.74323,-281.84012 -266.91488,-281.73310 -268.57274,-281.94120 C -270.23061,-282.14930 -269.40119,-282.04823 -271.06113,-282.24443 C -272.72107,-282.44063 -271.89065,-282.34551 -273.55256,-282.52980 C -275.21447,-282.71409 -274.38308,-282.62493 -276.04686,-282.79731 C -277.71064,-282.96969 -276.87835,-282.88648 -278.54389,-283.04694 C -280.20943,-283.20739 -279.37629,-283.13015 -281.04349,-283.27868 C -282.71069,-283.42721 -281.87674,-283.35593 -283.54550,-283.49253 C -285.21427,-283.62913 -284.37956,-283.56381 -286.04978,-283.68848 C -287.72000,-283.81315 -286.88459,-283.75380 -288.55616,-283.86653 C -290.22773,-283.97925 -289.39167,-283.92588 -291.06449,-284.02666 C -292.73730,-284.12745 -291.90065,-284.08004 -293.57461,-284.16889 C -295.24857,-284.25774 -294.41137,-284.21630 -296.08637,-284.29321 C -297.76137,-284.37012 -296.92368,-284.33465 -298.59961,-284.39962 C -300.27555,-284.46458 -299.43741,-284.43509 -301.11418,-284.48811 C -302.79095,-284.54114 -301.95242,-284.51761 -303.62992,-284.55870 C -305.30742,-284.59979 -304.46856,-284.58223 -306.14668,-284.61139 C -307.82480,-284.64054 -306.98565,-284.62895 -308.66429,-284.64617 C -310.34294,-284.66340 -309.50355,-284.65777 -311.18261,-284.66307 C -312.86167,-284.66837 -312.02210,-284.66870 -313.70147,-284.66208 C -315.38085,-284.65546 -314.54115,-284.66174 -316.22073,-284.64321 C -317.90031,-284.62467 -317.06053,-284.63692 -318.74022,-284.60647 C -320.41990,-284.57603 -319.58010,-284.59422 -321.25978,-284.55188 C -322.93947,-284.50954 -322.09969,-284.53368 -323.77927,-284.47945 C -325.45885,-284.42521 -324.61915,-284.45530 -326.29853,-284.38918 C -327.97790,-284.32307 -327.13833,-284.35909 -328.81739,-284.28110 C -330.49645,-284.20312 -329.65706,-284.24507 -331.33571,-284.15522 C -333.01435,-284.06537 -332.17520,-284.11326 -333.85332,-284.01156 C -335.53144,-283.90986 -334.69258,-283.96367 -336.37008,-283.85013 C -338.04758,-283.73660 -337.20905,-283.79632 -338.88582,-283.67096 C -340.56259,-283.54560 -339.72445,-283.61123 -341.40039,-283.47406 C -343.07632,-283.33690 -342.23863,-283.40842 -343.91363,-283.25946 C -345.58863,-283.11051 -344.75143,-283.18792 -346.42539,-283.02719 C -348.09935,-282.86645 -347.26270,-282.94975 -348.93551,-282.77725 C -350.60833,-282.60475 -349.77227,-282.69393 -351.44384,-282.50969 C -353.11541,-282.32545 -352.28000,-282.42049 -353.95022,-282.22452 C -355.62044,-282.02855 -354.78573,-282.12946 -356.45450,-281.92178 C -358.12326,-281.71410 -357.28931,-281.82086 -358.95651,-281.60149 C -360.62371,-281.38213 -359.79057,-281.49472 -361.45611,-281.26369 C -363.12165,-281.03266 -362.28936,-281.15108 -363.95314,-280.90840 C -365.61692,-280.66572 -364.78553,-280.78996 -366.44744,-280.53566 C -368.10935,-280.28135 -367.27893,-280.41140 -368.93887,-280.14549 C -370.59881,-279.87959 -369.76939,-280.01543 -371.42726,-279.73795 C -373.08512,-279.46047 -372.25677,-279.60209 -373.91246,-279.31305 C -375.56815,-279.02402 -374.74091,-279.17141 -376.39432,-278.87085 C -378.04773,-278.57029 -377.22166,-278.72343 -378.87269,-278.41137 C -380.52371,-278.09930 -379.69886,-278.25820 -381.34740,-277.93466 C -382.99594,-277.61112 -382.17236,-277.77574 -383.81831,-277.44075 C -385.46427,-277.10576 -384.64200,-277.27610 -386.28527,-276.92969 C -387.92854,-276.58328 -387.10764,-276.75932 -388.74811,-276.40152 C -390.38859,-276.04373 -389.56911,-276.22545 -391.20670,-275.85629 C -392.84428,-275.48713 -392.02628,-275.67453 -393.66087,-275.29404 C -395.29546,-274.91355 -394.47898,-275.10661 -396.11047,-274.71481 C -397.74197,-274.32302 -396.92706,-274.52172 -398.55536,-274.11866 C -400.18366,-273.71560 -399.37037,-273.91993 -400.99537,-273.50563 C -402.62037,-273.09133 -401.80876,-273.30127 -403.43036,-272.87577 C -405.05197,-272.45027 -404.24208,-272.66580 -405.86018,-272.22913 C -407.47829,-271.79246 -406.67018,-272.01356 -408.28468,-271.56576 C -409.89919,-271.11795 -409.09290,-271.34462 -410.70371,-270.88571 C -412.31452,-270.42681 -411.51010,-270.65902 -413.11711,-270.18905 C -414.72412,-269.71909 -413.92163,-269.95681 -415.52474,-269.47582 C -417.12785,-268.99483 -416.32733,-269.23806 -417.92645,-268.74608 C -419.52556,-268.25410 -418.72707,-268.50281 -420.32208,-267.99988 C -421.91710,-267.49696 -421.12068,-267.75113 -422.71150,-267.23729 C -424.30232,-266.72345 -423.50802,-266.98308 -425.09455,-266.45837 C -426.68108,-265.93366 -425.88895,-266.19870 -427.47108,-265.66316 C -429.05322,-265.12762 -428.26331,-265.39807 -429.84096,-264.85174 C -431.41860,-264.30541 -430.63096,-264.58125 -432.20402,-264.02417 C -433.77707,-263.46708 -432.99175,-263.74829 -434.56012,-263.18050 C -436.12849,-262.61271 -435.34554,-262.89926 -436.90913,-262.32081 C -438.47271,-261.74236 -437.69218,-262.03422 -439.25088,-261.44515 C -440.80959,-260.85608 -440.03152,-261.15324 -441.58525,-260.55360 C -443.13898,-259.95395 -442.36342,-260.25639 -443.91207,-259.64622 C -445.46073,-259.03604 -444.68773,-259.34373 -446.23122,-258.72308 C -447.77470,-258.10242 -447.00431,-258.41534 -448.54254,-257.78424 C -450.08076,-257.15314 -449.31302,-257.47127 -450.84589,-256.82978 C -452.37875,-256.18830 -451.61372,-256.51161 -453.14112,-255.85978 C -454.66853,-255.20794 -453.90625,-255.53641 -455.42811,-254.87429 C -456.94996,-254.21216 -456.19048,-254.54577 -457.70670,-253.87339 C -459.22291,-253.20101 -458.46627,-253.53973 -459.97675,-252.85716 C -461.48722,-252.17459 -460.73348,-252.51839 -462.23812,-251.82567 C -463.74276,-251.13295 -462.99196,-251.48181 -464.49067,-250.77900 C -465.98939,-250.07618 -465.24157,-250.43008 -466.73427,-249.71722 C -468.22697,-249.00435 -467.48218,-249.36326 -468.96877,-248.64040 C -470.45536,-247.91754 -469.71365,-248.28144 -471.19404,-247.54864 C -472.67443,-246.81584 -471.93584,-247.18469 -473.40993,-246.44200 C -474.88402,-245.69931 -474.14861,-246.07310 -475.61631,-245.32057 C -477.08402,-244.56804 -476.35182,-244.94673 -477.81305,-244.18443 C -479.27428,-243.42212 -478.54534,-243.80568 -480.00000,-243.03365 C -481.45466,-242.26162 -480.72903,-242.65003 -482.17703,-241.86832 C -483.62504,-241.08662 -482.90275,-241.47985 -484.34401,-240.68853 C -485.78527,-239.89721 -485.06638,-240.29524 -486.50080,-239.49436 C -487.93522,-238.69348 -487.21977,-239.09627 -488.64727,-238.28589 C -490.07476,-237.47550 -489.36280,-237.88303 -490.78328,-237.06320 C -492.20376,-236.24337 -491.49533,-236.65561 -492.90871,-235.82639 C -494.32208,-234.99718 -493.61722,-235.41410 -495.02341,-234.57555 C -496.42960,-233.73700 -495.72836,-234.15857 -497.12727,-233.31075 C -498.52618,-232.46293 -497.82859,-232.88912 -499.22014,-232.03209 C -500.61169,-231.17506 -499.91781,-231.60584 -501.30190,-230.73966 C -502.68600,-229.87347 -501.99587,-230.30881 -503.37243,-229.43354 C -504.74899,-228.55827 -504.06264,-228.99814 -505.43158,-228.11383 C -506.80052,-227.22953 -506.11801,-227.67390 -507.47924,-226.78063 C -508.84048,-225.88735 -508.16184,-226.33619 -509.51528,-225.43401 C -510.86872,-224.53183 -510.19400,-224.98511 -511.53957,-224.07408 C -512.88514,-223.16305 -512.21437,-223.62074 -513.55198,-222.70093 C -514.88959,-221.78112 -514.22283,-222.24318 -515.55240,-221.31465 C -516.88197,-220.38612 -516.21925,-220.85253 -517.54069,-219.91534 C -518.86214,-218.97816 -518.20350,-219.44887 -519.51674,-218.50310 C -520.82998,-217.55732 -520.17546,-218.03231 -521.48041,-217.07801 C -522.78537,-216.12370 -522.13501,-216.60295 -523.43160,-215.64018 C -524.72819,-214.67741 -524.08203,-215.16087 -525.37017,-214.18970 C -526.65831,-213.21854 -526.01641,-213.70618 -527.29602,-212.72668 C -528.57563,-211.74718 -527.93800,-212.23897 -529.20901,-211.25121 C -530.48001,-210.26344 -529.84671,-210.75935 -531.10903,-209.76338 C -532.37135,-208.76742 -531.74241,-209.26741 -532.99596,-208.26331 C -534.24952,-207.25921 -533.62498,-207.76325 -534.86969,-206.75109 C -536.11441,-205.73893 -535.49431,-206.24698 -536.73010,-205.22682 C -537.96590,-204.20666 -537.35028,-204.71870 -538.57708,-203.69060 C -539.80387,-202.66251 -539.19277,-203.17850 -540.41050,-202.14254 C -541.62823,-201.10659 -541.02168,-201.62649 -542.23026,-200.58274 C -543.43884,-199.53899 -542.83688,-200.06277 -544.03624,-199.01130 C -545.23560,-197.95982 -544.63827,-198.48745 -545.82833,-197.42832 C -547.01839,-196.36919 -546.42573,-196.90063 -547.60642,-195.83391 C -548.78711,-194.76720 -548.19916,-195.30241 -549.37040,-194.22818 C -550.54165,-193.15394 -549.95843,-193.69289 -551.12017,-192.61122 C -552.28190,-191.52954 -551.70346,-192.07220 -552.85560,-190.98314 C -554.00774,-189.89409 -553.43411,-190.44042 -554.57660,-189.34406 C -555.71908,-188.24770 -555.15030,-188.79766 -556.28305,-187.69407 C -557.41581,-186.59048 -556.85191,-187.14404 -557.97486,-186.03329 C -559.09782,-184.92254 -558.53883,-185.47966 -559.65192,-184.36181 C -560.76500,-183.24397 -560.21097,-183.80462 -561.31412,-182.67976 C -562.41726,-181.55490 -561.86822,-182.11904 -562.96135,-180.98723 C -564.05449,-179.85542 -563.51047,-180.42302 -564.59353,-179.28433 C -565.67659,-178.14565 -565.13762,-178.71666 -566.21054,-177.57118 C -567.28346,-176.42570 -566.74958,-177.00009 -567.81229,-175.84788 C -568.87500,-174.69567 -568.34624,-175.27341 -569.39867,-174.11454 C -570.45111,-172.95567 -569.92750,-173.53673 -570.96960,-172.37128 C -572.01169,-171.20583 -571.49327,-171.79015 -572.52496,-170.61819 C -573.55665,-169.44623 -573.04345,-170.03379 -574.06467,-168.85540 C -575.08590,-167.67701 -574.57794,-168.26777 -575.58863,-167.08301 C -576.59932,-165.89826 -576.09665,-166.49218 -577.09675,-165.30114 C -578.09684,-164.11010 -577.59948,-164.70714 -578.58892,-163.50989 C -579.57836,-162.31264 -579.08635,-162.91277 -580.06507,-161.70938 C -581.04379,-160.50599 -580.55715,-161.10917 -581.52509,-159.89972 C -582.49304,-158.69026 -582.01180,-159.29646 -582.96890,-158.08102 C -583.92601,-156.86558 -583.45020,-157.47475 -584.39641,-156.25339 C -585.34262,-155.03204 -584.87227,-155.64415 -585.80752,-154.41695 C -586.74277,-153.18976 -586.27792,-153.80477 -587.20216,-152.57182 C -588.12640,-151.33886 -587.66707,-151.95673 -588.58023,-150.71809 C -589.49340,-149.47945 -589.03962,-150.10014 -589.94166,-148.85589 C -590.84369,-147.61164 -590.39549,-148.23512 -591.28634,-146.98533 C -592.17719,-145.73555 -591.73460,-146.36178 -592.61421,-145.10653 C -593.49382,-143.85128 -593.05686,-144.48022 -593.92518,-143.21959 C -594.79350,-141.95897 -594.36220,-142.59058 -595.21917,-141.32464 C -596.07614,-140.05870 -595.65052,-140.69295 -596.49609,-139.42178 C -597.34166,-138.15062 -596.92176,-138.78746 -597.75587,-137.51114 C -598.58999,-136.23482 -598.17583,-136.87422 -598.99844,-135.59282 C -599.82105,-134.31142 -599.41265,-134.95334 -600.22370,-133.66694 C -601.03476,-132.38054 -600.63215,-133.02494 -601.43160,-131.73362 C -602.23105,-130.44230 -601.83426,-131.08914 -602.62205,-129.79297 C -603.40984,-128.49680 -603.01889,-129.14605 -603.79498,-127.84510 C -604.57106,-126.54416 -604.18598,-127.19578 -604.95031,-125.89014 C -605.71464,-124.58450 -605.33544,-125.23845 -606.08798,-123.92820 C -606.84051,-122.61794 -606.46722,-123.27418 -607.20791,-121.95938 C -607.94860,-120.64459 -607.58124,-121.30307 -608.31004,-119.98382 C -609.03883,-118.66456 -608.67744,-119.32526 -609.39429,-118.00162 C -610.11115,-116.67798 -609.75573,-117.34085 -610.46060,-116.01290 C -611.16548,-114.68495 -610.81606,-115.34995 -611.50891,-114.01778 C -612.20176,-112.68560 -611.85837,-113.35270 -612.53914,-112.01637 C -613.21992,-110.68004 -612.88258,-111.34919 -613.55124,-110.00879 C -614.21991,-108.66838 -613.88863,-109.33955 -614.54514,-107.99515 C -615.20166,-106.65074 -614.87646,-107.32390 -615.52078,-105.97557 C -616.16510,-104.62725 -615.84602,-105.30234 -616.47810,-103.95017 C -617.11019,-102.59801 -616.79723,-103.27500 -617.41704,-101.91907 C -618.03685,-100.56314 -617.73004,-101.24200 -618.33754,-99.88238 C -618.94504,-98.52275 -618.64439,-99.20344 -619.23955,-97.84021 C -619.83470,-96.47698 -619.54023,-97.15945 -620.12300,-95.79268 C -620.70577,-94.42592 -620.41750,-95.11014 -620.98785,-93.73992 C -621.55820,-92.36970 -621.27615,-93.05562 -621.83404,-91.68203 C -622.39193,-90.30844 -622.11612,-90.99603 -622.66152,-89.61913 C -623.20691,-88.24224 -622.93736,-88.93146 -623.47023,-87.55135 C -624.00310,-86.17123 -623.73982,-86.86205 -624.26013,-85.47879 C -624.78044,-84.09553 -624.52345,-84.78790 -625.03117,-83.40157 C -625.53889,-82.01525 -625.28820,-82.70913 -625.78330,-81.31981 C -626.27840,-79.93050 -626.03402,-80.62585 -626.51647,-79.23363 C -626.99892,-77.84141 -626.76087,-78.53820 -627.23064,-77.14314 C -627.70040,-75.74808 -627.46871,-76.44627 -627.92576,-75.04846 C -628.38281,-73.65065 -628.15748,-74.35019 -628.60179,-72.94971 C -629.04610,-71.54922 -628.82715,-72.25008 -629.25869,-70.84699 C -629.69024,-69.44391 -629.47767,-70.14605 -629.89642,-68.74044 C -630.31517,-67.33483 -630.10901,-68.03822 -630.51494,-66.63016 C -630.92087,-65.22211 -630.72112,-65.92670 -631.11421,-64.51628 C -631.50729,-63.10586 -631.31397,-63.81161 -631.69419,-62.39890 C -632.07440,-60.98619 -631.88752,-61.69307 -632.25484,-60.27815 C -632.62216,-58.86323 -632.44174,-59.57120 -632.79614,-58.15415 C -633.15054,-56.73709 -632.97658,-57.44610 -633.31805,-56.02700 C -633.65951,-54.60789 -633.49203,-55.31791 -633.82053,-53.89682 C -634.14903,-52.47574 -633.98803,-53.18673 -634.30356,-51.76374 C -634.61908,-50.34075 -634.46458,-51.05267 -634.76710,-49.62787 C -635.06962,-48.20306 -634.92162,-48.91587 -635.21113,-47.48932 C -635.50063,-46.06277 -635.35915,-46.77643 -635.63562,-45.34821 C -635.91209,-43.91999 -635.77712,-44.63447 -636.04054,-43.20466 C -636.30395,-41.77485 -636.17552,-42.49010 -636.42586,-41.05878 C -636.67621,-39.62746 -636.55431,-40.34345 -636.79158,-38.91070 C -637.02884,-37.47795 -636.91349,-38.19463 -637.13765,-36.76052 C -637.36181,-35.32641 -637.25301,-36.04376 -637.46406,-34.60837 C -637.67510,-33.17298 -637.57287,-33.89094 -637.77079,-32.45435 C -637.96871,-31.01776 -637.87304,-31.73631 -638.05782,-30.29860 C -638.24260,-28.86088 -638.15350,-29.57997 -638.32513,-28.14121 C -638.49676,-26.70245 -638.41424,-27.42204 -638.57271,-25.98231 C -638.73117,-24.54258 -638.65524,-25.26264 -638.80053,-23.82202 C -638.94583,-22.38140 -638.87648,-23.10188 -639.00860,-21.66045 C -639.14072,-20.21902 -639.07796,-20.93989 -639.19689,-19.49772 C -639.31581,-18.05555 -639.25965,-18.77677 -639.36539,-17.33394 C -639.47112,-15.89111 -639.42155,-16.61264 -639.51409,-15.16923 C -639.60662,-13.72582 -639.56365,-14.44762 -639.64298,-13.00371 C -639.72230,-11.55979 -639.68594,-12.28183 -639.75205,-10.83749 C -639.81816,-9.39315 -639.78841,-10.11538 -639.84131,-8.67069 C -639.89420,-7.22600 -639.87106,-7.94838 -639.91073,-6.50342 C -639.95040,-5.05846 -639.93387,-5.78096 -639.96032,-4.33581 C -639.98677,-2.89066 -639.97686,-3.61323 -639.99008,-2.16796 C -640.00331,-0.72269 -640.00000,-1.44531 -640.00000,-0.00000 C -640.00000,1.44531 -640.00331,0.72269 -639.99008,2.16796 C -639.97686,3.61323 -639.98677,2.89066 -639.96032,4.33581 C -639.93387,5.78096 -639.95040,5.05846 -639.91073,6.50342 C -639.87106,7.94838 -639.89420,7.22600 -639.84131,8.67069 C -639.78841,10.11538 -639.81816,9.39315 -639.75205,10.83749 C -639.68594,12.28183 -639.72230,11.55979 -639.64298,13.00371 C -639.56365,14.44762 -639.60662,13.72582 -639.51409,15.16923 C -639.42155,16.61264 -639.47112,15.89111 -639.36539,17.33394 C -639.25965,18.77677 -639.31581,18.05555 -639.19689,19.49772 C -639.07796,20.93989 -639.14072,20.21902 -639.00860,21.66045 C -638.87648,23.10188 -638.94583,22.38140 -638.80053,23.82202 C -638.65524,25.26264 -638.73117,24.54258 -638.57271,25.98231 C -638.41424,27.42204 -638.49676,26.70245 -638.32513,28.14121 C -638.15350,29.57997 -638.24260,28.86088 -638.05782,30.29860 C -637.87304,31.73631 -637.96871,31.01776 -637.77079,32.45435 C -637.57287,33.89094 -637.67510,33.17298 -637.46406,34.60837 C -637.25301,36.04376 -637.36181,35.32641 -637.13765,36.76052 C -636.91349,38.19463 -637.02884,37.47795 -636.79158,38.91070 C -636.55431,40.34345 -636.67621,39.62746 -636.42586,41.05878 C -636.17552,42.49010 -636.30395,41.77485 -636.04054,43.20466 C -635.77712,44.63447 -635.91209,43.91999 -635.63562,45.34821 C -635.35915,46.77643 -635.50063,46.06277 -635.21113,47.48932 C -634.92162,48.91587 -635.06962,48.20306 -634.76710,49.62787 C -634.46458,51.05267 -634.61908,50.34075 -634.30356,51.76374 C -633.98803,53.18673 -634.14903,52.47574 -633.82053,53.89682 C -633.49203,55.31791 -633.65951,54.60789 -633.31805,56.02700 C -632.97658,57.44610 -633.15054,56.73709 -632.79614,58.15415 C -632.44174,59.57120 -632.62216,58.86323 -632.25484,60.27815 C -631.88752,61.69307 -632.07440,60.98619 -631.69419,62.39890 C -631.31397,63.81161 -631.50729,63.10586 -631.11421,64.51628 C -630.72112,65.92670 -630.92087,65.22211 -630.51494,66.63016 C -630.10901,68.03822 -630.31517,67.33483 -629.89642,68.74044 C -629.47767,70.14605 -629.69024,69.44391 -629.25869,70.84699 C -628.82715,72.25008 -629.04610,71.54922 -628.60179,72.94971 C -628.15748,74.35019 -628.38281,73.65065 -627.92576,75.04846 C -627.46871,76.44627 -627.70040,75.74808 -627.23064,77.14314 C -626.76087,78.53820 -626.99892,77.84141 -626.51647,79.23363 C -626.03402,80.62585 -626.27840,79.93050 -625.78330,81.31981 C -625.28820,82.70913 -625.53889,82.01525 -625.03117,83.40157 C -624.52345,84.78790 -624.78044,84.09553 -624.26013,85.47879 C -623.73982,86.86205 -624.00310,86.17123 -623.47023,87.55135 C -622.93736,88.93146 -623.20691,88.24224 -622.66152,89.61913 C -622.11612,90.99603 -622.39193,90.30844 -621.83404,91.68203 C -621.27615,93.05562 -621.55820,92.36970 -620.98785,93.73992 C -620.41750,95.11014 -620.70577,94.42592 -620.12300,95.79268 C -619.54023,97.15945 -619.83470,96.47698 -619.23955,97.84021 C -618.64439,99.20344 -618.94504,98.52275 -618.33754,99.88238 C -617.73004,101.24200 -618.03685,100.56314 -617.41704,101.91907 C -616.79723,103.27500 -617.11019,102.59801 -616.47810,103.95017 C -615.84602,105.30234 -616.16510,104.62725 -615.52078,105.97557 C -614.87646,107.32390 -615.20166,106.65074 -614.54514,107.99515 C -613.88863,109.33955 -614.21991,108.66838 -613.55124,110.00879 C -612.88258,111.34919 -613.21992,110.68004 -612.53914,112.01637 C -611.85837,113.35270 -612.20176,112.68560 -611.50891,114.01778 C -610.81606,115.34995 -611.16548,114.68495 -610.46060,116.01290 C -609.75573,117.34085 -610.11115,116.67798 -609.39429,118.00162 C -608.67744,119.32526 -609.03883,118.66456 -608.31004,119.98382 C -607.58124,121.30307 -607.94860,120.64459 -607.20791,121.95938 C -606.46722,123.27418 -606.84051,122.61794 -606.08798,123.92820 C -605.33544,125.23845 -605.71464,124.58450 -604.95031,125.89014 C -604.18598,127.19578 -604.57106,126.54416 -603.79498,127.84510 C -603.01889,129.14605 -603.40984,128.49680 -602.62205,129.79297 C -601.83426,131.08914 -602.23105,130.44230 -601.43160,131.73362 C -600.63215,133.02494 -601.03476,132.38054 -600.22370,133.66694 C -599.41265,134.95334 -599.82105,134.31142 -598.99844,135.59282 C -598.17583,136.87422 -598.58999,136.23482 -597.75587,137.51114 C -596.92176,138.78746 -597.34166,138.15062 -596.49609,139.42178 C -595.65052,140.69295 -596.07614,140.05870 -595.21917,141.32464 C -594.36220,142.59058 -594.79350,141.95897 -593.92518,143.21959 C -593.05686,144.48022 -593.49382,143.85128 -592.61421,145.10653 C -591.73460,146.36178 -592.17719,145.73555 -591.28634,146.98533 C -590.39549,148.23512 -590.84369,147.61164 -589.94166,148.85589 C -589.03962,150.10014 -589.49340,149.47945 -588.58023,150.71809 C -587.66707,151.95673 -588.12640,151.33886 -587.20216,152.57182 C -586.27792,153.80477 -586.74277,153.18976 -585.80752,154.41695 C -584.87227,155.64415 -585.34262,155.03204 -584.39641,156.25339 C -583.45020,157.47475 -583.92601,156.86558 -582.96890,158.08102 C -582.01180,159.29646 -582.49304,158.69026 -581.52509,159.89972 C -580.55715,161.10917 -581.04379,160.50599 -580.06507,161.70938 C -579.08635,162.91277 -579.57836,162.31264 -578.58892,163.50989 C -577.59948,164.70714 -578.09684,164.11010 -577.09675,165.30114 C -576.09665,166.49218 -576.59932,165.89826 -575.58863,167.08301 C -574.57794,168.26777 -575.08590,167.67701 -574.06467,168.85540 C -573.04345,170.03379 -573.55665,169.44623 -572.52496,170.61819 C -571.49327,171.79015 -572.01169,171.20583 -570.96960,172.37128 C -569.92750,173.53673 -570.45111,172.95567 -569.39867,174.11454 C -568.34624,175.27341 -568.87500,174.69567 -567.81229,175.84788 C -566.74958,177.00009 -567.28346,176.42570 -566.21054,177.57118 C -565.13762,178.71666 -565.67659,178.14565 -564.59353,179.28433 C -563.51047,180.42302 -564.05449,179.85542 -562.96135,180.98723 C -561.86822,182.11904 -562.41726,181.55490 -561.31412,182.67976 C -560.21097,183.80462 -560.76500,183.24397 -559.65192,184.36181 C -558.53883,185.47966 -559.09782,184.92254 -557.97486,186.03329 C -556.85191,187.14404 -557.41581,186.59048 -556.28305,187.69407 C -555.15030,188.79766 -555.71908,188.24770 -554.57660,189.34406 C -553.43411,190.44042 -554.00774,189.89409 -552.85560,190.98314 C -551.70346,192.07220 -552.28190,191.52954 -551.12017,192.61122 C -549.95843,193.69289 -550.54165,193.15394 -549.37040,194.22818 C -548.19916,195.30241 -548.78711,194.76720 -547.60642,195.83391 C -546.42573,196.90063 -547.01839,196.36919 -545.82833,197.42832 C -544.63827,198.48745 -545.23560,197.95982 -544.03624,199.01130 C -542.83688,200.06277 -543.43884,199.53899 -542.23026,200.58274 C -541.02168,201.62649 -541.62823,201.10659 -540.41050,202.14254 C -539.19277,203.17850 -539.80387,202.66251 -538.57708,203.69060 C -537.35028,204.71870 -537.96590,204.20666 -536.73010,205.22682 C -535.49431,206.24698 -536.11441,205.73893 -534.86969,206.75109 C -533.62498,207.76325 -534.24952,207.25921 -532.99596,208.26331 C -531.74241,209.26741 -532.37135,208.76742 -531.10903,209.76338 C -529.84671,210.75935 -530.48001,210.26344 -529.20901,211.25121 C -527.93800,212.23897 -528.57563,211.74718 -527.29602,212.72668 C -526.01641,213.70618 -526.65831,213.21854 -525.37017,214.18970 C -524.08203,215.16087 -524.72819,214.67741 -523.43160,215.64018 C -522.13501,216.60295 -522.78537,216.12370 -521.48041,217.07801 C -520.17546,218.03231 -520.82998,217.55732 -519.51674,218.50310 C -518.20350,219.44887 -518.86214,218.97816 -517.54069,219.91534 C -516.21925,220.85253 -516.88197,220.38612 -515.55240,221.31465 C -514.22283,222.24318 -514.88959,221.78112 -513.55198,222.70093 C -512.21437,223.62074 -512.88514,223.16305 -511.53957,224.07408 C -510.19400,224.98511 -510.86872,224.53183 -509.51528,225.43401 C -508.16184,226.33619 -508.84048,225.88735 -507.47924,226.78063 C -506.11801,227.67390 -506.80052,227.22953 -505.43158,228.11383 C -504.06264,228.99814 -504.74899,228.55827 -503.37243,229.43354 C -501.99587,230.30881 -502.68600,229.87347 -501.30190,230.73966 C -499.91781,231.60584 -500.61169,231.17506 -499.22014,232.03209 C -497.82859,232.88912 -498.52618,232.46293 -497.12727,233.31075 C -495.72836,234.15857 -496.42960,233.73700 -495.02341,234.57555 C -493.61722,235.41410 -494.32208,234.99718 -492.90871,235.82639 C -491.49533,236.65561 -492.20376,236.24337 -490.78328,237.06320 C -489.36280,237.88303 -490.07476,237.47550 -488.64727,238.28589 C -487.21977,239.09627 -487.93522,238.69348 -486.50080,239.49436 C -485.06638,240.29524 -485.78527,239.89721 -484.34401,240.68853 C -482.90275,241.47985 -483.62504,241.08662 -482.17703,241.86832 C -480.72903,242.65003 -481.45466,242.26162 -480.00000,243.03365 C -478.54534,243.80568 -479.27428,243.42212 -477.81305,244.18443 C -476.35182,244.94673 -477.08402,244.56804 -475.61631,245.32057 C -474.14861,246.07310 -474.88402,245.69931 -473.40993,246.44200 C -471.93584,247.18469 -472.67443,246.81584 -471.19404,247.54864 C -469.71365,248.28144 -470.45536,247.91754 -468.96877,248.64040 C -467.48218,249.36326 -468.22697,249.00435 -466.73427,249.71722 C -465.24157,250.43008 -465.98939,250.07618 -464.49067,250.77900 C -462.99196,251.48181 -463.74276,251.13295 -462.23812,251.82567 C -460.73348,252.51839 -461.48722,252.17459 -459.97675,252.85716 C -458.46627,253.53973 -459.22291,253.20101 -457.70670,253.87339 C -456.19048,254.54577 -456.94996,254.21216 -455.42811,254.87429 C -453.90625,255.53641 -454.66853,255.20794 -453.14112,255.85978 C -451.61372,256.51161 -452.37875,256.18830 -450.84589,256.82978 C -449.31302,257.47127 -450.08076,257.15314 -448.54254,257.78424 C -447.00431,258.41534 -447.77470,258.10242 -446.23122,258.72308 C -444.68773,259.34373 -445.46073,259.03604 -443.91207,259.64622 C -442.36342,260.25639 -443.13898,259.95395 -441.58525,260.55360 C -440.03152,261.15324 -440.80959,260.85608 -439.25088,261.44515 C -437.69218,262.03422 -438.47271,261.74236 -436.90913,262.32081 C -435.34554,262.89926 -436.12849,262.61271 -434.56012,263.18050 C -432.99175,263.74829 -433.77707,263.46708 -432.20402,264.02417 C -430.63096,264.58125 -431.41860,264.30541 -429.84096,264.85174 C -428.26331,265.39807 -429.05322,265.12762 -427.47108,265.66316 C -425.88895,266.19870 -426.68108,265.93366 -425.09455,266.45837 C -423.50802,266.98308 -424.30232,266.72345 -422.71150,267.23729 C -421.12068,267.75113 -421.91710,267.49696 -420.32208,267.99988 C -418.72707,268.50281 -419.52556,268.25410 -417.92645,268.74608 C -416.32733,269.23806 -417.12785,268.99483 -415.52474,269.47582 C -413.92163,269.95681 -414.72412,269.71909 -413.11711,270.18905 C -411.51010,270.65902 -412.31452,270.42681 -410.70371,270.88571 C -409.09290,271.34462 -409.89919,271.11795 -408.28468,271.56576 C -406.67018,272.01356 -407.47829,271.79246 -405.86018,272.22913 C -404.24208,272.66580 -405.05197,272.45027 -403.43036,272.87577 C -401.80876,273.30127 -402.62037,273.09133 -400.99537,273.50563 C -399.37037,273.91993 -400.18366,273.71560 -398.55536,274.11866 C -396.92706,274.52172 -397.74197,274.32302 -396.11047,274.71481 C -394.47898,275.10661 -395.29546,274.91355 -393.66087,275.29404 C -392.02628,275.67453 -392.84428,275.48713 -391.20670,275.85629 C -389.56911,276.22545 -390.38859,276.04373 -388.74811,276.40152 C -387.10764,276.75932 -387.92854,276.58328 -386.28527,276.92969 C -384.64200,277.27610 -385.46427,277.10576 -383.81831,277.44075 C -382.17236,277.77574 -382.99594,277.61112 -381.34740,277.93466 C -379.69886,278.25820 -380.52371,278.09930 -378.87269,278.41137 C -377.22166,278.72343 -378.04773,278.57029 -376.39432,278.87085 C -374.74091,279.17141 -375.56815,279.02402 -373.91246,279.31305 C -372.25677,279.60209 -373.08512,279.46047 -371.42726,279.73795 C -369.76939,280.01543 -370.59881,279.87959 -368.93887,280.14549 C -367.27893,280.41140 -368.10935,280.28135 -366.44744,280.53566 C -364.78553,280.78996 -365.61692,280.66572 -363.95314,280.90840 C -362.28936,281.15108 -363.12165,281.03266 -361.45611,281.26369 C -359.79057,281.49472 -360.62371,281.38213 -358.95651,281.60149 C -357.28931,281.82086 -358.12326,281.71410 -356.45450,281.92178 C -354.78573,282.12946 -355.62044,282.02855 -353.95022,282.22452 C -352.28000,282.42049 -353.11541,282.32545 -351.44384,282.50969 C -349.77227,282.69393 -350.60833,282.60475 -348.93551,282.77725 C -347.26270,282.94975 -348.09935,282.86645 -346.42539,283.02719 C -344.75143,283.18792 -345.58863,283.11051 -343.91363,283.25946 C -342.23863,283.40842 -343.07632,283.33690 -341.40039,283.47406 C -339.72445,283.61123 -340.56259,283.54560 -338.88582,283.67096 C -337.20905,283.79632 -338.04758,283.73660 -336.37008,283.85013 C -334.69258,283.96367 -335.53144,283.90986 -333.85332,284.01156 C -332.17520,284.11326 -333.01435,284.06537 -331.33571,284.15522 C -329.65706,284.24507 -330.49645,284.20312 -328.81739,284.28110 C -327.13833,284.35909 -327.97790,284.32307 -326.29853,284.38918 C -324.61915,284.45530 -325.45885,284.42521 -323.77927,284.47945 C -322.09969,284.53368 -322.93947,284.50954 -321.25978,284.55188 C -319.58010,284.59422 -320.41990,284.57603 -318.74022,284.60647 C -317.06053,284.63692 -317.90031,284.62467 -316.22073,284.64321 C -314.54115,284.66174 -315.38085,284.65546 -313.70147,284.66208 C -312.02210,284.66870 -312.86167,284.66837 -311.18261,284.66307 C -309.50355,284.65777 -310.34294,284.66340 -308.66429,284.64617 C -306.98565,284.62895 -307.82480,284.64054 -306.14668,284.61139 C -304.46856,284.58223 -305.30742,284.59979 -303.62992,284.55870 C -301.95242,284.51761 -302.79095,284.54114 -301.11418,284.48811 C -299.43741,284.43509 -300.27555,284.46458 -298.59961,284.39962 C -296.92368,284.33465 -297.76137,284.37012 -296.08637,284.29321 C -294.41137,284.21630 -295.24857,284.25774 -293.57461,284.16889 C -291.90065,284.08004 -292.73730,284.12745 -291.06449,284.02666 C -289.39167,283.92588 -290.22773,283.97925 -288.55616,283.86653 C -286.88459,283.75380 -287.72000,283.81315 -286.04978,283.68848 C -284.37956,283.56381 -285.21427,283.62913 -283.54550,283.49253 C -281.87674,283.35593 -282.71069,283.42721 -281.04349,283.27868 C -279.37629,283.13015 -280.20943,283.20739 -278.54389,283.04694 C -276.87835,282.88648 -277.71064,282.96969 -276.04686,282.79731 C -274.38308,282.62493 -275.21447,282.71409 -273.55256,282.52980 C -271.89065,282.34551 -272.72107,282.44063 -271.06113,282.24443 C -269.40119,282.04823 -270.23061,282.14930 -268.57274,281.94120 C -266.91488,281.73310 -267.74323,281.84012 -266.08754,281.62012 C -264.43185,281.40013 -265.25909,281.51309 -263.60568,281.28122 C -261.95227,281.04934 -262.77834,281.16824 -261.12731,280.92450 C -259.47629,280.68075 -260.30114,280.80558 -258.65260,280.54998 C -257.00406,280.29437 -257.82764,280.42513 -256.18169,280.15767 C -254.53573,279.89021 -255.35800,280.02690 -253.71473,279.74760 C -252.07146,279.46830 -252.89236,279.61090 -251.25189,279.31978 C -249.61141,279.02867 -250.43089,279.17717 -248.79330,278.87424 C -247.15572,278.57132 -247.97372,278.72572 -246.33913,278.41100 C -244.70454,278.09628 -245.52102,278.25658 -243.88953,277.93008 C -242.25803,277.60358 -243.07294,277.76976 -241.44464,277.43150 C -239.81634,277.09324 -240.62963,277.26530 -239.00463,276.91530 C -237.37963,276.56529 -238.19124,276.74322 -236.56964,276.38149 C -234.94803,276.01976 -235.75792,276.20354 -234.13982,275.83010 C -232.52171,275.45667 -233.32982,275.64630 -231.71532,275.26117 C -230.10081,274.87605 -230.90710,275.07152 -229.29629,274.67473 C -227.68548,274.27794 -228.48990,274.47924 -226.88289,274.07080 C -225.27588,273.66237 -226.07837,273.86948 -224.47526,273.44943 C -222.87215,273.02937 -223.67267,273.24229 -222.07355,272.81064 C -220.47444,272.37898 -221.27293,272.59769 -219.67792,272.15446 C -218.08290,271.71123 -218.87932,271.93573 -217.28850,271.48094 C -215.69768,271.02616 -216.49198,271.25643 -214.90545,270.79012 C -213.31892,270.32382 -214.11105,270.55983 -212.52892,270.08203 C -210.94678,269.60423 -211.73669,269.84599 -210.15904,269.35671 C -208.58140,268.86744 -209.36904,269.11492 -207.79598,268.61421 C -206.22293,268.11349 -207.00825,268.36669 -205.43988,267.85456 C -203.87151,267.34242 -204.65446,267.60132 -203.09087,267.07781 C -201.52729,266.55429 -202.30782,266.81887 -200.74912,266.28400 C -199.19041,265.74913 -199.96848,266.01938 -198.41475,265.47319 C -196.86102,264.92699 -197.63658,265.20290 -196.08793,264.64541 C -194.53927,264.08792 -195.31227,264.36947 -193.76878,263.80072 C -192.22530,263.23197 -192.99569,263.51914 -191.45746,262.93917 C -189.91924,262.35919 -190.68698,262.65196 -189.15411,262.06080 C -187.62125,261.46963 -188.38628,261.76799 -186.85888,261.16567 C -185.33147,260.56334 -186.09375,260.86727 -184.57189,260.25383 C -183.05004,259.64038 -183.80952,259.94986 -182.29330,259.32533 C -180.77709,258.70081 -181.53373,259.01582 -180.02325,258.38024 C -178.51278,257.74466 -179.26652,258.06519 -177.76188,257.41860 C -176.25724,256.77202 -177.00804,257.09804 -175.50933,256.44048 C -174.01061,255.78293 -174.75843,256.11442 -173.26573,255.44593 C -171.77303,254.77745 -172.51782,255.11440 -171.03123,254.43502 C -169.54464,253.75564 -170.28635,254.09802 -168.80596,253.40780 C -167.32557,252.71757 -168.06416,253.06537 -166.59007,252.36433 C -165.11598,251.66329 -165.85139,252.01649 -164.38369,251.30468 C -162.91598,250.59288 -163.64818,250.95145 -162.18695,250.22892 C -160.72572,249.50640 -161.45466,249.87031 -160.00000,249.13711 C -158.54534,248.40390 -159.27097,248.77315 -157.82297,248.02931 C -156.37496,247.28547 -157.09725,247.66002 -155.65599,246.90559 C -154.21473,246.15117 -154.93362,246.53100 -153.49920,245.76603 C -152.06478,245.00106 -152.78023,245.38615 -151.35273,244.61069 C -149.92524,243.83523 -150.63720,244.22555 -149.21672,243.43964 C -147.79624,242.65373 -148.50467,243.04927 -147.09129,242.25296 C -145.67792,241.45665 -146.38278,241.85737 -144.97659,241.05071 C -143.57040,240.24405 -144.27164,240.64994 -142.87273,239.83298 C -141.47382,239.01602 -142.17141,239.42704 -140.77986,238.59983 C -139.38831,237.77262 -140.08219,238.18876 -138.69810,237.35135 C -137.31400,236.51394 -138.00413,236.93516 -136.62757,236.08761 C -135.25101,235.24005 -135.93736,235.66634 -134.56842,234.80869 C -133.19948,233.95104 -133.88199,234.38235 -132.52076,233.51466 C -131.15952,232.64697 -131.83816,233.08329 -130.48472,232.20562 C -129.13128,231.32794 -129.80600,231.76924 -128.46043,230.88163 C -127.11486,229.99403 -127.78563,230.44028 -126.44802,229.54279 C -125.11041,228.64531 -125.77717,229.09649 -124.44760,228.18918 C -123.11803,227.28187 -123.78075,227.73795 -122.45931,226.82088 C -121.13786,225.90381 -121.79650,226.36475 -120.48326,225.43797 C -119.17002,224.51120 -119.82454,224.97697 -118.51959,224.04055 C -117.21463,223.10413 -117.86499,223.57471 -116.56840,222.62870 C -115.27181,221.68269 -115.91797,222.15805 -114.62983,221.20251 C -113.34169,220.24696 -113.98359,220.72708 -112.70398,219.76207 C -111.42437,218.79705 -112.06200,219.28189 -110.79099,218.30746 C -109.51999,217.33304 -110.15329,217.82257 -108.89097,216.83879 C -107.62865,215.85502 -108.25759,216.34921 -107.00404,215.35615 C -105.75048,214.36309 -106.37502,214.86190 -105.13031,213.85962 C -103.88559,212.85734 -104.50569,213.36074 -103.26990,212.34930 C -102.03410,211.33786 -102.64972,211.84583 -101.42292,210.82529 C -100.19613,209.80475 -100.80723,210.31725 -99.58950,209.28768 C -98.37177,208.25811 -98.97832,208.77512 -97.76974,207.73658 C -96.56116,206.69804 -97.16312,207.21951 -95.96376,206.17207 C -94.76440,205.12463 -95.36173,205.65053 -94.17167,204.59426 C -92.98161,203.53799 -93.57427,204.06829 -92.39358,203.00325 C -91.21289,201.93821 -91.80084,202.47288 -90.62960,201.39914 C -89.45835,200.32539 -90.04157,200.86440 -88.87983,199.78202 C -87.71810,198.69965 -88.29654,199.24295 -87.14440,198.15201 C -85.99226,197.06108 -86.56589,197.60864 -85.42340,196.50921 C -84.28092,195.40978 -84.84970,195.96158 -83.71695,194.85372 C -82.58419,193.74586 -83.14809,194.30185 -82.02514,193.18565 C -80.90218,192.06944 -81.46117,192.62958 -80.34808,191.50509 C -79.23500,190.38060 -79.78903,190.94487 -78.68588,189.81217 C -77.58274,188.67947 -78.13178,189.24783 -77.03865,188.10699 C -75.94551,186.96615 -76.48953,187.53856 -75.40647,186.38965 C -74.32341,185.24074 -74.86238,185.81717 -73.78946,184.66027 C -72.71654,183.50337 -73.25042,184.08377 -72.18771,182.91895 C -71.12500,181.75413 -71.65376,182.33848 -70.60133,181.16581 C -69.54889,179.99315 -70.07250,180.58140 -69.03040,179.40097 C -67.98831,178.22053 -68.50673,178.81265 -67.47504,177.62452 C -66.44335,176.43640 -66.95655,177.03233 -65.93533,175.83659 C -64.91410,174.64085 -65.42206,175.24058 -64.41137,174.03729 C -63.40068,172.83401 -63.90335,173.43749 -62.90325,172.22674 C -61.90316,171.01599 -62.40052,171.62318 -61.41108,170.40505 C -60.42164,169.18691 -60.91365,169.79778 -59.93493,168.57233 C -58.95621,167.34689 -59.44285,167.96139 -58.47491,166.72871 C -57.50696,165.49604 -57.98820,166.11413 -57.03110,164.87431 C -56.07399,163.63448 -56.54980,164.25614 -55.60359,163.00924 C -54.65738,161.76234 -55.12773,162.38751 -54.19248,161.13362 C -53.25723,159.87973 -53.72208,160.50837 -52.79784,159.24757 C -51.87360,157.98678 -52.33293,158.61885 -51.41977,157.35122 C -50.50660,156.08359 -50.96038,156.71906 -50.05834,155.44469 C -49.15631,154.17031 -49.60451,154.80913 -48.71366,153.52809 C -47.82281,152.24705 -48.26540,152.88918 -47.38579,151.60155 C -46.50618,150.31393 -46.94314,150.95933 -46.07482,149.66521 C -45.20650,148.37108 -45.63780,149.01971 -44.78083,147.71917 C -43.92386,146.41862 -44.34948,147.07044 -43.50391,145.76356 C -42.65834,144.45668 -43.07824,145.11165 -42.24413,143.79852 C -41.41001,142.48538 -41.82417,143.14346 -41.00156,141.82416 C -40.17895,140.50486 -40.58735,141.16600 -39.77630,139.84062 C -38.96524,138.51524 -39.36785,139.17940 -38.56840,137.84802 C -37.76895,136.51665 -38.16574,137.18378 -37.37795,135.84650 C -36.59016,134.50921 -36.98111,135.17928 -36.20502,133.83617 C -35.42894,132.49306 -35.81402,133.16602 -35.04969,131.81717 C -34.28536,130.46833 -34.66456,131.14413 -33.91202,129.78963 C -33.15949,128.43514 -33.53278,129.11375 -32.79209,127.75369 C -32.05140,126.39363 -32.41876,127.07500 -31.68996,125.70946 C -30.96117,124.34393 -31.32256,125.02801 -30.60571,123.65709 C -29.88885,122.28617 -30.24427,122.97292 -29.53940,121.59671 C -28.83452,120.22049 -29.18394,120.90987 -28.49109,119.52844 C -27.79824,118.14702 -28.14163,118.83898 -27.46086,117.45243 C -26.78008,116.06589 -27.11742,116.76038 -26.44876,115.36881 C -25.78009,113.97723 -26.11137,114.67422 -25.45486,113.27770 C -24.79834,111.88119 -25.12354,112.58062 -24.47922,111.17926 C -23.83490,109.77789 -24.15398,110.47973 -23.52190,109.07360 C -22.88981,107.66748 -23.20277,108.37167 -22.58296,106.96088 C -21.96315,105.55008 -22.26996,106.25659 -21.66246,104.84122 C -21.05496,103.42584 -21.35561,104.13462 -20.76045,102.71476 C -20.16530,101.29490 -20.45977,102.00589 -19.87700,100.58164 C -19.29423,99.15739 -19.58250,99.87056 -19.01215,98.44200 C -18.44180,97.01345 -18.72385,97.72874 -18.16596,96.29598 C -17.60807,94.86321 -17.88388,95.58059 -17.33848,94.14371 C -16.79309,92.70683 -17.06264,93.42624 -16.52977,91.98533 C -15.99690,90.54443 -16.26018,91.26583 -15.73987,89.82099 C -15.21956,88.37616 -15.47655,89.09950 -14.96883,87.65083 C -14.46111,86.20215 -14.71180,86.92739 -14.21670,85.47497 C -13.72160,84.02256 -13.96598,84.74964 -13.48353,83.29358 C -13.00108,81.83751 -13.23913,82.56640 -12.76936,81.10678 C -12.29960,79.64716 -12.53129,80.37780 -12.07424,78.91472 C -11.61719,77.45164 -11.84252,78.18398 -11.39821,76.71754 C -10.95390,75.25109 -11.17285,75.98510 -10.74131,74.51538 C -10.30976,73.04566 -10.52233,73.78128 -10.10358,72.30839 C -9.68483,70.83550 -9.89099,71.57268 -9.48506,70.09671 C -9.07913,68.62073 -9.27888,69.35943 -8.88579,67.88047 C -8.49271,66.40152 -8.68603,67.14168 -8.30581,65.65984 C -7.92560,64.17800 -8.11248,64.91958 -7.74516,63.43494 C -7.37784,61.95031 -7.55826,62.69326 -7.20386,61.20593 C -6.84946,59.71860 -7.02342,60.46288 -6.68195,58.97295 C -6.34049,57.48302 -6.50797,58.22857 -6.17947,56.73614 C -5.85097,55.24370 -6.01197,55.99048 -5.69644,54.49564 C -5.38092,53.00080 -5.53542,53.74876 -5.23290,52.25161 C -4.93038,50.75446 -5.07838,51.50356 -4.78887,50.00419 C -4.49937,48.50483 -4.64085,49.25501 -4.36438,47.75353 C -4.08791,46.25205 -4.22288,47.00326 -3.95946,45.49976 C -3.69605,43.99627 -3.82448,44.74846 -3.57414,43.24305 C -3.32379,41.73763 -3.44569,42.49076 -3.20842,40.98352 C -2.97116,39.47629 -3.08651,40.23030 -2.86235,38.72134 C -2.63819,37.21238 -2.74699,37.96723 -2.53594,36.45664 C -2.32490,34.94605 -2.42713,35.70169 -2.22921,34.18958 C -2.03129,32.67746 -2.12696,33.43384 -1.94218,31.92029 C -1.75740,30.40675 -1.84650,31.16382 -1.67487,29.64894 C -1.50324,28.13406 -1.58576,28.89177 -1.42729,27.37566 C -1.26883,25.85955 -1.34476,26.61785 -1.19947,25.10060 C -1.05417,23.58336 -1.12352,24.34220 -0.99140,22.82392 C -0.85928,21.30563 -0.92204,22.06497 -0.80311,20.54575 C -0.68419,19.02653 -0.74035,19.78631 -0.63461,18.26625 C -0.52888,16.74619 -0.57845,17.50637 -0.48591,15.98556 C -0.39338,14.46476 -0.43635,15.22529 -0.35702,13.70384 C -0.27770,12.18239 -0.31406,12.94321 -0.24795,11.42123 C -0.18184,9.89924 -0.21159,10.66030 -0.15869,9.13787 C -0.10580,7.61544 -0.12894,8.37670 -0.08927,6.85392 C -0.04960,5.33114 -0.06613,6.09256 -0.03968,4.56953 C -0.01323,3.04650 -0.02314,3.80801 -0.00992,2.28484 C 0.00331,0.76166 0.00000,1.52323 0.00000,-0.00000 Z" style="fill:#b7c2dd;fill-opacity:0.7;stroke:#000;stroke-width:0.8px;stroke-linejoin:round"/>
    <circle cx="-200.000" cy="0.000" r="3.000" style="fill:#dd2200;stroke:none"/>
    <circle cx="-500.000" cy="0" r="3.000" style="fill:none;stroke:#00aa33;stroke-width:0.7px;stroke-dasharray:1.5,1"/>
    <path d="M -200.000,-0.000 L -1.669,17.352 L 60.000,19.499" style="fill:none;stroke:#ff6600;stroke-width:0.7px"/>
    <path d="M -1.669,17.352 L -500.000,-0.000" style="fill:none;stroke:#ff6600;stroke-width:0.4px;stroke-dasharray:2,2;opacity:0.6"/>
    <path d="M -200.000,-0.000 L -0.940,13.047 L 60.000,14.640" style="fill:none;stroke:#ff6600;stroke-width:0.7px"/>
    <path d="M -0.940,13.047 L -500.000,-0.000" style="fill:none;stroke:#ff6600;stroke-width:0.4px;stroke-dasharray:2,2;opacity:0.6"/>
    <path d="M -200.000,-0.000 L -0.418,8.714 L 60.000,9.768" style="fill:none;stroke:#ff6600;stroke-width:0.7px"/>
    <path d="M -0.418,8.714 L -500.000,-0.000" style="fill:none;stroke:#ff6600;stroke-width:0.4px;stroke-dasharray:2,2;opacity:0.6"/>
    <path d="M -200.000,-0.000 L -0.105,4.362 L 60.000,4.886" style="fill:none;stroke:#ff6600;stroke-width:0.7px"/>
    <path d="M -0.105,4.362 L -500.000,-0.000" style="fill:none;stroke:#ff6600;stroke-width:0.4px;stroke-dasharray:2,2;opacity:0.6"/>
    <path d="M -200.000,-0.000 L 0.000,-0.000 L 60.000,-0.000" style="fill:none;stroke:#ff6600;stroke-width:0.7px"/>
    <path d="M 0.000,-0.000 L -500.000,-0.000" style="fill:none;stroke:#ff6600;stroke-width:0.4px;stroke-dasharray:2,2;opacity:0.6"/>
    <path d="M -200.000,-0.000 L -0.105,-4.362 L 60.000,-4.886" style="fill:none;stroke:#ff6600;stroke-width:0.7px"/>
    <path d="M -0.105,-4.362 L -500.000,0.000" style="fill:none;stroke:#ff6600;stroke-width:0.4px;stroke-dasharray:2,2;opacity:0.6"/>
    <path d="M -200.000,-0.000 L -0.418,-8.714 L 60.000,-9.768" style="fill:none;stroke:#ff6600;stroke-width:0.7px"/>
    <path d="M -0.418,-8.714 L -500.000,0.000" style="fill:none;stroke:#ff6600;stroke-width:0.4px;stroke-dasharray:2,2;opacity:0.6"/>
    <path d="M -200.000,-0.000 L -0.940,-13.047 L 60.000,-14.640" style="fill:none;stroke:#ff6600;stroke-width:0.7px"/>
    <path d="M -0.940,-13.047 L -500.000,-0.000" style="fill:none;stroke:#ff6600;stroke-width:0.4px;stroke-dasharray:2,2;opacity:0.6"/>
    <path d="M -200.000,-0.000 L -1.669,-17.352 L 60.000,-19.499" style="fill:none;stroke:#ff6600;stroke-width:0.7px"/>
    <path d="M -1.669,-17.352 L -500.000,0.000" style="fill:none;stroke:#ff6600;stroke-width:0.4px;stroke-dasharray:2,2;opacity:0.6"/>
  </g>
</svg>
