<?xml version="1.0" encoding="UTF-8" standalone="no"?>
<svg xmlns="http://www.w3.org/2000/svg" version="1.1" width="360.00" height="426.83" viewBox="0 0 360.00 426.83">
  <g transform="translate(230.000,213.415)">
    <path d="M -230.000,0.000 L 130.000,0.000" style="fill:none;stroke:#aaaaaa;stroke-width:0.5px;stroke-dasharray:6,3"/>
    <path d="M 0.00000,0.00000 C -0.00000,-0.00123 0.00000,0.00123 -0.00000,-0.00368 C -0.00000,-0.00858 0.00000,-0.00491 -0.00000,-0.01472 C -0.00000,-0.02453 -0.00000,-0.01840 -0.00000,-0.03311 C -0.00001,-0.04783 -0.00000,-0.03924 -0.00001,-0.05886 C -0.00002,-0.07848 -0.00001,-0.06745 -0.00002,-0.09197 C -0.00004,-0.11649 -0.00003,-0.10301 -0.00005,-0.13243 C -0.00007,-0.16186 -0.00005,-0.14592 -0.00009,-0.18025 C -0.00012,-0.21458 -0.00010,-0.19619 -0.00015,-0.23542 C -0.00020,-0.27466 -0.00017,-0.25382 -0.00024,-0.29795 C -0.00031,-0.34208 -0.00027,-0.31879 -0.00037,-0.36782 C -0.00047,-0.41685 -0.00041,-0.39111 -0.00054,-0.44504 C -0.00067,-0.49897 -0.00059,-0.47078 -0.00076,-0.52961 C -0.00093,-0.58843 -0.00083,-0.55780 -0.00105,-0.62152 C -0.00127,-0.68524 -0.00114,-0.65215 -0.00141,-0.72077 C -0.00168,-0.78938 -0.00153,-0.75385 -0.00186,-0.82736 C -0.00219,-0.90086 -0.00200,-0.86289 -0.00241,-0.94128 C -0.00281,-1.01967 -0.00258,-0.97925 -0.00307,-1.06253 C -0.00355,-1.14581 -0.00328,-1.10295 -0.00385,-1.19112 C -0.00442,-1.27928 -0.00411,-1.23398 -0.00478,-1.32703 C -0.00545,-1.42007 -0.00509,-1.37233 -0.00587,-1.47026 C -0.00665,-1.56818 -0.00623,-1.51800 -0.00713,-1.62080 C -0.00804,-1.72360 -0.00755,-1.67099 -0.00859,-1.77866 C -0.00963,-1.88634 -0.00907,-1.83128 -0.01026,-1.94383 C -0.01145,-2.05637 -0.01081,-1.99888 -0.01216,-2.11630 C -0.01351,-2.23371 -0.01279,-2.17379 -0.01431,-2.29606 C -0.01584,-2.41834 -0.01503,-2.35599 -0.01674,-2.48312 C -0.01846,-2.61026 -0.01754,-2.54548 -0.01947,-2.67747 C -0.02139,-2.80946 -0.02037,-2.74226 -0.02251,-2.87910 C -0.02465,-3.01595 -0.02351,-2.94631 -0.02589,-3.08801 C -0.02827,-3.22970 -0.02701,-3.15764 -0.02965,-3.30418 C -0.03228,-3.45072 -0.03089,-3.37624 -0.03379,-3.52762 C -0.03669,-3.67899 -0.03516,-3.60210 -0.03836,-3.75831 C -0.04155,-3.91452 -0.03987,-3.83521 -0.04337,-3.99625 C -0.04687,-4.15729 -0.04503,-4.07557 -0.04885,-4.24143 C -0.05268,-4.40730 -0.05067,-4.32316 -0.05484,-4.49385 C -0.05901,-4.66454 -0.05683,-4.57799 -0.06136,-4.75349 C -0.06590,-4.92900 -0.06353,-4.84005 -0.06845,-5.02036 C -0.07337,-5.20067 -0.07080,-5.10931 -0.07612,-5.29443 C -0.08145,-5.47954 -0.07867,-5.38579 -0.08443,-5.57570 C -0.09019,-5.76561 -0.08719,-5.66946 -0.09339,-5.86417 C -0.09960,-6.05887 -0.09637,-5.96032 -0.10305,-6.15981 C -0.10973,-6.35930 -0.10626,-6.25837 -0.11344,-6.46264 C -0.12061,-6.66690 -0.11689,-6.56358 -0.12458,-6.77262 C -0.13228,-6.98166 -0.12829,-6.87595 -0.13653,-7.08976 C -0.14477,-7.30357 -0.14050,-7.19547 -0.14931,-7.41404 C -0.15812,-7.63260 -0.15356,-7.52214 -0.16296,-7.74545 C -0.17237,-7.96877 -0.16750,-7.85593 -0.17753,-8.08399 C -0.18755,-8.31205 -0.18237,-8.19684 -0.19304,-8.42963 C -0.20371,-8.66243 -0.19820,-8.54485 -0.20954,-8.78237 C -0.22089,-9.01989 -0.21503,-8.89996 -0.22707,-9.14220 C -0.23912,-9.38444 -0.23290,-9.26215 -0.24568,-9.50910 C -0.25845,-9.75605 -0.25187,-9.63140 -0.26540,-9.88306 C -0.27893,-10.13472 -0.27195,-10.00772 -0.28627,-10.26407 C -0.30059,-10.52042 -0.29321,-10.39107 -0.30834,-10.65211 C -0.32347,-10.91314 -0.31569,-10.78146 -0.33166,-11.04717 C -0.34763,-11.31288 -0.33942,-11.17886 -0.35627,-11.44924 C -0.37311,-11.71961 -0.36445,-11.58326 -0.38220,-11.85829 C -0.39996,-12.13332 -0.39083,-11.99465 -0.40952,-12.27433 C -0.42821,-12.55400 -0.41861,-12.41301 -0.43827,-12.69732 C -0.45793,-12.98163 -0.44784,-12.83832 -0.46849,-13.12726 C -0.48915,-13.41619 -0.47855,-13.27058 -0.50024,-13.56413 C -0.52192,-13.85768 -0.51080,-13.70975 -0.53355,-14.00791 C -0.55630,-14.30606 -0.54464,-14.15584 -0.56849,-14.45858 C -0.59234,-14.76132 -0.58012,-14.60881 -0.60510,-14.91613 C -0.63008,-15.22345 -0.61729,-15.06865 -0.64343,-15.38054 C -0.66958,-15.69243 -0.65619,-15.53535 -0.68354,-15.85180 C -0.71089,-16.16824 -0.69689,-16.00889 -0.72548,-16.32987 C -0.75406,-16.65086 -0.73944,-16.48924 -0.76929,-16.81475 C -0.79914,-17.14026 -0.78388,-16.97638 -0.81504,-17.30641 C -0.84620,-17.63644 -0.83027,-17.47031 -0.86277,-17.80484 C -0.89528,-18.13937 -0.87867,-17.97099 -0.91255,-18.31001 C -0.94643,-18.64903 -0.92912,-18.47841 -0.96442,-18.82190 C -0.99972,-19.16540 -0.98170,-18.99254 -1.01845,-19.34049 C -1.05521,-19.68845 -1.03644,-19.51337 -1.07469,-19.86577 C -1.11294,-20.21817 -1.09341,-20.04087 -1.13319,-20.39770 C -1.17297,-20.75453 -1.15267,-20.57501 -1.19402,-20.93626 C -1.23537,-21.29750 -1.21428,-21.11579 -1.25723,-21.48143 C -1.30019,-21.84708 -1.27828,-21.66316 -1.32288,-22.03319 C -1.36748,-22.40322 -1.34475,-22.21712 -1.39104,-22.59151 C -1.43732,-22.96591 -1.41373,-22.77763 -1.46175,-23.15637 C -1.50976,-23.53511 -1.48530,-23.34467 -1.53508,-23.72774 C -1.58486,-24.11082 -1.55951,-23.91821 -1.61110,-24.30560 C -1.66269,-24.69299 -1.63641,-24.49822 -1.68985,-24.88991 C -1.74329,-25.28160 -1.71609,-25.08469 -1.77142,-25.48066 C -1.82675,-25.87662 -1.79858,-25.67758 -1.85585,-26.07781 C -1.91311,-26.47803 -1.88397,-26.27687 -1.94321,-26.68134 C -2.00244,-27.08580 -1.97230,-26.88252 -2.03356,-27.29121 C -2.09481,-27.69990 -2.06366,-27.49451 -2.12697,-27.90740 C -2.19028,-28.32029 -2.15808,-28.11281 -2.22350,-28.52988 C -2.28892,-28.94695 -2.25566,-28.73739 -2.32322,-29.15862 C -2.39078,-29.57985 -2.35644,-29.36821 -2.42619,-29.79358 C -2.49594,-30.21896 -2.46049,-30.00525 -2.53247,-30.43474 C -2.60446,-30.86424 -2.56788,-30.64847 -2.64214,-31.08207 C -2.71640,-31.51566 -2.67867,-31.29785 -2.75526,-31.73552 C -2.83184,-32.17318 -2.79294,-31.95335 -2.87189,-32.39507 C -2.95084,-32.83678 -2.91074,-32.61493 -2.99210,-33.06068 C -3.07346,-33.50642 -3.03215,-33.28256 -3.11597,-33.73231 C -3.19979,-34.18207 -3.15724,-33.95620 -3.24355,-34.40994 C -3.32987,-34.86368 -3.28606,-34.63583 -3.37493,-35.09353 C -3.46379,-35.55122 -3.41869,-35.32140 -3.51015,-35.78303 C -3.60161,-36.24466 -3.55521,-36.01288 -3.64930,-36.47842 C -3.74340,-36.94396 -3.69566,-36.71023 -3.79245,-37.17965 C -3.88923,-37.64907 -3.84014,-37.41340 -3.93966,-37.88668 C -4.03917,-38.35996 -3.98870,-38.12237 -4.09100,-38.59948 C -4.19329,-39.07659 -4.14142,-38.83710 -4.24654,-39.31801 C -4.35166,-39.79892 -4.29837,-39.55753 -4.40636,-40.04222 C -4.51436,-40.52691 -4.45961,-40.28364 -4.57053,-40.77208 C -4.68144,-41.26052 -4.62522,-41.01538 -4.73911,-41.50754 C -4.85299,-41.99970 -4.79527,-41.75270 -4.91217,-42.24855 C -5.02907,-42.74440 -4.96984,-42.49557 -5.08980,-42.99509 C -5.20976,-43.49460 -5.14898,-43.24394 -5.27206,-43.74709 C -5.39513,-44.25023 -5.33278,-43.99777 -5.45902,-44.50452 C -5.58525,-45.01126 -5.52131,-44.75701 -5.65075,-45.26733 C -5.78019,-45.77764 -5.71464,-45.52161 -5.84734,-46.03547 C -5.98003,-46.54933 -5.91284,-46.29153 -6.04884,-46.80890 C -6.18484,-47.32626 -6.11598,-47.06672 -6.25534,-47.58757 C -6.39469,-48.10841 -6.32415,-47.84714 -6.46690,-48.37143 C -6.60966,-48.89571 -6.53740,-48.63273 -6.68361,-49.16043 C -6.82981,-49.68812 -6.75582,-49.42344 -6.90552,-49.95452 C -7.05523,-50.48559 -6.97947,-50.21923 -7.13273,-50.75365 C -7.28599,-51.28806 -7.20844,-51.02004 -7.36529,-51.55776 C -7.52215,-52.09549 -7.44279,-51.82582 -7.60329,-52.36682 C -7.76380,-52.90781 -7.68260,-52.63652 -7.84680,-53.18075 C -8.01100,-53.72498 -7.92795,-53.45208 -8.09589,-53.99951 C -8.26384,-54.54695 -8.17890,-54.27245 -8.35064,-54.82305 C -8.52238,-55.37365 -8.43553,-55.09758 -8.61112,-55.65130 C -8.78671,-56.20503 -8.69792,-55.92741 -8.87740,-56.48422 C -9.05688,-57.04103 -8.96614,-56.76187 -9.14957,-57.32173 C -9.33299,-57.88159 -9.24026,-57.60093 -9.42768,-58.16380 C -9.61510,-58.72667 -9.52036,-58.44450 -9.71183,-59.01035 C -9.90329,-59.57619 -9.80652,-59.29255 -10.00208,-59.86132 C -10.19764,-60.43009 -10.09880,-60.14500 -10.29850,-60.71666 C -10.49820,-61.28832 -10.39729,-61.00180 -10.60118,-61.57631 C -10.80508,-62.15082 -10.70205,-61.86288 -10.91019,-62.44019 C -11.11832,-63.01751 -11.01316,-62.72818 -11.22559,-63.30826 C -11.43802,-63.88834 -11.33070,-63.59764 -11.54747,-64.18044 C -11.76424,-64.76325 -11.65474,-64.47119 -11.87590,-65.05667 C -12.09707,-65.64215 -11.98536,-65.34877 -12.21096,-65.93689 C -12.43656,-66.52500 -12.32262,-66.23032 -12.55271,-66.82102 C -12.78281,-67.41173 -12.66661,-67.11575 -12.90124,-67.70900 C -13.13587,-68.30225 -13.01739,-68.00502 -13.25661,-68.60077 C -13.49584,-69.19651 -13.37505,-68.89805 -13.61891,-69.49624 C -13.86277,-70.09444 -13.73965,-69.79476 -13.98820,-70.39536 C -14.23675,-70.99597 -14.11127,-70.69509 -14.36456,-71.29805 C -14.61784,-71.90101 -14.48999,-71.59897 -14.74806,-72.20424 C -15.00613,-72.80951 -14.87587,-72.50633 -15.13878,-73.11386 C -15.40169,-73.72138 -15.26899,-73.41709 -15.53679,-74.02682 C -15.80458,-74.63656 -15.66943,-74.33117 -15.94216,-74.94307 C -16.21488,-75.55497 -16.07726,-75.24851 -16.35496,-75.86252 C -16.63267,-76.47653 -16.49254,-76.16903 -16.77528,-76.78509 C -17.05802,-77.40116 -16.91536,-77.09264 -17.20318,-77.71072 C -17.49099,-78.32879 -17.34578,-78.01928 -17.63873,-78.63931 C -17.93167,-79.25933 -17.78389,-78.94887 -18.08201,-79.57079 C -18.38013,-80.19272 -18.22974,-79.88131 -18.53308,-80.50509 C -18.83643,-81.12886 -18.68342,-80.81655 -18.99203,-81.44211 C -19.30064,-82.06768 -19.14499,-81.75448 -19.45892,-82.38178 C -19.77285,-83.00908 -19.61453,-82.69503 -19.93383,-83.32402 C -20.25312,-83.95300 -20.09210,-83.63812 -20.41681,-84.26873 C -20.74152,-84.89934 -20.57779,-84.58367 -20.90796,-85.21585 C -21.23813,-85.84802 -21.07165,-85.53158 -21.40733,-86.16527 C -21.74300,-86.79896 -21.57376,-86.48177 -21.91499,-87.11691 C -22.25622,-87.75205 -22.08419,-87.43416 -22.43102,-88.07069 C -22.77785,-88.70723 -22.60301,-88.38865 -22.95549,-89.02652 C -23.30797,-89.66439 -23.13029,-89.34516 -23.48846,-89.98430 C -23.84663,-90.62344 -23.66609,-90.30359 -24.03000,-90.94395 C -24.39391,-91.58430 -24.21050,-91.26386 -24.58019,-91.90537 C -24.94988,-92.54688 -24.76356,-92.22588 -25.13909,-92.86847 C -25.51461,-93.51107 -25.32536,-93.18954 -25.70676,-93.83317 C -26.08816,-94.47679 -25.89596,-94.15476 -26.28328,-94.79935 C -26.67060,-95.44394 -26.47543,-95.12144 -26.86871,-95.76693 C -27.26199,-96.41242 -27.06384,-96.08949 -27.46312,-96.73582 C -27.86241,-97.38214 -27.66124,-97.05881 -28.06658,-97.70590 C -28.47192,-98.35299 -28.26771,-98.02930 -28.67915,-98.67709 C -29.09058,-99.32489 -28.88331,-99.00086 -29.30089,-99.64929 C -29.71846,-100.29772 -29.50811,-99.97339 -29.93187,-100.62239 C -30.35563,-101.27139 -30.14218,-100.94679 -30.57216,-101.59629 C -31.00214,-102.24579 -30.78556,-101.92096 -31.22181,-102.57090 C -31.65806,-103.22083 -31.43834,-102.89580 -31.88090,-103.54610 C -32.32346,-104.19639 -32.10058,-103.87120 -32.54948,-104.52179 C -32.99839,-105.17238 -32.77232,-104.84705 -33.22762,-105.49786 C -33.68292,-106.14868 -33.45365,-105.82326 -33.91538,-106.47422 C -34.37711,-107.12518 -34.14461,-106.79971 -34.61282,-107.45075 C -35.08103,-108.10179 -34.84528,-107.77630 -35.32000,-108.42734 C -35.79472,-109.07838 -35.55571,-108.75291 -36.03698,-109.40388 C -36.51826,-110.05486 -36.27596,-109.72944 -36.76383,-110.38027 C -37.25169,-111.03110 -37.00609,-110.70577 -37.50059,-111.35638 C -37.99509,-112.00700 -37.74616,-111.68179 -38.24733,-112.33212 C -38.74850,-112.98244 -38.49622,-112.65740 -39.00411,-113.30735 C -39.51199,-113.95730 -39.25635,-113.63247 -39.77098,-114.28197 C -40.28561,-114.93148 -40.02658,-114.60689 -40.54800,-115.25587 C -41.06941,-115.90485 -40.80699,-115.58054 -41.33523,-116.22892 C -41.86346,-116.87729 -41.59762,-116.55331 -42.13271,-117.20100 C -42.66781,-117.84870 -42.39853,-117.52507 -42.94052,-118.17200 C -43.48251,-118.81894 -43.20977,-118.49571 -43.75870,-119.14180 C -44.30762,-119.78789 -44.03140,-119.46511 -44.58730,-120.11027 C -45.14319,-120.75544 -44.86348,-120.43314 -45.42638,-121.07730 C -45.98927,-121.72146 -45.70605,-121.39968 -46.27598,-122.04275 C -46.84591,-122.68582 -46.55917,-122.36461 -47.13617,-123.00651 C -47.71317,-123.64840 -47.42288,-123.32780 -48.00699,-123.96844 C -48.59110,-124.60908 -48.29725,-124.28913 -48.88849,-124.92843 C -49.47973,-125.56772 -49.18231,-125.24846 -49.78072,-125.88633 C -50.37913,-126.52420 -50.07811,-126.20568 -50.68373,-126.84203 C -51.28935,-127.47839 -50.98472,-127.16065 -51.59757,-127.79540 C -52.21042,-128.43015 -51.90216,-128.11323 -52.52228,-128.74629 C -53.14239,-129.37936 -52.83050,-129.06330 -53.45791,-129.69459 C -54.08532,-130.32587 -53.76977,-130.01073 -54.40451,-130.64015 C -55.03925,-131.26957 -54.72003,-130.95538 -55.36212,-131.58284 C -56.00421,-132.21030 -55.68131,-131.89712 -56.33078,-132.52253 C -56.98026,-133.14794 -56.65366,-132.83580 -57.31055,-133.45907 C -57.96744,-134.08234 -57.63712,-133.77130 -58.30145,-134.39233 C -58.96578,-135.01336 -58.63174,-134.70346 -59.30354,-135.32217 C -59.97534,-135.94088 -59.63755,-135.63217 -60.31685,-136.24845 C -60.99614,-136.86474 -60.65460,-136.55726 -61.34142,-137.17103 C -62.02823,-137.78480 -61.68293,-137.47860 -62.37729,-138.08976 C -63.07166,-138.70092 -62.72257,-138.39605 -63.42451,-139.00450 C -64.12645,-139.61295 -63.77357,-139.30946 -64.48310,-139.91511 C -65.19264,-140.52075 -64.83596,-140.21869 -65.55311,-140.82143 C -66.27027,-141.42417 -65.90977,-141.12359 -66.63457,-141.72332 C -67.35938,-142.32306 -66.99505,-142.02400 -67.72752,-142.62064 C -68.45999,-143.21727 -68.09182,-142.91979 -68.83198,-143.51322 C -69.57215,-144.10665 -69.20013,-143.81080 -69.94800,-144.40093 C -70.69588,-144.99105 -70.32000,-144.69688 -71.07561,-145.28359 C -71.83121,-145.87031 -71.45146,-145.57787 -72.21483,-146.16108 C -72.97819,-146.74428 -72.59456,-146.45362 -73.36569,-147.03321 C -74.13683,-147.61281 -73.74930,-147.32398 -74.52824,-147.89985 C -75.30717,-148.47572 -74.91574,-148.18878 -75.70248,-148.76083 C -76.48923,-149.33288 -76.09389,-149.04788 -76.88846,-149.61599 C -77.68304,-150.18411 -77.28378,-149.90110 -78.08620,-150.46518 C -78.88862,-151.02925 -78.48544,-150.74829 -79.29573,-151.30822 C -80.10601,-151.86815 -79.69889,-151.58929 -80.51706,-152.14496 C -81.33523,-152.70063 -80.92417,-152.42393 -81.75023,-152.97524 C -82.57629,-153.52654 -82.16128,-153.25205 -82.99525,-153.79887 C -83.82923,-154.34570 -83.41026,-154.07348 -84.25216,-154.61571 C -85.09406,-155.15794 -84.67112,-154.88805 -85.52096,-155.42558 C -86.37080,-155.96311 -85.94389,-155.69559 -86.80168,-156.22830 C -87.65948,-156.76101 -87.22858,-156.49593 -88.09434,-157.02371 C -88.96010,-157.55149 -88.52523,-157.28891 -89.39896,-157.81164 C -90.27270,-158.33437 -89.83383,-158.07434 -90.71555,-158.59190 C -91.59727,-159.10946 -91.15441,-158.85205 -92.04413,-159.36433 C -92.93385,-159.87660 -92.48699,-159.62186 -93.38471,-160.12874 C -94.28244,-160.63561 -93.83157,-160.38360 -94.73732,-160.88495 C -95.64306,-161.38630 -95.18818,-161.13708 -96.10195,-161.63279 C -97.01572,-162.12850 -96.55682,-161.88213 -97.47862,-162.37207 C -98.40043,-162.86201 -97.93751,-162.61856 -98.86735,-163.10261 C -99.79719,-163.58666 -99.33026,-163.34618 -100.26815,-163.82422 C -101.20603,-164.30225 -100.73507,-164.06482 -101.68101,-164.53671 C -102.62695,-165.00860 -142.34931,-165.45331 -103.10595,-165.23989 C -63.86260,-165.02648 -23.77239,-164.99447 16.04905,-163.89647 C 55.87049,-162.79846 16.15685,-163.24328 16.35837,-161.94588 C 16.55988,-160.64848 16.46141,-161.29565 16.65358,-160.00427 C 16.84576,-158.71288 16.75192,-159.35702 16.93489,-158.07174 C 17.11786,-156.78645 17.02859,-157.42752 17.20250,-156.14841 C 17.37641,-154.86929 17.29164,-155.50726 17.45662,-154.23438 C 17.62159,-152.96150 17.54125,-153.59634 17.69744,-152.32977 C 17.85362,-151.06320 17.77764,-151.69486 17.92518,-150.43467 C 18.07271,-149.17448 18.00102,-149.80294 18.14004,-148.54920 C 18.27905,-147.29545 18.21159,-147.92067 18.34222,-146.67344 C 18.47286,-145.42621 18.40955,-146.04816 18.53195,-144.80750 C 18.65435,-143.56684 18.59512,-144.18549 18.70943,-142.95147 C 18.82373,-141.71745 18.76852,-142.33276 18.87486,-141.10544 C 18.98120,-139.87812 18.92993,-140.49007 19.02846,-139.26950 C 19.12699,-138.04894 19.07959,-138.65750 19.17044,-137.44375 C 19.26129,-136.23000 19.21770,-136.83514 19.30102,-135.62826 C 19.38433,-134.42139 19.34447,-135.02307 19.42039,-133.82312 C 19.49632,-132.62318 19.46012,-133.22138 19.52879,-132.02842 C 19.59747,-130.83545 19.56485,-131.43015 19.62642,-130.24422 C 19.68799,-129.05828 19.65889,-129.64946 19.71350,-128.47061 C 19.76811,-127.29175 19.74246,-127.87938 19.79024,-126.70766 C 19.83803,-125.53593 19.81575,-126.11998 19.85687,-124.95544 C 19.89798,-123.79089 19.87900,-124.37134 19.91359,-123.21402 C 19.94817,-122.05670 19.93242,-122.63353 19.96062,-121.48347 C 19.98882,-120.33342 19.97623,-120.90661 19.99819,-119.76386 C 20.02015,-118.62112 20.01064,-119.19064 20.02650,-118.05525 C 20.04237,-116.91987 20.03587,-117.48570 20.04579,-116.35770 C 20.05571,-115.22971 20.05214,-115.79183 20.05626,-114.67127 C 20.06038,-113.55071 20.05968,-114.10911 20.05815,-112.99602 C 20.05661,-111.88293 20.05870,-112.43758 20.05166,-111.33200 C 20.04462,-110.22641 20.04942,-110.77731 20.03702,-109.67926 C 20.02462,-108.58122 20.03207,-109.12833 20.01445,-108.03786 C 19.99684,-106.94739 20.00686,-107.49071 19.98418,-106.40785 C 19.96150,-105.32499 19.97401,-105.86450 19.94641,-104.78927 C 19.91882,-103.71404 19.93375,-104.24973 19.90139,-103.18217 C 19.86902,-102.11461 19.88630,-102.64645 19.84932,-101.58659 C 19.81233,-100.52672 19.83189,-101.05471 19.79043,-100.00257 C 19.74897,-98.95043 19.77072,-99.47455 19.72494,-98.43016 C 19.67916,-97.38576 19.70304,-97.90601 19.65308,-96.86939 C 19.60312,-95.83277 19.62905,-96.34912 19.57507,-95.32029 C 19.52108,-94.29147 19.54899,-94.80392 19.49113,-93.78291 C 19.43326,-92.76191 19.46307,-93.27044 19.40148,-92.25728 C 19.33989,-91.24412 19.37152,-91.74873 19.30635,-90.74342 C 19.24118,-89.73812 19.27457,-90.23880 19.20596,-89.24138 C 19.13735,-88.24395 19.17242,-88.74068 19.10053,-87.75116 C 19.02864,-86.76164 19.06532,-87.25442 18.99029,-86.27281 C 18.91527,-85.29121 18.95347,-85.78002 18.87546,-84.80635 C 18.79745,-83.83268 18.83711,-84.31752 18.75626,-83.35180 C 18.67540,-82.38608 18.71645,-82.86694 18.63290,-81.90919 C 18.54936,-80.95143 18.59171,-81.42831 18.50562,-80.47853 C 18.41954,-79.52875 18.46312,-80.00164 18.37464,-79.05985 C 18.28615,-78.11807 18.33090,-78.58695 18.24016,-77.65317 C 18.14943,-76.71939 18.19527,-77.18427 18.10242,-76.25850 C 18.00958,-75.33274 18.05644,-75.79361 17.96163,-74.87587 C 17.86683,-73.95813 17.91463,-74.41499 17.81801,-73.50529 C 17.72139,-72.59559 17.77007,-73.04842 17.67178,-72.14677 C 17.57348,-71.24511 17.62296,-71.69392 17.52314,-70.80033 C 17.42332,-69.90673 17.47352,-70.35151 17.37232,-69.46598 C 17.27111,-68.58045 17.32197,-69.02119 17.21952,-68.14374 C 17.11707,-67.26628 17.16852,-67.70299 17.06497,-66.83361 C 16.96141,-65.96424 17.01338,-66.39690 16.90886,-65.53562 C 16.80434,-64.67434 16.85676,-65.10295 16.75141,-64.24977 C 16.64607,-63.39659 16.69886,-63.82115 16.59282,-62.97607 C 16.48679,-62.13100 16.53989,-62.55150 16.43330,-61.71454 C 16.32671,-60.87758 16.38006,-61.29403 16.27305,-60.46518 C 16.16604,-59.63634 16.21957,-60.04873 16.11226,-59.22801 C 16.00496,-58.40729 16.05861,-58.81562 15.95114,-58.00303 C 15.84368,-57.19045 15.89737,-57.59470 15.78988,-56.79026 C 15.68239,-55.98582 15.73606,-56.38600 15.62867,-55.58971 C 15.52127,-54.79341 15.57487,-55.18952 15.46769,-54.40138 C 15.36051,-53.61324 15.41397,-54.00526 15.30713,-53.22528 C 15.20029,-52.44531 15.25355,-52.83325 15.14717,-52.06144 C 15.04080,-51.28963 15.09380,-51.67349 14.98800,-50.90985 C 14.88219,-50.14622 14.93488,-50.52599 14.82977,-49.77054 C 14.72466,-49.01509 14.77697,-49.39076 14.67266,-48.64351 C 14.56835,-47.89625 14.62024,-48.26783 14.51683,-47.52877 C 14.41343,-46.78971 14.46484,-47.15719 14.36245,-46.42634 C 14.26006,-45.69549 14.31094,-46.05886 14.20966,-45.33623 C 14.10839,-44.61360 14.15869,-44.97286 14.05862,-44.25846 C 13.95856,-43.54406 14.00823,-43.89919 13.90947,-43.19303 C 13.81071,-42.48687 13.85971,-42.83789 13.76234,-42.13997 C 13.66498,-41.44206 13.71326,-41.78895 13.61738,-41.09930 C 13.52149,-40.40965 13.56901,-40.75240 13.47469,-40.07102 C 13.38038,-39.38964 13.42710,-39.72826 13.33442,-39.05516 C 13.24174,-38.38207 13.28762,-38.71654 13.19666,-38.05174 C 13.10569,-37.38694 13.15070,-37.71726 13.06152,-37.06077 C 12.97234,-36.40428 13.01645,-36.73044 12.92911,-36.08228 C 12.84178,-35.43411 12.88495,-35.75610 12.79952,-35.11628 C 12.71409,-34.47645 12.75629,-34.79427 12.67283,-34.16280 C 12.58936,-33.53133 12.63057,-33.84496 12.54911,-33.22186 C 12.46766,-32.59876 12.50786,-32.90821 12.42846,-32.29349 C 12.34906,-31.67877 12.38822,-31.98402 12.31091,-31.37770 C 12.23361,-30.77138 12.27172,-31.07243 12.19654,-30.47453 C 12.12137,-29.87663 12.15840,-30.17346 12.08539,-29.58400 C 12.01238,-28.99453 12.04833,-29.28714 11.97750,-28.70613 C 11.90667,-28.12511 11.94153,-28.41350 11.87291,-27.84095 C 11.80429,-27.26841 11.83804,-27.55255 11.77164,-26.98850 C 11.70523,-26.42444 11.73787,-26.70433 11.67370,-26.14879 C 11.60953,-25.59324 11.64106,-25.86887 11.57912,-25.32185 C 11.51719,-24.77483 11.54760,-25.04620 11.48790,-24.50772 C 11.42820,-23.96924 11.45749,-24.23633 11.40003,-23.70642 C 11.34256,-23.17650 11.37074,-23.43931 11.31550,-22.91798 C 11.26026,-22.39665 11.28733,-22.65516 11.23430,-22.14243 C 11.18127,-21.62970 11.20724,-21.88390 11.15640,-21.37980 C 11.10556,-20.87570 11.13045,-21.12558 11.08178,-20.63012 C 11.03311,-20.13466 11.05692,-20.38021 11.01040,-19.89341 C 10.96388,-19.40661 10.98662,-19.64784 10.94222,-19.16972 C 10.89781,-18.69160 10.91951,-18.92847 10.87719,-18.45905 C 10.83487,-17.98963 10.85553,-18.22216 10.81526,-17.76146 C 10.77499,-17.30075 10.79463,-17.52891 10.75637,-17.07695 C 10.71811,-16.62499 10.73677,-16.84877 10.70047,-16.40557 C 10.66418,-15.96236 10.68186,-16.18176 10.64749,-15.74733 C 10.61312,-15.31290 10.62986,-15.52791 10.59736,-15.10227 C 10.56487,-14.67663 10.58068,-14.88724 10.55001,-14.47041 C 10.51935,-14.05358 10.53425,-14.25978 10.50536,-13.85178 C 10.47647,-13.44377 10.49051,-13.64556 10.46334,-13.24640 C 10.43617,-12.84724 10.44936,-13.04460 10.42386,-12.65430 C 10.39836,-12.26400 10.41073,-12.45692 10.38684,-12.07550 C 10.36295,-11.69408 10.37453,-11.88256 10.35219,-11.51003 C 10.32986,-11.13750 10.34067,-11.32153 10.31984,-10.95791 C 10.29900,-10.59429 10.30908,-10.77386 10.28969,-10.41916 C 10.27029,-10.06446 10.27967,-10.23957 10.26165,-9.89381 C 10.24364,-9.54804 10.25234,-9.71868 10.23564,-9.38187 C 10.21895,-9.04505 10.22700,-9.21121 10.21157,-8.88336 C 10.19614,-8.55551 10.20358,-8.71719 10.18935,-8.39831 C 10.17512,-8.07944 10.18197,-8.23662 10.16889,-7.92673 C 10.15581,-7.61685 10.16210,-7.76954 10.15010,-7.46865 C 10.13811,-7.16776 10.14387,-7.31595 10.13290,-7.02407 C 10.12193,-6.73219 10.12720,-6.87587 10.11720,-6.59301 C 10.10721,-6.31016 10.11199,-6.44932 10.10291,-6.17550 C 10.09383,-5.90168 10.09818,-6.03632 10.08996,-5.77154 C 10.08174,-5.50676 10.08567,-5.63689 10.07826,-5.38116 C 10.07084,-5.12543 10.07438,-5.25102 10.06772,-5.00435 C 10.06107,-4.75768 10.06424,-4.87875 10.05828,-4.64115 C 10.05233,-4.40355 10.05516,-4.52008 10.04986,-4.29155 C 10.04456,-4.06303 10.04707,-4.17502 10.04238,-3.95558 C 10.03768,-3.73614 10.03991,-3.84359 10.03577,-3.63324 C 10.03163,-3.42289 10.03358,-3.52579 10.02996,-3.32454 C 10.02633,-3.12330 10.02804,-3.22164 10.02488,-3.02950 C 10.02172,-2.83736 10.02321,-2.93115 10.02048,-2.74812 C 10.01775,-2.56509 10.01903,-2.65432 10.01669,-2.48041 C 10.01434,-2.30650 10.01544,-2.39118 10.01345,-2.22639 C 10.01145,-2.06160 10.01239,-2.14171 10.01070,-1.98605 C 10.00902,-1.83039 10.00980,-1.90593 10.00840,-1.75941 C 10.00700,-1.61288 10.00765,-1.68386 10.00649,-1.54647 C 10.00533,-1.40908 10.00587,-1.47549 10.00493,-1.34724 C 10.00398,-1.21899 10.00442,-1.28083 10.00366,-1.16172 C 10.00291,-1.04262 10.00326,-1.09988 10.00266,-0.98993 C 10.00207,-0.87997 10.00234,-0.93266 10.00188,-0.83186 C 10.00142,-0.73106 10.00163,-0.77917 10.00128,-0.68752 C 10.00094,-0.59587 10.00109,-0.63941 10.00084,-0.55692 C 10.00059,-0.47443 10.00070,-0.51338 10.00053,-0.44005 C 10.00035,-0.36672 10.00043,-0.40109 10.00031,-0.33692 C 10.00019,-0.27276 10.00024,-0.30255 10.00017,-0.24754 C 10.00009,-0.19254 10.00012,-0.21775 10.00008,-0.17191 C 10.00004,-0.12607 10.00006,-0.14670 10.00003,-0.11002 C 10.00001,-0.07335 10.00002,-0.08940 10.00001,-0.06189 C 10.00000,-0.03438 10.00001,-0.04584 10.00000,-0.02751 C 10.00000,-0.00917 10.00000,-0.01605 10.00000,-0.00688 C 10.00000,0.00229 10.00000,-0.00458 10.00000,-0.00000 C 10.00000,0.00458 10.00000,-0.00229 10.00000,0.00688 C 10.00000,0.01605 10.00000,0.00917 10.00000,0.02751 C 10.00001,0.04584 10.00000,0.03438 10.00001,0.06189 C 10.00002,0.08940 10.00001,0.07335 10.00003,0.11002 C 10.00006,0.14670 10.00004,0.12607 10.00008,0.17191 C 10.00012,0.21775 10.00009,0.19254 10.00017,0.24754 C 10.00024,0.30255 10.00019,0.27276 10.00031,0.33692 C 10.00043,0.40109 10.00035,0.36672 10.00053,0.44005 C 10.00070,0.51338 10.00059,0.47443 10.00084,0.55692 C 10.00109,0.63941 10.00094,0.59587 10.00128,0.68752 C 10.00163,0.77917 10.00142,0.73106 10.00188,0.83186 C 10.00234,0.93266 10.00207,0.87997 10.00266,0.98993 C 10.00326,1.09988 10.00291,1.04262 10.00366,1.16172 C 10.00442,1.28083 10.00398,1.21899 10.00493,1.34724 C 10.00587,1.47549 10.00533,1.40908 10.00649,1.54647 C 10.00765,1.68386 10.00700,1.61288 10.00840,1.75941 C 10.00980,1.90593 10.00902,1.83039 10.01070,1.98605 C 10.01239,2.14171 10.01145,2.06160 10.01345,2.22639 C 10.01544,2.39118 10.01434,2.30650 10.01669,2.48041 C 10.01903,2.65432 10.01775,2.56509 10.02048,2.74812 C 10.02321,2.93115 10.02172,2.83736 10.02488,3.02950 C 10.02804,3.22164 10.02633,3.12330 10.02996,3.32454 C 10.03358,3.52579 10.03163,3.42289 10.03577,3.63324 C 10.03991,3.84359 10.03768,3.73614 10.04238,3.95558 C 10.04707,4.17502 10.04456,4.06303 10.04986,4.29155 C 10.05516,4.52008 10.05233,4.40355 10.05828,4.64115 C 10.06424,4.87875 10.06107,4.75768 10.06772,5.00435 C 10.07438,5.25102 10.07084,5.12543 10.07826,5.38116 C 10.08567,5.63689 10.08174,5.50676 10.08996,5.77154 C 10.09818,6.03632 10.09383,5.90168 10.10291,6.17550 C 10.11199,6.44932 10.10721,6.31016 10.11720,6.59301 C 10.12720,6.87587 10.12193,6.73219 10.13290,7.02407 C 10.14387,7.31595 10.13811,7.16776 10.15010,7.46865 C 10.16210,7.76954 10.15581,7.61685 10.16889,7.92673 C 10.18197,8.23662 10.17512,8.07944 10.18935,8.39831 C 10.20358,8.71719 10.19614,8.55551 10.21157,8.88336 C 10.22700,9.21121 10.21895,9.04505 10.23564,9.38187 C 10.25234,9.71868 10.24364,9.54804 10.26165,9.89381 C 10.27967,10.23957 10.27029,10.06446 10.28969,10.41916 C 10.30908,10.77386 10.29900,10.59429 10.31984,10.95791 C 10.34067,11.32153 10.32986,11.13750 10.35219,11.51003 C 10.37453,11.88256 10.36295,11.69408 10.38684,12.07550 C 10.41073,12.45692 10.39836,12.26400 10.42386,12.65430 C 10.44936,13.04460 10.43617,12.84724 10.46334,13.24640 C 10.49051,13.64556 10.47647,13.44377 10.50536,13.85178 C 10.53425,14.25978 10.51935,14.05358 10.55001,14.47041 C 10.58068,14.88724 10.56487,14.67663 10.59736,15.10227 C 10.62986,15.52791 10.61312,15.31290 10.64749,15.74733 C 10.68186,16.18176 10.66418,15.96236 10.70047,16.40557 C 10.73677,16.84877 10.71811,16.62499 10.75637,17.07695 C 10.79463,17.52891 10.77499,17.30075 10.81526,17.76146 C 10.85553,18.22216 10.83487,17.98963 10.87719,18.45905 C 10.91951,18.92847 10.89781,18.69160 10.94222,19.16972 C 10.98662,19.64784 10.96388,19.40661 11.01040,19.89341 C 11.05692,20.38021 11.03311,20.13466 11.08178,20.63012 C 11.13045,21.12558 11.10556,20.87570 11.15640,21.37980 C 11.20724,21.88390 11.18127,21.62970 11.23430,22.14243 C 11.28733,22.65516 11.26026,22.39665 11.31550,22.91798 C 11.37074,23.43931 11.34256,23.17650 11.40003,23.70642 C 11.45749,24.23633 11.42820,23.96924 11.48790,24.50772 C 11.54760,25.04620 11.51719,24.77483 11.57912,25.32185 C 11.64106,25.86887 11.60953,25.59324 11.67370,26.14879 C 11.73787,26.70433 11.70523,26.42444 11.77164,26.98850 C 11.83804,27.55255 11.80429,27.26841 11.87291,27.84095 C 11.94153,28.41350 11.90667,28.12511 11.97750,28.70613 C 12.04833,29.28714 12.01238,28.99453 12.08539,29.58400 C 12.15840,30.17346 12.12137,29.87663 12.19654,30.47453 C 12.27172,31.07243 12.23361,30.77138 12.31091,31.37770 C 12.38822,31.98402 12.34906,31.67877 12.42846,32.29349 C 12.50786,32.90821 12.46766,32.59876 12.54911,33.22186 C 12.63057,33.84496 12.58936,33.53133 12.67283,34.16280 C 12.75629,34.79427 12.71409,34.47645 12.79952,35.11628 C 12.88495,35.75610 12.84178,35.43411 12.92911,36.08228 C 13.01645,36.73044 12.97234,36.40428 13.06152,37.06077 C 13.15070,37.71726 13.10569,37.38694 13.19666,38.05174 C 13.28762,38.71654 13.24174,38.38207 13.33442,39.05516 C 13.42710,39.72826 13.38038,39.38964 13.47469,40.07102 C 13.56901,40.75240 13.52149,40.40965 13.61738,41.09930 C 13.71326,41.78895 13.66498,41.44206 13.76234,42.13997 C 13.85971,42.83789 13.81071,42.48687 13.90947,43.19303 C 14.00823,43.89919 13.95856,43.54406 14.05862,44.25846 C 14.15869,44.97286 14.10839,44.61360 14.20966,45.33623 C 14.31094,46.05886 14.26006,45.69549 14.36245,46.42634 C 14.46484,47.15719 14.41343,46.78971 14.51683,47.52877 C 14.62024,48.26783 14.56835,47.89625 14.67266,48.64351 C 14.77697,49.39076 14.72466,49.01509 14.82977,49.77054 C 14.93488,50.52599 14.88219,50.14622 14.98800,50.90985 C 15.09380,51.67349 15.04080,51.28963 15.14717,52.06144 C 15.25355,52.83325 15.20029,52.44531 15.30713,53.22528 C 15.41397,54.00526 15.36051,53.61324 15.46769,54.40138 C 15.57487,55.18952 15.52127,54.79341 15.62867,55.58971 C 15.73606,56.38600 15.68239,55.98582 15.78988,56.79026 C 15.89737,57.59470 15.84368,57.19045 15.95114,58.00303 C 16.05861,58.81562 16.00496,58.40729 16.11226,59.22801 C 16.21957,60.04873 16.16604,59.63634 16.27305,60.46518 C 16.38006,61.29403 16.32671,60.87758 16.43330,61.71454 C 16.53989,62.55150 16.48679,62.13100 16.59282,62.97607 C 16.69886,63.82115 16.64607,63.39659 16.75141,64.24977 C 16.85676,65.10295 16.80434,64.67434 16.90886,65.53562 C 17.01338,66.39690 16.96141,65.96424 17.06497,66.83361 C 17.16852,67.70299 17.11707,67.26628 17.21952,68.14374 C 17.32197,69.02119 17.27111,68.58045 17.37232,69.46598 C 17.47352,70.35151 17.42332,69.90673 17.52314,70.80033 C 17.62296,71.69392 17.57348,71.24511 17.67178,72.14677 C 17.77007,73.04842 17.72139,72.59559 17.81801,73.50529 C 17.91463,74.41499 17.86683,73.95813 17.96163,74.87587 C 18.05644,75.79361 18.00958,75.33274 18.10242,76.25850 C 18.19527,77.18427 18.14943,76.71939 18.24016,77.65317 C 18.33090,78.58695 18.28615,78.11807 18.37464,79.05985 C 18.46312,80.00164 18.41954,79.52875 18.50562,80.47853 C 18.59171,81.42831 18.54936,80.95143 18.63290,81.90919 C 18.71645,82.86694 18.67540,82.38608 18.75626,83.35180 C 18.83711,84.31752 18.79745,83.83268 18.87546,84.80635 C 18.95347,85.78002 18.91527,85.29121 18.99029,86.27281 C 19.06532,87.25442 19.02864,86.76164 19.10053,87.75116 C 19.17242,88.74068 19.13735,88.24395 19.20596,89.24138 C 19.27457,90.23880 19.24118,89.73812 19.30635,90.74342 C 19.37152,91.74873 19.33989,91.24412 19.40148,92.25728 C 19.46307,93.27044 19.43326,92.76191 19.49113,93.78291 C 19.54899,94.80392 19.52108,94.29147 19.57507,95.32029 C 19.62905,96.34912 19.60312,95.83277 19.65308,96.86939 C 19.70304,97.90601 19.67916,97.38576 19.72494,98.43016 C 19.77072,99.47455 19.74897,98.95043 19.79043,100.00257 C 19.83189,101.05471 19.81233,100.52672 19.84932,101.58659 C 19.88630,102.64645 19.86902,102.11461 19.90139,103.18217 C 19.93375,104.24973 19.91882,103.71404 19.94641,104.78927 C 19.97401,105.86450 19.96150,105.32499 19.98418,106.40785 C 20.00686,107.49071 19.99684,106.94739 20.01445,108.03786 C 20.03207,109.12833 20.02462,108.58122 20.03702,109.67926 C 20.04942,110.77731 20.04462,110.22641 20.05166,111.33200 C 20.05870,112.43758 20.05661,111.88293 20.05815,112.99602 C 20.05968,114.10911 20.06038,113.55071 20.05626,114.67127 C 20.05214,115.79183 20.05571,115.22971 20.04579,116.35770 C 20.03587,117.48570 20.04237,116.91987 20.02650,118.05525 C 20.01064,119.19064 20.02015,118.62112 19.99819,119.76386 C 19.97623,120.90661 19.98882,120.33342 19.96062,121.48347 C 19.93242,122.63353 19.94817,122.05670 19.91359,123.21402 C 19.87900,124.37134 19.89798,123.79089 19.85687,124.95544 C 19.81575,126.11998 19.83803,125.53593 19.79024,126.70766 C 19.74246,127.87938 19.76811,127.29175 19.71350,128.47061 C 19.65889,129.64946 19.68799,129.05828 19.62642,130.24422 C 19.56485,131.43015 19.59747,130.83545 19.52879,132.02842 C 19.46012,133.22138 19.49632,132.62318 19.42039,133.82312 C 19.34447,135.02307 19.38433,134.42139 19.30102,135.62826 C 19.21770,136.83514 19.26129,136.23000 19.17044,137.44375 C 19.07959,138.65750 19.12699,138.04894 19.02846,139.26950 C 18.92993,140.49007 18.98120,139.87812 18.87486,141.10544 C 18.76852,142.33276 18.82373,141.71745 18.70943,142.95147 C 18.59512,144.18549 18.65435,143.56684 18.53195,144.80750 C 18.40955,146.04816 18.47286,145.42621 18.34222,146.67344 C 18.21159,147.92067 18.27905,147.29545 18.14004,148.54920 C 18.00102,149.80294 18.07271,149.17448 17.92518,150.43467 C 17.77764,151.69486 17.85362,151.06320 17.69744,152.32977 C 17.54125,153.59634 17.62159,152.96150 17.45662,154.23438 C 17.29164,155.50726 17.37641,154.86929 17.20250,156.14841 C 17.02859,157.42752 17.11786,156.78645 16.93489,158.07174 C 16.75192,159.35702 16.84576,158.71288 16.65358,160.00427 C 16.46141,161.29565 16.55988,160.64848 16.35837,161.94588 C 16.15685,163.24328 55.87049,162.79846 16.04905,163.89647 C -23.77239,164.99447 -63.86260,165.02648 -103.10595,165.23989 C -142.34931,165.45331 -102.62695,165.00860 -101.68101,164.53671 C -100.73507,164.06482 -101.20603,164.30225 -100.26815,163.82422 C -99.33026,163.34618 -99.79719,163.58666 -98.86735,163.10261 C -97.93751,162.61856 -98.40043,162.86201 -97.47862,162.37207 C -96.55682,161.88213 -97.01572,162.12850 -96.10195,161.63279 C -95.18818,161.13708 -95.64306,161.38630 -94.73732,160.88495 C -93.83157,160.38360 -94.28244,160.63561 -93.38471,160.12874 C -92.48699,159.62186 -92.93385,159.87660 -92.04413,159.36433 C -91.15441,158.85205 -91.59727,159.10946 -90.71555,158.59190 C -89.83383,158.07434 -90.27270,158.33437 -89.39896,157.81164 C -88.52523,157.28891 -88.96010,157.55149 -88.09434,157.02371 C -87.22858,156.49593 -87.65948,156.76101 -86.80168,156.22830 C -85.94389,155.69559 -86.37080,155.96311 -85.52096,155.42558 C -84.67112,154.88805 -85.09406,155.15794 -84.25216,154.61571 C -83.41026,154.07348 -83.82923,154.34570 -82.99525,153.79887 C -82.16128,153.25205 -82.57629,153.52654 -81.75023,152.97524 C -80.92417,152.42393 -81.33523,152.70063 -80.51706,152.14496 C -79.69889,151.58929 -80.10601,151.86815 -79.29573,151.30822 C -78.48544,150.74829 -78.88862,151.02925 -78.08620,150.46518 C -77.28378,149.90110 -77.68304,150.18411 -76.88846,149.61599 C -76.09389,149.04788 -76.48923,149.33288 -75.70248,148.76083 C -74.91574,148.18878 -75.30717,148.47572 -74.52824,147.89985 C -73.74930,147.32398 -74.13683,147.61281 -73.36569,147.03321 C -72.59456,146.45362 -72.97819,146.74428 -72.21483,146.16108 C -71.45146,145.57787 -71.83121,145.87031 -71.07561,145.28359 C -70.32000,144.69688 -70.69588,144.99105 -69.94800,144.40093 C -69.20013,143.81080 -69.57215,144.10665 -68.83198,143.51322 C -68.09182,142.91979 -68.45999,143.21727 -67.72752,142.62064 C -66.99505,142.02400 -67.35938,142.32306 -66.63457,141.72332 C -65.90977,141.12359 -66.27027,141.42417 -65.55311,140.82143 C -64.83596,140.21869 -65.19264,140.52075 -64.48310,139.91511 C -63.77357,139.30946 -64.12645,139.61295 -63.42451,139.00450 C -62.72257,138.39605 -63.07166,138.70092 -62.37729,138.08976 C -61.68293,137.47860 -62.02823,137.78480 -61.34142,137.17103 C -60.65460,136.55726 -60.99614,136.86474 -60.31685,136.24845 C -59.63755,135.63217 -59.97534,135.94088 -59.30354,135.32217 C -58.63174,134.70346 -58.96578,135.01336 -58.30145,134.39233 C -57.63712,133.77130 -57.96744,134.08234 -57.31055,133.45907 C -56.65366,132.83580 -56.98026,133.14794 -56.33078,132.52253 C -55.68131,131.89712 -56.00421,132.21030 -55.36212,131.58284 C -54.72003,130.95538 -55.03925,131.26957 -54.40451,130.64015 C -53.76977,130.01073 -54.08532,130.32587 -53.45791,129.69459 C -52.83050,129.06330 -53.14239,129.37936 -52.52228,128.74629 C -51.90216,128.11323 -52.21042,128.43015 -51.59757,127.79540 C -50.98472,127.16065 -51.28935,127.47839 -50.68373,126.84203 C -50.07811,126.20568 -50.37913,126.52420 -49.78072,125.88633 C -49.18231,125.24846 -49.47973,125.56772 -48.88849,124.92843 C -48.29725,124.28913 -48.59110,124.60908 -48.00699,123.96844 C -47.42288,123.32780 -47.71317,123.64840 -47.13617,123.00651 C -46.55917,122.36461 -46.84591,122.68582 -46.27598,122.04275 C -45.70605,121.39968 -45.98927,121.72146 -45.42638,121.07730 C -44.86348,120.43314 -45.14319,120.75544 -44.58730,120.11027 C -44.03140,119.46511 -44.30762,119.78789 -43.75870,119.14180 C -43.20977,118.49571 -43.48251,118.81894 -42.94052,118.17200 C -42.39853,117.52507 -42.66781,117.84870 -42.13271,117.20100 C -41.59762,116.55331 -41.86346,116.87729 -41.33523,116.22892 C -40.80699,115.58054 -41.06941,115.90485 -40.54800,115.25587 C -40.02658,114.60689 -40.28561,114.93148 -39.77098,114.28197 C -39.25635,113.63247 -39.51199,113.95730 -39.00411,113.30735 C -38.49622,112.65740 -38.74850,112.98244 -38.24733,112.33212 C -37.74616,111.68179 -37.99509,112.00700 -37.50059,111.35638 C -37.00609,110.70577 -37.25169,111.03110 -36.76383,110.38027 C -36.27596,109.72944 -36.51826,110.05486 -36.03698,109.40388 C -35.55571,108.75291 -35.79472,109.07838 -35.32000,108.42734 C -34.84528,107.77630 -35.08103,108.10179 -34.61282,107.45075 C -34.14461,106.79971 -34.37711,107.12518 -33.91538,106.47422 C -33.45365,105.82326 -33.68292,106.14868 -33.22762,105.49786 C -32.77232,104.84705 -32.99839,105.17238 -32.54948,104.52179 C -32.10058,103.87120 -32.32346,104.19639 -31.88090,103.54610 C -31.43834,102.89580 -31.65806,103.22083 -31.22181,102.57090 C -30.78556,101.92096 -31.00214,102.24579 -30.57216,101.59629 C -30.14218,100.94679 -30.35563,101.27139 -29.93187,100.62239 C -29.50811,99.97339 -29.71846,100.29772 -29.30089,99.64929 C -28.88331,99.00086 -29.09058,99.32489 -28.67915,98.67709 C -28.26771,98.02930 -28.47192,98.35299 -28.06658,97.70590 C -27.66124,97.05881 -27.86241,97.38214 -27.46312,96.73582 C -27.06384,96.08949 -27.26199,96.41242 -26.86871,95.76693 C -26.47543,95.12144 -26.67060,95.44394 -26.28328,94.79935 C -25.89596,94.15476 -26.08816,94.47679 -25.70676,93.83317 C -25.32536,93.18954 -25.51461,93.51107 -25.13909,92.86847 C -24.76356,92.22588 -24.94988,92.54688 -24.58019,91.90537 C -24.21050,91.26386 -24.39391,91.58430 -24.03000,90.94395 C -23.66609,90.30359 -23.84663,90.62344 -23.48846,89.98430 C -23.13029,89.34516 -23.30797,89.66439 -22.95549,89.02652 C -22.60301,88.38865 -22.77785,88.70723 -22.43102,88.07069 C -22.08419,87.43416 -22.25622,87.75205 -21.91499,87.11691 C -21.57376,86.48177 -21.74300,86.79896 -21.40733,86.16527 C -21.07165,85.53158 -21.23813,85.84802 -20.90796,85.21585 C -20.57779,84.58367 -20.74152,84.89934 -20.41681,84.26873 C -20.09210,83.63812 -20.25312,83.95300 -19.93383,83.32402 C -19.61453,82.69503 -19.77285,83.00908 -19.45892,82.38178 C -19.14499,81.75448 -19.30064,82.06768 -18.99203,81.44211 C -18.68342,80.81655 -18.83643,81.12886 -18.53308,80.50509 C -18.22974,79.88131 -18.38013,80.19272 -18.08201,79.57079 C -17.78389,78.94887 -17.93167,79.25933 -17.63873,78.63931 C -17.34578,78.01928 -17.49099,78.32879 -17.20318,77.71072 C -16.91536,77.09264 -17.05802,77.40116 -16.77528,76.78509 C -16.49254,76.16903 -16.63267,76.47653 -16.35496,75.86252 C -16.07726,75.24851 -16.21488,75.55497 -15.94216,74.94307 C -15.66943,74.33117 -15.80458,74.63656 -15.53679,74.02682 C -15.26899,73.41709 -15.40169,73.72138 -15.13878,73.11386 C -14.87587,72.50633 -15.00613,72.80951 -14.74806,72.20424 C -14.48999,71.59897 -14.61784,71.90101 -14.36456,71.29805 C -14.11127,70.69509 -14.23675,70.99597 -13.98820,70.39536 C -13.73965,69.79476 -13.86277,70.09444 -13.61891,69.49624 C -13.37505,68.89805 -13.49584,69.19651 -13.25661,68.60077 C -13.01739,68.00502 -13.13587,68.30225 -12.90124,67.70900 C -12.66661,67.11575 -12.78281,67.41173 -12.55271,66.82102 C -12.32262,66.23032 -12.43656,66.52500 -12.21096,65.93689 C -11.98536,65.34877 -12.09707,65.64215 -11.87590,65.05667 C -11.65474,64.47119 -11.76424,64.76325 -11.54747,64.18044 C -11.33070,63.59764 -11.43802,63.88834 -11.22559,63.30826 C -11.01316,62.72818 -11.11832,63.01751 -10.91019,62.44019 C -10.70205,61.86288 -10.80508,62.15082 -10.60118,61.57631 C -10.39729,61.00180 -10.49820,61.28832 -10.29850,60.71666 C -10.09880,60.14500 -10.19764,60.43009 -10.00208,59.86132 C -9.80652,59.29255 -9.90329,59.57619 -9.71183,59.01035 C -9.52036,58.44450 -9.61510,58.72667 -9.42768,58.16380 C -9.24026,57.60093 -9.33299,57.88159 -9.14957,57.32173 C -8.96614,56.76187 -9.05688,57.04103 -8.87740,56.48422 C -8.69792,55.92741 -8.78671,56.20503 -8.61112,55.65130 C -8.43553,55.09758 -8.52238,55.37365 -8.35064,54.82305 C -8.17890,54.27245 -8.26384,54.54695 -8.09589,53.99951 C -7.92795,53.45208 -8.01100,53.72498 -7.84680,53.18075 C -7.68260,52.63652 -7.76380,52.90781 -7.60329,52.36682 C -7.44279,51.82582 -7.52215,52.09549 -7.36529,51.55776 C -7.20844,51.02004 -7.28599,51.28806 -7.13273,50.75365 C -6.97947,50.21923 -7.05523,50.48559 -6.90552,49.95452 C -6.75582,49.42344 -6.82981,49.68812 -6.68361,49.16043 C -6.53740,48.63273 -6.60966,48.89571 -6.46690,48.37143 C -6.32415,47.84714 -6.39469,48.10841 -6.25534,47.58757 C -6.11598,47.06672 -6.18484,47.32626 -6.04884,46.80890 C -5.91284,46.29153 -5.98003,46.54933 -5.84734,46.03547 C -5.71464,45.52161 -5.78019,45.77764 -5.65075,45.26733 C -5.52131,44.75701 -5.58525,45.01126 -5.45902,44.50452 C -5.33278,43.99777 -5.39513,44.25023 -5.27206,43.74709 C -5.14898,43.24394 -5.20976,43.49460 -5.08980,42.99509 C -4.96984,42.49557 -5.02907,42.74440 -4.91217,42.24855 C -4.79527,41.75270 -4.85299,41.99970 -4.73911,41.50754 C -4.62522,41.01538 -4.68144,41.26052 -4.57053,40.77208 C -4.45961,40.28364 -4.51436,40.52691 -4.40636,40.04222 C -4.29837,39.55753 -4.35166,39.79892 -4.24654,39.31801 C -4.14142,38.83710 -4.19329,39.07659 -4.09100,38.59948 C -3.98870,38.12237 -4.03917,38.35996 -3.93966,37.88668 C -3.84014,37.41340 -3.88923,37.64907 -3.79245,37.17965 C -3.69566,36.71023 -3.74340,36.94396 -3.64930,36.47842 C -3.55521,36.01288 -3.60161,36.24466 -3.51015,35.78303 C -3.41869,35.32140 -3.46379,35.55122 -3.37493,35.09353 C -3.28606,34.63583 -3.32987,34.86368 -3.24355,34.40994 C -3.15724,33.95620 -3.19979,34.18207 -3.11597,33.73231 C -3.03215,33.28256 -3.07346,33.50642 -2.99210,33.06068 C -2.91074,32.61493 -2.95084,32.83678 -2.87189,32.39507 C -2.79294,31.95335 -2.83184,32.17318 -2.75526,31.73552 C -2.67867,31.29785 -2.71640,31.51566 -2.64214,31.08207 C -2.56788,30.64847 -2.60446,30.86424 -2.53247,30.43474 C -2.46049,30.00525 -2.49594,30.21896 -2.42619,29.79358 C -2.35644,29.36821 -2.39078,29.57985 -2.32322,29.15862 C -2.25566,28.73739 -2.28892,28.94695 -2.22350,28.52988 C -2.15808,28.11281 -2.19028,28.32029 -2.12697,27.90740 C -2.06366,27.49451 -2.09481,27.69990 -2.03356,27.29121 C -1.97230,26.88252 -2.00244,27.08580 -1.94321,26.68134 C -1.88397,26.27687 -1.91311,26.47803 -1.85585,26.07781 C -1.79858,25.67758 -1.82675,25.87662 -1.77142,25.48066 C -1.71609,25.08469 -1.74329,25.28160 -1.68985,24.88991 C -1.63641,24.49822 -1.66269,24.69299 -1.61110,24.30560 C -1.55951,23.91821 -1.58486,24.11082 -1.53508,23.72774 C -1.48530,23.34467 -1.50976,23.53511 -1.46175,23.15637 C -1.41373,22.77763 -1.43732,22.96591 -1.39104,22.59151 C -1.34475,22.21712 -1.36748,22.40322 -1.32288,22.03319 C -1.27828,21.66316 -1.30019,21.84708 -1.25723,21.48143 C -1.21428,21.11579 -1.23537,21.29750 -1.19402,20.93626 C -1.15267,20.57501 -1.17297,20.75453 -1.13319,20.39770 C -1.09341,20.04087 -1.11294,20.21817 -1.07469,19.86577 C -1.03644,19.51337 -1.05521,19.68845 -1.01845,19.34049 C -0.98170,18.99254 -0.99972,19.16540 -0.96442,18.82190 C -0.92912,18.47841 -0.94643,18.64903 -0.91255,18.31001 C -0.87867,17.97099 -0.89528,18.13937 -0.86277,17.80484 C -0.83027,17.47031 -0.84620,17.63644 -0.81504,17.30641 C -0.78388,16.97638 -0.79914,17.14026 -0.76929,16.81475 C -0.73944,16.48924 -0.75406,16.65086 -0.72548,16.32987 C -0.69689,16.00889 -0.71089,16.16824 -0.68354,15.85180 C -0.65619,15.53535 -0.66958,15.69243 -0.64343,15.38054 C -0.61729,15.06865 -0.63008,15.22345 -0.60510,14.91613 C -0.58012,14.60881 -0.59234,14.76132 -0.56849,14.45858 C -0.54464,14.15584 -0.55630,14.30606 -0.53355,14.00791 C -0.51080,13.70975 -0.52192,13.85768 -0.50024,13.56413 C -0.47855,13.27058 -0.48915,13.41619 -0.46849,13.12726 C -0.44784,12.83832 -0.45793,12.98163 -0.43827,12.69732 C -0.41861,12.41301 -0.42821,12.55400 -0.40952,12.27433 C -0.39083,11.99465 -0.39996,12.13332 -0.38220,11.85829 C -0.36445,11.58326 -0.37311,11.71961 -0.35627,11.44924 C -0.33942,11.17886 -0.34763,11.31288 -0.33166,11.04717 C -0.31569,10.78146 -0.32347,10.91314 -0.30834,10.65211 C -0.29321,10.39107 -0.30059,10.52042 -0.28627,10.26407 C -0.27195,10.00772 -0.27893,10.13472 -0.26540,9.88306 C -0.25187,9.63140 -0.25845,9.75605 -0.24568,9.50910 C -0.23290,9.26215 -0.23912,9.38444 -0.22707,9.14220 C -0.21503,8.89996 -0.22089,9.01989 -0.20954,8.78237 C -0.19820,8.54485 -0.20371,8.66243 -0.19304,8.42963 C -0.18237,8.19684 -0.18755,8.31205 -0.17753,8.08399 C -0.16750,7.85593 -0.17237,7.96877 -0.16296,7.74545 C -0.15356,7.52214 -0.15812,7.63260 -0.14931,7.41404 C -0.14050,7.19547 -0.14477,7.30357 -0.13653,7.08976 C -0.12829,6.87595 -0.13228,6.98166 -0.12458,6.77262 C -0.11689,6.56358 -0.12061,6.66690 -0.11344,6.46264 C -0.10626,6.25837 -0.10973,6.35930 -0.10305,6.15981 C -0.09637,5.96032 -0.09960,6.05887 -0.09339,5.86417 C -0.08719,5.66946 -0.09019,5.76561 -0.08443,5.57570 C -0.07867,5.38579 -0.08145,5.47954 -0.07612,5.29443 C -0.07080,5.10931 -0.07337,5.20067 -0.06845,5.02036 C -0.06353,4.84005 -0.06590,4.92900 -0.06136,4.75349 C -0.05683,4.57799 -0.05901,4.66454 -0.05484,4.49385 C -0.05067,4.32316 -0.05268,4.40730 -0.04885,4.24143 C -0.04503,4.07557 -0.04687,4.15729 -0.04337,3.99625 C -0.03987,3.83521 -0.04155,3.91452 -0.03836,3.75831 C -0.03516,3.60210 -0.03669,3.67899 -0.03379,3.52762 C -0.03089,3.37624 -0.03228,3.45072 -0.02965,3.30418 C -0.02701,3.15764 -0.02827,3.22970 -0.02589,3.08801 C -0.02351,2.94631 -0.02465,3.01595 -0.02251,2.87910 C -0.02037,2.74226 -0.02139,2.80946 -0.01947,2.67747 C -0.01754,2.54548 -0.01846,2.61026 -0.01674,2.48312 C -0.01503,2.35599 -0.01584,2.41834 -0.01431,2.29606 C -0.01279,2.17379 -0.01351,2.23371 -0.01216,2.11630 C -0.01081,1.99888 -0.01145,2.05637 -0.01026,1.94383 C -0.00907,1.83128 -0.00963,1.88634 -0.00859,1.77866 C -0.00755,1.67099 -0.00804,1.72360 -0.00713,1.62080 C -0.00623,1.51800 -0.00665,1.56818 -0.00587,1.47026 C -0.00509,1.37233 -0.00545,1.42007 -0.00478,1.32703 C -0.00411,1.23398 -0.00442,1.27928 -0.00385,1.19112 C -0.00328,1.10295 -0.00355,1.14581 -0.00307,1.06253 C -0.00258,0.97925 -0.00281,1.01967 -0.00241,0.94128 C -0.00200,0.86289 -0.00219,0.90086 -0.00186,0.82736 C -0.00153,0.75385 -0.00168,0.78938 -0.00141,0.72077 C -0.00114,0.65215 -0.00127,0.68524 -0.00105,0.62152 C -0.00083,0.55780 -0.00093,0.58843 -0.00076,0.52961 C -0.00059,0.47078 -0.00067,0.49897 -0.00054,0.44504 C -0.00041,0.39111 -0.00047,0.41685 -0.00037,0.36782 C -0.00027,0.31879 -0.00031,0.34208 -0.00024,0.29795 C -0.00017,0.25382 -0.00020,0.27466 -0.00015,0.23542 C -0.00010,0.19619 -0.00012,0.21458 -0.00009,0.18025 C -0.00005,0.14592 -0.00007,0.16186 -0.00005,0.13243 C -0.00003,0.10301 -0.00004,0.11649 -0.00002,0.09197 C -0.00001,0.06745 -0.00002,0.07848 -0.00001,0.05886 C -0.00000,0.03924 -0.00001,0.04783 -0.00000,0.03311 C -0.00000,0.01840 -0.00000,0.02453 -0.00000,0.01472 C 0.00000,0.00491 -0.00000,0.00858 -0.00000,0.00368 C 0.00000,-0.00123 -0.00000,0.00123 0.00000,0.00000 C 0.00000,-0.00123 0.00000,0.00123 0.00000,0.00000 Z" style="fill:#b7c2dd;fill-opacity:0.7;stroke:#000;stroke-width:0.8px;stroke-linejoin:round"/>
    <circle cx="-200.000" cy="0.000" r="3.000" style="fill:#dd2200;stroke:none"/>
    <circle cx="-80.000" cy="0" r="3.000" style="fill:none;stroke:#00aa33;stroke-width:0.7px;stroke-dasharray:1.5,1"/>
    <path d="M -200.000,-0.000 L -0.826,17.425 L 10.879,18.483 L 130.000,42.709" style="fill:none;stroke:#ff6600;stroke-width:0.7px"/>
    <path d="M 10.879,18.483 L -80.000,-0.000" style="fill:none;stroke:#ff6600;stroke-width:0.4px;stroke-dasharray:2,2;opacity:0.6"/>
    <path d="M -200.000,-0.000 L -0.465,13.078 L 10.503,13.820 L 130.000,32.068" style="fill:none;stroke:#ff6600;stroke-width:0.7px"/>
    <path d="M 10.503,13.820 L -80.000,0.000" style="fill:none;stroke:#ff6600;stroke-width:0.4px;stroke-dasharray:2,2;opacity:0.6"/>
    <path d="M -200.000,-0.000 L -0.207,8.723 L 10.226,9.193 L 130.000,21.397" style="fill:none;stroke:#ff6600;stroke-width:0.7px"/>
    <path d="M 10.226,9.193 L -80.000,-0.000" style="fill:none;stroke:#ff6600;stroke-width:0.4px;stroke-dasharray:2,2;opacity:0.6"/>
    <path d="M -200.000,-0.000 L -0.052,4.363 L 10.057,4.591 L 130.000,10.705" style="fill:none;stroke:#ff6600;stroke-width:0.7px"/>
    <path d="M 10.057,4.591 L -80.000,-0.000" style="fill:none;stroke:#ff6600;stroke-width:0.4px;stroke-dasharray:2,2;opacity:0.6"/>
    <path d="M -200.000,-0.000 L 0.000,-0.000 L 10.000,-0.000 L 130.000,-0.000" style="fill:none;stroke:#ff6600;stroke-width:0.7px"/>
    <path d="M 10.000,-0.000 L -80.000,-0.000" style="fill:none;stroke:#ff6600;stroke-width:0.4px;stroke-dasharray:2,2;opacity:0.6"/>
    <path d="M -200.000,-0.000 L -0.052,-4.363 L 10.057,-4.591 L 130.000,-10.705" style="fill:none;stroke:#ff6600;stroke-width:0.7px"/>
    <path d="M 10.057,-4.591 L -80.000,0.000" style="fill:none;stroke:#ff6600;stroke-width:0.4px;stroke-dasharray:2,2;opacity:0.6"/>
    <path d="M -200.000,-0.000 L -0.207,-8.723 L 10.226,-9.193 L 130.000,-21.397" style="fill:none;stroke:#ff6600;stroke-width:0.7px"/>
    <path d="M 10.226,-9.193 L -80.000,0.000" style="fill:none;stroke:#ff6600;stroke-width:0.4px;stroke-dasharray:2,2;opacity:0.6"/>
    <path d="M -200.000,-0.000 L -0.465,-13.078 L 10.503,-13.820 L 130.000,-32.068" style="fill:none;stroke:#ff6600;stroke-width:0.7px"/>
    <path d="M 10.503,-13.820 L -80.000,-0.000" style="fill:none;stroke:#ff6600;stroke-width:0.4px;stroke-dasharray:2,2;opacity:0.6"/>
    <path d="M -200.000,-0.000 L -0.826,-17.425 L 10.879,-18.483 L 130.000,-42.709" style="fill:none;stroke:#ff6600;stroke-width:0.7px"/>
    <path d="M 10.879,-18.483 L -80.000,-0.000" style="fill:none;stroke:#ff6600;stroke-width:0.4px;stroke-dasharray:2,2;opacity:0.6"/>
  </g>
</svg>
