<?xml version="1.0" encoding="UTF-8" standalone="no"?>
<svg xmlns="http://www.w3.org/2000/svg" version="1.1" width="436.00" height="167.91" viewBox="0 0 436.00 167.91">
  <g transform="translate(96.000,37.908)">
    <path d="M 0.00000,0.00000 C 0.00001,-0.02077 -0.00010,0.02076 0.00002,-0.06231 C 0.00015,-0.14537 -0.00025,-0.08309 0.00038,-0.24921 C 0.00101,-0.41532 0.00002,-0.31153 0.00192,-0.56065 C 0.00381,-0.80977 0.00177,-0.66451 0.00605,-0.99655 C 0.01034,-1.32860 0.00659,-1.14192 0.01477,-1.55678 C 0.02295,-1.97165 0.01665,-1.74361 0.03059,-2.24115 C 0.04453,-2.73868 0.03467,-2.46939 0.05658,-3.04939 C 0.07849,-3.62939 0.06390,-3.31895 0.09632,-3.98116 C 0.12873,-4.64336 0.10808,-4.29194 0.15382,-5.03600 C 0.19956,-5.78006 0.17141,-5.38785 0.23352,-6.21334 C 0.29564,-7.03883 0.25844,-6.60607 0.34017,-7.51247 C 0.42189,-8.41886 0.37405,-7.94585 0.47870,-8.93252 C 0.58335,-9.91920 0.52323,-9.40626 0.65412,-10.47249 C 0.78501,-11.53871 0.71104,-10.98625 0.87137,-12.13120 C 1.03169,-13.27614 0.94236,-12.68457 1.13511,-13.90734 C 1.32785,-15.13010 1.22180,-14.49988 1.44960,-15.79949 C 1.67741,-17.09909 -1.05066,-17.14164 1.81852,-17.80615 C 4.68770,-18.47066 7.17275,-18.46437 10.05714,-17.79301 C 12.94154,-17.12165 10.21849,-17.08863 10.47171,-15.79207 C 10.72492,-14.49551 10.60725,-15.12431 10.81680,-13.90333 C 11.02636,-12.68235 10.92931,-13.27308 11.10038,-12.12913 C 11.27144,-10.98519 11.19251,-11.53717 11.32999,-10.47148 C 11.46747,-9.40579 11.40429,-9.91847 11.51281,-8.93206 C 11.62133,-7.94566 11.57167,-8.41854 11.65555,-7.51227 C 11.73943,-6.60600 11.70121,-7.03869 11.76446,-6.21326 C 11.82771,-5.38783 11.79901,-5.78001 11.84531,-5.03597 C 11.89160,-4.29193 11.87068,-4.64334 11.90334,-3.98115 C 11.93601,-3.31895 11.92129,-3.62939 11.94330,-3.04939 C 11.96531,-2.46939 11.95540,-2.73868 11.96938,-2.24115 C 11.98335,-1.74362 11.97703,-1.97165 11.98522,-1.55678 C 11.99341,-1.14192 11.98966,-1.32860 11.99395,-0.99655 C 11.99823,-0.66451 11.99619,-0.80977 11.99808,-0.56065 C 11.99998,-0.31153 11.99899,-0.41532 11.99962,-0.24921 C 12.00025,-0.08309 11.99985,-0.14537 11.99998,-0.06231 C 12.00010,0.02076 12.00000,-0.04154 12.00000,0.00000 C 12.00000,0.04154 12.00010,-0.02076 11.99998,0.06231 C 11.99985,0.14537 12.00025,0.08309 11.99962,0.24921 C 11.99899,0.41532 11.99998,0.31153 11.99808,0.56065 C 11.99619,0.80977 11.99823,0.66451 11.99395,0.99655 C 11.98966,1.32860 11.99341,1.14192 11.98522,1.55678 C 11.97703,1.97165 11.98335,1.74362 11.96938,2.24115 C 11.95540,2.73868 11.96531,2.46939 11.94330,3.04939 C 11.92129,3.62939 11.93601,3.31895 11.90334,3.98115 C 11.87068,4.64334 11.89160,4.29193 11.84531,5.03597 C 11.79901,5.78001 11.82771,5.38783 11.76446,6.21326 C 11.70121,7.03869 11.73943,6.60600 11.65555,7.51227 C 11.57167,8.41854 11.62133,7.94566 11.51281,8.93206 C 11.40429,9.91847 11.46747,9.40579 11.32999,10.47148 C 11.19251,11.53717 11.27144,10.98519 11.10038,12.12913 C 10.92931,13.27308 11.02636,12.68235 10.81680,13.90333 C 10.60725,15.12431 10.72492,14.49551 10.47171,15.79207 C 10.21849,17.08863 12.94154,17.12165 10.05714,17.79301 C 7.17275,18.46437 4.68770,18.47066 1.81852,17.80615 C -1.05066,17.14164 1.67741,17.09909 1.44960,15.79949 C 1.22180,14.49988 1.32785,15.13010 1.13511,13.90734 C 0.94236,12.68457 1.03169,13.27614 0.87137,12.13120 C 0.71104,10.98625 0.78501,11.53871 0.65412,10.47249 C 0.52323,9.40626 0.58335,9.91920 0.47870,8.93252 C 0.37405,7.94585 0.42189,8.41886 0.34017,7.51247 C 0.25844,6.60607 0.29564,7.03883 0.23352,6.21334 C 0.17141,5.38785 0.19956,5.78006 0.15382,5.03600 C 0.10808,4.29194 0.12873,4.64336 0.09632,3.98116 C 0.06390,3.31895 0.07849,3.62939 0.05658,3.04939 C 0.03467,2.46939 0.04453,2.73868 0.03059,2.24115 C 0.01665,1.74361 0.02295,1.97165 0.01477,1.55678 C 0.00659,1.14192 0.01034,1.32860 0.00605,0.99655 C 0.00177,0.66451 0.00381,0.80977 0.00192,0.56065 C 0.00002,0.31153 0.00101,0.41532 0.00038,0.24921 C -0.00025,0.08309 0.00015,0.14537 0.00002,0.06231 C -0.00010,-0.02076 0.00001,0.02077 0.00000,0.00000 C -0.00001,-0.02077 -0.00001,0.02077 0.00000,0.00000 Z" style="fill:#b7c2dd;fill-opacity:0.7;stroke:#000;stroke-width:0.6px;stroke-linejoin:round"><desc>optics:glass:1.5000</desc></path>
    <text x="6.00" y="-25.91" style="font:6px sans-serif;fill:#333;text-anchor:middle">LSOE colimadora</text>
    <path d="M 128.686,-11.314 L 151.314,11.314" style="fill:none;stroke:#4488aa;stroke-width:1.3px"><desc>optics:beam_splitter</desc></path>
    <text x="156.00" y="-16.00" style="font:6px sans-serif;fill:#4488aa;text-anchor:start">BS 45°</text>
    <path d="M 200.000,-20.000 L 240.000,-20.000 L 240.000,20.000 L 200.000,20.000 Z" style="fill:#c8e0f0;fill-opacity:0.5;stroke:#3355aa;stroke-width:0.6px"><desc>optics:glass:1.5</desc></path>
    <text x="220.00" y="-26.00" style="font:5px sans-serif;fill:#3355aa;text-anchor:middle">vidrio n=1.5</text>
    <path d="M 130.101,80.101 L 149.899,99.899" style="fill:none;stroke:#aa3377;stroke-width:1.4px"><desc>optics:mirror</desc></path>
    <text x="120.00" y="110.00" style="font:6px sans-serif;fill:#aa3377;text-anchor:end">M (pliegue)</text>
    <path d="M 320.000,-24.000 L 320.000,24.000" style="fill:none;stroke:#222;stroke-width:2.0px"><desc>optics:beam_dump</desc></path>
    <text x="326.00" y="0.00" style="font:5px sans-serif;fill:#222;text-anchor:start">dump T</text>
    <path d="M 320.000,66.000 L 320.000,114.000" style="fill:none;stroke:#222;stroke-width:2.0px"><desc>optics:beam_dump</desc></path>
    <text x="326.00" y="90.00" style="font:5px sans-serif;fill:#222;text-anchor:start">dump R</text>
    <circle cx="-80.000" cy="0.000" r="3.000" style="fill:#dd2200;stroke:none;stroke-width:0.3px"/>
    <text x="-80.00" y="-10.00" style="font:6px sans-serif;fill:#aa2200;text-anchor:middle">fuente</text>
    <path d="M -80.000,0 L -36.167,-3.835" style="fill:none;stroke:#ff6600;stroke-width:1px"><desc>optics:beam</desc></path>
    <path d="M -80.000,0 L -36.074,-2.558" style="fill:none;stroke:#ff6600;stroke-width:1px"><desc>optics:beam</desc></path>
    <path d="M -80.000,0 L -36.019,-1.280" style="fill:none;stroke:#ff6600;stroke-width:1px"><desc>optics:beam</desc></path>
    <path d="M -80.000,0 L -36.000,0.000" style="fill:none;stroke:#ff6600;stroke-width:1px"><desc>optics:beam</desc></path>
    <path d="M -80.000,0 L -36.019,1.280" style="fill:none;stroke:#ff6600;stroke-width:1px"><desc>optics:beam</desc></path>
    <path d="M -80.000,0 L -36.074,2.558" style="fill:none;stroke:#ff6600;stroke-width:1px"><desc>optics:beam</desc></path>
    <path d="M -80.000,0 L -36.167,3.835" style="fill:none;stroke:#ff6600;stroke-width:1px"><desc>optics:beam</desc></path>
  </g>
</svg>
