<?xml version="1.0" encoding="UTF-8" standalone="no"?>
<svg xmlns="http://www.w3.org/2000/svg" version="1.1" width="520.00" height="157.64" viewBox="0 0 520.00 157.64">
  <g transform="translate(220.000,78.822)">
    <path d="M -208.000,0.000 L 288.000,0.000" style="fill:none;stroke:#aaaaaa;stroke-width:0.5px;stroke-dasharray:6,3"/>
    <path d="M 0.00000,0.00000 C 0.00000,-0.00229 -0.00000,0.00229 0.00000,-0.00688 C 0.00000,-0.01605 -0.00000,-0.00917 0.00000,-0.02751 C 0.00001,-0.04584 0.00000,-0.03438 0.00002,-0.06189 C 0.00003,-0.08940 0.00002,-0.07335 0.00005,-0.11002 C 0.00009,-0.14670 0.00006,-0.12607 0.00013,-0.17191 C 0.00021,-0.21775 0.00015,-0.19254 0.00028,-0.24754 C 0.00040,-0.30255 0.00031,-0.27276 0.00051,-0.33692 C 0.00071,-0.40109 0.00058,-0.36672 0.00087,-0.44005 C 0.00116,-0.51338 0.00098,-0.47443 0.00139,-0.55692 C 0.00181,-0.63940 0.00155,-0.59587 0.00212,-0.68752 C 0.00270,-0.77917 0.00235,-0.73105 0.00311,-0.83186 C 0.00387,-0.93266 0.00342,-0.87997 0.00440,-0.98992 C 0.00539,-1.09987 0.00481,-1.04261 0.00607,-1.16171 C 0.00732,-1.28081 0.00660,-1.21898 0.00816,-1.34722 C 0.00972,-1.47547 0.00883,-1.40906 0.01075,-1.54644 C 0.01266,-1.68383 0.01158,-1.61285 0.01391,-1.75937 C 0.01624,-1.90589 0.01494,-1.83035 0.01772,-1.98600 C 0.02051,-2.14165 0.01897,-2.06154 0.02227,-2.22632 C 0.02558,-2.39109 0.02376,-2.30643 0.02764,-2.48032 C 0.03153,-2.65421 0.02940,-2.56499 0.03393,-2.74799 C 0.03846,-2.93099 0.03599,-2.83722 0.04123,-3.02932 C 0.04647,-3.22143 0.04362,-3.12310 0.04964,-3.32431 C 0.05566,-3.52551 0.05241,-3.42264 0.05928,-3.63293 C 0.06615,-3.84322 0.06246,-3.73581 0.07026,-3.95518 C 0.07806,-4.17455 0.07388,-4.06261 0.08269,-4.29105 C 0.09150,-4.51949 0.08679,-4.40301 0.09669,-4.64051 C 0.10659,-4.87801 0.10132,-4.75700 0.11240,-5.00355 C 0.12347,-5.25010 0.11759,-5.12457 0.12993,-5.38016 C 0.14227,-5.63574 0.13573,-5.50570 0.14943,-5.77031 C 0.16313,-6.03492 0.15588,-5.90037 0.17103,-6.17399 C 0.18618,-6.44761 0.17818,-6.30856 0.19488,-6.59118 C 0.21158,-6.87379 0.20278,-6.73024 0.22113,-7.02184 C 0.23947,-7.31344 0.22982,-7.16541 0.24991,-7.46597 C 0.27000,-7.76654 0.25946,-7.61403 0.28140,-7.92354 C 0.30334,-8.23305 0.29184,-8.07607 0.31574,-8.39451 C 0.33964,-8.71295 0.32713,-8.55151 0.35310,-8.87886 C 0.37907,-9.20622 0.36550,-9.04033 0.39364,-9.37657 C 0.42179,-9.71281 0.40710,-9.54248 0.43753,-9.88759 C 0.46797,-10.23270 0.45210,-10.05794 0.48494,-10.41190 C 0.51778,-10.76586 0.50069,-10.58668 0.53605,-10.94946 C 0.57140,-11.31224 0.55302,-11.12866 0.59102,-11.50024 C 0.62901,-11.87182 0.60928,-11.68385 0.65003,-12.06420 C 0.69079,-12.44454 0.66965,-12.25219 0.71328,-12.64129 C 0.75691,-13.03038 0.73430,-12.83367 0.78092,-13.23147 C 0.82755,-13.62928 0.80341,-13.42822 0.85316,-13.83471 C 0.90291,-14.24120 0.87718,-14.03580 0.93017,-14.45095 C 0.98316,-14.86610 0.95578,-14.65638 1.01213,-15.08015 C 1.06849,-15.50392 1.03939,-15.28990 1.09924,-15.72225 C 1.15909,-16.15461 1.12821,-15.93631 1.19167,-16.37721 C 1.25514,-16.81812 1.22242,-16.59555 1.28962,-17.04498 C 1.35682,-17.49440 1.32221,-17.26758 1.39327,-17.72548 C 1.46432,-18.18338 1.42775,-17.95234 1.50279,-18.41868 C 1.57783,-18.88502 1.53924,-18.64976 1.61839,-19.12450 C 1.69753,-19.59924 1.65686,-19.35980 1.74023,-19.84289 C 1.82359,-20.32599 1.78078,-20.08238 1.86849,-20.57379 C 1.95621,-21.06520 1.91119,-20.81744 2.00337,-21.31712 C 2.09554,-21.81680 2.04827,-21.56492 2.14502,-22.07282 C 2.24178,-22.58073 2.19219,-22.32475 2.29364,-22.84083 C 2.39509,-23.35691 2.34312,-23.09686 2.44938,-23.62107 C 2.55564,-24.14528 2.50124,-23.88117 2.61242,-24.41347 C 2.72359,-24.94576 2.66671,-24.67762 2.78291,-25.21795 C 2.89912,-25.75828 2.83969,-25.48614 2.96103,-26.03445 C 3.08236,-26.58276 3.02035,-26.30664 3.14692,-26.86288 C 3.27349,-27.41913 3.20883,-27.13905 3.34074,-27.70318 C 3.47264,-28.26730 3.40529,-27.98330 3.54263,-28.55525 C 3.67996,-29.12720 3.60988,-28.83930 3.75274,-29.41902 C 3.89560,-29.99874 3.82273,-29.70697 3.97120,-30.29441 C 4.11967,-30.88185 4.04398,-30.58624 4.19815,-31.18134 C 4.35232,-31.77645 4.27376,-31.47701 4.43372,-32.07973 C 4.59367,-32.68244 4.51220,-32.37922 4.67801,-32.98949 C 4.84383,-33.59976 4.75941,-33.29277 4.93116,-33.91054 C 5.10291,-34.52831 5.01550,-34.21758 5.19326,-34.84279 C 5.37101,-35.46801 5.28059,-35.15358 5.46442,-35.78618 C 5.64825,-36.41878 5.55478,-36.10066 5.74474,-36.74060 C 5.93470,-37.38053 5.83815,-37.05877 6.03431,-37.70598 C 6.23046,-38.35318 6.13080,-38.02780 6.33320,-38.68223 C 6.53560,-39.33666 6.43281,-39.00767 6.64151,-39.66927 C 6.85021,-40.33086 6.74426,-39.99831 6.95930,-40.66701 C 7.17433,-41.33572 7.06520,-40.99962 7.28663,-41.67539 C 7.50805,-42.35115 7.39572,-42.01154 7.62356,-42.69430 C 7.85140,-43.37707 7.73585,-43.03397 7.97015,-43.72368 C 8.20444,-44.41339 8.08566,-44.06683 8.32644,-44.76344 C 8.56721,-45.46005 8.44519,-45.11005 8.69247,-45.81350 C 8.93974,-46.51695 8.81447,-46.16355 9.06827,-46.87379 C 9.32207,-47.58403 9.09171,-47.61369 9.45387,-47.94423 C 9.81603,-48.27476 9.78272,-48.24601 10.15475,-47.86539 C 10.52678,-47.48476 10.29700,-47.50785 10.56996,-46.80235 C 10.84292,-46.09685 10.70833,-46.44797 10.97362,-45.74888 C 11.23890,-45.04980 11.10814,-45.39769 11.36581,-44.70510 C 11.62349,-44.01251 11.49651,-44.35713 11.74664,-43.67111 C 11.99678,-42.98508 11.87355,-43.32640 12.11622,-42.64702 C 12.35889,-41.96763 12.23937,-42.30562 12.47465,-41.63294 C 12.70993,-40.96027 12.59409,-41.29488 12.82206,-40.62899 C 13.05003,-39.96310 12.93782,-40.29430 13.15856,-39.63528 C 13.37931,-38.97625 13.27068,-39.30400 13.48429,-38.65190 C 13.69790,-37.99980 13.59282,-38.32408 13.79938,-37.67898 C 14.00594,-37.03389 13.90436,-37.35464 14.10397,-36.71662 C 14.30357,-36.07860 14.20544,-36.39580 14.39820,-35.76493 C 14.59095,-35.13406 14.49622,-35.44766 14.68222,-34.82401 C 14.86822,-34.20035 14.77684,-34.51033 14.95619,-33.89396 C 15.13554,-33.27760 15.04746,-33.58392 15.22027,-32.97490 C 15.39308,-32.36589 15.30824,-32.66852 15.47462,-32.06692 C 15.64100,-31.46533 15.55935,-31.76423 15.71941,-31.17013 C 15.87947,-30.57603 15.80095,-30.87117 15.95481,-30.28462 C 16.10868,-29.69807 16.03322,-29.98942 16.18100,-29.41049 C 16.32878,-28.83156 16.25634,-29.11908 16.39816,-28.54784 C 16.53998,-27.97659 16.47048,-28.26026 16.60646,-27.69676 C 16.74245,-27.13326 16.67584,-27.41303 16.80611,-26.85734 C 16.93638,-26.30165 16.87259,-26.57750 16.99728,-26.02967 C 17.12197,-25.48185 17.06094,-25.75376 17.18017,-25.21385 C 17.29940,-24.67395 17.24107,-24.94188 17.35498,-24.40996 C 17.46888,-23.87803 17.41318,-24.14196 17.52189,-23.61807 C 17.63061,-23.09418 17.57746,-23.35408 17.68112,-22.83828 C 17.78477,-22.32248 17.73413,-22.57832 17.83285,-22.07066 C 17.93158,-21.56300 17.88336,-21.81476 17.97730,-21.31529 C 18.07123,-20.81582 18.02538,-21.06348 18.11466,-20.57225 C 18.20393,-20.08102 18.16037,-20.32455 18.24513,-19.84160 C 18.32989,-19.35866 18.28856,-19.59803 18.36893,-19.12342 C 18.44930,-18.64882 18.41013,-18.88401 18.48625,-18.41778 C 18.56238,-17.95155 18.52529,-18.18255 18.59730,-17.72474 C 18.66931,-17.26693 18.63425,-17.49371 18.70229,-17.04436 C 18.77032,-16.59502 18.73721,-16.81755 18.80141,-16.37671 C 18.86560,-15.93587 18.83438,-16.15414 18.89486,-15.72184 C 18.95535,-15.28954 18.92595,-15.50353 18.98286,-15.07981 C 19.03978,-14.65609 19.01213,-14.86579 19.06560,-14.45068 C 19.11907,-14.03557 19.09311,-14.24095 19.14328,-13.83449 C 19.19344,-13.42803 19.16910,-13.62908 19.21609,-13.23130 C 19.26307,-12.83352 19.24029,-13.03022 19.28423,-12.64115 C 19.32816,-12.25208 19.30688,-12.44441 19.34789,-12.06408 C 19.38890,-11.68375 19.36905,-11.87172 19.40727,-11.50015 C 19.44548,-11.12859 19.42700,-11.31216 19.46254,-10.94939 C 19.49809,-10.58663 19.48091,-10.76580 19.51390,-10.41185 C 19.54689,-10.05790 19.53096,-10.23265 19.56153,-9.88755 C 19.59209,-9.54245 19.57734,-9.71277 19.60560,-9.37654 C 19.63385,-9.04030 19.62023,-9.20619 19.64629,-8.87884 C 19.67234,-8.55149 19.65979,-8.71293 19.68377,-8.39449 C 19.70774,-8.07605 19.69621,-8.23303 19.71821,-7.92352 C 19.74021,-7.61401 19.72964,-7.76653 19.74978,-7.46596 C 19.76992,-7.16540 19.76025,-7.31343 19.77863,-7.02184 C 19.79702,-6.73024 19.78820,-6.87379 19.80493,-6.59117 C 19.82166,-6.30855 19.81365,-6.44761 19.82882,-6.17399 C 19.84400,-5.90036 19.83674,-6.03492 19.85046,-5.77031 C 19.86418,-5.50570 19.85763,-5.63574 19.86999,-5.38015 C 19.88235,-5.12457 19.87645,-5.25010 19.88754,-5.00355 C 19.89863,-4.75700 19.89335,-4.87801 19.90326,-4.64051 C 19.91317,-4.40301 19.90846,-4.51949 19.91728,-4.29105 C 19.92610,-4.06260 19.92191,-4.17455 19.92972,-3.95518 C 19.93752,-3.73581 19.93382,-3.84322 19.94070,-3.63293 C 19.94758,-3.42264 19.94432,-3.52551 19.95034,-3.32431 C 19.95637,-3.12310 19.95352,-3.22143 19.95876,-3.02932 C 19.96401,-2.83722 19.96154,-2.93099 19.96607,-2.74799 C 19.97060,-2.56499 19.96847,-2.65421 19.97235,-2.48032 C 19.97624,-2.30643 19.97442,-2.39109 19.97773,-2.22632 C 19.98103,-2.06154 19.97949,-2.14165 19.98228,-1.98600 C 19.98506,-1.83035 19.98376,-1.90589 19.98609,-1.75937 C 19.98842,-1.61285 19.98733,-1.68383 19.98925,-1.54644 C 19.99117,-1.40906 19.99028,-1.47547 19.99184,-1.34722 C 19.99340,-1.21898 19.99268,-1.28081 19.99393,-1.16171 C 19.99519,-1.04261 19.99461,-1.09987 19.99560,-0.98992 C 19.99658,-0.87997 19.99613,-0.93266 19.99689,-0.83186 C 19.99765,-0.73105 19.99730,-0.77917 19.99788,-0.68752 C 19.99845,-0.59587 19.99819,-0.63940 19.99861,-0.55692 C 19.99902,-0.47443 19.99884,-0.51338 19.99913,-0.44005 C 19.99942,-0.36672 19.99929,-0.40109 19.99949,-0.33692 C 19.99969,-0.27276 19.99960,-0.30255 19.99972,-0.24754 C 19.99985,-0.19254 19.99979,-0.21775 19.99987,-0.17191 C 19.99994,-0.12607 19.99991,-0.14670 19.99995,-0.11002 C 19.99998,-0.07335 19.99997,-0.08940 19.99998,-0.06189 C 20.00000,-0.03438 19.99999,-0.04584 20.00000,-0.02751 C 20.00000,-0.00917 20.00000,-0.01605 20.00000,-0.00688 C 20.00000,0.00229 20.00000,-0.00458 20.00000,-0.00000 C 20.00000,0.00458 20.00000,-0.00229 20.00000,0.00688 C 20.00000,0.01605 20.00000,0.00917 20.00000,0.02751 C 19.99999,0.04584 20.00000,0.03438 19.99998,0.06189 C 19.99997,0.08940 19.99998,0.07335 19.99995,0.11002 C 19.99991,0.14670 19.99994,0.12607 19.99987,0.17191 C 19.99979,0.21775 19.99985,0.19254 19.99972,0.24754 C 19.99960,0.30255 19.99969,0.27276 19.99949,0.33692 C 19.99929,0.40109 19.99942,0.36672 19.99913,0.44005 C 19.99884,0.51338 19.99902,0.47443 19.99861,0.55692 C 19.99819,0.63940 19.99845,0.59587 19.99788,0.68752 C 19.99730,0.77917 19.99765,0.73105 19.99689,0.83186 C 19.99613,0.93266 19.99658,0.87997 19.99560,0.98992 C 19.99461,1.09987 19.99519,1.04261 19.99393,1.16171 C 19.99268,1.28081 19.99340,1.21898 19.99184,1.34722 C 19.99028,1.47547 19.99117,1.40906 19.98925,1.54644 C 19.98733,1.68383 19.98842,1.61285 19.98609,1.75937 C 19.98376,1.90589 19.98506,1.83035 19.98228,1.98600 C 19.97949,2.14165 19.98103,2.06154 19.97773,2.22632 C 19.97442,2.39109 19.97624,2.30643 19.97235,2.48032 C 19.96847,2.65421 19.97060,2.56499 19.96607,2.74799 C 19.96154,2.93099 19.96401,2.83722 19.95876,3.02932 C 19.95352,3.22143 19.95637,3.12310 19.95034,3.32431 C 19.94432,3.52551 19.94758,3.42264 19.94070,3.63293 C 19.93382,3.84322 19.93752,3.73581 19.92972,3.95518 C 19.92191,4.17455 19.92610,4.06260 19.91728,4.29105 C 19.90846,4.51949 19.91317,4.40301 19.90326,4.64051 C 19.89335,4.87801 19.89863,4.75700 19.88754,5.00355 C 19.87645,5.25010 19.88235,5.12457 19.86999,5.38015 C 19.85763,5.63574 19.86418,5.50570 19.85046,5.77031 C 19.83674,6.03492 19.84400,5.90036 19.82882,6.17399 C 19.81365,6.44761 19.82166,6.30855 19.80493,6.59117 C 19.78820,6.87379 19.79702,6.73024 19.77863,7.02184 C 19.76025,7.31343 19.76992,7.16540 19.74978,7.46596 C 19.72964,7.76653 19.74021,7.61401 19.71821,7.92352 C 19.69621,8.23303 19.70774,8.07605 19.68377,8.39449 C 19.65979,8.71293 19.67234,8.55149 19.64629,8.87884 C 19.62023,9.20619 19.63385,9.04030 19.60560,9.37654 C 19.57734,9.71277 19.59209,9.54245 19.56153,9.88755 C 19.53096,10.23265 19.54689,10.05790 19.51390,10.41185 C 19.48091,10.76580 19.49809,10.58663 19.46254,10.94939 C 19.42700,11.31216 19.44548,11.12859 19.40727,11.50015 C 19.36905,11.87172 19.38890,11.68375 19.34789,12.06408 C 19.30688,12.44441 19.32816,12.25208 19.28423,12.64115 C 19.24029,13.03022 19.26307,12.83352 19.21609,13.23130 C 19.16910,13.62908 19.19344,13.42803 19.14328,13.83449 C 19.09311,14.24095 19.11907,14.03557 19.06560,14.45068 C 19.01213,14.86579 19.03978,14.65609 18.98286,15.07981 C 18.92595,15.50353 18.95535,15.28954 18.89486,15.72184 C 18.83438,16.15414 18.86560,15.93587 18.80141,16.37671 C 18.73721,16.81755 18.77032,16.59502 18.70229,17.04436 C 18.63425,17.49371 18.66931,17.26693 18.59730,17.72474 C 18.52529,18.18255 18.56238,17.95155 18.48625,18.41778 C 18.41013,18.88401 18.44930,18.64882 18.36893,19.12342 C 18.28856,19.59803 18.32989,19.35866 18.24513,19.84160 C 18.16037,20.32455 18.20393,20.08102 18.11466,20.57225 C 18.02538,21.06348 18.07123,20.81582 17.97730,21.31529 C 17.88336,21.81476 17.93158,21.56300 17.83285,22.07066 C 17.73413,22.57832 17.78477,22.32248 17.68112,22.83828 C 17.57746,23.35408 17.63061,23.09418 17.52189,23.61807 C 17.41318,24.14196 17.46888,23.87803 17.35498,24.40996 C 17.24107,24.94188 17.29940,24.67395 17.18017,25.21385 C 17.06094,25.75376 17.12197,25.48185 16.99728,26.02967 C 16.87259,26.57750 16.93638,26.30165 16.80611,26.85734 C 16.67584,27.41303 16.74245,27.13326 16.60646,27.69676 C 16.47048,28.26026 16.53998,27.97659 16.39816,28.54784 C 16.25634,29.11908 16.32878,28.83156 16.18100,29.41049 C 16.03322,29.98942 16.10868,29.69807 15.95481,30.28462 C 15.80095,30.87117 15.87947,30.57603 15.71941,31.17013 C 15.55935,31.76423 15.64100,31.46533 15.47462,32.06692 C 15.30824,32.66852 15.39308,32.36589 15.22027,32.97490 C 15.04746,33.58392 15.13554,33.27760 14.95619,33.89396 C 14.77684,34.51033 14.86822,34.20035 14.68222,34.82401 C 14.49622,35.44766 14.59095,35.13406 14.39820,35.76493 C 14.20544,36.39580 14.30357,36.07860 14.10397,36.71662 C 13.90436,37.35464 14.00594,37.03389 13.79938,37.67898 C 13.59282,38.32408 13.69790,37.99980 13.48429,38.65190 C 13.27068,39.30400 13.37931,38.97625 13.15856,39.63528 C 12.93782,40.29430 13.05003,39.96310 12.82206,40.62899 C 12.59409,41.29488 12.70993,40.96027 12.47465,41.63294 C 12.23937,42.30562 12.35889,41.96763 12.11622,42.64702 C 11.87355,43.32640 11.99678,42.98508 11.74664,43.67111 C 11.49651,44.35713 11.62349,44.01251 11.36581,44.70510 C 11.10814,45.39769 11.23890,45.04980 10.97362,45.74888 C 10.70833,46.44797 10.84292,46.09685 10.56996,46.80235 C 10.29700,47.50785 10.52678,47.48476 10.15475,47.86539 C 9.78272,48.24601 9.81603,48.27476 9.45387,47.94423 C 9.09171,47.61369 9.32207,47.58403 9.06827,46.87379 C 8.81447,46.16355 8.93974,46.51695 8.69247,45.81350 C 8.44519,45.11005 8.56721,45.46005 8.32644,44.76344 C 8.08566,44.06683 8.20444,44.41339 7.97015,43.72368 C 7.73585,43.03397 7.85140,43.37707 7.62356,42.69430 C 7.39572,42.01154 7.50805,42.35115 7.28663,41.67539 C 7.06520,40.99962 7.17433,41.33572 6.95930,40.66701 C 6.74426,39.99831 6.85021,40.33086 6.64151,39.66927 C 6.43281,39.00767 6.53560,39.33666 6.33320,38.68223 C 6.13080,38.02780 6.23046,38.35318 6.03431,37.70598 C 5.83815,37.05877 5.93470,37.38053 5.74474,36.74060 C 5.55478,36.10066 5.64825,36.41878 5.46442,35.78618 C 5.28059,35.15358 5.37101,35.46801 5.19326,34.84279 C 5.01550,34.21758 5.10291,34.52831 4.93116,33.91054 C 4.75941,33.29277 4.84383,33.59976 4.67801,32.98949 C 4.51220,32.37922 4.59367,32.68244 4.43372,32.07973 C 4.27376,31.47701 4.35232,31.77645 4.19815,31.18134 C 4.04398,30.58624 4.11967,30.88185 3.97120,30.29441 C 3.82273,29.70697 3.89560,29.99874 3.75274,29.41902 C 3.60988,28.83930 3.67996,29.12720 3.54263,28.55525 C 3.40529,27.98330 3.47264,28.26730 3.34074,27.70318 C 3.20883,27.13905 3.27349,27.41913 3.14692,26.86288 C 3.02035,26.30664 3.08236,26.58276 2.96103,26.03445 C 2.83969,25.48614 2.89912,25.75828 2.78291,25.21795 C 2.66671,24.67762 2.72359,24.94576 2.61242,24.41347 C 2.50124,23.88117 2.55564,24.14528 2.44938,23.62107 C 2.34312,23.09686 2.39509,23.35691 2.29364,22.84083 C 2.19219,22.32475 2.24178,22.58073 2.14502,22.07282 C 2.04827,21.56492 2.09554,21.81680 2.00337,21.31712 C 1.91119,20.81744 1.95621,21.06520 1.86849,20.57379 C 1.78078,20.08238 1.82359,20.32599 1.74023,19.84289 C 1.65686,19.35980 1.69753,19.59924 1.61839,19.12450 C 1.53924,18.64976 1.57783,18.88502 1.50279,18.41868 C 1.42775,17.95234 1.46432,18.18338 1.39327,17.72548 C 1.32221,17.26758 1.35682,17.49440 1.28962,17.04498 C 1.22242,16.59555 1.25514,16.81812 1.19167,16.37721 C 1.12821,15.93631 1.15909,16.15461 1.09924,15.72225 C 1.03939,15.28990 1.06849,15.50392 1.01213,15.08015 C 0.95578,14.65638 0.98316,14.86610 0.93017,14.45095 C 0.87718,14.03580 0.90291,14.24120 0.85316,13.83471 C 0.80341,13.42822 0.82755,13.62928 0.78092,13.23147 C 0.73430,12.83367 0.75691,13.03038 0.71328,12.64129 C 0.66965,12.25219 0.69079,12.44454 0.65003,12.06420 C 0.60928,11.68385 0.62901,11.87182 0.59102,11.50024 C 0.55302,11.12866 0.57140,11.31224 0.53605,10.94946 C 0.50069,10.58668 0.51778,10.76586 0.48494,10.41190 C 0.45210,10.05794 0.46797,10.23270 0.43753,9.88759 C 0.40710,9.54248 0.42179,9.71281 0.39364,9.37657 C 0.36550,9.04033 0.37907,9.20622 0.35310,8.87886 C 0.32713,8.55151 0.33964,8.71295 0.31574,8.39451 C 0.29184,8.07607 0.30334,8.23305 0.28140,7.92354 C 0.25946,7.61403 0.27000,7.76654 0.24991,7.46597 C 0.22982,7.16541 0.23947,7.31344 0.22113,7.02184 C 0.20278,6.73024 0.21158,6.87379 0.19488,6.59118 C 0.17818,6.30856 0.18618,6.44761 0.17103,6.17399 C 0.15588,5.90037 0.16313,6.03492 0.14943,5.77031 C 0.13573,5.50570 0.14227,5.63574 0.12993,5.38016 C 0.11759,5.12457 0.12347,5.25010 0.11240,5.00355 C 0.10132,4.75700 0.10659,4.87801 0.09669,4.64051 C 0.08679,4.40301 0.09150,4.51949 0.08269,4.29105 C 0.07388,4.06261 0.07806,4.17455 0.07026,3.95518 C 0.06246,3.73581 0.06615,3.84322 0.05928,3.63293 C 0.05241,3.42264 0.05566,3.52551 0.04964,3.32431 C 0.04362,3.12310 0.04647,3.22143 0.04123,3.02932 C 0.03599,2.83722 0.03846,2.93099 0.03393,2.74799 C 0.02940,2.56499 0.03153,2.65421 0.02764,2.48032 C 0.02376,2.30643 0.02558,2.39109 0.02227,2.22632 C 0.01897,2.06154 0.02051,2.14165 0.01772,1.98600 C 0.01494,1.83035 0.01624,1.90589 0.01391,1.75937 C 0.01158,1.61285 0.01266,1.68383 0.01075,1.54644 C 0.00883,1.40906 0.00972,1.47547 0.00816,1.34722 C 0.00660,1.21898 0.00732,1.28081 0.00607,1.16171 C 0.00481,1.04261 0.00539,1.09987 0.00440,0.98992 C 0.00342,0.87997 0.00387,0.93266 0.00311,0.83186 C 0.00235,0.73105 0.00270,0.77917 0.00212,0.68752 C 0.00155,0.59587 0.00181,0.63940 0.00139,0.55692 C 0.00098,0.47443 0.00116,0.51338 0.00087,0.44005 C 0.00058,0.36672 0.00071,0.40109 0.00051,0.33692 C 0.00031,0.27276 0.00040,0.30255 0.00028,0.24754 C 0.00015,0.19254 0.00021,0.21775 0.00013,0.17191 C 0.00006,0.12607 0.00009,0.14670 0.00005,0.11002 C 0.00002,0.07335 0.00003,0.08940 0.00002,0.06189 C 0.00000,0.03438 0.00001,0.04584 0.00000,0.02751 C -0.00000,0.00917 0.00000,0.01605 0.00000,0.00688 C -0.00000,-0.00229 0.00000,0.00229 0.00000,0.00000 C -0.00000,-0.00229 -0.00000,0.00229 0.00000,0.00000 Z" style="fill:#b7c2dd;fill-opacity:0.7;stroke:#000;stroke-width:0.8px;stroke-linejoin:round"/>
    <circle cx="-160.000" cy="0.000" r="3.000" style="fill:#dd2200;stroke:none"/>
    <circle cx="240.000" cy="0.000" r="3.000" style="fill:#00aa33;stroke:none"/>
    <path d="M -160.000,-0.000 L 1.743,19.860 L 18.211,20.035 L 291.000,-4.607" style="fill:none;stroke:#ff6600;stroke-width:0.7px"/>
    <path d="M -160.000,-0.000 L 1.110,15.797 L 18.863,15.947 L 291.000,-3.678" style="fill:none;stroke:#ff6600;stroke-width:0.7px"/>
    <path d="M -160.000,-0.000 L 0.622,11.795 L 19.364,11.914 L 291.000,-2.754" style="fill:none;stroke:#ff6600;stroke-width:0.7px"/>
    <path d="M -160.000,-0.000 L 0.275,7.839 L 19.718,7.920 L 291.000,-1.834" style="fill:none;stroke:#ff6600;stroke-width:0.7px"/>
    <path d="M -160.000,-0.000 L 0.069,3.912 L 19.930,3.954 L 291.000,-0.916" style="fill:none;stroke:#ff6600;stroke-width:0.7px"/>
    <path d="M -160.000,-0.000 L 0.000,-0.000 L 20.000,-0.000 L 291.000,-0.000" style="fill:none;stroke:#ff6600;stroke-width:0.7px"/>
    <path d="M -160.000,-0.000 L 0.069,-3.912 L 19.930,-3.954 L 291.000,0.916" style="fill:none;stroke:#ff6600;stroke-width:0.7px"/>
    <path d="M -160.000,-0.000 L 0.275,-7.839 L 19.718,-7.920 L 291.000,1.834" style="fill:none;stroke:#ff6600;stroke-width:0.7px"/>
    <path d="M -160.000,-0.000 L 0.622,-11.795 L 19.364,-11.914 L 291.000,2.754" style="fill:none;stroke:#ff6600;stroke-width:0.7px"/>
    <path d="M -160.000,-0.000 L 1.110,-15.797 L 18.863,-15.947 L 291.000,3.678" style="fill:none;stroke:#ff6600;stroke-width:0.7px"/>
    <path d="M -160.000,-0.000 L 1.743,-19.860 L 18.211,-20.035 L 291.000,4.607" style="fill:none;stroke:#ff6600;stroke-width:0.7px"/>
  </g>
</svg>
