<?xml version="1.0" encoding="UTF-8" standalone="no"?>
<svg xmlns="http://www.w3.org/2000/svg" version="1.1" width="376.00" height="275.73" viewBox="0 0 376.00 275.73">
  <g transform="translate(316.000,137.865)">
    <path d="M -316.000,0.000 L 60.000,0.000" style="fill:none;stroke:#aaaaaa;stroke-width:0.5px;stroke-dasharray:6,3"/>
    <path d="M 0.00000,-0.00000 C 0.00000,-0.60929 0.00132,-0.30466 -0.00397,-0.91394 C -0.00926,-1.52321 -0.00529,-1.21860 -0.01587,-1.82781 C -0.02645,-2.43702 -0.01984,-2.13246 -0.03571,-2.74157 C -0.05158,-3.35068 -0.04232,-3.04617 -0.06348,-3.65515 C -0.08463,-4.26412 -0.07273,-3.95969 -0.09918,-4.56849 C -0.12562,-5.17729 -0.11108,-4.87296 -0.14281,-5.48154 C -0.17454,-6.09011 -0.15735,-5.78590 -0.19437,-6.39423 C -0.23138,-7.00255 -0.21155,-6.69847 -0.25385,-7.30650 C -0.29614,-7.91452 -0.27367,-7.61061 -0.32125,-8.21830 C -0.36882,-8.82599 -0.34371,-8.52225 -0.39656,-9.12957 C -0.44941,-9.73688 -0.42167,-9.43334 -0.47979,-10.04024 C -0.53791,-10.64714 -0.50753,-10.34382 -0.57092,-10.95026 C -0.63430,-11.55671 -0.60130,-11.25362 -0.66995,-11.85958 C -0.73860,-12.46553 -0.70296,-12.16270 -0.77687,-12.76812 C -0.85079,-13.37354 -0.81252,-13.07098 -0.89169,-13.67583 C -0.97085,-14.28068 -0.92996,-13.97842 -1.01438,-14.58266 C -1.09880,-15.18689 -1.05528,-14.88495 -1.14494,-15.48854 C -1.23461,-16.09212 -1.18847,-15.79051 -1.28337,-16.39341 C -1.37827,-16.99630 -1.32952,-16.69505 -1.42965,-17.29722 C -1.52979,-17.89938 -1.47842,-17.59851 -1.58379,-18.19991 C -1.68915,-18.80130 -1.63517,-18.50082 -1.74575,-19.10141 C -1.85634,-19.70200 -1.79975,-19.40193 -1.91555,-20.00168 C -2.03135,-20.60142 -1.97215,-20.30179 -2.09316,-20.90065 C -2.21417,-21.49951 -2.15237,-21.20032 -2.27858,-21.79826 C -2.40479,-22.39619 -2.34039,-22.09748 -2.47179,-22.69445 C -2.60319,-23.29143 -2.53620,-22.99321 -2.67278,-23.58918 C -2.80937,-24.18515 -2.73978,-23.88744 -2.88154,-24.48237 C -3.02330,-25.07731 -2.95114,-24.78012 -3.09806,-25.37398 C -3.24499,-25.96783 -3.17024,-25.67120 -3.32233,-26.26394 C -3.47441,-26.85667 -3.39708,-26.56061 -3.55432,-27.15219 C -3.71155,-27.74377 -3.63165,-27.44829 -3.79402,-28.03868 C -3.95640,-28.62907 -3.87393,-28.33420 -4.04143,-28.92336 C -4.20893,-29.51251 -4.12391,-29.21827 -4.29652,-29.80615 C -4.46914,-30.39404 -4.38156,-30.10044 -4.55928,-30.68702 C -4.73701,-31.27359 -4.64688,-30.98066 -4.82970,-31.56589 C -5.01252,-32.15112 -4.91984,-31.85886 -5.10774,-32.44271 C -5.29565,-33.02656 -5.20043,-32.73501 -5.39341,-33.31743 C -5.58639,-33.89986 -5.48864,-33.60902 -5.68668,-34.18999 C -5.88472,-34.77096 -5.78444,-34.48086 -5.98753,-35.06033 C -6.19062,-35.63980 -6.08782,-35.35046 -6.29595,-35.92840 C -6.50407,-36.50633 -6.39876,-36.21777 -6.61191,-36.79413 C -6.82506,-37.37050 -6.71723,-37.08273 -6.93539,-37.65748 C -7.15355,-38.23224 -7.04323,-37.94529 -7.26638,-38.51839 C -7.48954,-39.09150 -7.37672,-38.80538 -7.60486,-39.37680 C -7.83300,-39.94822 -7.71769,-39.66296 -7.95080,-40.23266 C -8.18391,-40.80236 -8.06612,-40.51796 -8.30418,-41.08590 C -8.54224,-41.65385 -8.42198,-41.37034 -8.66498,-41.93649 C -8.90798,-42.50264 -8.78526,-42.22003 -9.03318,-42.78435 C -9.28111,-43.34867 -9.15592,-43.06699 -9.40876,-43.62944 C -9.66159,-44.19189 -9.53396,-43.91116 -9.79169,-44.47170 C -10.04941,-45.03225 -9.91934,-44.75247 -10.18194,-45.31108 C -10.44455,-45.86969 -10.31204,-45.59089 -10.57950,-46.14752 C -10.84697,-46.70415 -10.71203,-46.42635 -10.98434,-46.98097 C -11.25665,-47.53559 -11.11930,-47.25881 -11.39644,-47.81138 C -11.67357,-48.36395 -11.53381,-48.08820 -11.81576,-48.63868 C -12.09771,-49.18917 -11.95554,-48.91447 -12.24228,-49.46284 C -12.52903,-50.01120 -12.38447,-49.73757 -12.67598,-50.28379 C -12.96750,-50.83000 -12.82056,-50.55745 -13.11684,-51.10148 C -13.41311,-51.64550 -13.26380,-51.37406 -13.56481,-51.91585 C -13.86582,-52.45765 -13.71414,-52.18733 -14.01988,-52.72687 C -14.32561,-53.26641 -14.17157,-52.99722 -14.48201,-53.53447 C -14.79244,-54.07171 -14.63606,-53.80368 -14.95118,-54.33860 C -15.26630,-54.87351 -15.10758,-54.60666 -15.42736,-55.13921 C -15.74714,-55.67176 -15.58610,-55.40610 -15.91052,-55.93625 C -16.23494,-56.46640 -16.07158,-56.20195 -16.40063,-56.72966 C -16.72967,-57.25738 -16.56400,-56.99415 -16.89765,-57.51941 C -17.23130,-58.04466 -17.06334,-57.78267 -17.40156,-58.30542 C -17.73979,-58.82818 -17.56955,-58.56745 -17.91233,-59.08767 C -18.25512,-59.60789 -18.08260,-59.34843 -18.42993,-59.86608 C -18.77726,-60.38373 -18.60247,-60.12557 -18.95432,-60.64062 C -19.30616,-61.15567 -19.12912,-60.89882 -19.48546,-61.41124 C -19.84180,-61.92365 -19.66252,-61.66812 -20.02334,-62.17787 C -20.38415,-62.68763 -20.20264,-62.43344 -20.56791,-62.94049 C -20.93317,-63.44754 -20.74944,-63.19471 -21.11914,-63.69903 C -21.48883,-64.20335 -21.30289,-63.95189 -21.67699,-64.45345 C -22.05109,-64.95500 -21.86295,-64.70494 -22.24144,-65.20370 C -22.61992,-65.70245 -22.42960,-65.45379 -22.81244,-65.94972 C -23.19528,-66.44565 -23.00279,-66.19842 -23.38996,-66.69149 C -23.77714,-67.18456 -23.58248,-66.93876 -23.97397,-67.42893 C -24.36546,-67.91911 -24.16865,-67.67476 -24.56443,-68.16202 C -24.96021,-68.64927 -24.76126,-68.40640 -25.16130,-68.89070 C -25.56134,-69.37499 -25.36027,-69.13360 -25.76455,-69.61492 C -26.16882,-70.09623 -25.96564,-69.85634 -26.37413,-70.33464 C -26.78262,-70.81293 -26.57734,-70.57456 -26.99001,-71.04981 C -27.40269,-71.52506 -27.19532,-71.28821 -27.61216,-71.76039 C -28.02900,-72.23256 -27.81956,-71.99726 -28.24053,-72.46633 C -28.66151,-72.93539 -28.45000,-72.70165 -28.87508,-73.16758 C -29.30017,-73.63351 -29.08662,-73.40135 -29.51578,-73.86411 C -29.94495,-74.32687 -29.72936,-74.09630 -30.16259,-74.55586 C -30.59581,-75.01542 -30.37820,-74.78646 -30.81546,-75.24279 C -31.25271,-75.69913 -31.03310,-75.47179 -31.47435,-75.92487 C -31.91561,-76.37795 -31.69400,-76.15224 -32.13923,-76.60204 C -32.58447,-77.05183 -32.36087,-76.82777 -32.81005,-77.27426 C -33.25924,-77.72074 -33.03368,-77.49835 -33.48678,-77.94149 C -33.93988,-78.38463 -33.71237,-78.16391 -34.16936,-78.60368 C -34.62635,-79.04346 -34.39690,-78.82443 -34.85776,-79.26081 C -35.31862,-79.69718 -35.08724,-79.47986 -35.55193,-79.91281 C -36.01663,-80.34576 -35.78334,-80.13016 -36.25184,-80.55965 C -36.72034,-80.98915 -36.48515,-80.77528 -36.95743,-81.20130 C -37.42971,-81.62732 -37.19264,-81.41519 -37.66867,-81.83770 C -38.14469,-82.26021 -37.90576,-82.04985 -38.38550,-82.46883 C -38.86525,-82.88780 -38.62447,-82.67922 -39.10790,-83.09463 C -39.59133,-83.51005 -39.34871,-83.30324 -39.83580,-83.71507 C -40.32289,-84.12690 -40.07845,-83.92190 -40.56917,-84.33012 C -41.05989,-84.73833 -40.81364,-84.53514 -41.30796,-84.93972 C -41.80228,-85.34430 -41.55424,-85.14293 -42.05212,-85.54385 C -42.55001,-85.94476 -42.30019,-85.74524 -42.80161,-86.14246 C -43.30304,-86.53968 -43.05146,-86.34201 -43.55639,-86.73552 C -44.06132,-87.12903 -43.80799,-86.93322 -44.31640,-87.32299 C -44.82480,-87.71276 -44.56975,-87.51882 -45.08159,-87.90483 C -45.59344,-88.29083 -45.33667,-88.09879 -45.85193,-88.48100 C -46.36719,-88.86322 -46.10873,-88.67307 -46.62736,-89.05148 C -47.14599,-89.42989 -46.88585,-89.24165 -47.40783,-89.61622 C -47.92982,-89.99079 -47.66801,-89.80448 -48.19331,-90.17519 C -48.71860,-90.54590 -48.45515,-90.36152 -48.98372,-90.72835 C -49.51230,-91.09518 -49.24721,-90.91275 -49.77904,-91.27567 C -50.31087,-91.63859 -50.04416,-91.45812 -50.57921,-91.81712 C -51.11425,-92.17611 -50.84595,-91.99761 -51.38417,-92.35265 C -51.92240,-92.70770 -51.65251,-92.53118 -52.19389,-92.88225 C -52.73526,-93.23332 -52.46381,-93.05879 -53.00830,-93.40587 C -53.55280,-93.75294 -53.27979,-93.58042 -53.82737,-93.92347 C -54.37494,-94.26653 -54.10041,-94.09602 -54.65103,-94.43504 C -55.20165,-94.77407 -54.92560,-94.60558 -55.47924,-94.94054 C -56.03288,-95.27550 -55.75533,-95.10905 -56.31194,-95.43993 C -56.86856,-95.77082 -56.58953,-95.60641 -57.14909,-95.93319 C -57.70866,-96.25998 -57.42816,-96.09762 -57.99064,-96.42029 C -58.55311,-96.74295 -58.27117,-96.58266 -58.83652,-96.90118 C -59.40187,-97.21971 -59.11850,-97.06149 -59.68669,-97.37586 C -60.25488,-97.69022 -59.97010,-97.53409 -60.54109,-97.84428 C -61.11209,-98.15446 -60.82591,-98.00043 -61.39968,-98.30641 C -61.97345,-98.61240 -61.68589,-98.46047 -62.26240,-98.76224 C -62.83890,-99.06401 -62.54999,-98.91419 -63.12919,-99.21172 C -63.70839,-99.50926 -63.41814,-99.36156 -64.00000,-99.65484 C -64.58186,-99.94812 -64.29029,-99.80256 -64.87478,-100.09157 C -65.45927,-100.38058 -65.16639,-100.23715 -65.75347,-100.52187 C -66.34056,-100.80659 -66.04639,-100.66532 -66.63603,-100.94573 C -67.22566,-101.22615 -66.93023,-101.08703 -67.52238,-101.36312 C -68.11454,-101.63921 -67.81786,-101.50226 -68.41249,-101.77401 C -69.00713,-102.04576 -68.70921,-101.91098 -69.30629,-102.17837 C -69.90337,-102.44577 -69.60424,-102.31317 -70.20373,-102.57619 C -70.80322,-102.83922 -70.50290,-102.70881 -71.10475,-102.96744 C -71.70661,-103.22608 -71.40511,-103.09787 -72.00930,-103.35210 C -72.61349,-103.60633 -72.31084,-103.48032 -72.91732,-103.73013 C -73.52381,-103.97995 -73.22001,-103.85615 -73.82876,-104.10153 C -74.43750,-104.34691 -74.13259,-104.22534 -74.74355,-104.46627 C -75.35451,-104.70720 -75.04850,-104.58785 -75.66165,-104.82432 C -76.27479,-105.06079 -75.96770,-104.94368 -76.58299,-105.17567 C -77.19827,-105.40766 -76.89012,-105.29279 -77.50751,-105.52029 C -78.12491,-105.74779 -77.81571,-105.63517 -78.43517,-105.85816 C -79.05463,-106.08116 -78.74441,-105.97080 -79.36590,-106.18928 C -79.98739,-106.40775 -79.67616,-106.29965 -80.29965,-106.51360 C -80.92313,-106.72755 -80.61091,-106.62172 -81.23635,-106.83112 C -81.86178,-107.04053 -81.54860,-106.93697 -82.17595,-107.14182 C -82.80330,-107.34668 -82.48917,-107.24539 -83.11839,-107.44568 C -83.74762,-107.64597 -83.43256,-107.54697 -84.06362,-107.74268 C -84.69468,-107.93839 -84.37871,-107.84169 -85.01157,-108.03281 C -85.64442,-108.22393 -85.32757,-108.12953 -85.96218,-108.31605 C -86.59679,-108.50257 -86.27907,-108.41047 -86.91540,-108.59238 C -87.55173,-108.77429 -87.23316,-108.68449 -87.87117,-108.86178 C -88.50917,-109.03908 -88.18978,-108.95159 -88.82942,-109.12425 C -89.46907,-109.29692 -89.14886,-109.21175 -89.79010,-109.37977 C -90.43135,-109.54779 -90.11035,-109.46495 -90.75316,-109.62832 C -91.39596,-109.79170 -91.07419,-109.71118 -91.71852,-109.86989 C -92.36284,-110.02861 -92.04032,-109.95042 -92.68613,-110.10447 C -93.33193,-110.25852 -93.00868,-110.18267 -93.65593,-110.33204 C -94.30317,-110.48142 -93.97921,-110.40790 -94.62785,-110.55259 C -95.27650,-110.69729 -94.95185,-110.62612 -95.60185,-110.76612 C -96.25185,-110.90612 -95.92654,-110.83730 -96.57786,-110.97260 C -97.22918,-111.10791 -96.90321,-111.04143 -97.55581,-111.17203 C -98.20841,-111.30263 -97.88182,-111.23851 -98.53565,-111.36440 C -99.18949,-111.49029 -98.86229,-111.42853 -99.51732,-111.54970 C -100.17235,-111.67087 -99.84456,-111.61147 -100.50075,-111.72791 C -101.15694,-111.84436 -100.82859,-111.78732 -101.48589,-111.89904 C -102.14320,-112.01076 -101.81429,-111.95608 -102.47267,-112.06307 C -103.13106,-112.17005 -102.80162,-112.11775 -103.46104,-112.21999 C -104.12046,-112.32223 -103.79051,-112.27230 -104.45093,-112.36980 C -105.11134,-112.46730 -104.78091,-112.41974 -105.44227,-112.51249 C -106.10363,-112.60524 -105.77274,-112.56005 -106.43502,-112.64805 C -107.09729,-112.73605 -106.76595,-112.69324 -107.42910,-112.77648 C -108.09224,-112.85972 -107.76048,-112.81929 -108.42445,-112.89777 C -109.08843,-112.97625 -108.75626,-112.93820 -109.42102,-113.01192 C -110.08579,-113.08564 -109.75323,-113.04997 -110.41874,-113.11892 C -111.08426,-113.18787 -110.75134,-113.15459 -111.41756,-113.21877 C -112.08377,-113.28296 -111.75051,-113.25206 -112.41740,-113.31147 C -113.08428,-113.37088 -112.75070,-113.34237 -113.41820,-113.39701 C -114.08571,-113.45165 -113.75182,-113.42553 -114.41991,-113.47539 C -115.08800,-113.52526 -114.75384,-113.50152 -115.42246,-113.54661 C -116.09109,-113.59170 -115.75667,-113.57035 -116.42579,-113.61067 C -117.09492,-113.65098 -116.76026,-113.63202 -117.42984,-113.66756 C -118.09943,-113.70310 -117.76455,-113.68652 -118.43455,-113.71728 C -119.10455,-113.74805 -118.76947,-113.73386 -119.43985,-113.75985 C -120.11022,-113.78583 -119.77497,-113.77403 -120.44567,-113.79525 C -121.11638,-113.81646 -120.78097,-113.80704 -121.45197,-113.82348 C -122.12297,-113.83992 -121.78742,-113.83289 -122.45867,-113.84456 C -123.12992,-113.85622 -122.79426,-113.85158 -123.46572,-113.85847 C -124.13717,-113.86536 -123.80142,-113.86311 -124.47304,-113.86523 C -125.14467,-113.86735 -124.80884,-113.86748 -125.48059,-113.86483 C -126.15234,-113.86218 -125.81646,-113.86470 -126.48829,-113.85728 C -127.16012,-113.84987 -126.82421,-113.85477 -127.49609,-113.84259 C -128.16796,-113.83041 -127.83204,-113.83769 -128.50391,-113.82075 C -129.17579,-113.80382 -128.83988,-113.81347 -129.51171,-113.79178 C -130.18354,-113.77009 -129.84766,-113.78212 -130.51941,-113.75567 C -131.19116,-113.72923 -130.85533,-113.74364 -131.52696,-113.71244 C -132.19858,-113.68125 -131.86283,-113.69803 -132.53428,-113.66209 C -133.20574,-113.62615 -132.87008,-113.64530 -133.54133,-113.60462 C -134.21258,-113.56395 -133.87703,-113.58547 -134.54803,-113.54005 C -135.21903,-113.49464 -134.88362,-113.51853 -135.55433,-113.46838 C -136.22503,-113.41824 -135.88978,-113.44449 -136.56015,-113.38963 C -137.23053,-113.33476 -136.89545,-113.36337 -137.56545,-113.30379 C -138.23545,-113.24420 -137.90057,-113.27517 -138.57016,-113.21087 C -139.23974,-113.14658 -138.90508,-113.17990 -139.57421,-113.11090 C -140.24333,-113.04190 -139.90891,-113.07757 -140.57754,-113.00388 C -141.24616,-112.93018 -140.91200,-112.96820 -141.58009,-112.88981 C -142.24818,-112.81142 -141.91429,-112.85178 -142.58180,-112.76871 C -143.24930,-112.68564 -142.91572,-112.72834 -143.58260,-112.64060 C -144.24949,-112.55285 -143.91623,-112.59789 -144.58244,-112.50548 C -145.24866,-112.41306 -144.91574,-112.46043 -145.58126,-112.36336 C -146.24677,-112.26629 -145.91421,-112.31598 -146.57898,-112.21426 C -147.24374,-112.11254 -146.91157,-112.16456 -147.57555,-112.05820 C -148.23952,-111.95184 -147.90776,-112.00617 -148.57090,-111.89518 C -149.23405,-111.78419 -148.90271,-111.84083 -149.56498,-111.72522 C -150.22726,-111.60961 -149.89637,-111.66856 -150.55773,-111.54834 C -151.21909,-111.42811 -150.88866,-111.48937 -151.54907,-111.36455 C -152.20949,-111.23972 -151.87954,-111.30328 -152.53896,-111.17386 C -153.19838,-111.04445 -152.86894,-111.11030 -153.52733,-110.97630 C -154.18571,-110.84230 -153.85680,-110.91044 -154.51411,-110.77188 C -155.17141,-110.63331 -154.84306,-110.70373 -155.49925,-110.56061 C -156.15544,-110.41749 -155.82765,-110.49018 -156.48268,-110.34252 C -157.13771,-110.19485 -156.81051,-110.26981 -157.46435,-110.11762 C -158.11818,-109.96542 -157.79159,-110.04264 -158.44419,-109.88593 C -159.09679,-109.72921 -158.77082,-109.80869 -159.42214,-109.64746 C -160.07346,-109.48624 -159.74815,-109.56797 -160.39815,-109.40225 C -161.04815,-109.23653 -160.72350,-109.32051 -161.37215,-109.15031 C -162.02079,-108.98011 -161.69683,-109.06632 -162.34407,-108.89165 C -162.99132,-108.71698 -162.66807,-108.80542 -163.31387,-108.62630 C -163.95968,-108.44718 -163.63716,-108.53785 -164.28148,-108.35429 C -164.92581,-108.17072 -164.60404,-108.26361 -165.24684,-108.07562 C -165.88965,-107.88763 -165.56865,-107.98272 -166.20990,-107.79033 C -166.85114,-107.59793 -166.53093,-107.69522 -167.17058,-107.49843 C -167.81022,-107.30164 -167.49083,-107.40113 -168.12883,-107.19995 C -168.76684,-106.99878 -168.44827,-107.10045 -169.08460,-106.89492 C -169.72093,-106.68938 -169.40321,-106.79323 -170.03782,-106.58335 C -170.67243,-106.37346 -170.35558,-106.47948 -170.98843,-106.26526 C -171.62129,-106.05105 -171.30532,-106.15923 -171.93638,-105.94070 C -172.56744,-105.72216 -172.25238,-105.83250 -172.88161,-105.60967 C -173.51083,-105.38683 -173.19670,-105.49931 -173.82405,-105.27220 C -174.45140,-105.04509 -174.13822,-105.15970 -174.76365,-104.92832 C -175.38909,-104.69694 -175.07687,-104.81369 -175.70035,-104.57806 C -176.32384,-104.34243 -176.01261,-104.46130 -176.63410,-104.22144 C -177.25559,-103.98158 -176.94537,-104.10256 -177.56483,-103.85849 C -178.18429,-103.61442 -177.87509,-103.73749 -178.49249,-103.48923 C -179.10988,-103.24097 -178.80173,-103.36614 -179.41701,-103.11370 C -180.03230,-102.86126 -179.72521,-102.98851 -180.33835,-102.73191 C -180.95150,-102.47532 -180.64549,-102.60464 -181.25645,-102.34391 C -181.86741,-102.08318 -181.56250,-102.21457 -182.17124,-101.94971 C -182.77999,-101.68486 -182.47619,-101.81831 -183.08268,-101.54936 C -183.68916,-101.28041 -183.38651,-101.41589 -183.99070,-101.14286 C -184.59489,-100.86983 -184.29339,-101.00736 -184.89525,-100.73027 C -185.49710,-100.45318 -185.19678,-100.59273 -185.79627,-100.31160 C -186.39576,-100.03047 -186.09663,-100.17203 -186.69371,-99.88689 C -187.29079,-99.60174 -186.99287,-99.74530 -187.58751,-99.45616 C -188.18214,-99.16702 -187.88546,-99.31258 -188.47762,-99.01946 C -189.06977,-98.72634 -188.77434,-98.87388 -189.36397,-98.57680 C -189.95361,-98.27972 -189.65944,-98.42924 -190.24653,-98.12823 C -190.83361,-97.82722 -190.54073,-97.97869 -191.12522,-97.67377 C -191.70971,-97.36885 -191.41814,-97.52227 -192.00000,-97.21346 C -192.58186,-96.90465 -192.29161,-97.06001 -192.87081,-96.74733 C -193.45001,-96.43465 -193.16110,-96.59194 -193.73760,-96.27541 C -194.31411,-95.95888 -194.02655,-96.11810 -194.60032,-95.79774 C -195.17409,-95.47739 -194.88791,-95.63851 -195.45891,-95.31435 C -196.02990,-94.99020 -195.74512,-95.15321 -196.31331,-94.82528 C -196.88150,-94.49735 -196.59813,-94.66225 -197.16348,-94.33056 C -197.72883,-93.99887 -197.44689,-94.16564 -198.00936,-93.83022 C -198.57184,-93.49480 -198.29134,-93.66343 -198.85091,-93.32430 C -199.41047,-92.98517 -199.13144,-93.15565 -199.68806,-92.81284 C -200.24467,-92.47002 -199.96712,-92.64234 -200.52076,-92.29586 C -201.07440,-91.94939 -200.79835,-92.12353 -201.34897,-91.77342 C -201.89959,-91.42331 -201.62506,-91.59926 -202.17263,-91.24553 C -202.72021,-90.89181 -202.44720,-91.06956 -202.99170,-90.71225 C -203.53619,-90.35494 -203.26474,-90.53448 -203.80611,-90.17360 C -204.34749,-89.81273 -204.07760,-89.99404 -204.61583,-89.62963 C -205.15405,-89.26522 -204.88575,-89.44830 -205.42079,-89.08037 C -205.95584,-88.71245 -205.68913,-88.89727 -206.22096,-88.52586 C -206.75279,-88.15445 -206.48770,-88.34101 -207.01628,-87.96614 C -207.54485,-87.59126 -207.28140,-87.77955 -207.80669,-87.40124 C -208.33199,-87.02293 -208.07018,-87.21293 -208.59217,-86.83120 C -209.11415,-86.44948 -208.85401,-86.64118 -209.37264,-86.25607 C -209.89127,-85.87096 -209.63281,-86.06435 -210.14807,-85.67588 C -210.66333,-85.28741 -210.40656,-85.48247 -210.91841,-85.09067 C -211.43025,-84.69887 -211.17520,-84.89559 -211.68360,-84.50048 C -212.19201,-84.10538 -211.93868,-84.30374 -212.44361,-83.90535 C -212.94854,-83.50697 -212.69696,-83.70696 -213.19839,-83.30532 C -213.69981,-82.90369 -213.44999,-83.10530 -213.94788,-82.70044 C -214.44576,-82.29557 -214.19772,-82.49879 -214.69204,-82.09073 C -215.18636,-81.68266 -214.94011,-81.88748 -215.43083,-81.47624 C -215.92155,-81.06500 -215.67711,-81.27140 -216.16420,-80.85702 C -216.65129,-80.44264 -216.40867,-80.65060 -216.89210,-80.23310 C -217.37553,-79.81560 -217.13475,-80.02511 -217.61450,-79.60452 C -218.09424,-79.18393 -217.85531,-79.39498 -218.33133,-78.97133 C -218.80736,-78.54768 -218.57029,-78.76025 -219.04257,-78.33356 C -219.51485,-77.90688 -219.27966,-78.12096 -219.74816,-77.69127 C -220.21666,-77.26158 -219.98337,-77.47716 -220.44807,-77.04449 C -220.91276,-76.61182 -220.68138,-76.82888 -221.14224,-76.39326 C -221.60310,-75.95764 -221.37365,-76.17617 -221.83064,-75.73762 C -222.28763,-75.29908 -222.06012,-75.51907 -222.51322,-75.07763 C -222.96632,-74.63619 -222.74076,-74.85762 -223.18995,-74.41332 C -223.63913,-73.96901 -223.41553,-74.19186 -223.86077,-73.74473 C -224.30600,-73.29759 -224.08439,-73.52185 -224.52565,-73.07190 C -224.96690,-72.62196 -224.74729,-72.84761 -225.18454,-72.39489 C -225.62180,-71.94217 -225.40419,-72.16921 -225.83741,-71.71373 C -226.27064,-71.25826 -226.05505,-71.48667 -226.48422,-71.02847 C -226.91338,-70.57028 -226.69983,-70.80004 -227.12492,-70.33915 C -227.55000,-69.87827 -227.33849,-70.10936 -227.75947,-69.64582 C -228.18044,-69.18227 -227.97100,-69.41469 -228.38784,-68.94851 C -228.80468,-68.48233 -228.59731,-68.71606 -229.00999,-68.24728 C -229.42266,-67.77849 -229.21738,-68.01352 -229.62587,-67.54216 C -230.03436,-67.07080 -229.83118,-67.30711 -230.23545,-66.83320 C -230.63973,-66.35930 -230.43866,-66.59687 -230.83870,-66.12045 C -231.23874,-65.64404 -231.03979,-65.88286 -231.43557,-65.40396 C -231.83135,-64.92505 -231.63454,-65.16511 -232.02603,-64.68375 C -232.41752,-64.20239 -232.22286,-64.44367 -232.61004,-63.95989 C -232.99721,-63.47611 -232.80472,-63.71858 -233.18756,-63.23241 C -233.57040,-62.74623 -233.38008,-62.98990 -233.75856,-62.50136 C -234.13705,-62.01281 -233.94891,-62.25766 -234.32301,-61.76678 C -234.69711,-61.27590 -234.51117,-61.52191 -234.88086,-61.02873 C -235.25056,-60.53554 -235.06683,-60.78269 -235.43209,-60.28724 C -235.79736,-59.79178 -235.61585,-60.04006 -235.97666,-59.54236 C -236.33748,-59.04466 -236.15820,-59.29405 -236.51454,-58.79413 C -236.87088,-58.29422 -236.69384,-58.54471 -237.04568,-58.04261 C -237.39753,-57.54051 -237.22274,-57.79209 -237.57007,-57.28784 C -237.91740,-56.78359 -237.74488,-57.03623 -238.08767,-56.52986 C -238.43045,-56.02348 -238.26021,-56.27718 -238.59844,-55.76871 C -238.93666,-55.26025 -238.76870,-55.51498 -239.10235,-55.00446 C -239.43600,-54.49393 -239.27033,-54.74969 -239.59937,-54.23713 C -239.92842,-53.72457 -239.76506,-53.98134 -240.08948,-53.46678 C -240.41390,-52.95222 -240.25286,-53.20998 -240.57264,-52.69345 C -240.89242,-52.17692 -240.73370,-52.43566 -241.04882,-51.91719 C -241.36394,-51.39872 -241.20756,-51.65842 -241.51799,-51.13804 C -241.82843,-50.61766 -241.67439,-50.87831 -241.98012,-50.35606 C -242.28586,-49.83380 -242.13418,-50.09538 -242.43519,-49.57128 C -242.73620,-49.04718 -242.58689,-49.30967 -242.88316,-48.78375 C -243.17944,-48.25784 -243.03250,-48.52123 -243.32402,-47.99353 C -243.61553,-47.46583 -243.47097,-47.73010 -243.75772,-47.20065 C -244.04446,-46.67119 -243.90229,-46.93634 -244.18424,-46.40516 C -244.46619,-45.87398 -244.32643,-46.13998 -244.60356,-45.60711 C -244.88070,-45.07424 -244.74335,-45.34108 -245.01566,-44.80655 C -245.28797,-44.27201 -245.15303,-44.53968 -245.42050,-44.00351 C -245.68796,-43.46735 -245.55545,-43.73582 -245.81806,-43.19806 C -246.08066,-42.66030 -245.95059,-42.92956 -246.20831,-42.39023 C -246.46604,-41.85090 -246.33841,-42.12094 -246.59124,-41.58007 C -246.84408,-41.03920 -246.71889,-41.31000 -246.96682,-40.76763 C -247.21474,-40.22525 -247.09202,-40.49680 -247.33502,-39.95295 C -247.57802,-39.40910 -247.45776,-39.68138 -247.69582,-39.13608 C -247.93388,-38.59079 -247.81609,-38.86378 -248.04920,-38.31707 C -248.28231,-37.77037 -248.16700,-38.04405 -248.39514,-37.49597 C -248.62328,-36.94788 -248.51046,-37.22225 -248.73362,-36.67281 C -248.95677,-36.12337 -248.84645,-36.39841 -249.06461,-35.84765 C -249.28277,-35.29690 -249.17494,-35.57259 -249.38809,-35.02054 C -249.60124,-34.46849 -249.49593,-34.74482 -249.70405,-34.19152 C -249.91218,-33.63821 -249.80938,-33.91516 -250.01247,-33.36063 C -250.21556,-32.80610 -250.11528,-33.08365 -250.31332,-32.52793 C -250.51136,-31.97220 -250.41361,-32.25034 -250.60659,-31.69345 C -250.79957,-31.13656 -250.70435,-31.41528 -250.89226,-30.85726 C -251.08016,-30.29923 -250.98748,-30.57851 -251.17030,-30.01938 C -251.35312,-29.46026 -251.26299,-29.74008 -251.44072,-29.17988 C -251.61844,-28.61969 -251.53086,-28.90003 -251.70348,-28.33880 C -251.87609,-27.77756 -251.79107,-28.05842 -251.95857,-27.49618 C -252.12607,-26.93393 -252.04360,-27.21529 -252.20598,-26.65207 C -252.36835,-26.08884 -252.28845,-26.37068 -252.44568,-25.80651 C -252.60292,-25.24234 -252.52559,-25.52464 -252.67767,-24.95956 C -252.82976,-24.39448 -252.75501,-24.67723 -252.90194,-24.11126 C -253.04886,-23.54529 -252.97670,-23.82848 -253.11846,-23.26166 C -253.26022,-22.69484 -253.19063,-22.97844 -253.32722,-22.41080 C -253.46380,-21.84316 -253.39681,-22.12716 -253.52821,-21.55873 C -253.65961,-20.99029 -253.59521,-21.27469 -253.72142,-20.70550 C -253.84763,-20.13630 -253.78583,-20.42107 -253.90684,-19.85115 C -254.02785,-19.28122 -253.96865,-19.56635 -254.08445,-18.99573 C -254.20025,-18.42511 -254.14366,-18.71057 -254.25425,-18.13928 C -254.36483,-17.56800 -254.31085,-17.85379 -254.41621,-17.28186 C -254.52158,-16.70994 -254.47021,-16.99604 -254.57035,-16.42351 C -254.67048,-15.85099 -254.62173,-16.13738 -254.71663,-15.56428 C -254.81153,-14.99118 -254.76539,-15.27785 -254.85506,-14.70421 C -254.94472,-14.13056 -254.90120,-14.41750 -254.98562,-13.84335 C -255.07004,-13.26919 -255.02915,-13.55638 -255.10831,-12.98174 C -255.18748,-12.40710 -255.14921,-12.69452 -255.22313,-12.11944 C -255.29704,-11.54435 -255.26140,-11.83199 -255.33005,-11.25648 C -255.39870,-10.68098 -255.36570,-10.96882 -255.42908,-10.39292 C -255.49247,-9.81703 -255.46209,-10.10506 -255.52021,-9.52881 C -255.57833,-8.95256 -255.55059,-9.24075 -255.60344,-8.66418 C -255.65629,-8.08761 -255.63118,-8.37596 -255.67875,-7.79909 C -255.72633,-7.22222 -255.70386,-7.51071 -255.74615,-6.93358 C -255.78845,-6.35644 -255.76862,-6.64506 -255.80563,-6.06769 C -255.84265,-5.49033 -255.82546,-5.77905 -255.85719,-5.20148 C -255.88892,-4.62392 -255.87438,-4.91273 -255.90082,-4.33500 C -255.92727,-3.75726 -255.91537,-4.04615 -255.93652,-3.46828 C -255.95768,-2.89040 -255.94842,-3.17935 -255.96429,-2.60137 C -255.98016,-2.02339 -255.97355,-2.31238 -255.98413,-1.73432 C -255.99471,-1.15626 -255.99074,-1.44529 -255.99603,-0.86719 C -256.00132,-0.28908 -256.00000,-0.57812 -256.00000,-0.00000 C -256.00000,0.57812 -256.00132,0.28908 -255.99603,0.86719 C -255.99074,1.44529 -255.99471,1.15626 -255.98413,1.73432 C -255.97355,2.31238 -255.98016,2.02339 -255.96429,2.60137 C -255.94842,3.17935 -255.95768,2.89040 -255.93652,3.46828 C -255.91537,4.04615 -255.92727,3.75726 -255.90082,4.33500 C -255.87438,4.91273 -255.88892,4.62392 -255.85719,5.20148 C -255.82546,5.77905 -255.84265,5.49033 -255.80563,6.06769 C -255.76862,6.64506 -255.78845,6.35644 -255.74615,6.93358 C -255.70386,7.51071 -255.72633,7.22222 -255.67875,7.79909 C -255.63118,8.37596 -255.65629,8.08761 -255.60344,8.66418 C -255.55059,9.24075 -255.57833,8.95256 -255.52021,9.52881 C -255.46209,10.10506 -255.49247,9.81703 -255.42908,10.39292 C -255.36570,10.96882 -255.39870,10.68098 -255.33005,11.25648 C -255.26140,11.83199 -255.29704,11.54435 -255.22313,12.11944 C -255.14921,12.69452 -255.18748,12.40710 -255.10831,12.98174 C -255.02915,13.55638 -255.07004,13.26919 -254.98562,13.84335 C -254.90120,14.41750 -254.94472,14.13056 -254.85506,14.70421 C -254.76539,15.27785 -254.81153,14.99118 -254.71663,15.56428 C -254.62173,16.13738 -254.67048,15.85099 -254.57035,16.42351 C -254.47021,16.99604 -254.52158,16.70994 -254.41621,17.28186 C -254.31085,17.85379 -254.36483,17.56800 -254.25425,18.13928 C -254.14366,18.71057 -254.20025,18.42511 -254.08445,18.99573 C -253.96865,19.56635 -254.02785,19.28122 -253.90684,19.85115 C -253.78583,20.42107 -253.84763,20.13630 -253.72142,20.70550 C -253.59521,21.27469 -253.65961,20.99029 -253.52821,21.55873 C -253.39681,22.12716 -253.46380,21.84316 -253.32722,22.41080 C -253.19063,22.97844 -253.26022,22.69484 -253.11846,23.26166 C -252.97670,23.82848 -253.04886,23.54529 -252.90194,24.11126 C -252.75501,24.67723 -252.82976,24.39448 -252.67767,24.95956 C -252.52559,25.52464 -252.60292,25.24234 -252.44568,25.80651 C -252.28845,26.37068 -252.36835,26.08884 -252.20598,26.65207 C -252.04360,27.21529 -252.12607,26.93393 -251.95857,27.49618 C -251.79107,28.05842 -251.87609,27.77756 -251.70348,28.33880 C -251.53086,28.90003 -251.61844,28.61969 -251.44072,29.17988 C -251.26299,29.74008 -251.35312,29.46026 -251.17030,30.01938 C -250.98748,30.57851 -251.08016,30.29923 -250.89226,30.85726 C -250.70435,31.41528 -250.79957,31.13656 -250.60659,31.69345 C -250.41361,32.25034 -250.51136,31.97220 -250.31332,32.52793 C -250.11528,33.08365 -250.21556,32.80610 -250.01247,33.36063 C -249.80938,33.91516 -249.91218,33.63821 -249.70405,34.19152 C -249.49593,34.74482 -249.60124,34.46849 -249.38809,35.02054 C -249.17494,35.57259 -249.28277,35.29690 -249.06461,35.84765 C -248.84645,36.39841 -248.95677,36.12337 -248.73362,36.67281 C -248.51046,37.22225 -248.62328,36.94788 -248.39514,37.49597 C -248.16700,38.04405 -248.28231,37.77037 -248.04920,38.31707 C -247.81609,38.86378 -247.93388,38.59079 -247.69582,39.13608 C -247.45776,39.68138 -247.57802,39.40910 -247.33502,39.95295 C -247.09202,40.49680 -247.21474,40.22525 -246.96682,40.76763 C -246.71889,41.31000 -246.84408,41.03920 -246.59124,41.58007 C -246.33841,42.12094 -246.46604,41.85090 -246.20831,42.39023 C -245.95059,42.92956 -246.08066,42.66030 -245.81806,43.19806 C -245.55545,43.73582 -245.68796,43.46735 -245.42050,44.00351 C -245.15303,44.53968 -245.28797,44.27201 -245.01566,44.80655 C -244.74335,45.34108 -244.88070,45.07424 -244.60356,45.60711 C -244.32643,46.13998 -244.46619,45.87398 -244.18424,46.40516 C -243.90229,46.93634 -244.04446,46.67119 -243.75772,47.20065 C -243.47097,47.73010 -243.61553,47.46583 -243.32402,47.99353 C -243.03250,48.52123 -243.17944,48.25784 -242.88316,48.78375 C -242.58689,49.30967 -242.73620,49.04718 -242.43519,49.57128 C -242.13418,50.09538 -242.28586,49.83380 -241.98012,50.35606 C -241.67439,50.87831 -241.82843,50.61766 -241.51799,51.13804 C -241.20756,51.65842 -241.36394,51.39872 -241.04882,51.91719 C -240.73370,52.43566 -240.89242,52.17692 -240.57264,52.69345 C -240.25286,53.20998 -240.41390,52.95222 -240.08948,53.46678 C -239.76506,53.98134 -239.92842,53.72457 -239.59937,54.23713 C -239.27033,54.74969 -239.43600,54.49393 -239.10235,55.00446 C -238.76870,55.51498 -238.93666,55.26025 -238.59844,55.76871 C -238.26021,56.27718 -238.43045,56.02348 -238.08767,56.52986 C -237.74488,57.03623 -237.91740,56.78359 -237.57007,57.28784 C -237.22274,57.79209 -237.39753,57.54051 -237.04568,58.04261 C -236.69384,58.54471 -236.87088,58.29422 -236.51454,58.79413 C -236.15820,59.29405 -236.33748,59.04466 -235.97666,59.54236 C -235.61585,60.04006 -235.79736,59.79178 -235.43209,60.28724 C -235.06683,60.78269 -235.25056,60.53554 -234.88086,61.02873 C -234.51117,61.52191 -234.69711,61.27590 -234.32301,61.76678 C -233.94891,62.25766 -234.13705,62.01281 -233.75856,62.50136 C -233.38008,62.98990 -233.57040,62.74623 -233.18756,63.23241 C -232.80472,63.71858 -232.99721,63.47611 -232.61004,63.95989 C -232.22286,64.44367 -232.41752,64.20239 -232.02603,64.68375 C -231.63454,65.16511 -231.83135,64.92505 -231.43557,65.40396 C -231.03979,65.88286 -231.23874,65.64404 -230.83870,66.12045 C -230.43866,66.59687 -230.63973,66.35930 -230.23545,66.83320 C -229.83118,67.30711 -230.03436,67.07080 -229.62587,67.54216 C -229.21738,68.01352 -229.42266,67.77849 -229.00999,68.24728 C -228.59731,68.71606 -228.80468,68.48233 -228.38784,68.94851 C -227.97100,69.41469 -228.18044,69.18227 -227.75947,69.64582 C -227.33849,70.10936 -227.55000,69.87827 -227.12492,70.33915 C -226.69983,70.80004 -226.91338,70.57028 -226.48422,71.02847 C -226.05505,71.48667 -226.27064,71.25826 -225.83741,71.71373 C -225.40419,72.16921 -225.62180,71.94217 -225.18454,72.39489 C -224.74729,72.84761 -224.96690,72.62196 -224.52565,73.07190 C -224.08439,73.52185 -224.30600,73.29759 -223.86077,73.74473 C -223.41553,74.19186 -223.63913,73.96901 -223.18995,74.41332 C -222.74076,74.85762 -222.96632,74.63619 -222.51322,75.07763 C -222.06012,75.51907 -222.28763,75.29908 -221.83064,75.73762 C -221.37365,76.17617 -221.60310,75.95764 -221.14224,76.39326 C -220.68138,76.82888 -220.91276,76.61182 -220.44807,77.04449 C -219.98337,77.47716 -220.21666,77.26158 -219.74816,77.69127 C -219.27966,78.12096 -219.51485,77.90688 -219.04257,78.33356 C -218.57029,78.76025 -218.80736,78.54768 -218.33133,78.97133 C -217.85531,79.39498 -218.09424,79.18393 -217.61450,79.60452 C -217.13475,80.02511 -217.37553,79.81560 -216.89210,80.23310 C -216.40867,80.65060 -216.65129,80.44264 -216.16420,80.85702 C -215.67711,81.27140 -215.92155,81.06500 -215.43083,81.47624 C -214.94011,81.88748 -215.18636,81.68266 -214.69204,82.09073 C -214.19772,82.49879 -214.44576,82.29557 -213.94788,82.70044 C -213.44999,83.10530 -213.69981,82.90369 -213.19839,83.30532 C -212.69696,83.70696 -212.94854,83.50697 -212.44361,83.90535 C -211.93868,84.30374 -212.19201,84.10538 -211.68360,84.50048 C -211.17520,84.89559 -211.43025,84.69887 -210.91841,85.09067 C -210.40656,85.48247 -210.66333,85.28741 -210.14807,85.67588 C -209.63281,86.06435 -209.89127,85.87096 -209.37264,86.25607 C -208.85401,86.64118 -209.11415,86.44948 -208.59217,86.83120 C -208.07018,87.21293 -208.33199,87.02293 -207.80669,87.40124 C -207.28140,87.77955 -207.54485,87.59126 -207.01628,87.96614 C -206.48770,88.34101 -206.75279,88.15445 -206.22096,88.52586 C -205.68913,88.89727 -205.95584,88.71245 -205.42079,89.08037 C -204.88575,89.44830 -205.15405,89.26522 -204.61583,89.62963 C -204.07760,89.99404 -204.34749,89.81273 -203.80611,90.17360 C -203.26474,90.53448 -203.53619,90.35494 -202.99170,90.71225 C -202.44720,91.06956 -202.72021,90.89181 -202.17263,91.24553 C -201.62506,91.59926 -201.89959,91.42331 -201.34897,91.77342 C -200.79835,92.12353 -201.07440,91.94939 -200.52076,92.29586 C -199.96712,92.64234 -200.24467,92.47002 -199.68806,92.81284 C -199.13144,93.15565 -199.41047,92.98517 -198.85091,93.32430 C -198.29134,93.66343 -198.57184,93.49480 -198.00936,93.83022 C -197.44689,94.16564 -197.72883,93.99887 -197.16348,94.33056 C -196.59813,94.66225 -196.88150,94.49735 -196.31331,94.82528 C -195.74512,95.15321 -196.02990,94.99020 -195.45891,95.31435 C -194.88791,95.63851 -195.17409,95.47739 -194.60032,95.79774 C -194.02655,96.11810 -194.31411,95.95888 -193.73760,96.27541 C -193.16110,96.59194 -193.45001,96.43465 -192.87081,96.74733 C -192.29161,97.06001 -192.58186,96.90465 -192.00000,97.21346 C -191.41814,97.52227 -191.70971,97.36885 -191.12522,97.67377 C -190.54073,97.97869 -190.83361,97.82722 -190.24653,98.12823 C -189.65944,98.42924 -189.95361,98.27972 -189.36397,98.57680 C -188.77434,98.87388 -189.06977,98.72634 -188.47762,99.01946 C -187.88546,99.31258 -188.18214,99.16702 -187.58751,99.45616 C -186.99287,99.74530 -187.29079,99.60174 -186.69371,99.88689 C -186.09663,100.17203 -186.39576,100.03047 -185.79627,100.31160 C -185.19678,100.59273 -185.49710,100.45318 -184.89525,100.73027 C -184.29339,101.00736 -184.59489,100.86983 -183.99070,101.14286 C -183.38651,101.41589 -183.68916,101.28041 -183.08268,101.54936 C -182.47619,101.81831 -182.77999,101.68486 -182.17124,101.94971 C -181.56250,102.21457 -181.86741,102.08318 -181.25645,102.34391 C -180.64549,102.60464 -180.95150,102.47532 -180.33835,102.73191 C -179.72521,102.98851 -180.03230,102.86126 -179.41701,103.11370 C -178.80173,103.36614 -179.10988,103.24097 -178.49249,103.48923 C -177.87509,103.73749 -178.18429,103.61442 -177.56483,103.85849 C -176.94537,104.10256 -177.25559,103.98158 -176.63410,104.22144 C -176.01261,104.46130 -176.32384,104.34243 -175.70035,104.57806 C -175.07687,104.81369 -175.38909,104.69694 -174.76365,104.92832 C -174.13822,105.15970 -174.45140,105.04509 -173.82405,105.27220 C -173.19670,105.49931 -173.51083,105.38683 -172.88161,105.60967 C -172.25238,105.83250 -172.56744,105.72216 -171.93638,105.94070 C -171.30532,106.15923 -171.62129,106.05105 -170.98843,106.26526 C -170.35558,106.47948 -170.67243,106.37346 -170.03782,106.58335 C -169.40321,106.79323 -169.72093,106.68938 -169.08460,106.89492 C -168.44827,107.10045 -168.76684,106.99878 -168.12883,107.19995 C -167.49083,107.40113 -167.81022,107.30164 -167.17058,107.49843 C -166.53093,107.69522 -166.85114,107.59793 -166.20990,107.79033 C -165.56865,107.98272 -165.88965,107.88763 -165.24684,108.07562 C -164.60404,108.26361 -164.92581,108.17072 -164.28148,108.35429 C -163.63716,108.53785 -163.95968,108.44718 -163.31387,108.62630 C -162.66807,108.80542 -162.99132,108.71698 -162.34407,108.89165 C -161.69683,109.06632 -162.02079,108.98011 -161.37215,109.15031 C -160.72350,109.32051 -161.04815,109.23653 -160.39815,109.40225 C -159.74815,109.56797 -160.07346,109.48624 -159.42214,109.64746 C -158.77082,109.80869 -159.09679,109.72921 -158.44419,109.88593 C -157.79159,110.04264 -158.11818,109.96542 -157.46435,110.11762 C -156.81051,110.26981 -157.13771,110.19485 -156.48268,110.34252 C -155.82765,110.49018 -156.15544,110.41749 -155.49925,110.56061 C -154.84306,110.70373 -155.17141,110.63331 -154.51411,110.77188 C -153.85680,110.91044 -154.18571,110.84230 -153.52733,110.97630 C -152.86894,111.11030 -153.19838,111.04445 -152.53896,111.17386 C -151.87954,111.30328 -152.20949,111.23972 -151.54907,111.36455 C -150.88866,111.48937 -151.21909,111.42811 -150.55773,111.54834 C -149.89637,111.66856 -150.22726,111.60961 -149.56498,111.72522 C -148.90271,111.84083 -149.23405,111.78419 -148.57090,111.89518 C -147.90776,112.00617 -148.23952,111.95184 -147.57555,112.05820 C -146.91157,112.16456 -147.24374,112.11254 -146.57898,112.21426 C -145.91421,112.31598 -146.24677,112.26629 -145.58126,112.36336 C -144.91574,112.46043 -145.24866,112.41306 -144.58244,112.50548 C -143.91623,112.59789 -144.24949,112.55285 -143.58260,112.64060 C -142.91572,112.72834 -143.24930,112.68564 -142.58180,112.76871 C -141.91429,112.85178 -142.24818,112.81142 -141.58009,112.88981 C -140.91200,112.96820 -141.24616,112.93018 -140.57754,113.00388 C -139.90891,113.07757 -140.24333,113.04190 -139.57421,113.11090 C -138.90508,113.17990 -139.23974,113.14658 -138.57016,113.21087 C -137.90057,113.27517 -138.23545,113.24420 -137.56545,113.30379 C -136.89545,113.36337 -137.23053,113.33476 -136.56015,113.38963 C -135.88978,113.44449 -136.22503,113.41824 -135.55433,113.46838 C -134.88362,113.51853 -135.21903,113.49464 -134.54803,113.54005 C -133.87703,113.58547 -134.21258,113.56395 -133.54133,113.60462 C -132.87008,113.64530 -133.20574,113.62615 -132.53428,113.66209 C -131.86283,113.69803 -132.19858,113.68125 -131.52696,113.71244 C -130.85533,113.74364 -131.19116,113.72923 -130.51941,113.75567 C -129.84766,113.78212 -130.18354,113.77009 -129.51171,113.79178 C -128.83988,113.81347 -129.17579,113.80382 -128.50391,113.82075 C -127.83204,113.83769 -128.16796,113.83041 -127.49609,113.84259 C -126.82421,113.85477 -127.16012,113.84987 -126.48829,113.85728 C -125.81646,113.86470 -126.15234,113.86218 -125.48059,113.86483 C -124.80884,113.86748 -125.14467,113.86735 -124.47304,113.86523 C -123.80142,113.86311 -124.13717,113.86536 -123.46572,113.85847 C -122.79426,113.85158 -123.12992,113.85622 -122.45867,113.84456 C -121.78742,113.83289 -122.12297,113.83992 -121.45197,113.82348 C -120.78097,113.80704 -121.11638,113.81646 -120.44567,113.79525 C -119.77497,113.77403 -120.11022,113.78583 -119.43985,113.75985 C -118.76947,113.73386 -119.10455,113.74805 -118.43455,113.71728 C -117.76455,113.68652 -118.09943,113.70310 -117.42984,113.66756 C -116.76026,113.63202 -117.09492,113.65098 -116.42579,113.61067 C -115.75667,113.57035 -116.09109,113.59170 -115.42246,113.54661 C -114.75384,113.50152 -115.08800,113.52526 -114.41991,113.47539 C -113.75182,113.42553 -114.08571,113.45165 -113.41820,113.39701 C -112.75070,113.34237 -113.08428,113.37088 -112.41740,113.31147 C -111.75051,113.25206 -112.08377,113.28296 -111.41756,113.21877 C -110.75134,113.15459 -111.08426,113.18787 -110.41874,113.11892 C -109.75323,113.04997 -110.08579,113.08564 -109.42102,113.01192 C -108.75626,112.93820 -109.08843,112.97625 -108.42445,112.89777 C -107.76048,112.81929 -108.09224,112.85972 -107.42910,112.77648 C -106.76595,112.69324 -107.09729,112.73605 -106.43502,112.64805 C -105.77274,112.56005 -106.10363,112.60524 -105.44227,112.51249 C -104.78091,112.41974 -105.11134,112.46730 -104.45093,112.36980 C -103.79051,112.27230 -104.12046,112.32223 -103.46104,112.21999 C -102.80162,112.11775 -103.13106,112.17005 -102.47267,112.06307 C -101.81429,111.95608 -102.14320,112.01076 -101.48589,111.89904 C -100.82859,111.78732 -101.15694,111.84436 -100.50075,111.72791 C -99.84456,111.61147 -100.17235,111.67087 -99.51732,111.54970 C -98.86229,111.42853 -99.18949,111.49029 -98.53565,111.36440 C -97.88182,111.23851 -98.20841,111.30263 -97.55581,111.17203 C -96.90321,111.04143 -97.22918,111.10791 -96.57786,110.97260 C -95.92654,110.83730 -96.25185,110.90612 -95.60185,110.76612 C -94.95185,110.62612 -95.27650,110.69729 -94.62785,110.55259 C -93.97921,110.40790 -94.30317,110.48142 -93.65593,110.33204 C -93.00868,110.18267 -93.33193,110.25852 -92.68613,110.10447 C -92.04032,109.95042 -92.36284,110.02861 -91.71852,109.86989 C -91.07419,109.71118 -91.39596,109.79170 -90.75316,109.62832 C -90.11035,109.46495 -90.43135,109.54779 -89.79010,109.37977 C -89.14886,109.21175 -89.46907,109.29692 -88.82942,109.12425 C -88.18978,108.95159 -88.50917,109.03908 -87.87117,108.86178 C -87.23316,108.68449 -87.55173,108.77429 -86.91540,108.59238 C -86.27907,108.41047 -86.59679,108.50257 -85.96218,108.31605 C -85.32757,108.12953 -85.64442,108.22393 -85.01157,108.03281 C -84.37871,107.84169 -84.69468,107.93839 -84.06362,107.74268 C -83.43256,107.54697 -83.74762,107.64597 -83.11839,107.44568 C -82.48917,107.24539 -82.80330,107.34668 -82.17595,107.14182 C -81.54860,106.93697 -81.86178,107.04053 -81.23635,106.83112 C -80.61091,106.62172 -80.92313,106.72755 -80.29965,106.51360 C -79.67616,106.29965 -79.98739,106.40775 -79.36590,106.18928 C -78.74441,105.97080 -79.05463,106.08116 -78.43517,105.85816 C -77.81571,105.63517 -78.12491,105.74779 -77.50751,105.52029 C -76.89012,105.29279 -77.19827,105.40766 -76.58299,105.17567 C -75.96770,104.94368 -76.27479,105.06079 -75.66165,104.82432 C -75.04850,104.58785 -75.35451,104.70720 -74.74355,104.46627 C -74.13259,104.22534 -74.43750,104.34691 -73.82876,104.10153 C -73.22001,103.85615 -73.52381,103.97995 -72.91732,103.73013 C -72.31084,103.48032 -72.61349,103.60633 -72.00930,103.35210 C -71.40511,103.09787 -71.70661,103.22608 -71.10475,102.96744 C -70.50290,102.70881 -70.80322,102.83922 -70.20373,102.57619 C -69.60424,102.31317 -69.90337,102.44577 -69.30629,102.17837 C -68.70921,101.91098 -69.00713,102.04576 -68.41249,101.77401 C -67.81786,101.50226 -68.11454,101.63921 -67.52238,101.36312 C -66.93023,101.08703 -67.22566,101.22615 -66.63603,100.94573 C -66.04639,100.66532 -66.34056,100.80659 -65.75347,100.52187 C -65.16639,100.23715 -65.45927,100.38058 -64.87478,100.09157 C -64.29029,99.80256 -64.58186,99.94812 -64.00000,99.65484 C -63.41814,99.36156 -63.70839,99.50926 -63.12919,99.21172 C -62.54999,98.91419 -62.83890,99.06401 -62.26240,98.76224 C -61.68589,98.46047 -61.97345,98.61240 -61.39968,98.30641 C -60.82591,98.00043 -61.11209,98.15446 -60.54109,97.84428 C -59.97010,97.53409 -60.25488,97.69022 -59.68669,97.37586 C -59.11850,97.06149 -59.40187,97.21971 -58.83652,96.90118 C -58.27117,96.58266 -58.55311,96.74295 -57.99064,96.42029 C -57.42816,96.09762 -57.70866,96.25998 -57.14909,95.93319 C -56.58953,95.60641 -56.86856,95.77082 -56.31194,95.43993 C -55.75533,95.10905 -56.03288,95.27550 -55.47924,94.94054 C -54.92560,94.60558 -55.20165,94.77407 -54.65103,94.43504 C -54.10041,94.09602 -54.37494,94.26653 -53.82737,93.92347 C -53.27979,93.58042 -53.55280,93.75294 -53.00830,93.40587 C -52.46381,93.05879 -52.73526,93.23332 -52.19389,92.88225 C -51.65251,92.53118 -51.92240,92.70770 -51.38417,92.35265 C -50.84595,91.99761 -51.11425,92.17611 -50.57921,91.81712 C -50.04416,91.45812 -50.31087,91.63859 -49.77904,91.27567 C -49.24721,90.91275 -49.51230,91.09518 -48.98372,90.72835 C -48.45515,90.36152 -48.71860,90.54590 -48.19331,90.17519 C -47.66801,89.80448 -47.92982,89.99079 -47.40783,89.61622 C -46.88585,89.24165 -47.14599,89.42989 -46.62736,89.05148 C -46.10873,88.67307 -46.36719,88.86322 -45.85193,88.48100 C -45.33667,88.09879 -45.59344,88.29083 -45.08159,87.90483 C -44.56975,87.51882 -44.82480,87.71276 -44.31640,87.32299 C -43.80799,86.93322 -44.06132,87.12903 -43.55639,86.73552 C -43.05146,86.34201 -43.30304,86.53968 -42.80161,86.14246 C -42.30019,85.74524 -42.55001,85.94476 -42.05212,85.54385 C -41.55424,85.14293 -41.80228,85.34430 -41.30796,84.93972 C -40.81364,84.53514 -41.05989,84.73833 -40.56917,84.33012 C -40.07845,83.92190 -40.32289,84.12690 -39.83580,83.71507 C -39.34871,83.30324 -39.59133,83.51005 -39.10790,83.09463 C -38.62447,82.67922 -38.86525,82.88780 -38.38550,82.46883 C -37.90576,82.04985 -38.14469,82.26021 -37.66867,81.83770 C -37.19264,81.41519 -37.42971,81.62732 -36.95743,81.20130 C -36.48515,80.77528 -36.72034,80.98915 -36.25184,80.55965 C -35.78334,80.13016 -36.01663,80.34576 -35.55193,79.91281 C -35.08724,79.47986 -35.31862,79.69718 -34.85776,79.26081 C -34.39690,78.82443 -34.62635,79.04346 -34.16936,78.60368 C -33.71237,78.16391 -33.93988,78.38463 -33.48678,77.94149 C -33.03368,77.49835 -33.25924,77.72074 -32.81005,77.27426 C -32.36087,76.82777 -32.58447,77.05183 -32.13923,76.60204 C -31.69400,76.15224 -31.91561,76.37795 -31.47435,75.92487 C -31.03310,75.47179 -31.25271,75.69913 -30.81546,75.24279 C -30.37820,74.78646 -30.59581,75.01542 -30.16259,74.55586 C -29.72936,74.09630 -29.94495,74.32687 -29.51578,73.86411 C -29.08662,73.40135 -29.30017,73.63351 -28.87508,73.16758 C -28.45000,72.70165 -28.66151,72.93539 -28.24053,72.46633 C -27.81956,71.99726 -28.02900,72.23256 -27.61216,71.76039 C -27.19532,71.28821 -27.40269,71.52506 -26.99001,71.04981 C -26.57734,70.57456 -26.78262,70.81293 -26.37413,70.33464 C -25.96564,69.85634 -26.16882,70.09623 -25.76455,69.61492 C -25.36027,69.13360 -25.56134,69.37499 -25.16130,68.89070 C -24.76126,68.40640 -24.96021,68.64927 -24.56443,68.16202 C -24.16865,67.67476 -24.36546,67.91911 -23.97397,67.42893 C -23.58248,66.93876 -23.77714,67.18456 -23.38996,66.69149 C -23.00279,66.19842 -23.19528,66.44565 -22.81244,65.94972 C -22.42960,65.45379 -22.61992,65.70245 -22.24144,65.20370 C -21.86295,64.70494 -22.05109,64.95500 -21.67699,64.45345 C -21.30289,63.95189 -21.48883,64.20335 -21.11914,63.69903 C -20.74944,63.19471 -20.93317,63.44754 -20.56791,62.94049 C -20.20264,62.43344 -20.38415,62.68763 -20.02334,62.17787 C -19.66252,61.66812 -19.84180,61.92365 -19.48546,61.41124 C -19.12912,60.89882 -19.30616,61.15567 -18.95432,60.64062 C -18.60247,60.12557 -18.77726,60.38373 -18.42993,59.86608 C -18.08260,59.34843 -18.25512,59.60789 -17.91233,59.08767 C -17.56955,58.56745 -17.73979,58.82818 -17.40156,58.30542 C -17.06334,57.78267 -17.23130,58.04466 -16.89765,57.51941 C -16.56400,56.99415 -16.72967,57.25738 -16.40063,56.72966 C -16.07158,56.20195 -16.23494,56.46640 -15.91052,55.93625 C -15.58610,55.40610 -15.74714,55.67176 -15.42736,55.13921 C -15.10758,54.60666 -15.26630,54.87351 -14.95118,54.33860 C -14.63606,53.80368 -14.79244,54.07171 -14.48201,53.53447 C -14.17157,52.99722 -14.32561,53.26641 -14.01988,52.72687 C -13.71414,52.18733 -13.86582,52.45765 -13.56481,51.91585 C -13.26380,51.37406 -13.41311,51.64550 -13.11684,51.10148 C -12.82056,50.55745 -12.96750,50.83000 -12.67598,50.28379 C -12.38447,49.73757 -12.52903,50.01120 -12.24228,49.46284 C -11.95554,48.91447 -12.09771,49.18917 -11.81576,48.63868 C -11.53381,48.08820 -11.67357,48.36395 -11.39644,47.81138 C -11.11930,47.25881 -11.25665,47.53559 -10.98434,46.98097 C -10.71203,46.42635 -10.84697,46.70415 -10.57950,46.14752 C -10.31204,45.59089 -10.44455,45.86969 -10.18194,45.31108 C -9.91934,44.75247 -10.04941,45.03225 -9.79169,44.47170 C -9.53396,43.91116 -9.66159,44.19189 -9.40876,43.62944 C -9.15592,43.06699 -9.28111,43.34867 -9.03318,42.78435 C -8.78526,42.22003 -8.90798,42.50264 -8.66498,41.93649 C -8.42198,41.37034 -8.54224,41.65385 -8.30418,41.08590 C -8.06612,40.51796 -8.18391,40.80236 -7.95080,40.23266 C -7.71769,39.66296 -7.83300,39.94822 -7.60486,39.37680 C -7.37672,38.80538 -7.48954,39.09150 -7.26638,38.51839 C -7.04323,37.94529 -7.15355,38.23224 -6.93539,37.65748 C -6.71723,37.08273 -6.82506,37.37050 -6.61191,36.79413 C -6.39876,36.21777 -6.50407,36.50633 -6.29595,35.92840 C -6.08782,35.35046 -6.19062,35.63980 -5.98753,35.06033 C -5.78444,34.48086 -5.88472,34.77096 -5.68668,34.18999 C -5.48864,33.60902 -5.58639,33.89986 -5.39341,33.31743 C -5.20043,32.73501 -5.29565,33.02656 -5.10774,32.44271 C -4.91984,31.85886 -5.01252,32.15112 -4.82970,31.56589 C -4.64688,30.98066 -4.73701,31.27359 -4.55928,30.68702 C -4.38156,30.10044 -4.46914,30.39404 -4.29652,29.80615 C -4.12391,29.21827 -4.20893,29.51251 -4.04143,28.92336 C -3.87393,28.33420 -3.95640,28.62907 -3.79402,28.03868 C -3.63165,27.44829 -3.71155,27.74377 -3.55432,27.15219 C -3.39708,26.56061 -3.47441,26.85667 -3.32233,26.26394 C -3.17024,25.67120 -3.24499,25.96783 -3.09806,25.37398 C -2.95114,24.78012 -3.02330,25.07731 -2.88154,24.48237 C -2.73978,23.88744 -2.80937,24.18515 -2.67278,23.58918 C -2.53620,22.99321 -2.60319,23.29143 -2.47179,22.69445 C -2.34039,22.09748 -2.40479,22.39619 -2.27858,21.79826 C -2.15237,21.20032 -2.21417,21.49951 -2.09316,20.90065 C -1.97215,20.30179 -2.03135,20.60142 -1.91555,20.00168 C -1.79975,19.40193 -1.85634,19.70200 -1.74575,19.10141 C -1.63517,18.50082 -1.68915,18.80130 -1.58379,18.19991 C -1.47842,17.59851 -1.52979,17.89938 -1.42965,17.29722 C -1.32952,16.69505 -1.37827,16.99630 -1.28337,16.39341 C -1.18847,15.79051 -1.23461,16.09212 -1.14494,15.48854 C -1.05528,14.88495 -1.09880,15.18689 -1.01438,14.58266 C -0.92996,13.97842 -0.97085,14.28068 -0.89169,13.67583 C -0.81252,13.07098 -0.85079,13.37354 -0.77687,12.76812 C -0.70296,12.16270 -0.73860,12.46553 -0.66995,11.85958 C -0.60130,11.25362 -0.63430,11.55671 -0.57092,10.95026 C -0.50753,10.34382 -0.53791,10.64714 -0.47979,10.04024 C -0.42167,9.43334 -0.44941,9.73688 -0.39656,9.12957 C -0.34371,8.52225 -0.36882,8.82599 -0.32125,8.21830 C -0.27367,7.61061 -0.29614,7.91452 -0.25385,7.30650 C -0.21155,6.69847 -0.23138,7.00255 -0.19437,6.39423 C -0.15735,5.78590 -0.17454,6.09011 -0.14281,5.48154 C -0.11108,4.87296 -0.12562,5.17729 -0.09918,4.56849 C -0.07273,3.95969 -0.08463,4.26412 -0.06348,3.65515 C -0.04232,3.04617 -0.05158,3.35068 -0.03571,2.74157 C -0.01984,2.13246 -0.02645,2.43702 -0.01587,1.82781 C -0.00529,1.21860 -0.00926,1.52321 -0.00397,0.91394 C 0.00132,0.30466 0.00000,0.60929 0.00000,-0.00000 Z" style="fill:#b7c2dd;fill-opacity:0.7;stroke:#000;stroke-width:0.8px;stroke-linejoin:round"/>
    <circle cx="-200.000" cy="0.000" r="3.000" style="fill:#dd2200;stroke:none"/>
    <circle cx="-80.000" cy="0" r="3.000" style="fill:none;stroke:#00aa33;stroke-width:0.7px;stroke-dasharray:1.5,1"/>
    <path d="M -200.000,0 L -155.171,-3.922" style="fill:none;stroke:#ff6600;stroke-width:1px"/>
    <path d="M -200.000,0 L -155.096,-2.943" style="fill:none;stroke:#ff6600;stroke-width:1px"/>
    <path d="M -200.000,0 L -155.043,-1.963" style="fill:none;stroke:#ff6600;stroke-width:1px"/>
    <path d="M -200.000,0 L -155.011,-0.982" style="fill:none;stroke:#ff6600;stroke-width:1px"/>
    <path d="M -200.000,0 L -155.000,0.000" style="fill:none;stroke:#ff6600;stroke-width:1px"/>
    <path d="M -200.000,0 L -155.011,0.982" style="fill:none;stroke:#ff6600;stroke-width:1px"/>
    <path d="M -200.000,0 L -155.043,1.963" style="fill:none;stroke:#ff6600;stroke-width:1px"/>
    <path d="M -200.000,0 L -155.096,2.943" style="fill:none;stroke:#ff6600;stroke-width:1px"/>
    <path d="M -200.000,0 L -155.171,3.922" style="fill:none;stroke:#ff6600;stroke-width:1px"/>
  </g>
</svg>
