<svg xmlns:inkscape="http://www.inkscape.org/namespaces/inkscape" xmlns:sodipodi="http://sodipodi.sourceforge.net/DTD/sodipodi-0.0.dtd" xmlns="http://www.w3.org/2000/svg" xmlns:xlink="http://www.w3.org/1999/xlink" version="1.1" width="520.00" height="157.64" viewBox="0 0 520.00 157.64" inkscape:version="1.4" sodipodi:docname="lsoe_raytracing.svg">
  <sodipodi:namedview inkscape:current-layer="layer1" inkscape:document-units="px" units="px"/>
  <g inkscape:label="Layer 1" inkscape:groupmode="layer" id="layer1" transform="translate(220, 78.822)">

    <!-- Eje &#243;ptico -->
    <path style="fill:none;stroke:#aaaaaa;stroke-width:0.5px;stroke-dasharray:6,3" d="M -208.000,0 L 288.000,0"/>

    <!-- Lente LSOE (&#963;=0.0, n&#8321;=1.6) -->
    <path style="opacity:0.8;fill:#b7c2dd;stroke:#000000;stroke-width:0.8px;stroke-linejoin:round" d="M 0.00000,0.00000 L 0.00000,-0.00062 L 0.00000,-0.00247 L 0.00000,-0.00556 L 0.00000,-0.00988 L 0.00000,-0.01544 L 0.00000,-0.02223 L 0.00000,-0.03026 L 0.00001,-0.03952 L 0.00001,-0.05001 L 0.00002,-0.06175 L 0.00003,-0.07471 L 0.00004,-0.08891 L 0.00005,-0.10435 L 0.00007,-0.12102 L 0.00009,-0.13892 L 0.00011,-0.15806 L 0.00014,-0.17844 L 0.00018,-0.20005 L 0.00022,-0.22289 L 0.00027,-0.24697 L 0.00033,-0.27228 L 0.00040,-0.29882 L 0.00048,-0.32660 L 0.00057,-0.35562 L 0.00067,-0.38587 L 0.00078,-0.41735 L 0.00091,-0.45007 L 0.00105,-0.48402 L 0.00121,-0.51920 L 0.00139,-0.55562 L 0.00158,-0.59327 L 0.00180,-0.63215 L 0.00203,-0.67227 L 0.00229,-0.71362 L 0.00257,-0.75620 L 0.00288,-0.80002 L 0.00321,-0.84507 L 0.00357,-0.89135 L 0.00396,-0.93887 L 0.00438,-0.98761 L 0.00484,-1.03759 L 0.00533,-1.08880 L 0.00585,-1.14125 L 0.00642,-1.19492 L 0.00702,-1.24983 L 0.00766,-1.30597 L 0.00835,-1.36334 L 0.00909,-1.42194 L 0.00987,-1.48177 L 0.01070,-1.54284 L 0.01158,-1.60513 L 0.01251,-1.66866 L 0.01350,-1.73341 L 0.01455,-1.79940 L 0.01566,-1.86661 L 0.01683,-1.93506 L 0.01806,-2.00473 L 0.01936,-2.07563 L 0.02073,-2.14777 L 0.02217,-2.22113 L 0.02368,-2.29572 L 0.02527,-2.37153 L 0.02694,-2.44858 L 0.02869,-2.52685 L 0.03052,-2.60635 L 0.03244,-2.68708 L 0.03445,-2.76904 L 0.03655,-2.85222 L 0.03874,-2.93663 L 0.04104,-3.02226 L 0.04343,-3.10912 L 0.04592,-3.19721 L 0.04852,-3.28652 L 0.05123,-3.37705 L 0.05405,-3.46881 L 0.05699,-3.56180 L 0.06004,-3.65601 L 0.06321,-3.75144 L 0.06651,-3.84809 L 0.06993,-3.94597 L 0.07349,-4.04507 L 0.07717,-4.14539 L 0.08100,-4.24693 L 0.08496,-4.34970 L 0.08907,-4.45368 L 0.09332,-4.55889 L 0.09773,-4.66531 L 0.10228,-4.77296 L 0.10700,-4.88182 L 0.11187,-4.99190 L 0.11691,-5.10320 L 0.12212,-5.21572 L 0.12750,-5.32945 L 0.13305,-5.44440 L 0.13878,-5.56057 L 0.14469,-5.67795 L 0.15079,-5.79655 L 0.15708,-5.91636 L 0.16356,-6.03739 L 0.17024,-6.15963 L 0.17712,-6.28308 L 0.18420,-6.40774 L 0.19150,-6.53362 L 0.19901,-6.66070 L 0.20673,-6.78900 L 0.21468,-6.91851 L 0.22285,-7.04922 L 0.23125,-7.18115 L 0.23988,-7.31428 L 0.24875,-7.44862 L 0.25787,-7.58416 L 0.26723,-7.72091 L 0.27684,-7.85887 L 0.28670,-7.99803 L 0.29682,-8.13839 L 0.30721,-8.27996 L 0.31786,-8.42273 L 0.32878,-8.56670 L 0.33999,-8.71187 L 0.35147,-8.85824 L 0.36323,-9.00581 L 0.37529,-9.15458 L 0.38764,-9.30454 L 0.40029,-9.45570 L 0.41324,-9.60806 L 0.42650,-9.76161 L 0.44007,-9.91636 L 0.45396,-10.07230 L 0.46817,-10.22942 L 0.48271,-10.38775 L 0.49757,-10.54726 L 0.51278,-10.70796 L 0.52832,-10.86984 L 0.54421,-11.03292 L 0.56044,-11.19718 L 0.57704,-11.36263 L 0.59399,-11.52926 L 0.61130,-11.69707 L 0.62899,-11.86607 L 0.64704,-12.03624 L 0.66548,-12.20760 L 0.68430,-12.38013 L 0.70351,-12.55384 L 0.72311,-12.72873 L 0.74311,-12.90480 L 0.76351,-13.08203 L 0.78432,-13.26044 L 0.80554,-13.44003 L 0.82718,-13.62078 L 0.84925,-13.80270 L 0.87174,-13.98579 L 0.89466,-14.17005 L 0.91802,-14.35547 L 0.94183,-14.54205 L 0.96608,-14.72980 L 0.99078,-14.91871 L 1.01594,-15.10878 L 1.04157,-15.30001 L 1.06766,-15.49240 L 1.09422,-15.68594 L 1.12126,-15.88063 L 1.14878,-16.07648 L 1.17680,-16.27349 L 1.20530,-16.47164 L 1.23430,-16.67094 L 1.26380,-16.87138 L 1.29381,-17.07298 L 1.32433,-17.27572 L 1.35537,-17.47960 L 1.38693,-17.68462 L 1.41902,-17.89078 L 1.45164,-18.09808 L 1.48480,-18.30651 L 1.51850,-18.51608 L 1.55275,-18.72679 L 1.58755,-18.93862 L 1.62290,-19.15159 L 1.65882,-19.36568 L 1.69530,-19.58090 L 1.73236,-19.79724 L 1.76999,-20.01471 L 1.80820,-20.23330 L 1.84700,-20.45301 L 1.88639,-20.67383 L 1.92637,-20.89577 L 1.96695,-21.11883 L 2.00814,-21.34300 L 2.04994,-21.56828 L 2.09235,-21.79467 L 2.13539,-22.02216 L 2.17904,-22.25076 L 2.22332,-22.48046 L 2.26824,-22.71127 L 2.31379,-22.94317 L 2.35999,-23.17617 L 2.40683,-23.41027 L 2.45433,-23.64546 L 2.50247,-23.88174 L 2.55128,-24.11912 L 2.60076,-24.35758 L 2.65090,-24.59712 L 2.70171,-24.83775 L 2.75321,-25.07946 L 2.80538,-25.32225 L 2.85824,-25.56612 L 2.91179,-25.81107 L 2.96604,-26.05708 L 3.02098,-26.30417 L 3.07663,-26.55233 L 3.13298,-26.80156 L 3.19004,-27.05185 L 3.24782,-27.30320 L 3.30632,-27.55562 L 3.36554,-27.80910 L 3.42549,-28.06363 L 3.48616,-28.31921 L 3.54758,-28.57585 L 3.60973,-28.83354 L 3.67262,-29.09228 L 3.73626,-29.35206 L 3.80064,-29.61289 L 3.86578,-29.87476 L 3.93168,-30.13767 L 3.99833,-30.40161 L 4.06575,-30.66659 L 4.13394,-30.93261 L 4.20290,-31.19965 L 4.27263,-31.46773 L 4.34313,-31.73682 L 4.41442,-32.00695 L 4.48649,-32.27809 L 4.55935,-32.55026 L 4.63300,-32.82344 L 4.70744,-33.09764 L 4.78267,-33.37285 L 4.85870,-33.64907 L 4.93554,-33.92630 L 5.01318,-34.20454 L 5.09163,-34.48378 L 5.17088,-34.76402 L 5.25095,-35.04526 L 5.33184,-35.32750 L 5.41354,-35.61073 L 5.49607,-35.89495 L 5.57942,-36.18017 L 5.66359,-36.46637 L 5.74859,-36.75356 L 5.83442,-37.04174 L 5.92109,-37.33089 L 6.00859,-37.62103 L 6.09692,-37.91214 L 6.18610,-38.20422 L 6.27612,-38.49728 L 6.36698,-38.79131 L 6.45868,-39.08631 L 6.55124,-39.38227 L 6.64464,-39.67920 L 6.73890,-39.97708 L 6.83401,-40.27593 L 6.92997,-40.57573 L 7.02679,-40.87649 L 7.12447,-41.17820 L 7.22300,-41.48086 L 7.32240,-41.78447 L 7.42266,-42.08902 L 7.52379,-42.39452 L 7.62578,-42.70096 L 7.72864,-43.00834 L 7.83237,-43.31666 L 7.93696,-43.62591 L 8.04243,-43.93609 L 8.14877,-44.24721 L 8.25598,-44.55925 L 8.36407,-44.87222 L 8.47303,-45.18612 L 8.58287,-45.50093 L 8.69358,-45.81667 L 8.80517,-46.13332 L 8.91764,-46.45090 L 9.03099,-46.76938 L 9.14522,-47.08878 L 9.26033,-47.40908 L 9.37632,-47.73030 L 9.49319,-48.05242 L 9.61094,-48.37544 L 9.72958,-48.69937 L 9.85724,-48.61499 L 9.98532,-48.29347 L 10.11235,-47.97280 L 10.23834,-47.65298 L 10.36328,-47.33401 L 10.48719,-47.01589 L 10.61005,-46.69863 L 10.73187,-46.38224 L 10.85266,-46.06670 L 10.97242,-45.75203 L 11.09115,-45.43823 L 11.20885,-45.12530 L 11.32553,-44.81325 L 11.44119,-44.50208 L 11.55583,-44.19178 L 11.66945,-43.88238 L 11.78207,-43.57386 L 11.89367,-43.26622 L 12.00426,-42.95949 L 12.11385,-42.65364 L 12.22244,-42.34870 L 12.33003,-42.04466 L 12.43663,-41.74153 L 12.54224,-41.43930 L 12.64686,-41.13798 L 12.75049,-40.83758 L 12.85314,-40.53809 L 12.95482,-40.23953 L 13.05552,-39.94188 L 13.15525,-39.64517 L 13.25401,-39.34938 L 13.35181,-39.05452 L 13.44864,-38.76060 L 13.54452,-38.46761 L 13.63945,-38.17557 L 13.73343,-37.88447 L 13.82646,-37.59431 L 13.91855,-37.30510 L 14.00970,-37.01685 L 14.09992,-36.72955 L 14.18921,-36.44321 L 14.27757,-36.15783 L 14.36501,-35.87341 L 14.45153,-35.58996 L 14.53714,-35.30747 L 14.62184,-35.02596 L 14.70563,-34.74542 L 14.78852,-34.46587 L 14.87051,-34.18729 L 14.95162,-33.90969 L 15.03183,-33.63308 L 15.11116,-33.35746 L 15.18960,-33.08283 L 15.26718,-32.80920 L 15.34388,-32.53656 L 15.41971,-32.26492 L 15.49469,-31.99428 L 15.56881,-31.72465 L 15.64207,-31.45603 L 15.71449,-31.18841 L 15.78606,-30.92181 L 15.85679,-30.65623 L 15.92669,-30.39166 L 15.99576,-30.12811 L 16.06401,-29.86559 L 16.13144,-29.60409 L 16.19805,-29.34362 L 16.26385,-29.08419 L 16.32885,-28.82578 L 16.39305,-28.56842 L 16.45645,-28.31209 L 16.51906,-28.05680 L 16.58089,-27.80256 L 16.64194,-27.54936 L 16.70221,-27.29721 L 16.76172,-27.04612 L 16.82045,-26.79607 L 16.87843,-26.54709 L 16.93566,-26.29916 L 16.99213,-26.05229 L 17.04786,-25.80648 L 17.10286,-25.56174 L 17.15712,-25.31807 L 17.21065,-25.07547 L 17.26345,-24.83394 L 17.31554,-24.59348 L 17.36692,-24.35410 L 17.41759,-24.11580 L 17.46756,-23.87859 L 17.51683,-23.64245 L 17.56541,-23.40740 L 17.61331,-23.17344 L 17.66052,-22.94057 L 17.70706,-22.70879 L 17.75293,-22.47810 L 17.79814,-22.24851 L 17.84269,-22.02002 L 17.88658,-21.79263 L 17.92983,-21.56635 L 17.97243,-21.34116 L 18.01440,-21.11709 L 18.05573,-20.89412 L 18.09644,-20.67226 L 18.13653,-20.45151 L 18.17601,-20.23188 L 18.21487,-20.01336 L 18.25313,-19.79597 L 18.29079,-19.57969 L 18.32786,-19.36453 L 18.36434,-19.15050 L 18.40024,-18.93759 L 18.43556,-18.72581 L 18.47032,-18.51516 L 18.50450,-18.30564 L 18.53813,-18.09725 L 18.57120,-17.89000 L 18.60372,-17.68388 L 18.63570,-17.47890 L 18.66714,-17.27506 L 18.69805,-17.07236 L 18.72843,-16.87080 L 18.75828,-16.67039 L 18.78763,-16.47112 L 18.81646,-16.27300 L 18.84478,-16.07602 L 18.87261,-15.88020 L 18.89994,-15.68553 L 18.92678,-15.49201 L 18.95314,-15.29965 L 18.97902,-15.10844 L 19.00442,-14.91839 L 19.02936,-14.72950 L 19.05384,-14.54177 L 19.07785,-14.35520 L 19.10142,-14.16980 L 19.12454,-13.98556 L 19.14722,-13.80248 L 19.16946,-13.62057 L 19.19128,-13.43983 L 19.21266,-13.26026 L 19.23363,-13.08187 L 19.25418,-12.90464 L 19.27433,-12.72859 L 19.29406,-12.55371 L 19.31340,-12.38000 L 19.33235,-12.20748 L 19.35090,-12.03613 L 19.36907,-11.86596 L 19.38686,-11.69697 L 19.40428,-11.52917 L 19.42133,-11.36254 L 19.43801,-11.19710 L 19.45434,-11.03285 L 19.47031,-10.86978 L 19.48593,-10.70789 L 19.50121,-10.54720 L 19.51615,-10.38769 L 19.53075,-10.22938 L 19.54503,-10.07225 L 19.55898,-9.91631 L 19.57261,-9.76157 L 19.58592,-9.60802 L 19.59892,-9.45567 L 19.61162,-9.30451 L 19.62402,-9.15455 L 19.63612,-9.00578 L 19.64792,-8.85822 L 19.65944,-8.71185 L 19.67068,-8.56668 L 19.68164,-8.42271 L 19.69233,-8.27994 L 19.70274,-8.13838 L 19.71289,-7.99802 L 19.72279,-7.85886 L 19.73242,-7.72090 L 19.74180,-7.58415 L 19.75094,-7.44861 L 19.75983,-7.31427 L 19.76849,-7.18114 L 19.77691,-7.04921 L 19.78509,-6.91850 L 19.79306,-6.78899 L 19.80080,-6.66070 L 19.80832,-6.53361 L 19.81563,-6.40774 L 19.82273,-6.28307 L 19.82962,-6.15962 L 19.83631,-6.03738 L 19.84280,-5.91636 L 19.84910,-5.79655 L 19.85521,-5.67795 L 19.86113,-5.56057 L 19.86687,-5.44440 L 19.87242,-5.32945 L 19.87781,-5.21572 L 19.88302,-5.10320 L 19.88806,-4.99190 L 19.89294,-4.88182 L 19.89766,-4.77296 L 19.90223,-4.66531 L 19.90663,-4.55889 L 19.91089,-4.45368 L 19.91500,-4.34970 L 19.91897,-4.24693 L 19.92280,-4.14539 L 19.92649,-4.04507 L 19.93004,-3.94597 L 19.93347,-3.84809 L 19.93677,-3.75144 L 19.93994,-3.65601 L 19.94300,-3.56180 L 19.94594,-3.46881 L 19.94876,-3.37705 L 19.95147,-3.28652 L 19.95407,-3.19721 L 19.95656,-3.10912 L 19.95896,-3.02226 L 19.96125,-2.93663 L 19.96344,-2.85222 L 19.96555,-2.76904 L 19.96755,-2.68708 L 19.96947,-2.60635 L 19.97131,-2.52685 L 19.97306,-2.44858 L 19.97473,-2.37153 L 19.97632,-2.29572 L 19.97783,-2.22113 L 19.97927,-2.14777 L 19.98064,-2.07563 L 19.98194,-2.00473 L 19.98317,-1.93506 L 19.98434,-1.86661 L 19.98545,-1.79940 L 19.98650,-1.73341 L 19.98749,-1.66866 L 19.98842,-1.60513 L 19.98930,-1.54284 L 19.99013,-1.48177 L 19.99091,-1.42194 L 19.99165,-1.36334 L 19.99233,-1.30597 L 19.99298,-1.24983 L 19.99358,-1.19492 L 19.99415,-1.14125 L 19.99467,-1.08880 L 19.99516,-1.03759 L 19.99562,-0.98761 L 19.99604,-0.93887 L 19.99643,-0.89135 L 19.99679,-0.84507 L 19.99712,-0.80002 L 19.99743,-0.75620 L 19.99771,-0.71362 L 19.99797,-0.67227 L 19.99820,-0.63215 L 19.99842,-0.59327 L 19.99861,-0.55562 L 19.99879,-0.51920 L 19.99895,-0.48402 L 19.99909,-0.45007 L 19.99922,-0.41735 L 19.99933,-0.38587 L 19.99943,-0.35562 L 19.99952,-0.32660 L 19.99960,-0.29882 L 19.99967,-0.27228 L 19.99973,-0.24697 L 19.99978,-0.22289 L 19.99982,-0.20005 L 19.99986,-0.17844 L 19.99989,-0.15806 L 19.99991,-0.13892 L 19.99993,-0.12102 L 19.99995,-0.10435 L 19.99996,-0.08891 L 19.99997,-0.07471 L 19.99998,-0.06175 L 19.99999,-0.05001 L 19.99999,-0.03952 L 20.00000,-0.03026 L 20.00000,-0.02223 L 20.00000,-0.01544 L 20.00000,-0.00988 L 20.00000,-0.00556 L 20.00000,-0.00247 L 20.00000,-0.00062 L 20.00000,-0.00000 L 20.00000,0.00062 L 20.00000,0.00247 L 20.00000,0.00556 L 20.00000,0.00988 L 20.00000,0.01544 L 20.00000,0.02223 L 20.00000,0.03026 L 19.99999,0.03952 L 19.99999,0.05001 L 19.99998,0.06175 L 19.99997,0.07471 L 19.99996,0.08891 L 19.99995,0.10435 L 19.99993,0.12102 L 19.99991,0.13892 L 19.99989,0.15806 L 19.99986,0.17844 L 19.99982,0.20005 L 19.99978,0.22289 L 19.99973,0.24697 L 19.99967,0.27228 L 19.99960,0.29882 L 19.99952,0.32660 L 19.99943,0.35562 L 19.99933,0.38587 L 19.99922,0.41735 L 19.99909,0.45007 L 19.99895,0.48402 L 19.99879,0.51920 L 19.99861,0.55562 L 19.99842,0.59327 L 19.99820,0.63215 L 19.99797,0.67227 L 19.99771,0.71362 L 19.99743,0.75620 L 19.99712,0.80002 L 19.99679,0.84507 L 19.99643,0.89135 L 19.99604,0.93887 L 19.99562,0.98761 L 19.99516,1.03759 L 19.99467,1.08880 L 19.99415,1.14125 L 19.99358,1.19492 L 19.99298,1.24983 L 19.99233,1.30597 L 19.99165,1.36334 L 19.99091,1.42194 L 19.99013,1.48177 L 19.98930,1.54284 L 19.98842,1.60513 L 19.98749,1.66866 L 19.98650,1.73341 L 19.98545,1.79940 L 19.98434,1.86661 L 19.98317,1.93506 L 19.98194,2.00473 L 19.98064,2.07563 L 19.97927,2.14777 L 19.97783,2.22113 L 19.97632,2.29572 L 19.97473,2.37153 L 19.97306,2.44858 L 19.97131,2.52685 L 19.96947,2.60635 L 19.96755,2.68708 L 19.96555,2.76904 L 19.96344,2.85222 L 19.96125,2.93663 L 19.95896,3.02226 L 19.95656,3.10912 L 19.95407,3.19721 L 19.95147,3.28652 L 19.94876,3.37705 L 19.94594,3.46881 L 19.94300,3.56180 L 19.93994,3.65601 L 19.93677,3.75144 L 19.93347,3.84809 L 19.93004,3.94597 L 19.92649,4.04507 L 19.92280,4.14539 L 19.91897,4.24693 L 19.91500,4.34970 L 19.91089,4.45368 L 19.90663,4.55889 L 19.90223,4.66531 L 19.89766,4.77296 L 19.89294,4.88182 L 19.88806,4.99190 L 19.88302,5.10320 L 19.87781,5.21572 L 19.87242,5.32945 L 19.86687,5.44440 L 19.86113,5.56057 L 19.85521,5.67795 L 19.84910,5.79655 L 19.84280,5.91636 L 19.83631,6.03738 L 19.82962,6.15962 L 19.82273,6.28307 L 19.81563,6.40774 L 19.80832,6.53361 L 19.80080,6.66070 L 19.79306,6.78899 L 19.78509,6.91850 L 19.77691,7.04921 L 19.76849,7.18114 L 19.75983,7.31427 L 19.75094,7.44861 L 19.74180,7.58415 L 19.73242,7.72090 L 19.72279,7.85886 L 19.71289,7.99802 L 19.70274,8.13838 L 19.69233,8.27994 L 19.68164,8.42271 L 19.67068,8.56668 L 19.65944,8.71185 L 19.64792,8.85822 L 19.63612,9.00578 L 19.62402,9.15455 L 19.61162,9.30451 L 19.59892,9.45567 L 19.58592,9.60802 L 19.57261,9.76157 L 19.55898,9.91631 L 19.54503,10.07225 L 19.53075,10.22938 L 19.51615,10.38769 L 19.50121,10.54720 L 19.48593,10.70789 L 19.47031,10.86978 L 19.45434,11.03285 L 19.43801,11.19710 L 19.42133,11.36254 L 19.40428,11.52917 L 19.38686,11.69697 L 19.36907,11.86596 L 19.35090,12.03613 L 19.33235,12.20748 L 19.31340,12.38000 L 19.29406,12.55371 L 19.27433,12.72859 L 19.25418,12.90464 L 19.23363,13.08187 L 19.21266,13.26026 L 19.19128,13.43983 L 19.16946,13.62057 L 19.14722,13.80248 L 19.12454,13.98556 L 19.10142,14.16980 L 19.07785,14.35520 L 19.05384,14.54177 L 19.02936,14.72950 L 19.00442,14.91839 L 18.97902,15.10844 L 18.95314,15.29965 L 18.92678,15.49201 L 18.89994,15.68553 L 18.87261,15.88020 L 18.84478,16.07602 L 18.81646,16.27300 L 18.78763,16.47112 L 18.75828,16.67039 L 18.72843,16.87080 L 18.69805,17.07236 L 18.66714,17.27506 L 18.63570,17.47890 L 18.60372,17.68388 L 18.57120,17.89000 L 18.53813,18.09725 L 18.50450,18.30564 L 18.47032,18.51516 L 18.43556,18.72581 L 18.40024,18.93759 L 18.36434,19.15050 L 18.32786,19.36453 L 18.29079,19.57969 L 18.25313,19.79597 L 18.21487,20.01336 L 18.17601,20.23188 L 18.13653,20.45151 L 18.09644,20.67226 L 18.05573,20.89412 L 18.01440,21.11709 L 17.97243,21.34116 L 17.92983,21.56635 L 17.88658,21.79263 L 17.84269,22.02002 L 17.79814,22.24851 L 17.75293,22.47810 L 17.70706,22.70879 L 17.66052,22.94057 L 17.61331,23.17344 L 17.56541,23.40740 L 17.51683,23.64245 L 17.46756,23.87859 L 17.41759,24.11580 L 17.36692,24.35410 L 17.31554,24.59348 L 17.26345,24.83394 L 17.21065,25.07547 L 17.15712,25.31807 L 17.10286,25.56174 L 17.04786,25.80648 L 16.99213,26.05229 L 16.93566,26.29916 L 16.87843,26.54709 L 16.82045,26.79607 L 16.76172,27.04612 L 16.70221,27.29721 L 16.64194,27.54936 L 16.58089,27.80256 L 16.51906,28.05680 L 16.45645,28.31209 L 16.39305,28.56842 L 16.32885,28.82578 L 16.26385,29.08419 L 16.19805,29.34362 L 16.13144,29.60409 L 16.06401,29.86559 L 15.99576,30.12811 L 15.92669,30.39166 L 15.85679,30.65623 L 15.78606,30.92181 L 15.71449,31.18841 L 15.64207,31.45603 L 15.56881,31.72465 L 15.49469,31.99428 L 15.41971,32.26492 L 15.34388,32.53656 L 15.26718,32.80920 L 15.18960,33.08283 L 15.11116,33.35746 L 15.03183,33.63308 L 14.95162,33.90969 L 14.87051,34.18729 L 14.78852,34.46587 L 14.70563,34.74542 L 14.62184,35.02596 L 14.53714,35.30747 L 14.45153,35.58996 L 14.36501,35.87341 L 14.27757,36.15783 L 14.18921,36.44321 L 14.09992,36.72955 L 14.00970,37.01685 L 13.91855,37.30510 L 13.82646,37.59431 L 13.73343,37.88447 L 13.63945,38.17557 L 13.54452,38.46761 L 13.44864,38.76060 L 13.35181,39.05452 L 13.25401,39.34938 L 13.15525,39.64517 L 13.05552,39.94188 L 12.95482,40.23953 L 12.85314,40.53809 L 12.75049,40.83758 L 12.64686,41.13798 L 12.54224,41.43930 L 12.43663,41.74153 L 12.33003,42.04466 L 12.22244,42.34870 L 12.11385,42.65364 L 12.00426,42.95949 L 11.89367,43.26622 L 11.78207,43.57386 L 11.66945,43.88238 L 11.55583,44.19178 L 11.44119,44.50208 L 11.32553,44.81325 L 11.20885,45.12530 L 11.09115,45.43823 L 10.97242,45.75203 L 10.85266,46.06670 L 10.73187,46.38224 L 10.61005,46.69863 L 10.48719,47.01589 L 10.36328,47.33401 L 10.23834,47.65298 L 10.11235,47.97280 L 9.98532,48.29347 L 9.85724,48.61499 L 9.72958,48.69937 L 9.61094,48.37544 L 9.49319,48.05242 L 9.37632,47.73030 L 9.26033,47.40908 L 9.14522,47.08878 L 9.03099,46.76938 L 8.91764,46.45090 L 8.80517,46.13332 L 8.69358,45.81667 L 8.58287,45.50093 L 8.47303,45.18612 L 8.36407,44.87222 L 8.25598,44.55925 L 8.14877,44.24721 L 8.04243,43.93609 L 7.93696,43.62591 L 7.83237,43.31666 L 7.72864,43.00834 L 7.62578,42.70096 L 7.52379,42.39452 L 7.42266,42.08902 L 7.32240,41.78447 L 7.22300,41.48086 L 7.12447,41.17820 L 7.02679,40.87649 L 6.92997,40.57573 L 6.83401,40.27593 L 6.73890,39.97708 L 6.64464,39.67920 L 6.55124,39.38227 L 6.45868,39.08631 L 6.36698,38.79131 L 6.27612,38.49728 L 6.18610,38.20422 L 6.09692,37.91214 L 6.00859,37.62103 L 5.92109,37.33089 L 5.83442,37.04174 L 5.74859,36.75356 L 5.66359,36.46637 L 5.57942,36.18017 L 5.49607,35.89495 L 5.41354,35.61073 L 5.33184,35.32750 L 5.25095,35.04526 L 5.17088,34.76402 L 5.09163,34.48378 L 5.01318,34.20454 L 4.93554,33.92630 L 4.85870,33.64907 L 4.78267,33.37285 L 4.70744,33.09764 L 4.63300,32.82344 L 4.55935,32.55026 L 4.48649,32.27809 L 4.41442,32.00695 L 4.34313,31.73682 L 4.27263,31.46773 L 4.20290,31.19965 L 4.13394,30.93261 L 4.06575,30.66659 L 3.99833,30.40161 L 3.93168,30.13767 L 3.86578,29.87476 L 3.80064,29.61289 L 3.73626,29.35206 L 3.67262,29.09228 L 3.60973,28.83354 L 3.54758,28.57585 L 3.48616,28.31921 L 3.42549,28.06363 L 3.36554,27.80910 L 3.30632,27.55562 L 3.24782,27.30320 L 3.19004,27.05185 L 3.13298,26.80156 L 3.07663,26.55233 L 3.02098,26.30417 L 2.96604,26.05708 L 2.91179,25.81107 L 2.85824,25.56612 L 2.80538,25.32225 L 2.75321,25.07946 L 2.70171,24.83775 L 2.65090,24.59712 L 2.60076,24.35758 L 2.55128,24.11912 L 2.50247,23.88174 L 2.45433,23.64546 L 2.40683,23.41027 L 2.35999,23.17617 L 2.31379,22.94317 L 2.26824,22.71127 L 2.22332,22.48046 L 2.17904,22.25076 L 2.13539,22.02216 L 2.09235,21.79467 L 2.04994,21.56828 L 2.00814,21.34300 L 1.96695,21.11883 L 1.92637,20.89577 L 1.88639,20.67383 L 1.84700,20.45301 L 1.80820,20.23330 L 1.76999,20.01471 L 1.73236,19.79724 L 1.69530,19.58090 L 1.65882,19.36568 L 1.62290,19.15159 L 1.58755,18.93862 L 1.55275,18.72679 L 1.51850,18.51608 L 1.48480,18.30651 L 1.45164,18.09808 L 1.41902,17.89078 L 1.38693,17.68462 L 1.35537,17.47960 L 1.32433,17.27572 L 1.29381,17.07298 L 1.26380,16.87138 L 1.23430,16.67094 L 1.20530,16.47164 L 1.17680,16.27349 L 1.14878,16.07648 L 1.12126,15.88063 L 1.09422,15.68594 L 1.06766,15.49240 L 1.04157,15.30001 L 1.01594,15.10878 L 0.99078,14.91871 L 0.96608,14.72980 L 0.94183,14.54205 L 0.91802,14.35547 L 0.89466,14.17005 L 0.87174,13.98579 L 0.84925,13.80270 L 0.82718,13.62078 L 0.80554,13.44003 L 0.78432,13.26044 L 0.76351,13.08203 L 0.74311,12.90480 L 0.72311,12.72873 L 0.70351,12.55384 L 0.68430,12.38013 L 0.66548,12.20760 L 0.64704,12.03624 L 0.62899,11.86607 L 0.61130,11.69707 L 0.59399,11.52926 L 0.57704,11.36263 L 0.56044,11.19718 L 0.54421,11.03292 L 0.52832,10.86984 L 0.51278,10.70796 L 0.49757,10.54726 L 0.48271,10.38775 L 0.46817,10.22942 L 0.45396,10.07230 L 0.44007,9.91636 L 0.42650,9.76161 L 0.41324,9.60806 L 0.40029,9.45570 L 0.38764,9.30454 L 0.37529,9.15458 L 0.36323,9.00581 L 0.35147,8.85824 L 0.33999,8.71187 L 0.32878,8.56670 L 0.31786,8.42273 L 0.30721,8.27996 L 0.29682,8.13839 L 0.28670,7.99803 L 0.27684,7.85887 L 0.26723,7.72091 L 0.25787,7.58416 L 0.24875,7.44862 L 0.23988,7.31428 L 0.23125,7.18115 L 0.22285,7.04922 L 0.21468,6.91851 L 0.20673,6.78900 L 0.19901,6.66070 L 0.19150,6.53362 L 0.18420,6.40774 L 0.17712,6.28308 L 0.17024,6.15963 L 0.16356,6.03739 L 0.15708,5.91636 L 0.15079,5.79655 L 0.14469,5.67795 L 0.13878,5.56057 L 0.13305,5.44440 L 0.12750,5.32945 L 0.12212,5.21572 L 0.11691,5.10320 L 0.11187,4.99190 L 0.10700,4.88182 L 0.10228,4.77296 L 0.09773,4.66531 L 0.09332,4.55889 L 0.08907,4.45368 L 0.08496,4.34970 L 0.08100,4.24693 L 0.07717,4.14539 L 0.07349,4.04507 L 0.06993,3.94597 L 0.06651,3.84809 L 0.06321,3.75144 L 0.06004,3.65601 L 0.05699,3.56180 L 0.05405,3.46881 L 0.05123,3.37705 L 0.04852,3.28652 L 0.04592,3.19721 L 0.04343,3.10912 L 0.04104,3.02226 L 0.03874,2.93663 L 0.03655,2.85222 L 0.03445,2.76904 L 0.03244,2.68708 L 0.03052,2.60635 L 0.02869,2.52685 L 0.02694,2.44858 L 0.02527,2.37153 L 0.02368,2.29572 L 0.02217,2.22113 L 0.02073,2.14777 L 0.01936,2.07563 L 0.01806,2.00473 L 0.01683,1.93506 L 0.01566,1.86661 L 0.01455,1.79940 L 0.01350,1.73341 L 0.01251,1.66866 L 0.01158,1.60513 L 0.01070,1.54284 L 0.00987,1.48177 L 0.00909,1.42194 L 0.00835,1.36334 L 0.00766,1.30597 L 0.00702,1.24983 L 0.00642,1.19492 L 0.00585,1.14125 L 0.00533,1.08880 L 0.00484,1.03759 L 0.00438,0.98761 L 0.00396,0.93887 L 0.00357,0.89135 L 0.00321,0.84507 L 0.00288,0.80002 L 0.00257,0.75620 L 0.00229,0.71362 L 0.00203,0.67227 L 0.00180,0.63215 L 0.00158,0.59327 L 0.00139,0.55562 L 0.00121,0.51920 L 0.00105,0.48402 L 0.00091,0.45007 L 0.00078,0.41735 L 0.00067,0.38587 L 0.00057,0.35562 L 0.00048,0.32660 L 0.00040,0.29882 L 0.00033,0.27228 L 0.00027,0.24697 L 0.00022,0.22289 L 0.00018,0.20005 L 0.00014,0.17844 L 0.00011,0.15806 L 0.00009,0.13892 L 0.00007,0.12102 L 0.00005,0.10435 L 0.00004,0.08891 L 0.00003,0.07471 L 0.00002,0.06175 L 0.00001,0.05001 L 0.00001,0.03952 L 0.00000,0.03026 L 0.00000,0.02223 L 0.00000,0.01544 L 0.00000,0.00988 L 0.00000,0.00556 L 0.00000,0.00247 L 0.00000,0.00062 L 0.00000,0.00000 Z">
      <desc>optics:glass:1.6000</desc>
    </path>

    <!-- Punto objeto (rojo) -->
    <circle cx="-160.000" cy="0" r="3.000" style="fill:#dd2200;stroke:none"/>

    <!-- Punto imagen (verde) -->
    <circle cx="240.000" cy="0" r="3.000" style="fill:#00aa33;stroke:none"/>

    <!-- Haces de rayos desde el punto objeto -->
    <path style="fill:none;stroke:#ff6600;stroke-width:1px" d="M -160.000,0 L -109.380,-6.215">
      <desc>optics:beam</desc>
    </path>
    <path style="fill:none;stroke:#ff6600;stroke-width:1px" d="M -160.000,0 L -109.243,-4.977">
      <desc>optics:beam</desc>
    </path>
    <path style="fill:none;stroke:#ff6600;stroke-width:1px" d="M -160.000,0 L -109.137,-3.735">
      <desc>optics:beam</desc>
    </path>
    <path style="fill:none;stroke:#ff6600;stroke-width:1px" d="M -160.000,0 L -109.061,-2.491">
      <desc>optics:beam</desc>
    </path>
    <path style="fill:none;stroke:#ff6600;stroke-width:1px" d="M -160.000,0 L -109.015,-1.246">
      <desc>optics:beam</desc>
    </path>
    <path style="fill:none;stroke:#ff6600;stroke-width:1px" d="M -160.000,0 L -109.000,0.000">
      <desc>optics:beam</desc>
    </path>
    <path style="fill:none;stroke:#ff6600;stroke-width:1px" d="M -160.000,0 L -109.015,1.246">
      <desc>optics:beam</desc>
    </path>
    <path style="fill:none;stroke:#ff6600;stroke-width:1px" d="M -160.000,0 L -109.061,2.491">
      <desc>optics:beam</desc>
    </path>
    <path style="fill:none;stroke:#ff6600;stroke-width:1px" d="M -160.000,0 L -109.137,3.735">
      <desc>optics:beam</desc>
    </path>
    <path style="fill:none;stroke:#ff6600;stroke-width:1px" d="M -160.000,0 L -109.243,4.977">
      <desc>optics:beam</desc>
    </path>
    <path style="fill:none;stroke:#ff6600;stroke-width:1px" d="M -160.000,0 L -109.380,6.215">
      <desc>optics:beam</desc>
    </path>

  <g inkscape:groupmode="layer" inkscape:label="generated_beams"><path style="fill:none;stroke:#ff6600;stroke-width:1px" d="M 110.62 72.607 L 221.743 58.9636 L 238.212 58.7909 L 520 84.4711"/><path style="fill:none;stroke:#ff6600;stroke-width:1px" d="M 110.757 73.845 L 221.11 63.0243 L 238.863 62.8734 L 520 83.1521"/><path style="fill:none;stroke:#ff6600;stroke-width:1px" d="M 110.863 75.087 L 220.622 67.0272 L 239.364 66.9082 L 520 82.1406"/><path style="fill:none;stroke:#ff6600;stroke-width:1px" d="M 110.939 76.331 L 220.275 70.9843 L 239.718 70.8996 L 520 80.9297"/><path style="fill:none;stroke:#ff6600;stroke-width:1px" d="M 110.985 77.576 L 220.069 74.9102 L 239.93 74.8672 L 520 79.8364"/><path style="fill:none;stroke:#ff6600;stroke-width:1px" d="M 111 78.822 L 220 78.822 L 240 78.822 L 520 78.822"/><path style="fill:none;stroke:#ff6600;stroke-width:1px" d="M 110.985 80.068 L 220.069 82.7338 L 239.93 82.7768 L 520 77.8076"/><path style="fill:none;stroke:#ff6600;stroke-width:1px" d="M 110.939 81.313 L 220.275 86.6597 L 239.718 86.7444 L 520 76.7143"/><path style="fill:none;stroke:#ff6600;stroke-width:1px" d="M 110.863 82.557 L 220.622 90.6168 L 239.364 90.7358 L 520 75.5034"/><path style="fill:none;stroke:#ff6600;stroke-width:1px" d="M 110.757 83.799 L 221.11 94.6197 L 238.863 94.7706 L 520 74.4919"/><path style="fill:none;stroke:#ff6600;stroke-width:1px" d="M 110.62 85.037 L 221.743 98.6804 L 238.212 98.8531 L 520 73.1729"/></g></g>
</svg>