<svg xmlns:inkscape="http://www.inkscape.org/namespaces/inkscape" xmlns:sodipodi="http://sodipodi.sourceforge.net/DTD/sodipodi-0.0.dtd" xmlns="http://www.w3.org/2000/svg" xmlns:xlink="http://www.w3.org/1999/xlink" version="1.1" width="520.00" height="157.64" viewBox="0 0 520.00 157.64" inkscape:version="1.4" sodipodi:docname="lsoe_raytracing.svg">
  <sodipodi:namedview inkscape:current-layer="layer1" inkscape:document-units="px" units="px"/>
  <g inkscape:label="Layer 1" inkscape:groupmode="layer" id="layer1" transform="translate(220, 78.822)">

    <!-- Eje &#243;ptico -->
    <path style="fill:none;stroke:#aaaaaa;stroke-width:0.5px;stroke-dasharray:6,3" d="M -208.000,0 L 288.000,0"/>

    <!-- Lente LSOE (&#963;=0.0, n&#8321;=1.6) -->
    <path style="opacity:0.8;fill:#b7c2dd;stroke:#000000;stroke-width:0.8px;stroke-linejoin:round" d="M 0.00000,0.00000 L 0.02822,-2.50611 L 0.11274,-5.01126 L 0.25317,-7.51453 L 0.44883,-10.01501 L 0.69884,-12.51183 L 1.00206,-15.00417 L 1.35716,-17.49129 L 1.76265,-19.97250 L 2.21688,-22.44719 L 2.71809,-24.91483 L 3.26441,-27.37497 L 3.85393,-29.82724 L 4.48469,-32.27133 L 5.15472,-34.70702 L 5.86206,-37.13414 L 6.60475,-39.55259 L 7.38089,-41.96234 L 8.18862,-44.36338 L 9.02614,-46.75578 L 10.61527,-46.68512 L 11.51323,-44.30731 L 12.37446,-41.91857 L 13.19744,-39.51905 L 13.98064,-37.10896 L 14.72254,-34.68856 L 15.42159,-32.25817 L 16.07629,-29.81814 L 16.68513,-27.36891 L 17.24667,-24.91096 L 17.75951,-22.44484 L 18.22233,-19.97116 L 18.63388,-17.49059 L 18.99304,-15.00384 L 19.29877,-12.51169 L 19.55018,-10.01497 L 19.74652,-7.51452 L 19.88720,-5.01126 L 19.97178,-2.50611 L 20.00000,-0.00000 L 19.97178,2.50611 L 19.88720,5.01126 L 19.74652,7.51452 L 19.55018,10.01497 L 19.29877,12.51169 L 18.99304,15.00384 L 18.63388,17.49059 L 18.22233,19.97116 L 17.75951,22.44484 L 17.24667,24.91096 L 16.68513,27.36891 L 16.07629,29.81814 L 15.42159,32.25817 L 14.72254,34.68856 L 13.98064,37.10896 L 13.19744,39.51905 L 12.37446,41.91857 L 11.51323,44.30731 L 10.61527,46.68512 L 9.02614,46.75578 L 8.18862,44.36338 L 7.38089,41.96234 L 6.60475,39.55259 L 5.86206,37.13414 L 5.15472,34.70702 L 4.48469,32.27133 L 3.85393,29.82724 L 3.26441,27.37497 L 2.71809,24.91483 L 2.21688,22.44719 L 1.76265,19.97250 L 1.35716,17.49129 L 1.00206,15.00417 L 0.69884,12.51183 L 0.44883,10.01501 L 0.25317,7.51453 L 0.11274,5.01126 L 0.02822,2.50611 L 0.00000,0.00000 Z">
      <desc>optics:glass:1.6000</desc>
    </path>

    <!-- Punto objeto (rojo) -->
    <circle cx="-160.000" cy="0" r="3.000" style="fill:#dd2200;stroke:none"/>

    <!-- Punto imagen (verde) -->
    <circle cx="240.000" cy="0" r="3.000" style="fill:#00aa33;stroke:none"/>

    <!-- Haces de rayos desde el punto objeto -->
    <path style="fill:none;stroke:#ff6600;stroke-width:1px" d="M -210.620,-6.215 L -160.000,0">
      <desc>optics:beam</desc>
    </path>
    <path style="fill:none;stroke:#ff6600;stroke-width:1px" d="M -210.757,-4.977 L -160.000,0">
      <desc>optics:beam</desc>
    </path>
    <path style="fill:none;stroke:#ff6600;stroke-width:1px" d="M -210.863,-3.735 L -160.000,0">
      <desc>optics:beam</desc>
    </path>
    <path style="fill:none;stroke:#ff6600;stroke-width:1px" d="M -210.939,-2.491 L -160.000,0">
      <desc>optics:beam</desc>
    </path>
    <path style="fill:none;stroke:#ff6600;stroke-width:1px" d="M -210.985,-1.246 L -160.000,0">
      <desc>optics:beam</desc>
    </path>
    <path style="fill:none;stroke:#ff6600;stroke-width:1px" d="M -211.000,0.000 L -160.000,0">
      <desc>optics:beam</desc>
    </path>
    <path style="fill:none;stroke:#ff6600;stroke-width:1px" d="M -210.985,1.246 L -160.000,0">
      <desc>optics:beam</desc>
    </path>
    <path style="fill:none;stroke:#ff6600;stroke-width:1px" d="M -210.939,2.491 L -160.000,0">
      <desc>optics:beam</desc>
    </path>
    <path style="fill:none;stroke:#ff6600;stroke-width:1px" d="M -210.863,3.735 L -160.000,0">
      <desc>optics:beam</desc>
    </path>
    <path style="fill:none;stroke:#ff6600;stroke-width:1px" d="M -210.757,4.977 L -160.000,0">
      <desc>optics:beam</desc>
    </path>
    <path style="fill:none;stroke:#ff6600;stroke-width:1px" d="M -210.620,6.215 L -160.000,0">
      <desc>optics:beam</desc>
    </path>

  <g inkscape:groupmode="layer" inkscape:label="generated_beams"><path style="fill:none;stroke:#ff6600;stroke-width:1px" d="M 60 78.822 L 221.744 98.6805 L 238.2 98.9132 L 520 73.3401"/><path style="fill:none;stroke:#ff6600;stroke-width:1px" d="M 60 78.822 L 221.115 94.6202 L 238.86 94.745 L 520 73.3715"/><path style="fill:none;stroke:#ff6600;stroke-width:1px" d="M 60 78.822 L 220.627 90.6173 L 239.356 90.7682 L 520 77.3852"/><path style="fill:none;stroke:#ff6600;stroke-width:1px" d="M 60 78.822 L 220.278 86.6599 L 239.719 86.6818 L 520 73.9485"/><path style="fill:none;stroke:#ff6600;stroke-width:1px" d="M 60 78.822 L 220.076 82.734 L 239.923 82.7858 L 520 78.2793"/><path style="fill:none;stroke:#ff6600;stroke-width:1px" d="M 60 78.822 L 220 78.822 L 239.999 78.7376 L 520 78.7362"/><path style="fill:none;stroke:#ff6600;stroke-width:1px" d="M 60 78.822 L 220.076 74.91 L 239.923 74.8582 L 520 79.3647"/><path style="fill:none;stroke:#ff6600;stroke-width:1px" d="M 60 78.822 L 220.278 70.9841 L 239.719 70.9622 L 520 83.6955"/><path style="fill:none;stroke:#ff6600;stroke-width:1px" d="M 60 78.822 L 220.627 67.0267 L 239.356 66.8758 L 520 80.2588"/><path style="fill:none;stroke:#ff6600;stroke-width:1px" d="M 60 78.822 L 221.115 63.0238 L 238.86 62.899 L 520 84.2725"/><path style="fill:none;stroke:#ff6600;stroke-width:1px" d="M 60 78.822 L 221.744 58.9635 L 238.2 58.7308 L 520 84.3039"/></g></g>
</svg>