<?xml version="1.0" encoding="UTF-8" standalone="no"?>
<svg xmlns:inkscape="http://www.inkscape.org/namespaces/inkscape" xmlns="http://www.w3.org/2000/svg" version="1.1" width="720.00" height="372.27" viewBox="0 0 720.00 372.27">
<g inkscape:label="Layer 1" inkscape:groupmode="layer" id="layer1" transform="translate(260.000,186.136)">
<path style="fill:none;stroke:#aaa;stroke-width:0.5px;stroke-dasharray:6,3" d="M -248.000,0 L 448.000,0"/>
<path style="opacity:0.8;fill:#b7c2dd;stroke:#000;stroke-width:0.8px" d="M 0.00000,-0.00000 L 0.00186,-0.46046 L 0.00742,-0.92092 L 0.01670,-1.38139 L 0.02968,-1.84187 L 0.04638,-2.30237 L 0.06678,-2.76289 L 0.09090,-3.22343 L 0.11872,-3.68401 L 0.15025,-4.14461 L 0.18549,-4.60525 L 0.22444,-5.06593 L 0.26710,-5.52665 L 0.31346,-5.98742 L 0.36352,-6.44825 L 0.41730,-6.90912 L 0.47477,-7.37006 L 0.53595,-7.83106 L 0.60083,-8.29213 L 0.66941,-8.75327 L 0.74169,-9.21449 L 0.81767,-9.67578 L 0.89735,-10.13715 L 0.98072,-10.59861 L 1.06779,-11.06016 L 1.15856,-11.52180 L 1.25301,-11.98354 L 1.35116,-12.44537 L 1.45300,-12.90731 L 1.55852,-13.36936 L 1.66773,-13.83151 L 1.78063,-14.29378 L 1.89721,-14.75616 L 2.01746,-15.21866 L 2.14140,-15.68129 L 2.26902,-16.14403 L 2.40031,-16.60691 L 2.53527,-17.06992 L 2.67391,-17.53306 L 2.81621,-17.99633 L 2.96218,-18.45975 L 3.11182,-18.92330 L 3.26512,-19.38700 L 3.42208,-19.85085 L 3.58269,-20.31484 L 3.74696,-20.77899 L 3.91488,-21.24329 L 4.08646,-21.70774 L 4.26168,-22.17235 L 4.44054,-22.63712 L 4.62305,-23.10206 L 4.80919,-23.56715 L 4.99897,-24.03241 L 5.19239,-24.49784 L 5.38943,-24.96343 L 5.59010,-25.42919 L 5.79440,-25.89513 L 6.00231,-26.36123 L 6.21384,-26.82751 L 6.42899,-27.29397 L 6.64775,-27.76060 L 6.87012,-28.22740 L 7.09609,-28.69438 L 7.32566,-29.16154 L 7.55883,-29.62888 L 7.79559,-30.09640 L 8.03594,-30.56409 L 8.27988,-31.03197 L 8.52740,-31.50003 L 8.77850,-31.96826 L 9.03317,-32.43668 L 9.29141,-32.90527 L 9.55322,-33.37405 L 9.81860,-33.84300 L 10.08753,-34.31214 L 10.36002,-34.78145 L 10.63605,-35.25094 L 10.91563,-35.72061 L 11.19876,-36.19045 L 11.48542,-36.66047 L 11.77561,-37.13066 L 12.06934,-37.60103 L 12.36658,-38.07157 L 12.66735,-38.54227 L 12.97163,-39.01315 L 13.27942,-39.48419 L 13.59071,-39.95540 L 13.90551,-40.42678 L 14.22380,-40.89831 L 14.54558,-41.37001 L 14.87085,-41.84186 L 15.19959,-42.31387 L 15.53181,-42.78603 L 15.86751,-43.25834 L 16.20666,-43.73080 L 16.54928,-44.20340 L 16.89535,-44.67615 L 17.24488,-45.14904 L 17.59784,-45.62206 L 17.95424,-46.09521 L 18.31408,-46.56850 L 18.67734,-47.04191 L 19.04403,-47.51544 L 19.41413,-47.98909 L 19.78764,-48.46286 L 20.16455,-48.93674 L 20.54487,-49.41072 L 20.92858,-49.88481 L 21.31567,-50.35900 L 21.70614,-50.83328 L 22.09999,-51.30766 L 22.49721,-51.78212 L 22.89779,-52.25666 L 23.30173,-52.73128 L 23.70901,-53.20596 L 24.11965,-53.68072 L 24.53361,-54.15554 L 24.95091,-54.63041 L 25.37154,-55.10533 L 25.79548,-55.58030 L 26.22273,-56.05531 L 26.65329,-56.53036 L 27.08715,-57.00543 L 27.52430,-57.48052 L 27.96473,-57.95563 L 28.40844,-58.43076 L 28.85542,-58.90588 L 29.30567,-59.38101 L 29.75918,-59.85613 L 30.21593,-60.33123 L 30.67593,-60.80631 L 31.13916,-61.28136 L 31.60563,-61.75638 L 32.07531,-62.23136 L 32.54821,-62.70629 L 33.02431,-63.18116 L 33.50362,-63.65597 L 33.98612,-64.13071 L 34.47180,-64.60538 L 34.96066,-65.07996 L 35.45269,-65.55444 L 35.94789,-66.02883 L 36.44624,-66.50310 L 36.94773,-66.97727 L 37.45236,-67.45130 L 37.96013,-67.92521 L 38.47102,-68.39898 L 38.98502,-68.87259 L 39.50213,-69.34606 L 40.02234,-69.81935 L 40.54565,-70.29248 L 41.07203,-70.76542 L 41.60150,-71.23817 L 42.13403,-71.71072 L 42.66961,-72.18307 L 43.20825,-72.65520 L 43.74993,-73.12710 L 44.29465,-73.59877 L 44.84239,-74.07019 L 45.39315,-74.54136 L 45.94691,-75.01227 L 46.50368,-75.48290 L 47.06344,-75.95326 L 47.62618,-76.42332 L 48.19190,-76.89308 L 48.76058,-77.36254 L 49.33221,-77.83167 L 49.90680,-78.30047 L 50.48432,-78.76894 L 51.06477,-79.23705 L 51.64815,-79.70481 L 52.23443,-80.17219 L 52.82362,-80.63920 L 53.41570,-81.10581 L 54.01067,-81.57203 L 54.60851,-82.03784 L 55.20922,-82.50322 L 55.81279,-82.96817 L 56.41920,-83.43269 L 57.02845,-83.89675 L 57.64053,-84.36034 L 58.25543,-84.82346 L 58.87314,-85.28610 L 59.49365,-85.74825 L 60.11695,-86.20988 L 60.74303,-86.67100 L 61.37188,-87.13160 L 62.00349,-87.59165 L 62.63786,-88.05116 L 63.27497,-88.51010 L 63.91481,-88.96847 L 64.55737,-89.42626 L 65.20264,-89.88345 L 65.85062,-90.34004 L 66.50129,-90.79601 L 67.15464,-91.25135 L 67.81066,-91.70606 L 68.46935,-92.16011 L 69.13068,-92.61350 L 69.79466,-93.06621 L 70.46127,-93.51824 L 71.13050,-93.96958 L 71.80234,-94.42020 L 72.47679,-94.87010 L 73.15382,-95.31928 L 73.83343,-95.76770 L 74.51561,-96.21538 L 75.20035,-96.66228 L 75.88763,-97.10841 L 76.57746,-97.55374 L 77.26981,-97.99828 L 77.96467,-98.44199 L 78.66204,-98.88489 L 79.36191,-99.32694 L 80.06426,-99.76814 L 80.76908,-100.20849 L 81.47636,-100.64795 L 82.18609,-101.08653 L 82.89827,-101.52422 L 83.61287,-101.96099 L 84.32989,-102.39684 L 85.04932,-102.83176 L 85.77114,-103.26573 L 86.49534,-103.69874 L 87.22192,-104.13079 L 87.95086,-104.56185 L 88.68216,-104.99191 L 89.41579,-105.42097 L 90.15175,-105.84901 L 90.89002,-106.27602 L 91.63060,-106.70199 L 92.37348,-107.12690 L 93.11864,-107.55075 L 93.86607,-107.97351 L 94.61575,-108.39519 L 95.36769,-108.81576 L 96.12186,-109.23521 L 96.87825,-109.65354 L 97.63686,-110.07072 L 98.39767,-110.48676 L 99.16067,-110.90163 L 99.92584,-111.31532 L 100.69318,-111.72782 L 101.46268,-112.13913 L 102.23431,-112.54922 L 103.00808,-112.95809 L 103.78396,-113.36571 L 104.56195,-113.77209 L 105.34204,-114.17721 L 106.12420,-114.58106 L 106.90844,-114.98362 L 107.69473,-115.38488 L 108.48307,-115.78484 L 109.27344,-116.18347 L 110.06583,-116.58077 L 110.86024,-116.97672 L 111.65663,-117.37131 L 112.45501,-117.76454 L 113.25537,-118.15638 L 114.05768,-118.54684 L 114.86194,-118.93588 L 115.66814,-119.32351 L 116.47625,-119.70971 L 117.28628,-120.09447 L 118.09820,-120.47778 L 118.91201,-120.85962 L 119.72769,-121.23999 L 120.54523,-121.61887 L 121.36462,-121.99624 L 122.18584,-122.37211 L 123.00888,-122.74646 L 123.83373,-123.11927 L 124.66038,-123.49053 L 125.48881,-123.86024 L 126.31901,-124.22837 L 127.15097,-124.59493 L 127.98467,-124.95989 L 128.82010,-125.32325 L 129.65725,-125.68499 L 130.49611,-126.04511 L 131.33666,-126.40359 L 132.17890,-126.76041 L 133.02279,-127.11558 L 133.86835,-127.46908 L 134.71554,-127.82089 L 135.56436,-128.17101 L 136.41480,-128.51942 L 137.26683,-128.86611 L 138.12046,-129.21108 L 138.97566,-129.55431 L 139.83242,-129.89578 L 140.69073,-130.23550 L 141.55057,-130.57344 L 142.41194,-130.90961 L 143.27482,-131.24397 L 144.13919,-131.57654 L 145.00504,-131.90728 L 145.87237,-132.23620 L 146.74114,-132.56329 L 147.61136,-132.88853 L 148.48301,-133.21190 L 149.35607,-133.53341 L 150.23054,-133.85304 L 151.10639,-134.17078 L 151.98361,-134.48663 L 152.86220,-134.80056 L 153.74213,-135.11256 L 154.62340,-135.42264 L 155.50599,-135.73078 L 156.38988,-136.03696 L 157.27507,-136.34119 L 158.16153,-136.64344 L 159.04926,-136.94370 L 159.93825,-137.24198 L 160.82846,-137.53826 L 161.71991,-137.83252 L 162.61256,-138.12476 L 163.50641,-138.41497 L 164.40144,-138.70314 L 165.29765,-138.98926 L 166.19500,-139.27331 L 167.09350,-139.55530 L 167.99312,-139.83520 L 168.89386,-140.11302 L 169.79570,-140.38874 L 170.69862,-140.66235 L 171.60261,-140.93384 L 172.50766,-141.20321 L 173.41376,-141.47044 L 174.32088,-141.73552 L 175.22902,-141.99845 L 176.13816,-142.25922 L 177.04829,-142.51781 L 177.95939,-142.77423 L 178.87145,-143.02845 L 179.78446,-143.28047 L 180.69839,-143.53029 L 181.61325,-143.77789 L 182.52900,-144.02326 L 183.44565,-144.26640 L 184.36316,-144.50730 L 185.28154,-144.74595 L 186.20077,-144.98234 L 187.12082,-145.21646 L 188.04170,-145.44830 L 188.96337,-145.67786 L 189.88584,-145.90513 L 190.80908,-146.13010 L 191.73308,-146.35276 L 192.65783,-146.57310 L 193.58331,-146.79112 L 194.50951,-147.00680 L 195.43641,-147.22015 L 196.36400,-147.43115 L 197.29226,-147.63979 L 198.22118,-147.84607 L 199.15075,-148.04997 L 200.08095,-148.25150 L 201.01177,-148.45065 L 201.94319,-148.64740 L 202.87520,-148.84174 L 203.80779,-149.03369 L 204.74093,-149.22321 L 205.67462,-149.41032 L 206.60884,-149.59499 L 207.54357,-149.77723 L 208.47881,-149.95703 L 209.41454,-150.13437 L 210.35073,-150.30926 L 211.28739,-150.48169 L 212.22449,-150.65164 L 213.16202,-150.81912 L 214.09996,-150.98411 L 215.03830,-151.14662 L 215.97703,-151.30663 L 216.91614,-151.46413 L 217.85559,-151.61913 L 218.79539,-151.77161 L 219.73552,-151.92157 L 220.67596,-152.06900 L 221.61671,-152.21390 L 222.55773,-152.35626 L 223.49902,-152.49608 L 224.44057,-152.63334 L 225.38236,-152.76805 L 226.32438,-152.90019 L 227.26661,-153.02977 L 228.20903,-153.15677 L 229.15164,-153.28119 L 230.09441,-153.40303 L 231.03734,-153.52228 L 231.98041,-153.63894 L 232.92360,-153.75299 L 233.86689,-153.86444 L 234.81029,-153.97327 L 235.75376,-154.07949 L 236.69730,-154.18309 L 237.64089,-154.28407 L 238.58452,-154.38241 L 239.52817,-154.47812 L 240.47183,-154.57119 L 241.41548,-154.66162 L 242.35911,-154.74939 L 243.30270,-154.83452 L 244.24624,-154.91698 L 245.18971,-154.99678 L 246.13311,-155.07392 L 247.07640,-155.14839 L 248.01959,-155.22018 L 248.96266,-155.28929 L 249.90559,-155.35572 L 250.84836,-155.41947 L 251.79097,-155.48052 L 252.73339,-155.53888 L 253.67562,-155.59454 L 254.61764,-155.64750 L 255.55943,-155.69776 L 256.50098,-155.74530 L 257.44227,-155.79014 L 258.38329,-155.83226 L 259.32404,-155.87166 L 260.26448,-155.90834 L 261.20461,-155.94229 L 262.14441,-155.97352 L 263.08386,-156.00201 L 264.02297,-156.02777 L 264.96170,-156.05079 L 265.90004,-156.07108 L 266.83798,-156.08862 L 267.77551,-156.10341 L 268.71261,-156.11546 L 269.64927,-156.12476 L 270.58546,-156.13131 L 271.52119,-156.13510 L 272.45643,-156.13613 L 273.39116,-156.13440 L 274.32538,-156.12991 L 275.25907,-156.12266 L 276.19221,-156.11264 L 277.12480,-156.09985 L 278.05681,-156.08430 L 278.98823,-156.06597 L 279.91905,-156.04487 L 280.84925,-156.02099 L 281.77882,-155.99434 L 282.70774,-155.96490 L 283.63600,-155.93269 L 284.56359,-155.89770 L 285.49049,-155.85992 L 286.41669,-155.81936 L 287.34217,-155.77602 L 288.26692,-155.72988 L 289.19092,-155.68097 L 290.11416,-155.62926 L 291.03663,-155.57476 L 291.95830,-155.51748 L 292.87918,-155.45740 L 293.79923,-155.39453 L 294.71846,-155.32887 L 295.63684,-155.26041 L 296.55435,-155.18916 L 297.47100,-155.11512 L 298.38675,-155.03828 L 299.30161,-154.95865 L 300.21554,-154.87623 L 301.12855,-154.79101 L 302.04061,-154.70299 L 302.95171,-154.61218 L 303.86184,-154.51857 L 304.77098,-154.42217 L 305.67912,-154.32297 L 306.58624,-154.22098 L 307.49234,-154.11619 L 308.39739,-154.00861 L 309.30138,-153.89823 L 310.20430,-153.78507 L 311.10614,-153.66911 L 312.00688,-153.55035 L 312.90650,-153.42881 L 313.80500,-153.30447 L 314.70235,-153.17735 L 315.59856,-153.04744 L 316.49359,-152.91473 L 317.38744,-152.77925 L 318.28009,-152.64097 L 319.17154,-152.49991 L 320.06175,-152.35607 L 320.95074,-152.20944 L 321.83847,-152.06004 L 322.72493,-151.90785 L 323.61012,-151.75289 L 324.49401,-151.59515 L 325.37660,-151.43464 L 326.25787,-151.27135 L 327.13780,-151.10529 L 328.01639,-150.93646 L 328.89361,-150.76487 L 329.76946,-150.59050 L 330.64393,-150.41338 L 331.51699,-150.23349 L 332.38864,-150.05085 L 333.25886,-149.86544 L 334.12763,-149.67728 L 334.99496,-149.48637 L 335.86081,-149.29271 L 336.72518,-149.09630 L 337.58806,-148.89715 L 338.44943,-148.69525 L 339.30927,-148.49061 L 340.16758,-148.28324 L 341.02434,-148.07313 L 341.87954,-147.86029 L 342.73317,-147.64472 L 343.58520,-147.42642 L 344.43564,-147.20540 L 345.28446,-146.98166 L 346.13165,-146.75521 L 346.97721,-146.52604 L 347.82110,-146.29416 L 348.66334,-146.05958 L 349.50389,-145.82229 L 350.34275,-145.58230 L 351.17990,-145.33962 L 352.01533,-145.09424 L 352.84903,-144.84618 L 353.68099,-144.59543 L 354.51119,-144.34199 L 355.33962,-144.08588 L 356.16627,-143.82710 L 356.99112,-143.56565 L 357.81416,-143.30153 L 358.63538,-143.03474 L 359.45477,-142.76531 L 360.27231,-142.49321 L 361.08799,-142.21847 L 361.90180,-141.94109 L 362.71372,-141.66106 L 363.52375,-141.37840 L 364.33186,-141.09310 L 365.13806,-140.80518 L 365.94232,-140.51464 L 366.74463,-140.22148 L 367.54499,-139.92571 L 368.34337,-139.62732 L 369.13976,-139.32634 L 369.93417,-139.02276 L 370.72656,-138.71658 L 371.51693,-138.40782 L 372.30527,-138.09647 L 373.09156,-137.78254 L 373.87580,-137.46605 L 374.65796,-137.14698 L 375.43805,-136.82535 L 376.21604,-136.50117 L 376.99192,-136.17443 L 377.76569,-135.84515 L 378.53732,-135.51333 L 379.30682,-135.17897 L 380.07416,-134.84209 L 380.83933,-134.50268 L 381.60233,-134.16075 L 382.36314,-133.81631 L 383.12175,-133.46937 L 383.87814,-133.11992 L 384.63231,-132.76798 L 385.38425,-132.41356 L 386.13393,-132.05665 L 386.88136,-131.69727 L 387.62652,-131.33541 L 388.36940,-130.97110 L 389.10998,-130.60433 L 389.84825,-130.23510 L 390.58421,-129.86344 L 391.31784,-129.48933 L 392.04914,-129.11280 L 392.77808,-128.73384 L 393.50466,-128.35246 L 394.22886,-127.96867 L 394.95068,-127.58248 L 395.67011,-127.19389 L 396.38713,-126.80291 L 397.10173,-126.40954 L 397.81391,-126.01380 L 398.52364,-125.61569 L 399.23092,-125.21522 L 399.93574,-124.81239 L 400.63809,-124.40721 L 401.33796,-123.99970 L 402.03533,-123.58984 L 402.73019,-123.17767 L 403.42254,-122.76317 L 404.11237,-122.34636 L 404.79965,-121.92725 L 405.48439,-121.50584 L 406.16657,-121.08214 L 406.84618,-120.65616 L 407.52321,-120.22790 L 408.19766,-119.79738 L 408.86950,-119.36460 L 409.53873,-118.92957 L 410.20534,-118.49230 L 410.86932,-118.05279 L 411.53065,-117.61106 L 412.18934,-117.16711 L 412.84536,-116.72094 L 413.49871,-116.27258 L 414.14938,-115.82201 L 414.79736,-115.36927 L 415.44263,-114.91434 L 416.08519,-114.45725 L 416.72503,-113.99799 L 417.36214,-113.53658 L 417.99651,-113.07303 L 418.62812,-112.60734 L 419.25697,-112.13952 L 419.88305,-111.66958 L 420.50635,-111.19754 L 421.12686,-110.72339 L 421.74457,-110.24715 L 422.35947,-109.76882 L 422.97155,-109.28842 L 423.58080,-108.80595 L 424.18721,-108.32142 L 424.79078,-107.83485 L 425.39149,-107.34623 L 425.98933,-106.85559 L 426.58430,-106.36292 L 427.17638,-105.86824 L 427.76557,-105.37156 L 428.35185,-104.87288 L 428.93523,-104.37222 L 429.51568,-103.86958 L 430.09320,-103.36497 L 430.66779,-102.85841 L 431.23942,-102.34990 L 431.80810,-101.83945 L 432.37382,-101.32707 L 432.93656,-100.81277 L 433.49632,-100.29656 L 434.05309,-99.77845 L 434.60685,-99.25845 L 435.15761,-98.73657 L 435.70535,-98.21282 L 436.25007,-97.68721 L 436.79175,-97.15974 L 437.33039,-96.63044 L 437.86597,-96.09930 L 438.39850,-95.56634 L 438.92797,-95.03156 L 439.45435,-94.49499 L 439.97766,-93.95662 L 440.49787,-93.41647 L 441.01498,-92.87455 L 441.52898,-92.33087 L 442.03987,-91.78543 L 442.54764,-91.23825 L 443.05227,-90.68935 L 443.55376,-90.13872 L 444.05211,-89.58638 L 444.54731,-89.03234 L 445.03934,-88.47661 L 445.52820,-87.91920 L 446.01388,-87.36012 L 446.49638,-86.79938 L 446.97569,-86.23699 L 447.45179,-85.67297 L 447.92469,-85.10732 L 448.39437,-84.54006 L 448.86084,-83.97118 L 449.32407,-83.40072 L 449.78407,-82.82867 L 450.24082,-82.25504 L 450.69433,-81.67985 L 451.14458,-81.10312 L 451.59156,-80.52484 L 452.03527,-79.94503 L 452.47570,-79.36370 L 452.91285,-78.78086 L 453.34671,-78.19652 L 453.77727,-77.61070 L 454.20452,-77.02341 L 454.62846,-76.43465 L 455.04909,-75.84443 L 455.46639,-75.25278 L 455.88035,-74.65969 L 456.29099,-74.06519 L 456.69827,-73.46927 L 457.10221,-72.87196 L 457.50279,-72.27327 L 457.90001,-71.67320 L 458.29386,-71.07176 L 458.68433,-70.46898 L 459.07142,-69.86485 L 459.45513,-69.25940 L 459.83545,-68.65263 L 460.21236,-68.04455 L 460.58587,-67.43518 L 460.95597,-66.82452 L 461.32266,-66.21259 L 461.68592,-65.59941 L 462.04576,-64.98497 L 462.40216,-64.36930 L 462.75512,-63.75241 L 463.10465,-63.13430 L 463.45072,-62.51499 L 463.79334,-61.89448 L 464.13249,-61.27281 L 464.46819,-60.64996 L 464.80041,-60.02596 L 465.12915,-59.40082 L 465.45442,-58.77455 L 465.77620,-58.14716 L 466.09449,-57.51866 L 466.40929,-56.88906 L 466.72058,-56.25839 L 467.02837,-55.62664 L 467.33265,-54.99383 L 467.63342,-54.35998 L 467.93066,-53.72509 L 468.22439,-53.08918 L 468.51458,-52.45226 L 468.80124,-51.81433 L 469.08437,-51.17543 L 469.36395,-50.53554 L 469.63998,-49.89470 L 469.91247,-49.25290 L 470.18140,-48.61017 L 470.44678,-47.96651 L 470.70859,-47.32193 L 470.96683,-46.67646 L 471.22150,-46.03010 L 471.47260,-45.38285 L 471.72012,-44.73475 L 471.96406,-44.08579 L 472.20441,-43.43599 L 472.44117,-42.78537 L 472.67434,-42.13393 L 472.90391,-41.48169 L 473.12988,-40.82865 L 473.35225,-40.17484 L 473.57101,-39.52026 L 473.78616,-38.86494 L 473.99769,-38.20886 L 474.20560,-37.55207 L 474.40990,-36.89455 L 474.61057,-36.23634 L 474.80761,-35.57743 L 475.00103,-34.91784 L 475.19081,-34.25759 L 475.37695,-33.59669 L 475.55946,-32.93514 L 475.73832,-32.27297 L 475.91354,-31.61018 L 476.08512,-30.94680 L 476.25304,-30.28282 L 476.41731,-29.61826 L 476.57792,-28.95314 L 476.73488,-28.28747 L 476.88818,-27.62125 L 477.03782,-26.95452 L 477.18379,-26.28726 L 477.32609,-25.61951 L 477.46473,-24.95127 L 477.59969,-24.28255 L 477.73098,-23.61337 L 477.85860,-22.94374 L 477.98254,-22.27367 L 478.10279,-21.60318 L 478.21937,-20.93228 L 478.33227,-20.26097 L 478.44148,-19.58928 L 478.54700,-18.91722 L 478.64884,-18.24480 L 478.74699,-17.57203 L 478.84144,-16.89892 L 478.93221,-16.22549 L 479.01928,-15.55175 L 479.10265,-14.87772 L 479.18233,-14.20340 L 479.25831,-13.52881 L 479.33059,-12.85396 L 479.39917,-12.17887 L 479.46405,-11.50355 L 479.52523,-10.82800 L 479.58270,-10.15225 L 479.63648,-9.47631 L 479.68654,-8.80019 L 479.73290,-8.12390 L 479.77556,-7.44745 L 479.81451,-6.77086 L 479.84975,-6.09414 L 479.88128,-5.41731 L 479.90910,-4.74037 L 479.93322,-4.06334 L 479.95362,-3.38624 L 479.97032,-2.70907 L 479.98330,-2.03185 L 479.99258,-1.35459 L 479.99814,-0.67730 L 480.00000,-0.00000 L 479.99814,0.67730 L 479.99258,1.35459 L 479.98330,2.03185 L 479.97032,2.70907 L 479.95362,3.38624 L 479.93322,4.06334 L 479.90910,4.74037 L 479.88128,5.41731 L 479.84975,6.09414 L 479.81451,6.77086 L 479.77556,7.44745 L 479.73290,8.12390 L 479.68654,8.80019 L 479.63648,9.47631 L 479.58270,10.15225 L 479.52523,10.82800 L 479.46405,11.50355 L 479.39917,12.17887 L 479.33059,12.85396 L 479.25831,13.52881 L 479.18233,14.20340 L 479.10265,14.87772 L 479.01928,15.55175 L 478.93221,16.22549 L 478.84144,16.89892 L 478.74699,17.57203 L 478.64884,18.24480 L 478.54700,18.91722 L 478.44148,19.58928 L 478.33227,20.26097 L 478.21937,20.93228 L 478.10279,21.60318 L 477.98254,22.27367 L 477.85860,22.94374 L 477.73098,23.61337 L 477.59969,24.28255 L 477.46473,24.95127 L 477.32609,25.61951 L 477.18379,26.28726 L 477.03782,26.95452 L 476.88818,27.62125 L 476.73488,28.28747 L 476.57792,28.95314 L 476.41731,29.61826 L 476.25304,30.28282 L 476.08512,30.94680 L 475.91354,31.61018 L 475.73832,32.27297 L 475.55946,32.93514 L 475.37695,33.59669 L 475.19081,34.25759 L 475.00103,34.91784 L 474.80761,35.57743 L 474.61057,36.23634 L 474.40990,36.89455 L 474.20560,37.55207 L 473.99769,38.20886 L 473.78616,38.86494 L 473.57101,39.52026 L 473.35225,40.17484 L 473.12988,40.82865 L 472.90391,41.48169 L 472.67434,42.13393 L 472.44117,42.78537 L 472.20441,43.43599 L 471.96406,44.08579 L 471.72012,44.73475 L 471.47260,45.38285 L 471.22150,46.03010 L 470.96683,46.67646 L 470.70859,47.32193 L 470.44678,47.96651 L 470.18140,48.61017 L 469.91247,49.25290 L 469.63998,49.89470 L 469.36395,50.53554 L 469.08437,51.17543 L 468.80124,51.81433 L 468.51458,52.45226 L 468.22439,53.08918 L 467.93066,53.72509 L 467.63342,54.35998 L 467.33265,54.99383 L 467.02837,55.62664 L 466.72058,56.25839 L 466.40929,56.88906 L 466.09449,57.51866 L 465.77620,58.14716 L 465.45442,58.77455 L 465.12915,59.40082 L 464.80041,60.02596 L 464.46819,60.64996 L 464.13249,61.27281 L 463.79334,61.89448 L 463.45072,62.51499 L 463.10465,63.13430 L 462.75512,63.75241 L 462.40216,64.36930 L 462.04576,64.98497 L 461.68592,65.59941 L 461.32266,66.21259 L 460.95597,66.82452 L 460.58587,67.43518 L 460.21236,68.04455 L 459.83545,68.65263 L 459.45513,69.25940 L 459.07142,69.86485 L 458.68433,70.46898 L 458.29386,71.07176 L 457.90001,71.67320 L 457.50279,72.27327 L 457.10221,72.87196 L 456.69827,73.46927 L 456.29099,74.06519 L 455.88035,74.65969 L 455.46639,75.25278 L 455.04909,75.84443 L 454.62846,76.43465 L 454.20452,77.02341 L 453.77727,77.61070 L 453.34671,78.19652 L 452.91285,78.78086 L 452.47570,79.36370 L 452.03527,79.94503 L 451.59156,80.52484 L 451.14458,81.10312 L 450.69433,81.67985 L 450.24082,82.25504 L 449.78407,82.82867 L 449.32407,83.40072 L 448.86084,83.97118 L 448.39437,84.54006 L 447.92469,85.10732 L 447.45179,85.67297 L 446.97569,86.23699 L 446.49638,86.79938 L 446.01388,87.36012 L 445.52820,87.91920 L 445.03934,88.47661 L 444.54731,89.03234 L 444.05211,89.58638 L 443.55376,90.13872 L 443.05227,90.68935 L 442.54764,91.23825 L 442.03987,91.78543 L 441.52898,92.33087 L 441.01498,92.87455 L 440.49787,93.41647 L 439.97766,93.95662 L 439.45435,94.49499 L 438.92797,95.03156 L 438.39850,95.56634 L 437.86597,96.09930 L 437.33039,96.63044 L 436.79175,97.15974 L 436.25007,97.68721 L 435.70535,98.21282 L 435.15761,98.73657 L 434.60685,99.25845 L 434.05309,99.77845 L 433.49632,100.29656 L 432.93656,100.81277 L 432.37382,101.32707 L 431.80810,101.83945 L 431.23942,102.34990 L 430.66779,102.85841 L 430.09320,103.36497 L 429.51568,103.86958 L 428.93523,104.37222 L 428.35185,104.87288 L 427.76557,105.37156 L 427.17638,105.86824 L 426.58430,106.36292 L 425.98933,106.85559 L 425.39149,107.34623 L 424.79078,107.83485 L 424.18721,108.32142 L 423.58080,108.80595 L 422.97155,109.28842 L 422.35947,109.76882 L 421.74457,110.24715 L 421.12686,110.72339 L 420.50635,111.19754 L 419.88305,111.66958 L 419.25697,112.13952 L 418.62812,112.60734 L 417.99651,113.07303 L 417.36214,113.53658 L 416.72503,113.99799 L 416.08519,114.45725 L 415.44263,114.91434 L 414.79736,115.36927 L 414.14938,115.82201 L 413.49871,116.27258 L 412.84536,116.72094 L 412.18934,117.16711 L 411.53065,117.61106 L 410.86932,118.05279 L 410.20534,118.49230 L 409.53873,118.92957 L 408.86950,119.36460 L 408.19766,119.79738 L 407.52321,120.22790 L 406.84618,120.65616 L 406.16657,121.08214 L 405.48439,121.50584 L 404.79965,121.92725 L 404.11237,122.34636 L 403.42254,122.76317 L 402.73019,123.17767 L 402.03533,123.58984 L 401.33796,123.99970 L 400.63809,124.40721 L 399.93574,124.81239 L 399.23092,125.21522 L 398.52364,125.61569 L 397.81391,126.01380 L 397.10173,126.40954 L 396.38713,126.80291 L 395.67011,127.19389 L 394.95068,127.58248 L 394.22886,127.96867 L 393.50466,128.35246 L 392.77808,128.73384 L 392.04914,129.11280 L 391.31784,129.48933 L 390.58421,129.86344 L 389.84825,130.23510 L 389.10998,130.60433 L 388.36940,130.97110 L 387.62652,131.33541 L 386.88136,131.69727 L 386.13393,132.05665 L 385.38425,132.41356 L 384.63231,132.76798 L 383.87814,133.11992 L 383.12175,133.46937 L 382.36314,133.81631 L 381.60233,134.16075 L 380.83933,134.50268 L 380.07416,134.84209 L 379.30682,135.17897 L 378.53732,135.51333 L 377.76569,135.84515 L 376.99192,136.17443 L 376.21604,136.50117 L 375.43805,136.82535 L 374.65796,137.14698 L 373.87580,137.46605 L 373.09156,137.78254 L 372.30527,138.09647 L 371.51693,138.40782 L 370.72656,138.71658 L 369.93417,139.02276 L 369.13976,139.32634 L 368.34337,139.62732 L 367.54499,139.92571 L 366.74463,140.22148 L 365.94232,140.51464 L 365.13806,140.80518 L 364.33186,141.09310 L 363.52375,141.37840 L 362.71372,141.66106 L 361.90180,141.94109 L 361.08799,142.21847 L 360.27231,142.49321 L 359.45477,142.76531 L 358.63538,143.03474 L 357.81416,143.30153 L 356.99112,143.56565 L 356.16627,143.82710 L 355.33962,144.08588 L 354.51119,144.34199 L 353.68099,144.59543 L 352.84903,144.84618 L 352.01533,145.09424 L 351.17990,145.33962 L 350.34275,145.58230 L 349.50389,145.82229 L 348.66334,146.05958 L 347.82110,146.29416 L 346.97721,146.52604 L 346.13165,146.75521 L 345.28446,146.98166 L 344.43564,147.20540 L 343.58520,147.42642 L 342.73317,147.64472 L 341.87954,147.86029 L 341.02434,148.07313 L 340.16758,148.28324 L 339.30927,148.49061 L 338.44943,148.69525 L 337.58806,148.89715 L 336.72518,149.09630 L 335.86081,149.29271 L 334.99496,149.48637 L 334.12763,149.67728 L 333.25886,149.86544 L 332.38864,150.05085 L 331.51699,150.23349 L 330.64393,150.41338 L 329.76946,150.59050 L 328.89361,150.76487 L 328.01639,150.93646 L 327.13780,151.10529 L 326.25787,151.27135 L 325.37660,151.43464 L 324.49401,151.59515 L 323.61012,151.75289 L 322.72493,151.90785 L 321.83847,152.06004 L 320.95074,152.20944 L 320.06175,152.35607 L 319.17154,152.49991 L 318.28009,152.64097 L 317.38744,152.77925 L 316.49359,152.91473 L 315.59856,153.04744 L 314.70235,153.17735 L 313.80500,153.30447 L 312.90650,153.42881 L 312.00688,153.55035 L 311.10614,153.66911 L 310.20430,153.78507 L 309.30138,153.89823 L 308.39739,154.00861 L 307.49234,154.11619 L 306.58624,154.22098 L 305.67912,154.32297 L 304.77098,154.42217 L 303.86184,154.51857 L 302.95171,154.61218 L 302.04061,154.70299 L 301.12855,154.79101 L 300.21554,154.87623 L 299.30161,154.95865 L 298.38675,155.03828 L 297.47100,155.11512 L 296.55435,155.18916 L 295.63684,155.26041 L 294.71846,155.32887 L 293.79923,155.39453 L 292.87918,155.45740 L 291.95830,155.51748 L 291.03663,155.57476 L 290.11416,155.62926 L 289.19092,155.68097 L 288.26692,155.72988 L 287.34217,155.77602 L 286.41669,155.81936 L 285.49049,155.85992 L 284.56359,155.89770 L 283.63600,155.93269 L 282.70774,155.96490 L 281.77882,155.99434 L 280.84925,156.02099 L 279.91905,156.04487 L 278.98823,156.06597 L 278.05681,156.08430 L 277.12480,156.09985 L 276.19221,156.11264 L 275.25907,156.12266 L 274.32538,156.12991 L 273.39116,156.13440 L 272.45643,156.13613 L 271.52119,156.13510 L 270.58546,156.13131 L 269.64927,156.12476 L 268.71261,156.11546 L 267.77551,156.10341 L 266.83798,156.08862 L 265.90004,156.07108 L 264.96170,156.05079 L 264.02297,156.02777 L 263.08386,156.00201 L 262.14441,155.97352 L 261.20461,155.94229 L 260.26448,155.90834 L 259.32404,155.87166 L 258.38329,155.83226 L 257.44227,155.79014 L 256.50098,155.74530 L 255.55943,155.69776 L 254.61764,155.64750 L 253.67562,155.59454 L 252.73339,155.53888 L 251.79097,155.48052 L 250.84836,155.41947 L 249.90559,155.35572 L 248.96266,155.28929 L 248.01959,155.22018 L 247.07640,155.14839 L 246.13311,155.07392 L 245.18971,154.99678 L 244.24624,154.91698 L 243.30270,154.83452 L 242.35911,154.74939 L 241.41548,154.66162 L 240.47183,154.57119 L 239.52817,154.47812 L 238.58452,154.38241 L 237.64089,154.28407 L 236.69730,154.18309 L 235.75376,154.07949 L 234.81029,153.97327 L 233.86689,153.86444 L 232.92360,153.75299 L 231.98041,153.63894 L 231.03734,153.52228 L 230.09441,153.40303 L 229.15164,153.28119 L 228.20903,153.15677 L 227.26661,153.02977 L 226.32438,152.90019 L 225.38236,152.76805 L 224.44057,152.63334 L 223.49902,152.49608 L 222.55773,152.35626 L 221.61671,152.21390 L 220.67596,152.06900 L 219.73552,151.92157 L 218.79539,151.77161 L 217.85559,151.61913 L 216.91614,151.46413 L 215.97703,151.30663 L 215.03830,151.14662 L 214.09996,150.98411 L 213.16202,150.81912 L 212.22449,150.65164 L 211.28739,150.48169 L 210.35073,150.30926 L 209.41454,150.13437 L 208.47881,149.95703 L 207.54357,149.77723 L 206.60884,149.59499 L 205.67462,149.41032 L 204.74093,149.22321 L 203.80779,149.03369 L 202.87520,148.84174 L 201.94319,148.64740 L 201.01177,148.45065 L 200.08095,148.25150 L 199.15075,148.04997 L 198.22118,147.84607 L 197.29226,147.63979 L 196.36400,147.43115 L 195.43641,147.22015 L 194.50951,147.00680 L 193.58331,146.79112 L 192.65783,146.57310 L 191.73308,146.35276 L 190.80908,146.13010 L 189.88584,145.90513 L 188.96337,145.67786 L 188.04170,145.44830 L 187.12082,145.21646 L 186.20077,144.98234 L 185.28154,144.74595 L 184.36316,144.50730 L 183.44565,144.26640 L 182.52900,144.02326 L 181.61325,143.77789 L 180.69839,143.53029 L 179.78446,143.28047 L 178.87145,143.02845 L 177.95939,142.77423 L 177.04829,142.51781 L 176.13816,142.25922 L 175.22902,141.99845 L 174.32088,141.73552 L 173.41376,141.47044 L 172.50766,141.20321 L 171.60261,140.93384 L 170.69862,140.66235 L 169.79570,140.38874 L 168.89386,140.11302 L 167.99312,139.83520 L 167.09350,139.55530 L 166.19500,139.27331 L 165.29765,138.98926 L 164.40144,138.70314 L 163.50641,138.41497 L 162.61256,138.12476 L 161.71991,137.83252 L 160.82846,137.53826 L 159.93825,137.24198 L 159.04926,136.94370 L 158.16153,136.64344 L 157.27507,136.34119 L 156.38988,136.03696 L 155.50599,135.73078 L 154.62340,135.42264 L 153.74213,135.11256 L 152.86220,134.80056 L 151.98361,134.48663 L 151.10639,134.17078 L 150.23054,133.85304 L 149.35607,133.53341 L 148.48301,133.21190 L 147.61136,132.88853 L 146.74114,132.56329 L 145.87237,132.23620 L 145.00504,131.90728 L 144.13919,131.57654 L 143.27482,131.24397 L 142.41194,130.90961 L 141.55057,130.57344 L 140.69073,130.23550 L 139.83242,129.89578 L 138.97566,129.55431 L 138.12046,129.21108 L 137.26683,128.86611 L 136.41480,128.51942 L 135.56436,128.17101 L 134.71554,127.82089 L 133.86835,127.46908 L 133.02279,127.11558 L 132.17890,126.76041 L 131.33666,126.40359 L 130.49611,126.04511 L 129.65725,125.68499 L 128.82010,125.32325 L 127.98467,124.95989 L 127.15097,124.59493 L 126.31901,124.22837 L 125.48881,123.86024 L 124.66038,123.49053 L 123.83373,123.11927 L 123.00888,122.74646 L 122.18584,122.37211 L 121.36462,121.99624 L 120.54523,121.61887 L 119.72769,121.23999 L 118.91201,120.85962 L 118.09820,120.47778 L 117.28628,120.09447 L 116.47625,119.70971 L 115.66814,119.32351 L 114.86194,118.93588 L 114.05768,118.54684 L 113.25537,118.15638 L 112.45501,117.76454 L 111.65663,117.37131 L 110.86024,116.97672 L 110.06583,116.58077 L 109.27344,116.18347 L 108.48307,115.78484 L 107.69473,115.38488 L 106.90844,114.98362 L 106.12420,114.58106 L 105.34204,114.17721 L 104.56195,113.77209 L 103.78396,113.36571 L 103.00808,112.95809 L 102.23431,112.54922 L 101.46268,112.13913 L 100.69318,111.72782 L 99.92584,111.31532 L 99.16067,110.90163 L 98.39767,110.48676 L 97.63686,110.07072 L 96.87825,109.65354 L 96.12186,109.23521 L 95.36769,108.81576 L 94.61575,108.39519 L 93.86607,107.97351 L 93.11864,107.55075 L 92.37348,107.12690 L 91.63060,106.70199 L 90.89002,106.27602 L 90.15175,105.84901 L 89.41579,105.42097 L 88.68216,104.99191 L 87.95086,104.56185 L 87.22192,104.13079 L 86.49534,103.69874 L 85.77114,103.26573 L 85.04932,102.83176 L 84.32989,102.39684 L 83.61287,101.96099 L 82.89827,101.52422 L 82.18609,101.08653 L 81.47636,100.64795 L 80.76908,100.20849 L 80.06426,99.76814 L 79.36191,99.32694 L 78.66204,98.88489 L 77.96467,98.44199 L 77.26981,97.99828 L 76.57746,97.55374 L 75.88763,97.10841 L 75.20035,96.66228 L 74.51561,96.21538 L 73.83343,95.76770 L 73.15382,95.31928 L 72.47679,94.87010 L 71.80234,94.42020 L 71.13050,93.96958 L 70.46127,93.51824 L 69.79466,93.06621 L 69.13068,92.61350 L 68.46935,92.16011 L 67.81066,91.70606 L 67.15464,91.25135 L 66.50129,90.79601 L 65.85062,90.34004 L 65.20264,89.88345 L 64.55737,89.42626 L 63.91481,88.96847 L 63.27497,88.51010 L 62.63786,88.05116 L 62.00349,87.59165 L 61.37188,87.13160 L 60.74303,86.67100 L 60.11695,86.20988 L 59.49365,85.74825 L 58.87314,85.28610 L 58.25543,84.82346 L 57.64053,84.36034 L 57.02845,83.89675 L 56.41920,83.43269 L 55.81279,82.96817 L 55.20922,82.50322 L 54.60851,82.03784 L 54.01067,81.57203 L 53.41570,81.10581 L 52.82362,80.63920 L 52.23443,80.17219 L 51.64815,79.70481 L 51.06477,79.23705 L 50.48432,78.76894 L 49.90680,78.30047 L 49.33221,77.83167 L 48.76058,77.36254 L 48.19190,76.89308 L 47.62618,76.42332 L 47.06344,75.95326 L 46.50368,75.48290 L 45.94691,75.01227 L 45.39315,74.54136 L 44.84239,74.07019 L 44.29465,73.59877 L 43.74993,73.12710 L 43.20825,72.65520 L 42.66961,72.18307 L 42.13403,71.71072 L 41.60150,71.23817 L 41.07203,70.76542 L 40.54565,70.29248 L 40.02234,69.81935 L 39.50213,69.34606 L 38.98502,68.87259 L 38.47102,68.39898 L 37.96013,67.92521 L 37.45236,67.45130 L 36.94773,66.97727 L 36.44624,66.50310 L 35.94789,66.02883 L 35.45269,65.55444 L 34.96066,65.07996 L 34.47180,64.60538 L 33.98612,64.13071 L 33.50362,63.65597 L 33.02431,63.18116 L 32.54821,62.70629 L 32.07531,62.23136 L 31.60563,61.75638 L 31.13916,61.28136 L 30.67593,60.80631 L 30.21593,60.33123 L 29.75918,59.85613 L 29.30567,59.38101 L 28.85542,58.90588 L 28.40844,58.43076 L 27.96473,57.95563 L 27.52430,57.48052 L 27.08715,57.00543 L 26.65329,56.53036 L 26.22273,56.05531 L 25.79548,55.58030 L 25.37154,55.10533 L 24.95091,54.63041 L 24.53361,54.15554 L 24.11965,53.68072 L 23.70901,53.20596 L 23.30173,52.73128 L 22.89779,52.25666 L 22.49721,51.78212 L 22.09999,51.30766 L 21.70614,50.83328 L 21.31567,50.35900 L 20.92858,49.88481 L 20.54487,49.41072 L 20.16455,48.93674 L 19.78764,48.46286 L 19.41413,47.98909 L 19.04403,47.51544 L 18.67734,47.04191 L 18.31408,46.56850 L 17.95424,46.09521 L 17.59784,45.62206 L 17.24488,45.14904 L 16.89535,44.67615 L 16.54928,44.20340 L 16.20666,43.73080 L 15.86751,43.25834 L 15.53181,42.78603 L 15.19959,42.31387 L 14.87085,41.84186 L 14.54558,41.37001 L 14.22380,40.89831 L 13.90551,40.42678 L 13.59071,39.95540 L 13.27942,39.48419 L 12.97163,39.01315 L 12.66735,38.54227 L 12.36658,38.07157 L 12.06934,37.60103 L 11.77561,37.13066 L 11.48542,36.66047 L 11.19876,36.19045 L 10.91563,35.72061 L 10.63605,35.25094 L 10.36002,34.78145 L 10.08753,34.31214 L 9.81860,33.84300 L 9.55322,33.37405 L 9.29141,32.90527 L 9.03317,32.43668 L 8.77850,31.96826 L 8.52740,31.50003 L 8.27988,31.03197 L 8.03594,30.56409 L 7.79559,30.09640 L 7.55883,29.62888 L 7.32566,29.16154 L 7.09609,28.69438 L 6.87012,28.22740 L 6.64775,27.76060 L 6.42899,27.29397 L 6.21384,26.82751 L 6.00231,26.36123 L 5.79440,25.89513 L 5.59010,25.42919 L 5.38943,24.96343 L 5.19239,24.49784 L 4.99897,24.03241 L 4.80919,23.56715 L 4.62305,23.10206 L 4.44054,22.63712 L 4.26168,22.17235 L 4.08646,21.70774 L 3.91488,21.24329 L 3.74696,20.77899 L 3.58269,20.31484 L 3.42208,19.85085 L 3.26512,19.38700 L 3.11182,18.92330 L 2.96218,18.45975 L 2.81621,17.99633 L 2.67391,17.53306 L 2.53527,17.06992 L 2.40031,16.60691 L 2.26902,16.14403 L 2.14140,15.68129 L 2.01746,15.21866 L 1.89721,14.75616 L 1.78063,14.29378 L 1.66773,13.83151 L 1.55852,13.36936 L 1.45300,12.90731 L 1.35116,12.44537 L 1.25301,11.98354 L 1.15856,11.52180 L 1.06779,11.06016 L 0.98072,10.59861 L 0.89735,10.13715 L 0.81767,9.67578 L 0.74169,9.21449 L 0.66941,8.75327 L 0.60083,8.29213 L 0.53595,7.83106 L 0.47477,7.37006 L 0.41730,6.90912 L 0.36352,6.44825 L 0.31346,5.98742 L 0.26710,5.52665 L 0.22444,5.06593 L 0.18549,4.60525 L 0.15025,4.14461 L 0.11872,3.68401 L 0.09090,3.22343 L 0.06678,2.76289 L 0.04638,2.30237 L 0.02968,1.84187 L 0.01670,1.38139 L 0.00742,0.92092 L 0.00186,0.46046 Z"><desc>optics:glass:1.5000</desc></path>
<circle cx="-200.000" cy="0" r="3" style="fill:#dd2200"/>
<circle cx="400.000" cy="0" r="3" style="fill:#00aa33"/>
<path style="fill:none;stroke:#ff6600;stroke-width:1px" d="M -250.225,-8.856 L -200.000,0"><desc>optics:beam</desc></path>
<path style="fill:none;stroke:#ff6600;stroke-width:1px" d="M -250.655,-5.921 L -200.000,0"><desc>optics:beam</desc></path>
<path style="fill:none;stroke:#ff6600;stroke-width:1px" d="M -250.914,-2.965 L -200.000,0"><desc>optics:beam</desc></path>
<path style="fill:none;stroke:#ff6600;stroke-width:1px" d="M -251.000,0.000 L -200.000,0"><desc>optics:beam</desc></path>
<path style="fill:none;stroke:#ff6600;stroke-width:1px" d="M -250.914,2.965 L -200.000,0"><desc>optics:beam</desc></path>
<path style="fill:none;stroke:#ff6600;stroke-width:1px" d="M -250.655,5.921 L -200.000,0"><desc>optics:beam</desc></path>
<path style="fill:none;stroke:#ff6600;stroke-width:1px" d="M -250.225,8.856 L -200.000,0"><desc>optics:beam</desc></path>
</g></svg>